<svg width="180" height="70" viewBox="0 0 180 70" fill="none" xmlns="http://www.w3.org/2000/svg">
<path d="M61.8 0L30.3 18.1L30.4 30.4L61.9 12.3L61.8 0Z" fill="#6F45FF"/>
<path d="M61.8 20L30.3 38.1L30.4 50.4L61.9 32.4L61.8 20Z" fill="#6F45FF"/>
<path d="M61.9 52.2V39.9L30.9 57.7L10.7001 46.1L10.8 6.2L0.0999756 0L0 52.2L31 70L61.9 52.2Z" fill="#6F45FF"/>
<path d="M95.1 48.8H90.6V8.5H95.1V48.8Z" fill="#6F45FF"/>
<path d="M127.5 37.3H107.1C107.4 42.3 110.7 45.4 115.4 45.4C119.3 45.4 121.9 43.6 122.8 40.7L127.3 41C126.7 43.4 125.4 45.4 123.3 47C121.2 48.6 118.6 49.3 115.6 49.3C111.7 49.3 108.5 48.1001 106.1 45.6001C103.7 43.1001 102.5 39.7 102.5 35.5C102.5 31.3 103.7 27.9 106.1 25.5C108.5 23.1 111.7 21.8 115.5 21.8C119.3 21.8 122.2 23 124.4 25.3C126.6 27.6 127.7 30.8 127.7 34.7V37.3H127.5ZM107.1 33.7H123.1C122.9 28.9 120.3 25.8 115.4 25.8C110.6 25.8 107.4 28.6 107.1 33.7Z" fill="#6F45FF"/>
<path d="M152.7 29.9L148.2 30.2C147.8 27.2 146.1 25.8 142.8 25.8C139.5 25.7 137.8 27.2 137.8 29.6C137.8 30.7 138.3 31.6 139.1 32.1C139.7 32.4 139.9 32.5 140.7 32.7L141.7 33C142.2 33.1 143.5 33.4 144 33.5C150.3 35 153.2 36.8 153.2 41.1C153.2 46.3 149.4 49.3 143.2 49.3C137.2 49.3 133.4 46.4 132.7 41.3L137.2 41C137.6 44 139.6 45.5 143.3 45.5C146.6 45.5 148.7 44.1 148.7 41.6C148.7 40.3 148.2 39.4 147.4 38.9C146.5 38.3 144.8 37.8 142.2 37.1L139.2 36.4C138.5 36.2 137.7 35.9 136.8 35.5C134.3 34.5 133.4 32.9 133.2 29.7C133.2 25 136.8 21.9 142.9 22C148.6 21.9 152 25.1 152.7 29.9Z" fill="#6F45FF"/>
<path d="M178.6 29.9L174.1 30.2C173.7 27.2 172 25.8 168.7 25.8C165.4 25.7 163.7 27.2 163.7 29.6C163.7 30.7 164.2 31.6 165 32.1C165.6 32.4 165.8 32.5 166.6 32.7L167.6 33C168.1 33.1 169.4 33.4 169.9 33.5C176.2 35 179.1 36.8 179.1 41.1C179.1 46.3 175.3 49.3 169.1 49.3C163.1 49.3 159.3 46.4 158.6 41.3L163.1 41C163.5 44 165.5 45.5 169.2 45.5C172.5 45.5 174.6 44.1 174.6 41.6C174.6 40.3 174.1 39.4 173.3 38.9C172.4 38.3 170.7 37.8 168.1 37.1L165.1 36.4C164.4 36.2 163.6 35.9 162.7 35.5C160.2 34.5 159.3 32.9 159.1 29.7C159.1 25 162.7 21.9 168.8 22C174.5 21.9 177.9 25.1 178.6 29.9Z" fill="#6F45FF"/>
</svg>
