<svg width="22" height="22" viewBox="0 0 22 22" fill="none" xmlns="http://www.w3.org/2000/svg">
  <circle cx="11" cy="11" r="11" fill="url(#paint0_linear)"/>
  <circle cx="10.9999" cy="11.0004" r="9.77778" fill="#1A0E3B"/>
  <path d="M13.4895 11.5225C13.734 11.0955 14.1285 11.0955 14.3731 11.5225L15.8956 14.2247C16.1402 14.6517 15.9401 15 15.4511 15H12.3837C11.9002 15 11.7002 14.6517 11.9391 14.2247L13.4895 11.5225ZM10.5443 6.32022C10.7888 5.89326 11.1778 5.89326 11.4223 6.32022L11.7613 6.9382L12.5615 8.35955C12.756 8.76405 12.756 9.24157 12.5615 9.64607L9.8775 14.3483C9.633 14.7303 9.22734 14.9719 8.77723 15H6.54891C6.0599 15 5.85985 14.6573 6.10435 14.2247L10.5443 6.32022Z" fill="white"/>
  <defs>
    <linearGradient id="paint0_linear" x1="0" y1="11" x2="22" y2="11" gradientUnits="userSpaceOnUse">
      <stop stop-color="#6F45FF"/>
      <stop offset="1" stop-color="#FF6365"/>
    </linearGradient>
  </defs>
</svg>
