<svg width="22" height="22" viewBox="0 0 22 22" fill="none" xmlns="http://www.w3.org/2000/svg">
  <circle cx="11" cy="11" r="11" fill="url(#paint0_linear)"/>
  <circle cx="10.9999" cy="11.0004" r="9.77778" fill="#1A0E3B"/>
  <path d="M10.451 5.11495C10.7591 4.96168 11.2277 4.96168 11.5358 5.11495L14.6788 6.6789C14.8643 6.77121 14.9662 6.90876 14.9845 7.05075H14.9875V14.912C14.9834 15.0669 14.8805 15.2207 14.6788 15.3211L11.5358 16.885C11.2277 17.0383 10.7591 17.0383 10.451 16.885L7.30798 15.3211C7.10711 15.2212 7.01071 15.0662 7.00594 14.912C7.00547 14.8968 7.00541 14.8841 7.00586 14.8736L7.00584 7.10124C7.00552 7.09273 7.0055 7.08423 7.00575 7.07576L7.00594 7.05075L7.00735 7.05074C7.02131 6.90719 7.11856 6.77316 7.30798 6.6789L10.451 5.11495ZM14.4927 11.4365L11.5358 12.9078C11.2277 13.0611 10.7591 13.0611 10.451 12.9078L7.50059 11.4398V14.8964L10.451 16.3568C10.6176 16.4407 10.7906 16.5224 10.9596 16.5328L10.9934 16.5339C11.1696 16.5344 11.3406 16.4501 11.5141 16.3704L14.4927 14.8839V11.4365ZM6.49472 14.7411C6.49472 15.0422 6.53188 15.2402 6.60566 15.3797C6.6668 15.4953 6.75855 15.5836 6.92608 15.6911L6.93564 15.6972C6.97241 15.7206 7.01291 15.745 7.06221 15.7737L7.12035 15.8073L7.29887 15.9088L7.04282 16.3076L6.843 16.1939L6.80942 16.1745C6.75164 16.1409 6.70376 16.1121 6.65909 16.0837C6.18163 15.7804 6.00357 15.4498 6.00005 14.762L6 14.7411H6.49472ZM10.746 9.32944C10.7231 9.33685 10.7016 9.34541 10.6821 9.35514L7.53903 10.9191C7.53573 10.9207 7.53258 10.9224 7.52959 10.924L7.52693 10.9254L7.53186 10.9281L7.53903 10.9317L10.6821 12.4957C10.7016 12.5054 10.7231 12.514 10.746 12.5214V9.32944ZM11.2408 9.32944V12.5214C11.2637 12.514 11.2852 12.5054 11.3047 12.4957L14.4478 10.9317C14.4511 10.9301 14.4542 10.9285 14.4572 10.9269L14.4599 10.9254L14.4549 10.9228L14.4478 10.9191L11.3047 9.35514C11.2852 9.34541 11.2637 9.33685 11.2408 9.32944ZM14.4927 7.6084L11.6732 9.01137L14.4927 10.4143V7.6084ZM7.50059 7.61168V10.4111L10.3136 9.01137L7.50059 7.61168ZM11.3047 5.52708C11.1413 5.44575 10.8455 5.44575 10.6821 5.52708L7.53903 7.09103C7.53573 7.09267 7.53258 7.0943 7.52959 7.0959L7.52693 7.09735L7.53186 7.10001L7.53903 7.10368L10.6821 8.66763C10.8455 8.74896 11.1413 8.74896 11.3047 8.66763L14.4478 7.10368C14.4511 7.10204 14.4542 7.10042 14.4572 7.09881L14.4599 7.09735L14.4549 7.09469L14.4478 7.09103L11.3047 5.52708ZM14.9572 5.69858L15.157 5.81227L15.1906 5.8317C15.2484 5.86529 15.2962 5.89416 15.3409 5.92253C15.8184 6.22578 15.9964 6.55641 15.9999 7.24419L16 7.26515H15.5053C15.5053 6.96395 15.4681 6.76598 15.3943 6.62651C15.3332 6.51092 15.2414 6.42258 15.0739 6.31508L15.0644 6.30898C15.0276 6.28563 14.9871 6.26117 14.9378 6.23242L14.8797 6.19887L14.7011 6.09738L14.9572 5.69858Z" fill="white"/>
  <defs>
    <linearGradient id="paint0_linear" x1="0" y1="11" x2="22" y2="11" gradientUnits="userSpaceOnUse">
      <stop stop-color="#6F45FF"/>
      <stop offset="1" stop-color="#FF6365"/>
    </linearGradient>
  </defs>
</svg>
