<svg width="22" height="22" viewBox="0 0 22 22" fill="none" xmlns="http://www.w3.org/2000/svg">
  <circle cx="11" cy="11" r="11" fill="url(#paint0_linear)"/>
  <circle cx="11.0001" cy="11.0004" r="9.77778" fill="#1A0E3B"/>
  <path d="M13.426 9.17245C13.2373 9.06598 12.9813 9.06598 12.7656 9.17245L11.2158 10.0641L10.1646 10.6364L8.6552 11.5414C8.46653 11.6479 8.21047 11.6479 7.99484 11.5414L6.80888 10.8361C6.62021 10.7296 6.47197 10.5033 6.47197 10.2638V8.89296C6.47197 8.68002 6.57978 8.45376 6.80888 8.32067L7.98136 7.64192C8.17004 7.53545 8.4261 7.53545 8.64173 7.64192L9.82768 8.34729C10.0164 8.45376 10.1646 8.68002 10.1646 8.91958V9.82459L11.2158 9.22568V8.29406C11.2158 8.08111 11.108 7.85486 10.8789 7.72177L8.68216 6.44411C8.49348 6.33764 8.23742 6.33764 8.0218 6.44411L5.7577 7.74839C5.52859 7.85486 5.42078 8.08111 5.42078 8.29406V10.8627C5.42078 11.0756 5.52859 11.3019 5.7577 11.435L7.98136 12.7126C8.17004 12.8191 8.4261 12.8191 8.64173 12.7126L10.1646 11.8342L11.2158 11.2353L12.7387 10.3569C12.9273 10.2505 13.1834 10.2505 13.399 10.3569L14.585 11.0357C14.7737 11.1422 14.9219 11.3684 14.9219 11.608V12.9655C14.9219 13.1784 14.8141 13.4047 14.585 13.5378L13.426 14.2165C13.2373 14.323 12.9813 14.323 12.7656 14.2165L11.5797 13.5378C11.391 13.4313 11.2427 13.2051 11.2427 12.9655V12.0871L10.1916 12.686V13.591C10.1916 13.804 10.2994 14.0302 10.5285 14.1633L12.7656 15.441C12.9543 15.5474 13.2104 15.5474 13.426 15.441L15.6631 14.1766C15.8518 14.0701 16 13.8439 16 13.6043V11.0224C16 10.8094 15.8922 10.5832 15.6631 10.4501L13.426 9.17245Z" fill="white"/>
  <defs>
    <linearGradient id="paint0_linear" x1="0" y1="11" x2="22" y2="11" gradientUnits="userSpaceOnUse">
      <stop stop-color="#6F45FF"/>
      <stop offset="1" stop-color="#FF6365"/>
    </linearGradient>
  </defs>
</svg>
