<svg width="32" height="32" viewBox="0 0 32 32" fill="none" xmlns="http://www.w3.org/2000/svg">
<path d="M15.9999 13.3333C12.7893 13.3333 9.33325 12.4987 9.33325 10.6667C9.33325 8.83467 12.7893 8 15.9999 8C19.2106 8 22.6666 8.83467 22.6666 10.6667C22.6666 12.4987 19.2106 13.3333 15.9999 13.3333ZM15.9999 9.33333C12.4999 9.33333 10.6666 10.324 10.6666 10.6667C10.6666 11.0093 12.4999 12 15.9999 12C19.4999 12 21.3333 11.0093 21.3333 10.6667C21.3333 10.324 19.4999 9.33333 15.9999 9.33333Z" fill="url(#paint0_linear)"/>
<path d="M15.9999 21.3333C12.7893 21.3333 9.33325 20.4987 9.33325 18.6667V10.6667C9.33325 10.2987 9.63192 10 9.99992 10C10.3679 10 10.6666 10.2987 10.6666 10.6667V18.6667C10.6666 19.0093 12.4999 20 15.9999 20C19.4999 20 21.3333 19.0093 21.3333 18.6667V10.6667C21.3333 10.2987 21.6319 10 21.9999 10C22.3679 10 22.6666 10.2987 22.6666 10.6667V18.6667C22.6666 20.4987 19.2106 21.3333 15.9999 21.3333Z" fill="url(#paint1_linear)"/>
<path d="M15.9999 17.3333C12.7893 17.3333 9.33325 16.4987 9.33325 14.6667C9.33325 14.2987 9.63192 14 9.99992 14C10.3679 14 10.6666 14.2987 10.6666 14.6667C10.6666 15.0093 12.4999 16 15.9999 16C19.4999 16 21.3333 15.0093 21.3333 14.6667C21.3333 14.2987 21.6319 14 21.9999 14C22.3679 14 22.6666 14.2987 22.6666 14.6667C22.6666 16.4987 19.2106 17.3333 15.9999 17.3333Z" fill="url(#paint2_linear)"/>
<path d="M15.9999 29.3333C15.6319 29.3333 15.3333 29.0347 15.3333 28.6667C15.3333 28.2987 15.6319 28 15.9999 28C23.3519 28 29.3333 22.0187 29.3333 14.6667C29.3333 14.2987 29.6319 14 29.9999 14C30.3679 14 30.6666 14.2987 30.6666 14.6667C30.6666 22.7533 24.0866 29.3333 15.9999 29.3333Z" fill="url(#paint3_linear)"/>
<path d="M29.2134 10.7333C28.9374 10.7333 28.6787 10.56 28.5827 10.2853C26.7294 4.93067 21.6721 1.33333 16.0001 1.33333C12.9654 1.33333 10.1227 2.32933 7.77739 4.212C7.48939 4.44133 7.07072 4.39733 6.84005 4.11067C6.60939 3.82267 6.65605 3.404 6.94272 3.17333C9.52672 1.09733 12.6587 0 16.0001 0C22.2401 0 27.8041 3.95867 29.8441 9.848C29.9641 10.1973 29.7801 10.576 29.4321 10.6973C29.3601 10.7213 29.2854 10.7333 29.2134 10.7333V10.7333Z" fill="url(#paint4_linear)"/>
<path d="M11.3333 28.52C11.2599 28.52 11.1853 28.508 11.1119 28.4827C5.26392 26.432 1.33325 20.88 1.33325 14.6667C1.33325 11.7067 2.21325 8.86534 3.87725 6.44934C4.08525 6.14401 4.49992 6.07067 4.80392 6.27734C5.10792 6.48667 5.18392 6.90134 4.97459 7.20401C3.46525 9.39867 2.66659 11.9787 2.66659 14.6667C2.66659 20.3147 6.23859 25.3613 11.5546 27.224C11.9013 27.3453 12.0839 27.7253 11.9626 28.0733C11.8666 28.348 11.6093 28.52 11.3333 28.52V28.52Z" fill="url(#paint5_linear)"/>
<path d="M17.9999 32C17.8293 32 17.6586 31.9347 17.5279 31.8053L14.8613 29.1387C14.6013 28.8787 14.6013 28.456 14.8613 28.196L17.5279 25.5294C17.7879 25.2694 18.2106 25.2694 18.4706 25.5294C18.7306 25.7893 18.7306 26.212 18.4706 26.472L16.2759 28.6667L18.4706 30.8613C18.7306 31.1213 18.7306 31.544 18.4706 31.804C18.3413 31.9347 18.1706 32 17.9999 32V32Z" fill="url(#paint6_linear)"/>
<path d="M5.56532 10.6666C5.27065 10.6666 5.00132 10.4706 4.92132 10.1733L4.05865 6.95326L0.838649 7.81592C0.485315 7.90526 0.117315 7.69992 0.0226488 7.34393C-0.0720179 6.98793 0.138649 6.62393 0.494649 6.52793L4.35865 5.49326C4.71598 5.40393 5.07998 5.60926 5.17465 5.96393L6.20932 9.82659C6.30532 10.1839 6.09332 10.5479 5.73865 10.6439C5.67998 10.6586 5.62265 10.6666 5.56532 10.6666V10.6666Z" fill="url(#paint7_linear)"/>
<path d="M29.3333 11.464C29.22 11.464 29.1053 11.436 29 11.3746L25.536 9.37462C25.2173 9.19062 25.108 8.78396 25.292 8.46396C25.476 8.14396 25.884 8.03462 26.2026 8.21996L29.0893 9.88662L30.756 6.99996C30.94 6.68129 31.3466 6.57062 31.6666 6.75596C31.9853 6.93996 32.0946 7.34662 31.9106 7.66662L29.9106 11.1306C29.7866 11.344 29.5626 11.464 29.3333 11.464Z" fill="url(#paint8_linear)"/>
<defs>
<linearGradient id="paint0_linear" x1="9.33325" y1="10.6667" x2="22.6666" y2="10.6667" gradientUnits="userSpaceOnUse">
<stop stop-color="#6F45FF"/>
<stop offset="1" stop-color="#FF6365"/>
</linearGradient>
<linearGradient id="paint1_linear" x1="9.33325" y1="15.6667" x2="22.6666" y2="15.6667" gradientUnits="userSpaceOnUse">
<stop stop-color="#6F45FF"/>
<stop offset="1" stop-color="#FF6365"/>
</linearGradient>
<linearGradient id="paint2_linear" x1="9.33325" y1="15.6667" x2="22.6666" y2="15.6667" gradientUnits="userSpaceOnUse">
<stop stop-color="#6F45FF"/>
<stop offset="1" stop-color="#FF6365"/>
</linearGradient>
<linearGradient id="paint3_linear" x1="15.3333" y1="21.6667" x2="30.6666" y2="21.6667" gradientUnits="userSpaceOnUse">
<stop stop-color="#6F45FF"/>
<stop offset="1" stop-color="#FF6365"/>
</linearGradient>
<linearGradient id="paint4_linear" x1="6.69336" y1="5.36667" x2="29.8807" y2="5.36667" gradientUnits="userSpaceOnUse">
<stop stop-color="#6F45FF"/>
<stop offset="1" stop-color="#FF6365"/>
</linearGradient>
<linearGradient id="paint5_linear" x1="1.33325" y1="17.3402" x2="12.0001" y2="17.3402" gradientUnits="userSpaceOnUse">
<stop stop-color="#6F45FF"/>
<stop offset="1" stop-color="#FF6365"/>
</linearGradient>
<linearGradient id="paint6_linear" x1="14.6663" y1="28.6672" x2="18.6656" y2="28.6672" gradientUnits="userSpaceOnUse">
<stop stop-color="#6F45FF"/>
<stop offset="1" stop-color="#FF6365"/>
</linearGradient>
<linearGradient id="paint7_linear" x1="0" y1="8.0695" x2="6.23243" y2="8.0695" gradientUnits="userSpaceOnUse">
<stop stop-color="#6F45FF"/>
<stop offset="1" stop-color="#FF6365"/>
</linearGradient>
<linearGradient id="paint8_linear" x1="25.2026" y1="9.06499" x2="32" y2="9.06499" gradientUnits="userSpaceOnUse">
<stop stop-color="#6F45FF"/>
<stop offset="1" stop-color="#FF6365"/>
</linearGradient>
</defs>
</svg>
