<svg width="24" height="24" viewBox="0 0 24 24" fill="none" xmlns="http://www.w3.org/2000/svg">
<path d="M24 11.9999C24 18.6274 18.6275 24 12.0001 24C5.37258 24 0 18.6274 0 11.9999C0 5.37255 5.37258 0 12.0001 0C18.6274 0 24 5.37255 24 11.9999Z" fill="#181616"/>
<path fill-rule="evenodd" clip-rule="evenodd" d="M8.8934 10.723L12.001 7.61677L15.1098 10.7255L16.917 8.91714L12.001 4L7.08496 8.91587L8.8934 10.723Z" fill="#F3BA2F"/>
<path fill-rule="evenodd" clip-rule="evenodd" d="M4 12.0002L5.80778 10.1925L7.61556 12.0002L5.80778 13.808L4 12.0002Z" fill="#F3BA2F"/>
<path fill-rule="evenodd" clip-rule="evenodd" d="M8.89422 13.2769L12.0018 16.3844L15.1107 13.2756L16.9191 15.0815L16.9178 15.0828L12.0018 19.9999L7.08578 15.0853L7.08325 15.0828L8.89422 13.2769Z" fill="#F3BA2F"/>
<path fill-rule="evenodd" clip-rule="evenodd" d="M16.384 12.0005L18.1918 10.1928L19.9996 12.0005L18.1918 13.8082L16.384 12.0005Z" fill="#F3BA2F"/>
<path fill-rule="evenodd" clip-rule="evenodd" d="M13.8352 11.9992L12.0015 10.1643L10.6455 11.5203L10.4888 11.6757L10.1678 11.9967L10.1653 11.9992L10.1678 12.003L12.0015 13.8354L13.8352 12.0005L13.8365 11.9992H13.8352Z" fill="#F3BA2F"/>
</svg>
