<svg width="32" height="32" viewBox="0 0 32 32" fill="none" xmlns="http://www.w3.org/2000/svg">
<path d="M32 15.9999C32 24.8365 24.8367 32 16.0001 32C7.16344 32 0 24.8365 0 15.9999C0 7.1634 7.16344 0 16.0001 0C24.8366 0 32 7.1634 32 15.9999" fill="url(#paint0_linear)"/>
<path fill-rule="evenodd" clip-rule="evenodd" d="M11.8579 14.2972L16.0014 10.1556L20.1465 14.3006L22.5561 11.8894L16.0014 5.33325L9.44666 11.8878L11.8579 14.2972Z" fill="white"/>
<path fill-rule="evenodd" clip-rule="evenodd" d="M5.33337 16.0005L7.74375 13.5902L10.1541 16.0005L7.74375 18.4108L5.33337 16.0005Z" fill="white"/>
<path fill-rule="evenodd" clip-rule="evenodd" d="M11.8591 17.7026L16.0025 21.8459L20.1477 17.7009L22.5589 20.1087L22.5572 20.1104L16.0025 26.6666L9.44783 20.1138L9.44446 20.1104L11.8591 17.7026Z" fill="white"/>
<path fill-rule="evenodd" clip-rule="evenodd" d="M21.8455 16.001L24.2558 13.5907L26.6662 16.001L24.2558 18.4113L21.8455 16.001Z" fill="white"/>
<path fill-rule="evenodd" clip-rule="evenodd" d="M18.4471 15.9991L16.0022 13.5525L14.1941 15.3605L13.9852 15.5677L13.5572 15.9957L13.5538 15.9991L13.5572 16.0041L16.0022 18.4473L18.4471 16.0007L18.4488 15.9991H18.4471Z" fill="white"/>
<defs>
<linearGradient id="paint0_linear" x1="0" y1="16" x2="32" y2="16" gradientUnits="userSpaceOnUse">
<stop stop-color="#6F45FF"/>
<stop offset="1" stop-color="#FF6365"/>
</linearGradient>
</defs>
</svg>
