<svg width="19" height="18" viewBox="0 0 19 18" fill="none" xmlns="http://www.w3.org/2000/svg">
<path fill-rule="evenodd" clip-rule="evenodd" d="M9.84229 0C4.87172 0 0.842285 4.02944 0.842285 9C0.842285 13.9706 4.87172 18 9.84229 18H14.3423C15.7401 18 16.439 18 16.9903 17.7716C17.7254 17.4672 18.3094 16.8831 18.6139 16.1481C18.8423 15.5967 18.8423 14.8978 18.8423 13.5V9C18.8423 4.02944 14.8128 0 9.84229 0ZM5.84229 8C5.84229 7.44772 6.29 7 6.84229 7H12.8423C13.3946 7 13.8423 7.44772 13.8423 8C13.8423 8.55228 13.3946 9 12.8423 9H6.84229C6.29 9 5.84229 8.55229 5.84229 8ZM8.84229 12C8.84229 11.4477 9.29 11 9.84229 11H12.8423C13.3946 11 13.8423 11.4477 13.8423 12C13.8423 12.5523 13.3946 13 12.8423 13H9.84229C9.29 13 8.84229 12.5523 8.84229 12Z" fill="#674DF6"/>
</svg>
