<svg width="26" height="26" viewBox="0 0 26 26" fill="none" xmlns="http://www.w3.org/2000/svg">
  <path d="M25.9999 12.9427C26.0112 15.5138 25.2599 18.0305 23.8409 20.1746C22.4219 22.3188 20.3989 23.9939 18.0279 24.9883C15.6568 25.9828 13.0441 26.2517 10.5202 25.7613C7.99625 25.2708 5.67443 24.0429 3.84834 22.2329C2.02225 20.4229 0.773892 18.112 0.261138 15.5925C-0.251615 13.073 -0.00573927 10.4581 0.967674 8.07831C1.94109 5.69855 3.59832 3.66088 5.7298 2.22298C7.86129 0.785075 10.3713 0.0115178 12.9424 0.000127574C14.6496 -0.00743537 16.3416 0.321336 17.9217 0.967669C19.5018 1.614 20.9392 2.56524 22.1517 3.76707C23.3642 4.9689 24.3281 6.39778 24.9884 7.97213C25.6486 9.54648 25.9923 11.2355 25.9999 12.9427Z" fill="#8DC63F"/>
  <path d="M25.0251 12.9473C25.0368 15.3254 24.343 17.6536 23.0315 19.6373C21.7199 21.6211 19.8495 23.1714 17.6568 24.092C15.4641 25.0127 13.0476 25.2625 10.713 24.8097C8.37838 24.3569 6.23045 23.2219 4.5409 21.5483C2.85135 19.8747 1.69607 17.7377 1.22117 15.4074C0.746275 13.0772 0.973095 10.6585 1.87294 8.45715C2.77279 6.25583 4.30525 4.37081 6.2765 3.0405C8.24775 1.71019 10.5692 0.994351 12.9473 0.983515C16.1351 0.969489 19.198 2.22181 21.4628 4.46522C23.7276 6.70863 25.0089 9.75952 25.0251 12.9473Z" fill="#F9E988"/>
  <path d="M13.2207 1.75799C13.985 1.62234 14.7672 1.62234 15.5315 1.75799C16.3031 1.88034 17.049 2.13025 17.7386 2.49749C18.4244 2.8743 19.017 3.38582 19.6067 3.86531C20.1964 4.34481 20.7833 4.8356 21.3419 5.37256C21.9122 5.9011 22.4098 6.50297 22.8218 7.16241C23.2459 7.81668 23.5936 8.51742 23.8581 9.25089C24.3602 10.7261 24.5344 12.3153 24.2839 13.831H24.2094C23.9579 12.3285 23.6169 10.8966 23.079 9.53444C22.8265 8.84974 22.5294 8.1823 22.1897 7.5364C21.8354 6.88691 21.4448 6.25789 21.0197 5.65234C20.5876 5.04237 20.058 4.50768 19.4522 4.06973C18.8418 3.63452 18.1399 3.35285 17.4607 3.08531C16.7815 2.81778 16.108 2.54365 15.3996 2.34017C14.6912 2.13669 13.9715 1.98408 13.2197 1.83618L13.2207 1.75799Z" fill="white"/>
  <path d="M19.0986 8.70342C18.2262 8.45096 17.3219 8.09299 16.4062 7.73125C16.3535 7.50139 16.15 7.21502 15.7383 6.86553C15.1402 6.34647 14.0163 6.35966 13.0451 6.58951C11.973 6.33705 10.9142 6.24755 9.89776 6.49531C1.58436 8.78538 6.29827 14.3726 3.24609 19.9889C3.68037 20.9102 8.36131 26.2854 15.1345 24.8432C15.1345 24.8432 12.818 19.2767 18.0454 16.6052C22.2854 14.43 25.3489 10.4057 19.0986 8.70342Z" fill="#8BC53F"/>
  <path d="M20.1252 12.3596C20.1257 12.4592 20.0967 12.5568 20.0418 12.64C19.9869 12.7232 19.9085 12.7883 19.8166 12.8269C19.7248 12.8656 19.6235 12.8761 19.5256 12.8572C19.4278 12.8383 19.3377 12.7908 19.2668 12.7208C19.1959 12.6507 19.1474 12.5611 19.1274 12.4635C19.1074 12.3658 19.1168 12.2644 19.1545 12.1721C19.1921 12.0798 19.2563 12.0008 19.3388 11.9449C19.4214 11.8891 19.5187 11.859 19.6183 11.8584C19.7519 11.8579 19.8803 11.9104 19.9753 12.0043C20.0703 12.0982 20.1242 12.226 20.1252 12.3596Z" fill="white"/>
  <path d="M13.0449 6.58611C13.6506 6.62944 15.8409 7.33973 16.4061 7.72785C15.9351 6.3619 14.3496 6.18009 13.0449 6.58611Z" fill="#009345"/>
  <path d="M13.6215 10.0398C13.6217 10.4996 13.4855 10.9492 13.2302 11.3316C12.9749 11.7141 12.6119 12.0122 12.1872 12.1883C11.7624 12.3645 11.295 12.4107 10.844 12.3212C10.3929 12.2317 9.97858 12.0104 9.6533 11.6854C9.32802 11.3604 9.10643 10.9462 9.01654 10.4952C8.92665 10.0443 8.9725 9.5768 9.14829 9.15191C9.32409 8.72701 9.62193 8.36379 10.0042 8.10816C10.3864 7.85254 10.8358 7.71601 11.2957 7.71582C11.9119 7.71582 12.503 7.96051 12.939 8.39611C13.3749 8.83171 13.6201 9.42258 13.6206 10.0389L13.6215 10.0398Z" fill="white"/>
  <path d="M12.9319 10.0611C12.9319 10.3846 12.8359 10.7008 12.6562 10.9697C12.4766 11.2386 12.2211 11.4482 11.9223 11.572C11.6235 11.6958 11.2947 11.7282 10.9775 11.6651C10.6602 11.602 10.3688 11.4462 10.1401 11.2175C9.91141 10.9888 9.75566 10.6974 9.69256 10.3802C9.62946 10.063 9.66184 9.73414 9.78562 9.43532C9.90939 9.13649 10.119 8.88109 10.3879 8.70139C10.6569 8.52169 10.9731 8.42578 11.2965 8.42578C11.7302 8.42578 12.1462 8.59808 12.4529 8.90477C12.7596 9.21146 12.9319 9.62742 12.9319 10.0611Z" fill="#58595B"/>
  <path d="M22.0083 13.3844C20.1243 14.7117 17.9821 15.7188 14.9431 15.7188C13.5206 15.7188 13.2324 14.2115 12.2922 14.9482C11.8071 15.3306 10.0964 16.186 8.73891 16.121C7.38144 16.056 5.18086 15.2609 4.5676 12.3623C4.32456 15.2609 4.20021 17.3946 3.1084 19.8411C5.27507 23.3106 10.4412 25.9869 15.1306 24.8338C14.6304 21.3153 17.7099 17.8694 19.4375 16.1088C20.097 15.4409 21.3499 14.3509 22.0083 13.3853V13.3844Z" fill="#8BC53F"/>
  <path d="M21.9348 13.4706C21.3498 14.0038 20.6537 14.3985 19.9452 14.7471C19.2281 15.0872 18.4806 15.3594 17.7126 15.56C16.9439 15.7588 16.1423 15.9086 15.3302 15.8351C14.5182 15.7616 13.6883 15.4856 13.1504 14.8771L13.1758 14.8479C13.8352 15.2755 14.5964 15.4263 15.3538 15.4479C16.1215 15.4715 16.8894 15.4083 17.6429 15.2595C18.4041 15.1 19.1487 14.8697 19.8671 14.5718C20.5858 14.2751 21.2971 13.9313 21.9094 13.4414L21.9348 13.4706Z" fill="#58595B"/>
</svg>
