<svg width="34" height="34" viewBox="0 0 34 34" fill="none" xmlns="http://www.w3.org/2000/svg">
<path fill-rule="evenodd" clip-rule="evenodd" d="M17.0002 31.1663C24.8242 31.1663 31.1668 24.8237 31.1668 16.9997C31.1668 9.17564 24.8242 2.83301 17.0002 2.83301C9.17613 2.83301 2.8335 9.17564 2.8335 16.9997C2.8335 24.8237 9.17613 31.1663 17.0002 31.1663ZM20.6809 14.8745C19.826 13.3938 15.1709 10.8854 13.4182 9.97832C13.101 9.81419 12.7272 10.03 12.7108 10.3867C12.6199 12.3582 12.4648 17.6438 13.3197 19.1245C14.1745 20.6051 18.8296 23.1136 20.5823 24.0206C20.8995 24.1848 21.2733 23.969 21.2897 23.6122C21.3806 21.6408 21.5357 16.3551 20.6809 14.8745Z" fill="#674DF6"/>
</svg>
