<svg width="10" height="8" viewBox="0 0 10 8" fill="none" xmlns="http://www.w3.org/2000/svg">
<path d="M8.47095 0.648305C7.82363 0.345441 7.13149 0.125332 6.40787 0C6.31901 0.160671 6.21518 0.376777 6.1436 0.548689C5.37438 0.433007 4.61223 0.433007 3.85715 0.548689C3.78558 0.376777 3.6794 0.160671 3.58973 0C2.86534 0.125332 2.1724 0.34625 1.52508 0.649909C0.219434 2.62291 -0.134505 4.54691 0.0424653 6.44358C0.908438 7.09027 1.74767 7.48311 2.57274 7.74018C2.77645 7.45981 2.95814 7.16177 3.11466 6.84767C2.81656 6.7344 2.53105 6.59462 2.26128 6.43234C2.33285 6.37932 2.40286 6.32389 2.47049 6.26685C4.11591 7.03645 5.90371 7.03645 7.52947 6.26685C7.5979 6.32389 7.6679 6.37932 7.73869 6.43234C7.46812 6.59541 7.18183 6.73519 6.88373 6.84848C7.04025 7.16177 7.22115 7.46062 7.42565 7.74097C8.25151 7.48391 9.09153 7.09108 9.9575 6.44358C10.1651 4.24485 9.60278 2.33853 8.47095 0.648305ZM3.33882 5.27714C2.84488 5.27714 2.43981 4.81602 2.43981 4.25449C2.43981 3.69296 2.83623 3.23104 3.33882 3.23104C3.84143 3.23104 4.24648 3.69215 4.23783 4.25449C4.23862 4.81602 3.84143 5.27714 3.33882 5.27714ZM6.66114 5.27714C6.1672 5.27714 5.76213 4.81602 5.76213 4.25449C5.76213 3.69296 6.15854 3.23104 6.66114 3.23104C7.16373 3.23104 7.5688 3.69215 7.56015 4.25449C7.56015 4.81602 7.16373 5.27714 6.66114 5.27714Z" fill="white"/>
</svg>
