<svg width="21" height="16" viewBox="0 0 21 16" fill="none" xmlns="http://www.w3.org/2000/svg">
<path d="M17.7842 1.5554C16.4896 0.949671 15.1053 0.509453 13.658 0.258789C13.4803 0.580131 13.2726 1.01234 13.1295 1.35617C11.591 1.1248 10.0667 1.1248 8.55658 1.35617C8.41345 1.01234 8.20108 0.580131 8.02175 0.258789C6.57296 0.509453 5.18708 0.951288 3.89245 1.55861C1.28115 5.50461 0.573276 9.3526 0.927216 13.146C2.65916 14.4393 4.33763 15.225 5.98776 15.7391C6.39519 15.1784 6.75856 14.5823 7.0716 13.9541C6.47541 13.7276 5.90439 13.448 5.36485 13.1235C5.50799 13.0174 5.648 12.9066 5.78327 12.7925C9.07412 14.3317 12.6497 14.3317 15.9012 12.7925C16.0381 12.9066 16.1781 13.0174 16.3197 13.1235C15.7785 13.4496 15.2059 13.7292 14.6098 13.9557C14.9228 14.5823 15.2846 15.18 15.6936 15.7407C17.3453 15.2266 19.0253 14.4409 20.7573 13.146C21.1726 8.74849 20.0478 4.93584 17.7842 1.5554ZM7.51993 10.8131C6.53205 10.8131 5.72191 9.89083 5.72191 8.76777C5.72191 7.6447 6.51475 6.72086 7.51993 6.72086C8.52514 6.72086 9.33525 7.64308 9.31795 8.76777C9.31952 9.89083 8.52514 10.8131 7.51993 10.8131ZM14.1646 10.8131C13.1767 10.8131 12.3666 9.89083 12.3666 8.76777C12.3666 7.6447 13.1594 6.72086 14.1646 6.72086C15.1697 6.72086 15.9799 7.64308 15.9626 8.76777C15.9626 9.89083 15.1697 10.8131 14.1646 10.8131Z" fill="#674DF6"/>
</svg>
