<svg width="32" height="32" viewBox="0 0 32 32" fill="none" xmlns="http://www.w3.org/2000/svg">
<path d="M32 15.9999C32 24.8365 24.8367 32 16.0001 32C7.16344 32 0 24.8365 0 15.9999C0 7.1634 7.16344 0 16.0001 0C24.8366 0 32 7.1634 32 15.9999" fill="url(#paint0_linear)"/>
<path d="M15.8028 8.88892L15.7031 9.22787V19.0636L15.8028 19.1632L20.3685 16.4644L15.8028 8.88892Z" fill="white"/>
<path d="M15.8028 8.88892L11.2372 16.4644L15.8028 19.1632V14.3892V8.88892Z" fill="white"/>
<path d="M15.8035 20.4752L15.7473 20.5437V24.0474L15.8035 24.2116L20.3719 17.7778L15.8035 20.4752Z" fill="white"/>
<path d="M15.8026 24.2116V20.4752L11.2369 17.7778L15.8026 24.2116Z" fill="white"/>
<defs>
<linearGradient id="paint0_linear" x1="0" y1="16" x2="28.0755" y2="16" gradientUnits="userSpaceOnUse">
<stop stop-color="#6F45FF"/>
<stop offset="1" stop-color="#FF6365"/>
</linearGradient>
</defs>
</svg>
