<svg width="24" height="24" viewBox="0 0 24 24" fill="none" xmlns="http://www.w3.org/2000/svg">
<path d="M24 11.9999C24 18.6274 18.6275 24 12.0001 24C5.37258 24 0 18.6274 0 11.9999C0 5.37255 5.37258 0 12.0001 0C18.6274 0 24 5.37255 24 11.9999Z" fill="#181616"/>
<path d="M11.5659 4L11.4662 4.33896V14.1747L11.5659 14.2743L16.1316 11.5755L11.5659 4Z" fill="#004DDB"/>
<path d="M11.5659 4L7.00024 11.5755L11.5659 14.2743V9.50031V4Z" fill="#19A8FF"/>
<path d="M11.5666 15.5863L11.5104 15.6548V19.1585L11.5666 19.3226L16.135 12.8889L11.5666 15.5863Z" fill="#004DDB"/>
<path d="M11.5656 19.3227V15.5863L7 12.8889L11.5656 19.3227Z" fill="#19A8FF"/>
</svg>
