<svg width="32" height="32" viewBox="0 0 32 32" fill="none" xmlns="http://www.w3.org/2000/svg">
<circle cx="16" cy="16" r="15" stroke="#CCD2E3" stroke-width="2"/>
<path d="M14.2405 10.4398C14.8991 8.85338 17.1009 8.85338 17.7595 10.4398L18.2183 11.5449C18.488 12.1946 19.0802 12.645 19.7671 12.7228L21.0472 12.8679C22.664 13.0511 23.3317 15.0816 22.151 16.2241L21.064 17.2759C20.5861 17.7383 20.375 18.4193 20.5051 19.0784L20.7676 20.4069C21.0998 22.0885 19.2982 23.3582 17.8764 22.4445L17.0178 21.8929C16.3957 21.4932 15.6043 21.4932 14.9822 21.8929L14.1236 22.4445C12.7018 23.3582 10.9002 22.0885 11.2324 20.4069L11.4949 19.0784C11.625 18.4193 11.4139 17.7383 10.936 17.2759L9.84903 16.2241C8.66829 15.0816 9.33604 13.0511 10.9528 12.8679L12.2329 12.7228C12.9198 12.645 13.512 12.1946 13.7817 11.5449L14.2405 10.4398Z" stroke="#CCD2E3" stroke-width="1.5" stroke-linecap="round" stroke-linejoin="round"/>
</svg>
