<svg width="34" height="34" viewBox="0 0 34 34" fill="none" xmlns="http://www.w3.org/2000/svg">
<path d="M8.5 21.2497V7.58301C8.5 7.34731 8.5 7.22945 8.57322 7.15623C8.64645 7.08301 8.7643 7.08301 9 7.08301H24.2929C24.8066 7.08301 25.0635 7.08301 25.1274 7.23734C25.1913 7.39167 25.0097 7.5733 24.6464 7.93656L18.6995 13.8835C18.5662 14.0168 18.4995 14.0835 18.4995 14.1663C18.4995 14.2492 18.5662 14.3159 18.6995 14.4492L24.6464 20.3961C25.0097 20.7594 25.1913 20.941 25.1274 21.0953C25.0635 21.2497 24.8066 21.2497 24.2929 21.2497H8.5ZM8.5 21.2497V26.9163" stroke="#674DF6" stroke-width="2" stroke-linecap="round"/>
</svg>
