<svg width="24" height="23" viewBox="0 0 24 23" fill="none" xmlns="http://www.w3.org/2000/svg">
<path d="M20.6933 16.3898C21.0506 15.1286 21.0964 13.8067 20.8271 12.5261C20.5577 11.2456 19.9806 10.0408 19.1402 9.005C18.2998 7.96918 17.2187 7.13008 15.9806 6.55262C14.7425 5.97515 13.3805 5.6748 12 5.6748C10.6195 5.6748 9.25752 5.97515 8.0194 6.55262C6.78128 7.13008 5.70021 7.96918 4.85982 9.005C4.01943 10.0408 3.44225 11.2456 3.17293 12.5261C2.90361 13.8067 2.94937 15.1286 3.30667 16.3898" stroke="#674DF6" stroke-width="2" stroke-linecap="round"/>
<path d="M12.7659 14.7375C13.2534 15.4084 12.9106 16.4319 12.0003 17.0235C11.0899 17.6152 9.95676 17.551 9.4693 16.8801C8.95203 16.1682 7.17182 12.1793 6.08148 9.6901C5.86967 9.20654 6.48209 8.80852 6.88346 9.16888C8.9496 11.0239 12.2487 14.0256 12.7659 14.7375Z" stroke="#674DF6" stroke-width="2"/>
<path d="M12 5.6748V7.56635" stroke="#674DF6" stroke-width="2" stroke-linecap="round"/>
<path d="M5.63574 8.16748L7.04996 9.505" stroke="#674DF6" stroke-width="2" stroke-linecap="round"/>
<path d="M18.3643 8.16748L16.95 9.505" stroke="#674DF6" stroke-width="2" stroke-linecap="round"/>
<path d="M20.6934 16.3892L18.7615 15.8996" stroke="#674DF6" stroke-width="2" stroke-linecap="round"/>
<path d="M3.30664 16.3892L5.23849 15.8996" stroke="#674DF6" stroke-width="2" stroke-linecap="round"/>
</svg>
