<svg width="10" height="10" viewBox="0 0 10 10" fill="none" xmlns="http://www.w3.org/2000/svg">
<path d="M4.99922 0.400146C2.34722 0.400146 0.199219 2.51215 0.199219 5.11695C0.199219 7.20135 1.57442 8.96895 3.48122 9.59215C3.72122 9.63655 3.80922 9.49055 3.80922 9.36535C3.80922 9.25335 3.80522 8.95655 3.80322 8.56335C2.46802 8.84775 2.18642 7.93055 2.18642 7.93055C1.96802 7.38615 1.65242 7.24055 1.65242 7.24055C1.21762 6.94815 1.68602 6.95415 1.68602 6.95415C2.16802 6.98695 2.42122 7.44015 2.42122 7.44015C2.84922 8.16135 3.54482 7.95295 3.81922 7.83255C3.86242 7.52735 3.98602 7.31975 4.12322 7.20175C3.05722 7.08375 1.93682 6.67815 1.93682 4.87095C1.93682 4.35615 2.12282 3.93535 2.43082 3.60535C2.37682 3.48615 2.21482 3.00655 2.47282 2.35695C2.47282 2.35695 2.87482 2.23055 3.79282 2.84055C4.17682 2.73575 4.58482 2.68375 4.99282 2.68135C5.40082 2.68375 5.80882 2.73575 6.19282 2.84055C7.10482 2.23055 7.50682 2.35695 7.50682 2.35695C7.76482 3.00655 7.60282 3.48615 7.55482 3.60535C7.86082 3.93535 8.04682 4.35615 8.04682 4.87095C8.04682 6.68295 6.92482 7.08175 5.85682 7.19775C6.02482 7.33935 6.18082 7.62855 6.18082 8.07055C6.18082 8.70175 6.17482 9.20895 6.17482 9.36215C6.17482 9.48575 6.25882 9.63335 6.50482 9.58615C8.42522 8.96695 9.79922 7.19815 9.79922 5.11695C9.79922 2.51215 7.65002 0.400146 4.99922 0.400146Z" fill="white"/>
</svg>
