<svg width="24" height="23" viewBox="0 0 24 23" fill="none" xmlns="http://www.w3.org/2000/svg">
<path d="M9.5 9.45778C9.5 8.70916 8.44722 8.51074 8.16791 9.21119C7.49228 10.9056 7 12.4213 7 13.2408C7 15.8525 9.23858 17.9696 12 17.9696C14.7614 17.9696 17 15.8525 17 13.2408C17 12.3604 16.4318 10.6763 15.6784 8.83044C14.7026 6.43935 14.2146 5.2438 13.6123 5.17941C13.4196 5.1588 13.2093 5.19585 13.0374 5.28071C12.5 5.54592 12.5 6.84987 12.5 9.45778C12.5 10.2413 11.8284 10.8764 11 10.8764C10.1716 10.8764 9.5 10.2413 9.5 9.45778Z" stroke="#674DF6" stroke-width="2"/>
</svg>
