<svg width="176" height="183" viewBox="0 0 176 183" fill="none" xmlns="http://www.w3.org/2000/svg">
<path opacity="0.7" d="M159.114 146.414C139.195 179.137 102.555 164.98 75.0983 164.057C48.8162 163.172 37.4654 172.138 15.988 153.341C-7.67303 132.634 12.9975 105.815 15.1196 82.2321C17.0637 60.6275 9.79809 54.8212 18.891 39.0717C27.6857 23.8389 44.7777 27.3612 57.6653 19.4649C72.6473 10.2855 85.0432 -7.09324 102.722 3.11366C111.56 8.21619 119.2 17.6795 132.351 25.051C149.046 34.69 150.959 28.1635 162.02 39.2075C173.081 50.2515 164.504 67.5683 164.226 90.65C163.947 113.865 170.828 127.171 159.114 146.414Z" fill="#674DF6"/>
<path d="M175.108 103.784C174.219 142.082 135.409 148.142 111.169 161.071C87.9663 173.446 82.6188 186.885 54.6208 181.346C23.7761 175.244 28.2677 141.682 18.314 120.198C9.19537 100.516 0 99.12 0 80.9341C0 63.3447 16.5632 57.8491 23.7761 44.5669C32.1612 29.1263 34.207 7.87793 54.6208 7.87793C64.8258 7.87793 76.1743 12.2532 91.2488 12.0618C110.527 12.0618 108.92 5.45316 124.021 9.4871C139.122 13.521 140.353 32.8062 151.653 52.9346C163.018 73.1788 175.631 81.262 175.108 103.784Z" fill="url(#paint0_linear)"/>
<circle cx="87.4959" cy="92.4959" r="68.4959" fill="url(#paint1_linear)"/>
<defs>
<linearGradient id="paint0_linear" x1="0" y1="95.2537" x2="175.124" y2="95.2537" gradientUnits="userSpaceOnUse">
<stop stop-color="#6F45FF"/>
<stop offset="1" stop-color="#FF6365"/>
</linearGradient>
<linearGradient id="paint1_linear" x1="19" y1="92.4959" x2="155.992" y2="92.4959" gradientUnits="userSpaceOnUse">
<stop stop-color="#190F31"/>
<stop offset="1"/>
</linearGradient>
</defs>
</svg>
