<svg width="18" height="18" viewBox="0 0 18 18" fill="none" xmlns="http://www.w3.org/2000/svg">
<g clip-path="url(#clip0_4918_42797)">
<path d="M15.6524 10.7555C15.5099 10.8522 15.3436 10.9093 15.171 10.9207C14.9983 10.9321 14.8258 10.8975 14.6715 10.8204C14.3092 10.6188 14.114 10.146 14.114 9.50174V7.52723C14.114 6.57937 13.7329 5.90498 13.0954 5.7219C12.018 5.41136 11.2135 6.71147 10.903 7.20046L8.99765 10.2387V6.53071C8.97648 5.67555 8.6942 5.16338 8.16022 5.01043C7.80737 4.90846 7.2781 4.95017 6.76294 5.72422L2.50288 12.4612C1.93606 11.3928 1.64216 10.2044 1.64663 8.99884C1.64663 4.93859 4.93989 1.63615 8.99765 1.63615C13.0554 1.63615 16.3604 4.93859 16.3604 8.99884V9.0197C16.3604 9.0197 16.3604 9.0336 16.3604 9.04056C16.4004 9.82619 16.1417 10.4519 15.6547 10.7555H15.6524ZM18.0047 9.00116V8.96176C17.9718 4.0139 13.9446 0 8.99765 0C4.05071 0 0 4.03708 0 8.99884C0 13.9606 4.03659 18 8.99765 18C11.273 17.9999 13.4618 17.1407 15.1137 15.5991C15.274 15.4502 15.3684 15.2452 15.3763 15.0283C15.3842 14.8114 15.3051 14.6001 15.156 14.4403C15.0847 14.3626 14.9985 14.2995 14.9023 14.2547C14.8061 14.21 14.7019 14.1844 14.5957 14.1794C14.4894 14.1745 14.3832 14.1902 14.2832 14.2259C14.1832 14.2615 14.0913 14.3163 14.0128 14.387C13.3016 15.0517 12.4614 15.5679 11.5427 15.9046C10.6239 16.2414 9.6456 16.3918 8.6664 16.3468C7.6872 16.3017 6.72733 16.0622 5.84442 15.6426C4.96151 15.223 4.17377 14.632 3.52849 13.905L7.36278 7.83314V10.635C7.36278 11.9815 7.89205 12.4171 8.33664 12.5446C8.78123 12.6721 9.46106 12.584 10.1738 11.4438L12.2909 8.06721C12.3568 7.95829 12.4203 7.86559 12.4767 7.78447V9.50174C12.4767 10.7601 12.9895 11.7659 13.8881 12.2619C14.2967 12.4792 14.7572 12.5842 15.2211 12.5658C15.6851 12.5475 16.1355 12.4065 16.5251 12.1576C17.5131 11.5249 18.0518 10.3801 17.9953 9.00116H18.0047Z" fill="#848494"/>
</g>
<defs>
<clipPath id="clip0_4918_42797">
<rect width="18" height="18" fill="white"/>
</clipPath>
</defs>
</svg>
