<svg width="21" height="18" viewBox="0 0 21 18" fill="none" xmlns="http://www.w3.org/2000/svg">
<path d="M15.636 5.48503C15.2674 5.27706 14.7673 5.27706 14.3461 5.48503L11.319 7.22672L9.26576 8.34452L6.31756 10.1122C5.94904 10.3202 5.4489 10.3202 5.02773 10.1122L2.71129 8.73445C2.34276 8.52649 2.05321 8.08456 2.05321 7.61665V4.93912C2.05321 4.5232 2.26379 4.08127 2.71129 3.82132L5.0014 2.49556C5.36993 2.28759 5.87007 2.28759 6.29124 2.49556L8.60768 3.87331C8.9762 4.08127 9.26576 4.5232 9.26576 4.99111V6.7588L11.319 5.58901V3.76933C11.319 3.3534 11.1084 2.91148 10.6609 2.65153L6.37021 0.155972C6.00169 -0.0519908 5.50154 -0.0519908 5.08037 0.155972L0.65808 2.70352C0.210585 2.91148 0 3.3534 0 3.76933V8.78644C0 9.20236 0.210585 9.64429 0.65808 9.90424L5.0014 12.3998C5.36993 12.6078 5.87007 12.6078 6.29124 12.3998L9.26576 10.6841L11.319 9.51431L14.2935 7.79861C14.662 7.59065 15.1622 7.59065 15.5833 7.79861L17.8998 9.12438C18.2683 9.33234 18.5578 9.77426 18.5578 10.2422V12.8937C18.5578 13.3096 18.3473 13.7516 17.8998 14.0115L15.636 15.3373C15.2674 15.5452 14.7673 15.5452 14.3461 15.3373L12.0297 14.0115C11.6612 13.8035 11.3716 13.3616 11.3716 12.8937V11.178L9.31841 12.3478V14.1155C9.31841 14.5314 9.52899 14.9733 9.97649 15.2333L14.3461 17.7288C14.7147 17.9368 15.2148 17.9368 15.636 17.7288L20.0056 15.2593C20.3741 15.0513 20.6637 14.6094 20.6637 14.1415V9.09838C20.6637 8.68246 20.4531 8.24053 20.0056 7.98058L15.636 5.48503Z" fill="white"/>
</svg>
