<svg width="10" height="8" viewBox="0 0 10 8" fill="none" xmlns="http://www.w3.org/2000/svg">
<path d="M9.03419 1.09315L9.80019 0.360351V0.199951H7.14659L5.25539 4.90715L3.1038 0.199951H0.321395V0.360351L1.2162 1.43755C1.3034 1.51715 1.349 1.63355 1.3374 1.75075V5.98395C1.365 6.13635 1.3154 6.29315 1.2082 6.40395L0.200195 7.62555V7.78395H3.0582V7.62355L2.0502 6.40395C1.941 6.29275 1.8894 6.13875 1.9114 5.98395V2.32235L4.4202 7.78595H4.7118L6.869 2.32235V6.67475C6.869 6.78955 6.86899 6.81315 6.79379 6.88835L6.01779 7.63915V7.79995H9.78259V7.63955L9.03459 6.90715C8.969 6.85755 8.93499 6.77435 8.94899 6.69355V1.30675C8.93499 1.22555 8.96859 1.14235 9.03419 1.09315Z" fill="white"/>
</svg>
