<svg width="18" height="16" viewBox="0 0 18 16" fill="none" xmlns="http://www.w3.org/2000/svg">
<path d="M16.3552 0.450684L9.97852 5.16898L11.1643 2.38834L16.3552 0.450684Z" fill="#E17726" stroke="#E17726" stroke-width="0.25" stroke-linecap="round" stroke-linejoin="round"/>
<path d="M1.64648 0.450684L7.9664 5.21302L6.83741 2.38833L1.64648 0.450684Z" fill="#E27625" stroke="#E27625" stroke-width="0.25" stroke-linecap="round" stroke-linejoin="round"/>
<path d="M14.059 11.3906L12.3623 13.9826L15.9953 14.9828L17.036 11.4473L14.059 11.3906Z" fill="#E27625" stroke="#E27625" stroke-width="0.25" stroke-linecap="round" stroke-linejoin="round"/>
<path d="M0.970703 11.4473L2.00509 14.9828L5.63181 13.9826L3.94144 11.3906L0.970703 11.4473Z" fill="#E27625" stroke="#E27625" stroke-width="0.25" stroke-linecap="round" stroke-linejoin="round"/>
<path d="M5.43688 7.01209L4.42773 8.53454L8.02289 8.69811L7.90307 4.8291L5.43688 7.01209Z" fill="#E27625" stroke="#E27625" stroke-width="0.25" stroke-linecap="round" stroke-linejoin="round"/>
<path d="M12.5645 7.01219L10.0605 4.78516L9.97852 8.69821L13.5736 8.53464L12.5645 7.01219Z" fill="#E27625" stroke="#E27625" stroke-width="0.25" stroke-linecap="round" stroke-linejoin="round"/>
<path d="M5.63184 13.9828L7.80783 12.9322L5.9346 11.4727L5.63184 13.9828Z" fill="#E27625" stroke="#E27625" stroke-width="0.25" stroke-linecap="round" stroke-linejoin="round"/>
<path d="M10.1924 12.9322L12.3621 13.9828L12.0656 11.4727L10.1924 12.9322Z" fill="#E27625" stroke="#E27625" stroke-width="0.25" stroke-linecap="round" stroke-linejoin="round"/>
<path d="M12.3621 13.9827L10.1924 12.9321L10.369 14.3413L10.35 14.939L12.3621 13.9827Z" fill="#D5BFB2" stroke="#D5BFB2" stroke-width="0.25" stroke-linecap="round" stroke-linejoin="round"/>
<path d="M5.63184 13.9827L7.65019 14.939L7.63756 14.3413L7.80783 12.9321L5.63184 13.9827Z" fill="#D5BFB2" stroke="#D5BFB2" stroke-width="0.25" stroke-linecap="round" stroke-linejoin="round"/>
<path d="M7.68867 10.5417L5.88477 10.0133L7.15883 9.42822L7.68867 10.5417Z" fill="#233447" stroke="#233447" stroke-width="0.25" stroke-linecap="round" stroke-linejoin="round"/>
<path d="M10.3125 10.5417L10.8423 9.42822L12.1227 10.0133L10.3125 10.5417Z" fill="#233447" stroke="#233447" stroke-width="0.25" stroke-linecap="round" stroke-linejoin="round"/>
<path d="M5.63272 13.9826L5.94811 11.3906L3.94238 11.4473L5.63272 13.9826Z" fill="#CC6228" stroke="#CC6228" stroke-width="0.25" stroke-linecap="round" stroke-linejoin="round"/>
<path d="M12.0527 11.3906L12.3618 13.9826L14.0585 11.4473L12.0527 11.3906Z" fill="#CC6228" stroke="#CC6228" stroke-width="0.25" stroke-linecap="round" stroke-linejoin="round"/>
<path d="M13.5736 8.53467L9.97852 8.69823L10.3128 10.5416L10.8426 9.428L12.123 10.0131L13.5736 8.53467Z" fill="#CC6228" stroke="#CC6228" stroke-width="0.25" stroke-linecap="round" stroke-linejoin="round"/>
<path d="M5.88472 10.0131L7.15878 9.428L7.68862 10.5416L8.02289 8.69823L4.42773 8.53467L5.88472 10.0131Z" fill="#CC6228" stroke="#CC6228" stroke-width="0.25" stroke-linecap="round" stroke-linejoin="round"/>
<path d="M4.42773 8.53467L5.93519 11.4726L5.8847 10.0131L4.42773 8.53467Z" fill="#E27525" stroke="#E27525" stroke-width="0.25" stroke-linecap="round" stroke-linejoin="round"/>
<path d="M12.1222 10.0131L12.0654 11.4726L13.5729 8.53467L12.1222 10.0131Z" fill="#E27525" stroke="#E27525" stroke-width="0.25" stroke-linecap="round" stroke-linejoin="round"/>
<path d="M8.0228 8.69824L7.68848 10.5416L8.11106 12.7182L8.20569 9.84953L8.0228 8.69824Z" fill="#E27525" stroke="#E27525" stroke-width="0.25" stroke-linecap="round" stroke-linejoin="round"/>
<path d="M9.97839 8.69824L9.80176 9.84326L9.89007 12.7182L10.3127 10.5416L9.97839 8.69824Z" fill="#E27525" stroke="#E27525" stroke-width="0.25" stroke-linecap="round" stroke-linejoin="round"/>
<path d="M10.3122 10.5417L9.88965 12.7183L10.1924 12.9322L12.0657 11.4727L12.1224 10.0132L10.3122 10.5417Z" fill="#F5841F" stroke="#F5841F" stroke-width="0.25" stroke-linecap="round" stroke-linejoin="round"/>
<path d="M5.88477 10.0132L5.93526 11.4727L7.80849 12.9322L8.11125 12.7183L7.68867 10.5417L5.88477 10.0132Z" fill="#F5841F" stroke="#F5841F" stroke-width="0.25" stroke-linecap="round" stroke-linejoin="round"/>
<path d="M10.3497 14.9392L10.3686 14.3415L10.2046 14.2031H7.79525L7.63756 14.3415L7.65019 14.9392L5.63184 13.9829L6.33825 14.5617L7.77001 15.5494H10.2235L11.6616 14.5617L12.3617 13.9829L10.3497 14.9392Z" fill="#C0AC9D" stroke="#C0AC9D" stroke-width="0.25" stroke-linecap="round" stroke-linejoin="round"/>
<path d="M10.1931 12.9321L9.89036 12.7183H8.1117L7.80899 12.9321L7.63867 14.3414L7.79636 14.2029H10.2057L10.3697 14.3414L10.1931 12.9321Z" fill="#161616" stroke="#161616" stroke-width="0.25" stroke-linecap="round" stroke-linejoin="round"/>
<path d="M16.6258 5.47723L17.1619 2.87275L16.3546 0.450684L10.1924 5.01173L12.5639 7.01226L15.9131 7.9874L16.651 7.12553L16.3294 6.89273L16.8402 6.42722L16.4492 6.12524L16.9601 5.73518L16.6258 5.47723Z" fill="#763E1A" stroke="#763E1A" stroke-width="0.25" stroke-linecap="round" stroke-linejoin="round"/>
<path d="M0.838867 2.87275L1.38129 5.47723L1.0344 5.73518L1.55159 6.12524L1.16054 6.42722L1.67143 6.89273L1.34976 7.12553L2.08771 7.9874L5.43691 7.01226L7.80841 5.01173L1.6462 0.450684L0.838867 2.87275Z" fill="#763E1A" stroke="#763E1A" stroke-width="0.25" stroke-linecap="round" stroke-linejoin="round"/>
<path d="M15.9129 7.9873L12.5637 7.01221L13.5729 8.53466L12.0654 11.4726L14.0585 11.4474H17.0356L15.9129 7.9873Z" fill="#F5841F" stroke="#F5841F" stroke-width="0.25" stroke-linecap="round" stroke-linejoin="round"/>
<path d="M5.43624 7.01221L2.08709 7.9873L0.970703 11.4474H3.94144L5.93452 11.4726L4.4271 8.53466L5.43624 7.01221Z" fill="#F5841F" stroke="#F5841F" stroke-width="0.25" stroke-linecap="round" stroke-linejoin="round"/>
<path d="M9.97795 8.69862L10.1924 5.01203L11.1637 2.38867H6.83691L7.80822 5.01203L8.02267 8.69862L8.10467 9.85617L8.11098 12.7186H9.88964L9.89595 9.85617L9.97795 8.69862Z" fill="#F5841F" stroke="#F5841F" stroke-width="0.25" stroke-linecap="round" stroke-linejoin="round"/>
</svg>
