<svg width="32" height="24" viewBox="0 0 32 24" fill="none" xmlns="http://www.w3.org/2000/svg">
<path d="M31.375 19.3755H29.4999V5.62515C29.4999 4.59125 28.6588 3.7501 27.6249 3.7501H14.514C13.74 1.56754 11.6551 0 9.21061 0C6.1089 0 3.58546 2.52344 3.58546 5.62515C3.58546 6.49249 3.7829 7.31457 4.13503 8.04897L0.548312 11.6357C-0.182771 12.3668 -0.182771 13.5563 0.548312 14.2875C0.913884 14.653 1.39402 14.8357 1.87416 14.8357C2.3543 14.8357 2.8345 14.653 3.20001 14.2875L5.74927 11.7383V19.3755H3.87422C3.52902 19.3755 3.2492 19.6553 3.2492 20.0005V23.1256C3.2492 23.4708 3.52902 23.7506 3.87422 23.7506H31.375C31.7202 23.7506 32 23.4708 32 23.1256V20.0005C32 19.6553 31.7202 19.3755 31.375 19.3755ZM9.21061 1.25003C11.6231 1.25003 13.5857 3.21271 13.5857 5.62515C13.5857 8.03759 11.6231 10.0003 9.21061 10.0003C6.79817 10.0003 4.83549 8.03759 4.83549 5.62515C4.83549 3.21271 6.79817 1.25003 9.21061 1.25003ZM2.31611 13.4036C2.07248 13.6472 1.67591 13.6472 1.43221 13.4036C1.18852 13.1599 1.18852 12.7633 1.43221 12.5197L4.81762 9.13425C5.07875 9.46045 5.37532 9.75702 5.70151 10.0181L2.31611 13.4036ZM6.9993 10.7971C7.67844 11.0886 8.42596 11.2503 9.21061 11.2503C12.3123 11.2503 14.8358 8.72686 14.8358 5.62515C14.8358 5.4139 14.8236 5.20545 14.8008 5.00014H27.6249C27.9695 5.00014 28.2499 5.28052 28.2499 5.62515V19.3755H6.9993V10.7971ZM30.7499 22.5006H4.49923V20.6256H30.7499V22.5006Z" fill="url(#paint0_linear)"/>
<path d="M9.21059 8.03138C10.505 8.03138 11.5544 6.98202 11.5544 5.68756C11.5544 4.39311 10.505 3.34375 9.21059 3.34375C7.91614 3.34375 6.86678 4.39311 6.86678 5.68756C6.86678 6.98202 7.91614 8.03138 9.21059 8.03138Z" fill="url(#paint1_linear)"/>
<path d="M13.8745 17.5004C14.5649 17.5004 15.1246 16.9408 15.1246 16.2504V13.7503C15.1246 13.0599 14.5649 12.5002 13.8745 12.5002C13.1841 12.5002 12.6245 13.0599 12.6245 13.7503V16.2504C12.6245 16.9408 13.1841 17.5004 13.8745 17.5004Z" fill="url(#paint2_linear)"/>
<path d="M17.6246 17.5004C18.3149 17.5004 18.8746 16.9408 18.8746 16.2504V11.2503C18.8746 10.5599 18.3149 10.0002 17.6246 10.0002C16.9342 10.0002 16.3745 10.5599 16.3745 11.2503V16.2504C16.3745 16.9408 16.9342 17.5004 17.6246 17.5004Z" fill="url(#paint3_linear)"/>
<path d="M21.3747 17.5006C22.0651 17.5006 22.6247 16.9409 22.6247 16.2505V15.0005C22.6247 14.3101 22.0651 13.7505 21.3747 13.7505C20.6843 13.7505 20.1247 14.3101 20.1247 15.0005V16.2505C20.1247 16.9409 20.6843 17.5006 21.3747 17.5006Z" fill="url(#paint4_linear)"/>
<path d="M25.9998 9.37524H23.7497C23.4045 9.37524 23.1247 9.65506 23.1247 10.0003C23.1247 10.3455 23.4045 10.6253 23.7497 10.6253H25.9998C26.345 10.6253 26.6248 10.3455 26.6248 10.0003C26.6248 9.65506 26.345 9.37524 25.9998 9.37524Z" fill="url(#paint5_linear)"/>
<path d="M25.9999 6.87524H21.6247C21.2795 6.87524 20.9997 7.15506 20.9997 7.50026C20.9997 7.84546 21.2795 8.12527 21.6247 8.12527H25.9999C26.3451 8.12527 26.6249 7.84546 26.6249 7.50026C26.6249 7.15506 26.3451 6.87524 25.9999 6.87524Z" fill="url(#paint6_linear)"/>
<defs>
<linearGradient id="paint0_linear" x1="0" y1="11.8753" x2="32" y2="11.8753" gradientUnits="userSpaceOnUse">
<stop stop-color="#6F45FF"/>
<stop offset="1" stop-color="#FF6365"/>
</linearGradient>
<linearGradient id="paint1_linear" x1="6.86678" y1="5.68756" x2="11.5544" y2="5.68756" gradientUnits="userSpaceOnUse">
<stop stop-color="#6F45FF"/>
<stop offset="1" stop-color="#FF6365"/>
</linearGradient>
<linearGradient id="paint2_linear" x1="12.6245" y1="15.0003" x2="15.1246" y2="15.0003" gradientUnits="userSpaceOnUse">
<stop stop-color="#6F45FF"/>
<stop offset="1" stop-color="#FF6365"/>
</linearGradient>
<linearGradient id="paint3_linear" x1="16.3745" y1="13.7503" x2="18.8746" y2="13.7503" gradientUnits="userSpaceOnUse">
<stop stop-color="#6F45FF"/>
<stop offset="1" stop-color="#FF6365"/>
</linearGradient>
<linearGradient id="paint4_linear" x1="20.1247" y1="15.6255" x2="22.6247" y2="15.6255" gradientUnits="userSpaceOnUse">
<stop stop-color="#6F45FF"/>
<stop offset="1" stop-color="#FF6365"/>
</linearGradient>
<linearGradient id="paint5_linear" x1="23.1247" y1="10.0003" x2="26.6248" y2="10.0003" gradientUnits="userSpaceOnUse">
<stop stop-color="#6F45FF"/>
<stop offset="1" stop-color="#FF6365"/>
</linearGradient>
<linearGradient id="paint6_linear" x1="20.9997" y1="7.50026" x2="26.6249" y2="7.50026" gradientUnits="userSpaceOnUse">
<stop stop-color="#6F45FF"/>
<stop offset="1" stop-color="#FF6365"/>
</linearGradient>
</defs>
</svg>
