<svg width="32" height="31" viewBox="0 0 32 31" fill="none" xmlns="http://www.w3.org/2000/svg">
<path d="M31.3626 0H10.5949C10.2429 0 9.95744 0.285375 9.95744 0.637437V12.5473C8.82194 12.9701 7.80869 13.7161 7.0685 14.6835C6.20094 15.8173 5.74237 17.1731 5.74237 18.6041C5.74237 20.1563 6.29269 21.5822 7.20831 22.6974L6.45662 23.4491L6.002 22.9945C5.88244 22.875 5.72031 22.8078 5.55125 22.8078C5.38219 22.8078 5.22013 22.875 5.1005 22.9945L0.561813 27.5332C0.1995 27.8955 0 28.3771 0 28.8894C0 29.4017 0.1995 29.8834 0.561813 30.2455C0.924063 30.6077 1.40563 30.8074 1.91794 30.8074C2.43025 30.8074 2.91187 30.6079 3.27406 30.2456L7.81281 25.7069C7.93231 25.5874 7.9995 25.4252 7.9995 25.2561C7.9995 25.0871 7.93231 24.9249 7.81281 24.8054L7.35819 24.3507L8.10987 23.5991C9.22512 24.5147 10.6511 25.065 12.2032 25.065C14.432 25.065 16.4934 23.916 17.6724 22.0427H31.3626C31.7146 22.0427 32 21.7573 32 21.4052V0.6375C32 0.2855 31.7146 0 31.3626 0ZM2.3725 29.344C2.25106 29.4655 2.08963 29.5324 1.91788 29.5324C1.74613 29.5324 1.58469 29.4655 1.46325 29.344C1.34181 29.2225 1.27488 29.0612 1.27488 28.8894C1.27488 28.7177 1.34181 28.5562 1.46325 28.4348L5.55125 24.3468L6.46056 25.2561L2.3725 29.344ZM12.2032 23.7901C9.34369 23.7901 7.01731 21.4637 7.01731 18.6042C7.01731 16.5979 8.19131 14.7826 9.9575 13.9305V21.4052C9.9575 21.7572 10.2429 22.0426 10.5949 22.0426H16.0851C15.1117 23.1406 13.7046 23.7901 12.2032 23.7901ZM16.9163 20.7677H11.2323V13.511C11.5526 13.4499 11.8776 13.4182 12.2031 13.4182C15.0626 13.4182 17.3891 15.7446 17.3891 18.6042C17.3891 19.3519 17.2261 20.0925 16.9163 20.7677ZM30.7251 20.7677H18.2913C18.5366 20.076 18.664 19.3426 18.664 18.6041C18.664 15.0416 15.7657 12.1433 12.2032 12.1433C11.8781 12.1433 11.5537 12.168 11.2324 12.2169V1.27494H30.7252V20.7677H30.7251Z" fill="url(#paint0_linear)"/>
<path d="M16.9793 2.38562H12.9802C12.6282 2.38562 12.3428 2.67099 12.3428 3.02306V7.02224C12.3428 7.3743 12.6281 7.65968 12.9802 7.65968H16.9793C17.3313 7.65968 17.6168 7.3743 17.6168 7.02224V3.02306C17.6168 2.67099 17.3313 2.38562 16.9793 2.38562ZM16.3419 6.3848H13.6177V3.66049H16.3419V6.3848Z" fill="url(#paint1_linear)"/>
<path d="M28.9771 2.38562H24.9779C24.6259 2.38562 24.3404 2.671 24.3404 3.02306V6.38481H20.9787C20.6267 6.38481 20.3413 6.67018 20.3413 7.02225V11.0214C20.3413 11.3735 20.6267 11.6589 20.9787 11.6589H24.9779C25.3299 11.6589 25.6154 11.3735 25.6154 11.0214V7.65968H28.9771C29.3291 7.65968 29.6146 7.37431 29.6146 7.02225V3.02306C29.6146 2.671 29.3291 2.38562 28.9771 2.38562ZM24.3404 10.3839H21.6162V7.65968H24.3404V10.3839ZM28.3396 6.38481H25.6154V3.6605H28.3396V6.38481Z" fill="url(#paint2_linear)"/>
<path d="M24.9779 14.3831H20.9787C20.6267 14.3831 20.3413 14.6684 20.3413 15.0205V19.0197C20.3413 19.3717 20.6267 19.6571 20.9787 19.6571H24.9779C25.3299 19.6571 25.6154 19.3717 25.6154 19.0197V15.0205C25.6154 14.6684 25.3299 14.3831 24.9779 14.3831ZM24.3404 18.3822H21.6162V15.658H24.3404V18.3822Z" fill="url(#paint3_linear)"/>
<path d="M12.6853 14.2562C12.3333 14.2562 12.0479 14.5416 12.0479 14.8937V15.0212C12.0479 15.3732 12.3333 15.6586 12.6853 15.6586C13.0373 15.6586 13.3227 15.3732 13.3227 15.0212V14.8937C13.3227 14.5417 13.0373 14.2562 12.6853 14.2562Z" fill="url(#paint4_linear)"/>
<path d="M12.6853 16.2961C12.3333 16.2961 12.0479 16.5815 12.0479 16.9336V19.4834C12.0479 19.8355 12.3333 20.1208 12.6853 20.1208C13.0373 20.1208 13.3227 19.8355 13.3227 19.4834V16.9336C13.3227 16.5815 13.0373 16.2961 12.6853 16.2961Z" fill="url(#paint5_linear)"/>
<defs>
<linearGradient id="paint0_linear" x1="0" y1="15.4037" x2="32" y2="15.4037" gradientUnits="userSpaceOnUse">
<stop stop-color="#6F45FF"/>
<stop offset="1" stop-color="#FF6365"/>
</linearGradient>
<linearGradient id="paint1_linear" x1="12.3428" y1="5.02265" x2="17.6168" y2="5.02265" gradientUnits="userSpaceOnUse">
<stop stop-color="#6F45FF"/>
<stop offset="1" stop-color="#FF6365"/>
</linearGradient>
<linearGradient id="paint2_linear" x1="20.3413" y1="7.02224" x2="29.6146" y2="7.02224" gradientUnits="userSpaceOnUse">
<stop stop-color="#6F45FF"/>
<stop offset="1" stop-color="#FF6365"/>
</linearGradient>
<linearGradient id="paint3_linear" x1="20.3413" y1="17.0201" x2="25.6154" y2="17.0201" gradientUnits="userSpaceOnUse">
<stop stop-color="#6F45FF"/>
<stop offset="1" stop-color="#FF6365"/>
</linearGradient>
<linearGradient id="paint4_linear" x1="12.0479" y1="14.9574" x2="13.3227" y2="14.9574" gradientUnits="userSpaceOnUse">
<stop stop-color="#6F45FF"/>
<stop offset="1" stop-color="#FF6365"/>
</linearGradient>
<linearGradient id="paint5_linear" x1="12.0479" y1="18.2085" x2="13.3227" y2="18.2085" gradientUnits="userSpaceOnUse">
<stop stop-color="#6F45FF"/>
<stop offset="1" stop-color="#FF6365"/>
</linearGradient>
</defs>
</svg>
