<svg width="38" height="38" viewBox="0 0 38 38" fill="none" xmlns="http://www.w3.org/2000/svg">
<path d="M19 38C29.4934 38 38 29.4934 38 19C38 8.50659 29.4934 0 19 0C8.50659 0 0 8.50659 0 19C0 29.4934 8.50659 38 19 38Z" fill="url(#paint0_linear)"/>
<path d="M7.19922 19.0134C7.19922 17.5439 8.40423 16.3064 9.83517 16.3064C10.513 16.3064 11.1908 16.6158 11.6427 17.0798C13.7514 15.6103 16.1615 14.8369 18.7221 14.7596L17.5171 8.95895L13.6008 9.80971C13.5255 10.8925 12.6971 11.6659 11.6427 11.6659C10.5883 11.5886 9.83517 10.7378 9.83517 9.65503C9.91048 8.57225 10.7389 7.79883 11.7933 7.79883C12.4711 7.79883 13.0736 8.26288 13.3749 8.88161L17.743 7.95351C17.969 7.87617 18.2702 8.03085 18.2702 8.34022L19.6259 14.8369C22.1865 14.8369 24.6718 15.6877 26.7806 17.1572C27.835 16.1517 29.4918 16.1517 30.4709 17.2345C31.45 18.3173 31.45 20.0188 30.3956 21.0243C30.1697 21.2563 29.9437 21.411 29.6425 21.5657C29.7178 21.875 29.7178 22.1071 29.7178 22.4164C29.7178 26.5929 24.9731 29.9959 19.174 29.9959C13.3749 29.9959 8.63016 26.5929 8.63016 22.4164C8.63016 22.1071 8.63016 21.875 8.70548 21.5657C7.80172 21.0243 7.19922 20.0962 7.19922 19.0134ZM25.2743 20.9469C25.2743 19.8641 24.4459 19.0134 23.3915 19.0134C22.3371 19.0134 21.5087 19.8641 21.5087 20.9469C21.5087 22.0297 22.3371 22.8805 23.3915 22.8805C24.4459 22.8805 25.2743 22.0297 25.2743 20.9469ZM14.8058 26.0515C16.0861 27.3663 18.5715 27.4436 19.2493 27.4436C19.9271 27.4436 22.4124 27.3663 23.6928 26.0515C23.9187 25.8195 23.9187 25.5101 23.6928 25.3554C23.4668 25.1234 23.1656 25.1234 23.0149 25.3554C22.1865 26.2062 20.4543 26.5155 19.2493 26.5155C18.0443 26.5155 16.3121 26.2062 15.4836 25.3554C15.333 25.1234 14.9565 25.1234 14.8058 25.3554C14.5799 25.5101 14.5799 25.8195 14.8058 26.0515C14.7305 26.0515 14.8058 26.0515 14.8058 26.0515ZM15.1071 22.8805C16.1615 22.8805 16.9899 22.0297 16.9899 20.9469C16.9899 19.8641 16.1615 19.0134 15.1071 19.0134C14.0527 19.0134 13.2243 19.8641 13.2243 20.9469C13.2243 22.0297 14.0527 22.8805 15.1071 22.8805Z" fill="white"/>
<defs>
<linearGradient id="paint0_linear" x1="0" y1="19" x2="38" y2="19" gradientUnits="userSpaceOnUse">
<stop stop-color="#6F45FF"/>
<stop offset="1" stop-color="#FF6365"/>
</linearGradient>
</defs>
</svg>
