<svg width="38" height="38" viewBox="0 0 38 38" fill="none" xmlns="http://www.w3.org/2000/svg">
<path d="M19 38C29.4934 38 38 29.4934 38 19C38 8.50659 29.4934 0 19 0C8.50659 0 0 8.50659 0 19C0 29.4934 8.50659 38 19 38Z" fill="url(#paint0_linear)"/>
<path fill-rule="evenodd" clip-rule="evenodd" d="M15.0026 20.01L11.0976 18.539C10.7009 18.3891 10.6978 17.8239 11.093 17.67L27.1182 11.4303C27.458 11.2979 27.8087 11.5981 27.7342 11.9582L24.8585 25.9202C24.7907 26.2502 24.408 26.3995 24.1375 26.2011L20.2119 23.3245C19.9735 23.15 19.6486 23.1592 19.4206 23.347L17.2436 25.1377C16.9912 25.3464 16.6106 25.2303 16.5138 24.9157L15.0026 20.01ZM23.9017 14.4836L16.2702 19.2272C15.9775 19.4098 15.8399 19.7663 15.9346 20.0997L16.7595 23.026C16.818 23.2331 17.1164 23.2121 17.1448 22.9978L17.3595 21.3933C17.3998 21.091 17.5426 20.8128 17.7639 20.6046L24.062 14.6959C24.1799 14.5854 24.0387 14.3982 23.9017 14.4836Z" fill="white"/>
<defs>
<linearGradient id="paint0_linear" x1="0" y1="19" x2="38" y2="19" gradientUnits="userSpaceOnUse">
<stop stop-color="#6F45FF"/>
<stop offset="1" stop-color="#FF6365"/>
</linearGradient>
</defs>
</svg>
