<svg width="30" height="30" viewBox="0 0 30 30" fill="none" xmlns="http://www.w3.org/2000/svg">
<path d="M29.6024 0H0V29.6024H29.6024V0Z" fill="#1C0E40"/>
<path d="M5.38913 13.8903L16.7747 9.18431C17.9132 8.72889 21.7084 7.13492 21.7084 7.13492C21.7084 7.13492 23.4542 6.45178 23.3024 8.12166C23.2265 8.8048 22.847 11.1578 22.4674 13.8144L21.253 21.4048C21.253 21.4048 21.1771 22.5433 20.3421 22.6952C19.5072 22.9229 18.1409 22.012 17.9132 21.7843C17.6855 21.6325 14.2699 19.4313 12.9795 18.3687C12.6759 18.065 12.2205 17.4578 13.0554 16.7747C14.8012 15.1807 16.9265 13.1313 18.1409 11.9168C18.7482 11.3096 19.2795 9.94335 16.8506 11.6132L9.94335 16.2433C9.94335 16.2433 9.18431 16.6988 7.66624 16.3193C6.22407 15.9397 4.55419 15.4084 4.55419 15.4084C4.55419 15.4084 3.33973 14.6494 5.38913 13.8903Z" fill="#6F45FF"/>
</svg>
