<svg width="24" height="24" viewBox="0 0 24 24" fill="none" xmlns="http://www.w3.org/2000/svg">
<path fill-rule="evenodd" clip-rule="evenodd" d="M8.48149 7.43827C8.17078 7.80075 8 8.26243 8 8.73985V17C8 18.1046 8.89543 19 10 19H17.3308C18.2974 19 19.1257 18.3088 19.2986 17.3578L20.5713 10.3578C20.7945 9.13009 19.8514 8 18.6036 8H14L15.6279 3.11634C15.8414 2.47579 15.5514 1.77571 14.9475 1.47375C14.3906 1.19532 13.7158 1.33161 13.3106 1.80431L8.48149 7.43827Z" fill="#7DB511"/>
<path fill-rule="evenodd" clip-rule="evenodd" d="M5 18C4.44772 18 4 17.5523 4 17V10" fill="#7DB511"/>
<path d="M5 18C4.44772 18 4 17.5523 4 17V10C4 9.44772 4.44772 9 5 9C5.55228 9 6 9.44772 6 10V17C6 17.5523 5.55228 18 5 18Z" fill="#7DB511"/>
</svg>
