<svg width="24" height="24" viewBox="0 0 24 24" fill="none" xmlns="http://www.w3.org/2000/svg">
<path fill-rule="evenodd" clip-rule="evenodd" d="M15.5185 16.5617C15.8292 16.1992 16 15.7376 16 15.2602L16 7C16 5.89543 15.1046 5 14 5L6.66915 5C5.70258 5 4.87432 5.69125 4.70141 6.64223L3.42869 13.6422C3.20547 14.8699 4.14862 16 5.39642 16L10 16L8.37211 20.8837C8.1586 21.5242 8.44858 22.2243 9.0525 22.5262C9.60935 22.8047 10.2842 22.6684 10.6894 22.1957L15.5185 16.5617Z" fill="#FF7143"/>
<path fill-rule="evenodd" clip-rule="evenodd" d="M19 6C19.5523 6 20 6.44771 20 7L20 14" fill="#FF7143"/>
<path d="M19 6C19.5523 6 20 6.44771 20 7L20 14C20 14.5523 19.5523 15 19 15C18.4477 15 18 14.5523 18 14L18 7C18 6.44771 18.4477 6 19 6Z" fill="#FF7143"/>
</svg>
