<svg width="30" height="30" viewBox="0 0 30 30" fill="none" xmlns="http://www.w3.org/2000/svg">
<path d="M29.6024 0H0V29.6024H29.6024V0Z" fill="#1C0E40"/>
<path fill-rule="evenodd" clip-rule="evenodd" d="M24.7349 8.89759C23.9759 9.2012 23.2169 9.42892 22.3819 9.50482C23.2169 8.97349 23.8241 8.21446 24.1277 7.30361C23.3687 7.75904 22.4578 8.06265 21.547 8.29036C20.788 7.53133 19.7253 7 18.5867 7C16.3855 7 14.5639 8.74578 14.5639 10.947C14.5639 11.2506 14.5639 11.5542 14.6398 11.8578C11.3 11.706 8.26386 10.112 6.29036 7.68313C5.98675 8.29036 5.75904 8.97349 5.75904 9.73253C5.75904 11.0988 6.44217 12.3133 7.58072 13.0723C6.89759 13.0723 6.29036 12.8446 5.75904 12.541C5.75904 12.541 5.75904 12.541 5.75904 12.6169C5.75904 13.1482 5.83494 13.6036 6.06265 14.059C6.59398 15.3494 7.65663 16.2602 9.02289 16.5639C8.64337 16.6398 8.33976 16.7157 7.96024 16.7157C7.73253 16.7157 7.42892 16.7157 7.2012 16.6398C7.73253 18.2337 9.1747 19.3723 10.9964 19.3723C9.63012 20.4349 7.88434 21.1181 5.98675 21.1181C5.68313 21.1181 5.30361 21.1181 5 21.0422C6.82169 22.1807 8.94699 22.8639 11.2241 22.8639C17.5241 22.8639 21.4711 18.4614 22.4578 13.9072C22.6096 13.0723 22.7614 12.3133 22.7614 11.4783C22.7614 11.3265 22.7614 11.0988 22.7614 10.947C23.4446 10.3398 24.1277 9.65663 24.7349 8.89759Z" fill="#6F45FF"/>
</svg>
