<svg width="10" height="8" viewBox="0 0 10 8" fill="none" xmlns="http://www.w3.org/2000/svg">
<path d="M9.39961 0.400018C9.01656 0.670209 8.59245 0.876862 8.14361 1.01202C7.90271 0.735023 7.58254 0.538695 7.22642 0.449589C6.8703 0.360483 6.49541 0.382897 6.15244 0.5138C5.80948 0.644703 5.51499 0.877779 5.3088 1.18151C5.10262 1.48523 4.99469 1.84495 4.99961 2.21202V2.61202C4.29666 2.63025 3.60012 2.47434 2.97201 2.1582C2.34391 1.84205 1.80374 1.37547 1.39961 0.800018C1.39961 0.800018 -0.200391 4.40002 3.39961 6.00002C2.57582 6.55921 1.59447 6.83959 0.599609 6.80002C4.19961 8.80002 8.59961 6.80002 8.59961 2.20002C8.59924 2.0886 8.58853 1.97746 8.56761 1.86802C8.97585 1.46542 9.26394 0.957103 9.39961 0.400018Z" fill="white"/>
</svg>
