<svg width="20" height="20" viewBox="0 0 20 20" fill="none" xmlns="http://www.w3.org/2000/svg">
<path d="M19.1663 2.49999C18.3683 3.06289 17.4848 3.49341 16.5497 3.77499C16.0478 3.19791 15.3808 2.7889 14.6389 2.60326C13.897 2.41762 13.1159 2.46432 12.4014 2.73703C11.6869 3.00975 11.0734 3.49532 10.6438 4.12808C10.2143 4.76085 9.98942 5.51027 9.99967 6.27499V7.10832C8.5352 7.14629 7.08407 6.8215 5.77551 6.16286C4.46696 5.50422 3.34161 4.53218 2.49967 3.33332C2.49967 3.33332 -0.833658 10.8333 6.66634 14.1667C4.95011 15.3316 2.90564 15.9158 0.833008 15.8333C8.33301 20 17.4997 15.8333 17.4997 6.24999C17.4989 6.01787 17.4766 5.78632 17.433 5.55832C18.2835 4.71957 18.8837 3.66058 19.1663 2.49999Z" stroke="#848494" stroke-width="1.25" stroke-linecap="round" stroke-linejoin="round"/>
</svg>
