<svg width="23" height="22" viewBox="0 0 23 22" fill="none" xmlns="http://www.w3.org/2000/svg">
<path d="M1.54808 14.4953C1.91366 14.7981 2.21605 15.1721 2.18446 15.4303C2.1664 15.5817 2.15738 15.7375 2.15738 15.8978C2.15738 18.2308 4.02139 20.123 6.31868 20.123C6.60302 20.123 6.87834 20.0963 7.14914 20.0384C7.60047 19.9449 8.13305 20.123 8.45349 20.4748C9.21173 21.3029 10.2949 21.8238 11.5 21.8238C12.7728 21.8238 13.9101 21.245 14.6729 20.3323C14.9753 19.9717 15.4898 19.8203 15.9456 19.9539C16.3157 20.0607 16.7039 20.123 17.1101 20.123C19.4074 20.123 21.2714 18.2308 21.2714 15.8978C21.2714 15.6351 21.2488 15.3813 21.2037 15.1365C21.127 14.718 21.3346 14.2015 21.6776 13.872C22.49 13.1018 23 12.0065 23 10.791C23 9.46425 22.3952 8.28439 21.4519 7.50969C21.0863 7.20693 20.7839 6.83294 20.8155 6.57471C20.8336 6.42333 20.8426 6.2675 20.8426 6.10721C20.8426 3.77421 18.9786 1.88199 16.6813 1.88199C16.397 1.88199 16.1217 1.91315 15.8509 1.96658C15.3995 2.06008 14.867 1.88199 14.5465 1.53026C13.7883 0.697676 12.7051 0.176758 11.5 0.176758C10.2949 0.176758 9.21173 0.697676 8.45349 1.5258C8.13305 1.87308 7.60047 2.05563 7.14914 1.96213C6.88285 1.9087 6.60302 1.87753 6.31868 1.87753C4.02139 1.87753 2.15738 3.76976 2.15738 6.10276C2.15738 6.32538 2.17543 6.54799 2.20703 6.7617C2.2657 7.12234 2.00844 7.56757 1.63383 7.86142C0.640895 8.63167 0 9.84714 0 11.214C0 12.5363 0.604788 13.7206 1.54808 14.4953Z" fill="url(#paint0_linear)"/>
<path d="M5.45094 11.4531C5.54267 11.2979 5.78575 11.2936 6.00131 11.4747L8.20736 12.9363C8.32661 13.0053 8.44127 13.0398 8.55134 13.0398C8.78066 13.0398 8.95953 12.8846 9.13382 12.738L16.1969 6.09385C16.6372 5.64114 17.0683 5.48161 17.3481 5.65838C17.4765 5.7403 17.559 5.85672 17.582 5.999C17.6095 6.16284 17.5453 6.33961 17.4077 6.49914L8.91826 16.1915C8.79442 16.3338 8.63848 16.4114 8.47796 16.4114C8.28533 16.4114 8.11105 16.3036 8.00098 16.1139L5.51056 11.8886C5.40507 11.7291 5.38214 11.5652 5.45094 11.4531Z" fill="white"/>
<defs>
<linearGradient id="paint0_linear" x1="0" y1="11.0003" x2="23" y2="11.0003" gradientUnits="userSpaceOnUse">
<stop stop-color="#6F45FF"/>
<stop offset="1" stop-color="#FF6365"/>
</linearGradient>
</defs>
</svg>
