<svg width="20" height="20" viewBox="0 0 20 20" fill="none" xmlns="http://www.w3.org/2000/svg">
<ellipse cx="9.80882" cy="10" rx="9.55882" ry="10" fill="white"/>
<path d="M5.92745 4.37012L16.2758 11.7621L13.7166 15.72L3.36816 8.26982L5.92745 4.37012Z" fill="url(#paint0_linear)"/>
<path d="M16.2759 11.7625C15.3857 13.1012 12.3813 12.5773 9.54381 10.482C6.6507 8.44483 5.09288 5.70922 5.92743 4.37052C6.81761 3.03182 9.822 3.55566 12.6595 5.65102C15.5526 7.62997 17.1104 10.4238 16.2759 11.7625Z" fill="url(#paint1_linear)"/>
<path d="M13.7166 15.6625C12.8264 17.0012 9.82203 16.4774 6.98456 14.382C4.1471 12.2866 2.53364 9.60922 3.42382 8.21232C4.31401 6.87361 7.31838 7.39746 10.1558 9.49282C12.9933 11.5882 14.5511 14.3238 13.7166 15.6625Z" fill="url(#paint2_linear)"/>
<path d="M16.2759 11.7629L13.7166 15.7208C12.8264 17.0595 9.82205 16.4775 6.98458 14.4403C6.42822 14.0329 5.92749 13.6255 5.42676 13.1598C5.81621 13.1016 6.31694 12.8688 6.81767 12.2868C7.70786 11.2973 8.15295 11.0645 8.54241 11.1227C8.93186 11.1227 9.37695 11.5301 10.1002 12.5196C10.8235 13.5091 11.825 13.8001 12.437 13.2762C12.4926 13.218 12.5482 13.218 12.6039 13.1598C13.1046 12.7524 13.2715 12.5778 14.2173 10.7152C14.4399 10.2496 15.2188 9.49295 16.2759 9.84218C16.5541 10.5988 16.5541 11.2391 16.2759 11.7629Z" fill="#0E0F23"/>
<path fill-rule="evenodd" clip-rule="evenodd" d="M15.8865 11.5297C15.1076 12.6938 12.3814 12.1117 9.76649 10.191C7.09593 8.27024 5.5381 5.82566 6.31701 4.66157C7.09593 3.49748 9.82213 4.07952 12.4371 6.00027C15.052 7.92102 16.6098 10.3656 15.8865 11.5297ZM13.4385 9.78356C13.0491 10.3656 11.7138 10.0746 10.3785 9.14331C9.09885 8.21204 8.31994 6.98974 8.70939 6.4077C9.09885 5.82566 10.4341 6.11668 11.7694 7.04795C13.0491 7.97922 13.828 9.20151 13.4385 9.78356Z" fill="white"/>
<path d="M5.70498 5.70927C5.70498 5.65106 5.64934 5.59286 5.5937 5.65106C5.53806 5.70927 5.48242 5.70927 5.48242 5.76747C5.53806 5.94208 5.5937 6.05849 5.5937 6.1749C5.5937 6.23311 5.64934 6.29131 5.70498 6.23311C5.76061 6.23311 5.81625 6.1749 5.76061 6.1167C5.76061 6.00029 5.76061 5.88388 5.70498 5.70927Z" fill="white"/>
<path d="M5.98332 6.64091C5.98332 6.5827 5.92768 6.5245 5.87204 6.5827C5.81641 6.64091 5.81641 6.64091 5.81641 6.69911C6.42841 8.15422 7.70805 9.72574 9.37715 10.8898C9.43279 10.948 9.48842 10.8898 9.54406 10.8898C9.5997 10.8316 9.54406 10.7734 9.54406 10.7152C7.81932 9.55113 6.59532 8.03781 5.98332 6.64091Z" fill="white"/>
<path d="M12.7148 12.3447C12.6592 12.3447 12.6035 12.3447 12.6035 12.4029C12.6035 12.4611 12.6035 12.5193 12.6592 12.5193C12.8261 12.5775 13.0486 12.6357 13.2155 12.694C13.2712 12.694 13.3268 12.694 13.3268 12.6357C13.3268 12.5775 13.3268 12.5193 13.2712 12.5193C13.1043 12.4611 12.8817 12.4029 12.7148 12.3447Z" fill="white"/>
<path d="M13.7167 12.5771C13.6611 12.5771 13.6055 12.6354 13.6055 12.6936C13.6055 12.7518 13.6611 12.81 13.7167 12.81C14.1618 12.8682 14.6626 12.9264 15.052 12.8682C15.1077 12.8682 15.1633 12.81 15.1633 12.7518C15.1633 12.6936 15.1077 12.6354 15.052 12.6354C14.6069 12.6936 14.1618 12.6354 13.7167 12.5771Z" fill="white"/>
<defs>
<linearGradient id="paint0_linear" x1="7.95495" y1="3.31912" x2="10.1845" y2="10.6374" gradientUnits="userSpaceOnUse">
<stop stop-color="#03B8FF"/>
<stop offset="1" stop-color="#FA52A0"/>
</linearGradient>
<linearGradient id="paint1_linear" x1="9.64496" y1="2.80459" x2="11.8746" y2="10.1229" gradientUnits="userSpaceOnUse">
<stop stop-color="#03B8FF"/>
<stop offset="1" stop-color="#FA52A0"/>
</linearGradient>
<linearGradient id="paint2_linear" x1="6.27019" y1="3.83307" x2="8.49981" y2="11.1514" gradientUnits="userSpaceOnUse">
<stop stop-color="#03B8FF"/>
<stop offset="1" stop-color="#FA52A0"/>
</linearGradient>
</defs>
</svg>
