<svg width="20" height="20" viewBox="0 0 20 20" fill="none" xmlns="http://www.w3.org/2000/svg">
<path d="M10 20C15.5228 20 20 15.5228 20 10C20 4.47715 15.5228 0 10 0C4.47715 0 0 4.47715 0 10C0 15.5228 4.47715 20 10 20Z" fill="url(#paint0_linear)"/>
<path fill-rule="evenodd" clip-rule="evenodd" d="M19.7059 12.4181C18.6245 16.7726 14.6893 20 10.0002 20C9.1912 20 8.40463 19.9039 7.65129 19.7226C12.2391 19.1572 14.194 16.6215 14.2625 16.4798C14.2632 16.4781 14.2644 16.4765 14.2656 16.475C14.2675 16.4724 14.2695 16.4699 14.2695 16.4666C15.5759 14.1869 14.3697 12.2472 14.0306 11.7772C14.0024 11.7362 13.9758 11.6927 13.9491 11.6489C13.9317 11.6204 13.9142 11.5918 13.8962 11.5637C13.0809 10.3075 10.6457 9.44477 10.6457 9.44477C12.5872 11.8615 9.58183 12.9008 9.58183 12.9008C6.14688 14.3424 4.90292 14.4303 4.90292 14.4303C2.56874 14.2598 3.2935 12.6223 3.2935 12.6223C3.36027 12.3667 6.08363 8.39056 6.08363 8.39056L1.0542 5.90352L6.90679 7.18174C7.52701 5.73573 8.31239 5.92636 8.40024 5.95184V5.94569L7.77035 4.69822C9.31125 4.21065 10.8135 4.4742 10.8135 4.4742L11.1236 5.76735C11.1245 5.76296 11.3415 4.51197 11.3415 4.51197C11.95 4.29633 13.8695 5.06502 14.1416 5.17398C14.1621 5.1822 14.1733 5.18666 14.1738 5.18666L13.7345 6.46401L14.6569 5.42474C17.1225 6.58317 18.1949 8.51969 18.6796 9.39503C18.7216 9.47094 18.7592 9.53888 18.7929 9.59763C18.86 9.7151 18.9193 9.83613 18.9787 9.9573C18.9917 9.98383 19.0047 10.0104 19.0178 10.0369C19.3429 10.6946 19.5617 11.597 19.7059 12.4181Z" fill="white"/>
<path d="M8.93463 9.37191L7.54133 10.4165C7.54133 10.4165 7.11086 9.90428 7.66432 9.47382C7.85082 9.35238 8.06471 9.27946 8.28654 9.26166C8.50838 9.24387 8.73116 9.28176 8.93463 9.37191V9.37191Z" fill="url(#paint1_linear)"/>
<path fill-rule="evenodd" clip-rule="evenodd" d="M9.06017 19.9564C10.1285 19.7072 11.24 19.2687 12.3377 18.5558C16.6415 15.763 15.0048 12.7216 14.3732 11.8616C14.2571 11.7015 14.1498 11.5352 14.0517 11.3635C13.3963 10.2126 10.6483 9.44043 10.6483 9.44043C11.3995 10.3804 11.2633 10.9339 11.2633 10.9339C11.1895 12.4177 9.54142 12.9255 9.54142 12.9255C9.54142 12.9255 11.3476 14.2335 10.0835 17.0254C9.49948 18.3151 7.69975 18.8913 5.93213 19.138C6.90297 19.5708 7.95549 19.8535 9.06017 19.9564Z" fill="url(#paint2_linear)"/>
<defs>
<linearGradient id="paint0_linear" x1="19.8489" y1="11.7359" x2="0.150224" y2="8.2632" gradientUnits="userSpaceOnUse">
<stop stop-color="#00EC5B"/>
<stop offset="1" stop-color="#00C58C"/>
</linearGradient>
<linearGradient id="paint1_linear" x1="144.059" y1="143.686" x2="171.513" y2="143.686" gradientUnits="userSpaceOnUse">
<stop stop-color="#00EC5B"/>
<stop offset="1" stop-color="#00C58C"/>
</linearGradient>
<linearGradient id="paint2_linear" x1="14.9617" y1="16.0503" x2="2.80326" y2="13.9059" gradientUnits="userSpaceOnUse">
<stop stop-color="#BDFBD5"/>
<stop offset="0.26" stop-color="#C1FBD7"/>
<stop offset="0.5" stop-color="#CCFCDF"/>
<stop offset="0.73" stop-color="#DFFDEB"/>
<stop offset="0.96" stop-color="#FAFFFC"/>
<stop offset="1" stop-color="white"/>
</linearGradient>
</defs>
</svg>
