<svg width="20" height="20" viewBox="0 0 20 20" fill="none" xmlns="http://www.w3.org/2000/svg">
<path d="M20 9.99994C20 15.5228 15.5229 20 10.0001 20C4.47715 20 0 15.5228 0 9.99994C0 4.47712 4.47715 0 10.0001 0C15.5228 0 20 4.47712 20 9.99994" fill="#884FE2"/>
<path d="M13.5225 7.80314C13.2922 7.67316 12.9796 7.67316 12.7163 7.80314L10.8244 8.8917L9.5411 9.59032L7.69848 10.6951C7.46815 10.8251 7.15556 10.8251 6.89233 10.6951L5.44455 9.83403C5.21423 9.70405 5.03326 9.42785 5.03326 9.1354V7.46195C5.03326 7.202 5.16487 6.9258 5.44455 6.76333L6.87588 5.93472C7.10621 5.80475 7.41879 5.80475 7.68202 5.93472L9.1298 6.79582C9.36013 6.9258 9.5411 7.202 9.5411 7.49445V8.59925L10.8244 7.86813V6.73083C10.8244 6.47088 10.6927 6.19468 10.4131 6.03221L7.73138 4.47248C7.50105 4.34251 7.18847 4.34251 6.92523 4.47248L4.1613 6.0647C3.88162 6.19468 3.75 6.47088 3.75 6.73083V9.86652C3.75 10.1265 3.88162 10.4027 4.1613 10.5652L6.87588 12.1249C7.10621 12.2548 7.41879 12.2548 7.68202 12.1249L9.5411 11.0526L10.8244 10.3214L12.6834 9.24913C12.9138 9.11916 13.2263 9.11916 13.4896 9.24913L14.9374 10.0777C15.1677 10.2077 15.3487 10.4839 15.3487 10.7764V12.4336C15.3487 12.6935 15.217 12.9697 14.9374 13.1322L13.5225 13.9608C13.2922 14.0908 12.9796 14.0908 12.7163 13.9608L11.2686 13.1322C11.0382 13.0022 10.8573 12.726 10.8573 12.4336V11.3613L9.574 12.0924V13.1972C9.574 13.4571 9.70562 13.7333 9.9853 13.8958L12.7163 15.4555C12.9467 15.5855 13.2592 15.5855 13.5225 15.4555L16.2535 13.9121C16.4838 13.7821 16.6648 13.5059 16.6648 13.2134V10.0615C16.6648 9.80154 16.5332 9.52533 16.2535 9.36286L13.5225 7.80314Z" fill="white"/>
</svg>
