<svg width="18" height="18" viewBox="0 0 18 18" fill="none" xmlns="http://www.w3.org/2000/svg">
<path d="M3.74045 8.55544C3.74046 8.45479 3.76033 8.35513 3.79889 8.26218C3.83746 8.16924 3.89397 8.08485 3.96518 8.01385C4.0364 7.94285 4.1209 7.88664 4.21386 7.84845C4.30681 7.81026 4.40638 7.79084 4.50684 7.79131L5.77744 7.79547C5.98003 7.79547 6.17433 7.8761 6.31758 8.01963C6.46084 8.16315 6.54132 8.35781 6.54132 8.56079V13.3746C6.68442 13.3321 6.86757 13.2868 7.0691 13.2393C7.20873 13.2064 7.33316 13.1272 7.42223 13.0145C7.5113 12.9019 7.55979 12.7624 7.55982 12.6187V6.64787C7.55982 6.44489 7.64029 6.25021 7.78354 6.10666C7.92679 5.96312 8.12109 5.88245 8.32369 5.88241H9.59815C9.80076 5.88245 9.99505 5.96312 10.1383 6.10666C10.2816 6.25021 10.362 6.44489 10.362 6.64787V12.1897C10.362 12.1897 10.6809 12.0605 10.9912 11.9291C11.1066 11.8803 11.205 11.7985 11.2742 11.6939C11.3435 11.5894 11.3804 11.4667 11.3805 11.3412V4.73452C11.3805 4.53157 11.461 4.33693 11.6042 4.19341C11.7474 4.04989 11.9417 3.96924 12.1443 3.9692H13.4174C13.6198 3.9694 13.8139 4.05012 13.957 4.19362C14.1001 4.33713 14.1805 4.53167 14.1805 4.73452V10.1749C15.2843 9.3735 16.4029 8.40954 17.2906 7.2505C17.4194 7.08226 17.5046 6.88469 17.5386 6.67543C17.5727 6.46616 17.5545 6.25171 17.4857 6.0512C17.0748 4.86677 16.4216 3.78133 15.568 2.86433C14.7143 1.94733 13.679 1.21897 12.5283 0.725856C11.3775 0.232742 10.1367 -0.0142673 8.88522 0.00063642C7.63373 0.0155402 6.39913 0.292028 5.26041 0.812407C4.1217 1.33279 3.10395 2.0856 2.27229 3.02267C1.44064 3.95973 0.813388 5.06042 0.430687 6.2543C0.0479855 7.44818 -0.0817408 8.70895 0.0498083 9.95594C0.181357 11.2029 0.571286 12.4087 1.19464 13.496C1.30324 13.6836 1.46302 13.8362 1.65521 13.936C1.84739 14.0357 2.064 14.0784 2.27958 14.0591C2.52041 14.0379 2.82026 14.0079 3.17677 13.966C3.33193 13.9483 3.47517 13.874 3.57923 13.7574C3.68328 13.6407 3.74087 13.4898 3.74104 13.3333V8.55544" fill="#848494"/>
<path d="M3.71191 16.2755C5.05388 17.2536 6.63976 17.8407 8.29409 17.9719C9.94843 18.103 11.6067 17.7731 13.0855 17.0186C14.5643 16.2641 15.8059 15.1144 16.6731 13.6968C17.5402 12.2792 17.9989 10.6489 17.9986 8.98627C17.9986 8.77827 17.989 8.57353 17.9752 8.36938C14.6885 13.2806 8.61993 15.5765 3.71191 16.2755Z" fill="#848494"/>
</svg>
