<svg width="20" height="20" viewBox="0 0 20 20" fill="none" xmlns="http://www.w3.org/2000/svg">
<path d="M10 20C15.5228 20 20 15.5228 20 10C20 4.47715 15.5228 0 10 0C4.47715 0 0 4.47715 0 10C0 15.5228 4.47715 20 10 20Z" fill="#E84142"/>
<path d="M11.0862 10.6508C11.0878 10.6396 11.0896 10.6283 11.0908 10.617C11.092 10.6058 11.0931 10.5939 11.094 10.5826C11.0959 10.5613 11.0971 10.5399 11.098 10.5188C11.098 10.5094 11.098 10.5001 11.098 10.491C11.098 10.4842 11.0989 10.4777 11.0989 10.4709C11.0989 10.4666 11.0989 10.4627 11.0989 10.4585C11.0989 10.435 11.0976 10.4114 11.0961 10.3879C11.0961 10.3826 11.0961 10.3778 11.0949 10.3729L11.0938 10.3612C11.0938 10.3512 11.0925 10.3411 11.0916 10.3313C11.0889 10.308 11.0856 10.2852 11.0817 10.2623L11.0803 10.2551L11.0769 10.2362C11.075 10.2254 11.0733 10.2147 11.0711 10.2042C11.0666 10.1835 11.0615 10.1631 11.0561 10.1428L11.0531 10.1328L11.0495 10.1194C11.0456 10.1061 11.0423 10.093 11.038 10.0799C11.0326 10.063 11.0263 10.0461 11.02 10.029C11.0173 10.0215 11.0142 10.0141 11.0114 10.0069C11.0052 9.99192 10.9997 9.97592 10.9931 9.9608C10.9865 9.94568 10.9805 9.93338 10.9741 9.91976C10.969 9.90914 10.9636 9.89881 10.9582 9.88848C10.9515 9.87501 10.9447 9.86186 10.9376 9.84854C10.9343 9.84255 10.9316 9.83611 10.9281 9.83012C10.9247 9.82413 10.9202 9.8186 10.9166 9.81262C10.909 9.79974 10.9006 9.78744 10.8925 9.77487C10.8862 9.76499 10.8799 9.75511 10.8733 9.74494C10.8648 9.73251 10.8561 9.71979 10.8471 9.70737C10.8382 9.69494 10.8266 9.68161 10.8172 9.66874C10.812 9.6626 10.8075 9.65617 10.8022 9.65003C10.7906 9.63611 10.779 9.62221 10.7669 9.60874C10.7576 9.59871 10.7478 9.58928 10.7385 9.57881L10.7287 9.56876L10.7218 9.56159C10.7069 9.54663 10.6919 9.53166 10.676 9.51789C10.668 9.5104 10.6594 9.50291 10.6509 9.49647C10.6463 9.49213 10.6413 9.48824 10.6359 9.4839L10.6308 9.47941C10.6129 9.46444 10.5948 9.45035 10.5761 9.43658C10.568 9.43074 10.5594 9.42506 10.5511 9.41922L10.5415 9.41279L10.5292 9.40427C10.5096 9.39125 10.4897 9.37838 10.4693 9.36656C10.4657 9.36431 10.4623 9.36175 10.4589 9.3595C10.4527 9.35606 10.4463 9.35337 10.4401 9.35008L10.4168 9.33736C10.3988 9.32793 10.3809 9.31862 10.3625 9.31024C10.3509 9.30485 10.3392 9.29947 10.3276 9.29453C10.3159 9.28959 10.3066 9.28585 10.2965 9.28181C10.2815 9.27597 10.2677 9.27013 10.2529 9.26489H10.2517V4.61914H9.38353V5.92797L8.49468 5.03929L7.88098 5.65301L9.38353 7.15538V9.26489H9.38172C9.36675 9.27028 9.35298 9.27597 9.33861 9.28181C9.32829 9.286 9.31795 9.28989 9.30763 9.29438C9.2973 9.29887 9.28427 9.30504 9.2726 9.31043C9.25419 9.31896 9.23624 9.32807 9.21828 9.3375C9.21049 9.3417 9.2033 9.34588 9.19522 9.35022C9.18713 9.35456 9.18264 9.35636 9.17651 9.35965C9.17276 9.3619 9.16932 9.36461 9.16558 9.3667C9.14537 9.37883 9.12561 9.39139 9.1057 9.40442L9.09359 9.41264L9.08895 9.41607C9.07907 9.42281 9.06918 9.42925 9.059 9.43628C9.04014 9.4502 9.02173 9.46487 9.00347 9.47999L8.99854 9.48419L8.99375 9.48792L8.9894 9.49154L7.16325 8.43684L6.6133 6.38422L5.77507 6.60875L6.10047 7.823L4.96676 7.16828L4.53267 7.91999L5.66624 8.57472L4.45215 8.89982L4.67668 9.73807L6.72901 9.18797L8.55516 10.2425C8.55337 10.2531 8.55128 10.2636 8.54948 10.2741C8.54679 10.2925 8.54438 10.3109 8.54228 10.3296C8.54123 10.339 8.54079 10.3485 8.53989 10.3579C8.53854 10.3729 8.5369 10.3879 8.53631 10.4037C8.53541 10.4215 8.53495 10.4395 8.53495 10.4571C8.53495 10.4615 8.53495 10.4655 8.53495 10.4696C8.53495 10.4736 8.53495 10.4777 8.53495 10.482C8.53495 10.4997 8.53496 10.5175 8.53631 10.535C8.53765 10.5525 8.53854 10.566 8.53989 10.5815C8.54079 10.591 8.54123 10.6004 8.54228 10.6098C8.54438 10.6281 8.54664 10.6462 8.54948 10.6645C8.55113 10.6752 8.55337 10.686 8.55516 10.6968L6.72901 11.7515L4.67668 11.2015L4.45215 12.0398L5.66624 12.3652L4.53267 13.0194L4.96676 13.7715L6.10047 13.1168L5.77507 14.3308L6.6133 14.5554L7.16325 12.5029L8.9894 11.4482L8.99404 11.4521L8.99718 11.4548L9.00393 11.4605C9.02189 11.4754 9.03984 11.4897 9.0587 11.5033C9.06843 11.5105 9.07846 11.5171 9.08863 11.5239L9.09194 11.5262C9.09673 11.5294 9.10122 11.5326 9.10601 11.5359C9.12502 11.5488 9.14463 11.5612 9.16468 11.5729C9.16857 11.5752 9.17187 11.5778 9.17561 11.5799C9.18309 11.5844 9.19057 11.588 9.1985 11.5922L9.21632 11.6016L9.22381 11.6057C9.23549 11.6118 9.24686 11.6181 9.25884 11.6236C9.2771 11.6326 9.2955 11.6407 9.31391 11.6488L9.31945 11.6513C9.33097 11.6563 9.34236 11.6605 9.35404 11.665L9.37275 11.672L9.38278 11.6757V13.7845L7.88023 15.2872L8.49393 15.9009L9.38278 15.012V16.3212H10.2509V15.012L11.1396 15.9009L11.7533 15.2872L10.2509 13.7845V11.6757L10.2608 11.672L10.2797 11.665C10.2911 11.6605 10.3026 11.6563 10.314 11.6513L10.3201 11.6486C10.3382 11.6408 10.3565 11.6328 10.3744 11.6239C10.3866 11.6181 10.3982 11.6118 10.4099 11.6055L10.4168 11.6018C10.4229 11.5985 10.4289 11.5954 10.435 11.5919C10.4412 11.5885 10.45 11.584 10.458 11.5798C10.4616 11.5778 10.4648 11.5751 10.4684 11.5727C10.4885 11.5611 10.508 11.5488 10.5273 11.5359L10.5422 11.5257L10.5457 11.5235C10.5555 11.5169 10.5654 11.5103 10.5756 11.5031C10.5943 11.4895 10.6124 11.4751 10.6304 11.4605L10.6374 11.4544L10.6406 11.4517L10.6451 11.448L12.472 12.5027L13.0219 14.5552L13.8602 14.3307L13.5347 13.1166L14.6683 13.7713L15.1024 13.0193L11.0788 10.6965C11.0815 10.6823 11.0847 10.6665 11.0862 10.6508Z" fill="white"/>
<path d="M13.321 10.6619C13.4995 10.3432 13.5915 9.98334 13.5879 9.61808C13.5843 9.25283 13.4853 8.89484 13.3006 8.57968C13.1159 8.26452 12.8521 8.00315 12.5352 7.82146C12.2183 7.63978 11.8594 7.54409 11.4941 7.54395V8.41213C11.7079 8.41247 11.9178 8.46861 12.1032 8.575C12.2885 8.68139 12.4429 8.83435 12.551 9.01872C12.6591 9.2031 12.7172 9.41252 12.7195 9.62623C12.7218 9.83995 12.6683 10.0506 12.5642 10.2373L13.321 10.6619Z" fill="white"/>
<path d="M10.9932 4.60757V5.47575C11.7557 5.47592 12.5044 5.67863 13.1629 6.06316C13.8213 6.44769 14.3658 7.00025 14.7406 7.66427C15.1154 8.32829 15.3071 9.07995 15.2961 9.84237C15.2851 10.6048 15.0717 11.3506 14.6778 12.0035L15.4205 12.4525C15.8941 11.668 16.1507 10.7717 16.1641 9.85542C16.1775 8.93913 15.9472 8.03572 15.4968 7.23765C15.0464 6.43958 14.3921 5.7755 13.6008 5.31335C12.8095 4.8512 11.9096 4.60758 10.9932 4.60742V4.60757Z" fill="white"/>
</svg>
