<svg width="20" height="20" viewBox="0 0 20 20" fill="none" xmlns="http://www.w3.org/2000/svg">
<path d="M20 9.99994C20 15.5228 15.5229 20 10.0001 20C4.47715 20 0 15.5228 0 9.99994C0 4.47712 4.47715 0 10.0001 0C15.5228 0 20 4.47712 20 9.99994Z" fill="#001F68"/>
<path fill-rule="evenodd" clip-rule="evenodd" d="M9.04826 2.72231C9.33978 2.55428 9.67035 2.46582 10.0068 2.46582C10.3433 2.46582 10.6739 2.55428 10.9654 2.72231C10.9658 2.72253 10.9662 2.72276 10.9666 2.72298L15.7655 5.46476L15.768 5.46618C16.0593 5.63462 16.3012 5.87667 16.4694 6.16806C16.6376 6.45946 16.7263 6.78996 16.7266 7.12643V12.6129H16.1786L16.7266 12.6134C16.7262 12.95 16.6373 13.2806 16.4689 13.572C16.3004 13.8634 16.0583 14.1054 15.7668 14.2737L15.7647 14.2749L10.9666 17.017C10.9662 17.0172 10.9659 17.0174 10.9655 17.0176C10.674 17.1857 10.3434 17.2741 10.0068 17.2741C9.67028 17.2741 9.33964 17.1856 9.04809 17.0175C9.04776 17.0174 9.04744 17.0172 9.04711 17.017L4.24814 14.2749L4.24569 14.2735C3.95441 14.1051 3.71252 13.863 3.54428 13.5716C3.37604 13.2802 3.28735 12.9497 3.28711 12.6132V7.12643C3.28735 6.78996 3.37604 6.45946 3.54428 6.16806C3.71252 5.87667 3.95441 5.63462 4.24569 5.46618L4.24816 5.46475L9.04711 2.72298C9.04749 2.72276 9.04788 2.72253 9.04826 2.72231ZM15.6307 12.6123V7.12722C15.6306 6.98285 15.5925 6.84105 15.5203 6.71602C15.4484 6.59136 15.345 6.48775 15.2205 6.4155C15.2201 6.41529 15.2197 6.41508 15.2194 6.41487L10.4186 3.67205C10.2934 3.59977 10.1514 3.56171 10.0068 3.56171C9.86227 3.56171 9.72025 3.59976 9.59505 3.67205L9.59291 3.67329L4.79429 6.41487C4.79392 6.41508 4.79356 6.41529 4.79319 6.4155C4.6687 6.48775 4.56532 6.59136 4.49334 6.71602C4.42118 6.841 4.38313 6.98275 4.383 7.12706V12.6126C4.38313 12.7569 4.42118 12.8987 4.49334 13.0237C4.56533 13.1483 4.66873 13.252 4.79324 13.3242C4.79359 13.3244 4.79394 13.3246 4.79429 13.3248L9.59506 16.0679C9.72025 16.1402 9.86227 16.1782 10.0068 16.1782C10.1514 16.1782 10.2934 16.1402 10.4186 16.0679L10.4207 16.0667L15.2189 13.3246C15.2192 13.3245 15.2194 13.3243 15.2197 13.3242C15.3444 13.252 15.448 13.1483 15.5201 13.0236C15.5924 12.8985 15.6305 12.7567 15.6307 12.6123Z" fill="white"/>
<path fill-rule="evenodd" clip-rule="evenodd" d="M3.54639 6.13939C3.69792 5.87744 4.03311 5.78792 4.29506 5.93945L10.0073 9.24375L15.7189 5.93946C15.9809 5.78792 16.316 5.87743 16.4676 6.13937C16.6191 6.40132 16.5296 6.73651 16.2677 6.88805L10.2817 10.3511C10.1119 10.4493 9.90264 10.4493 9.7329 10.3511L3.74632 6.88806C3.48437 6.73654 3.39486 6.40134 3.54639 6.13939Z" fill="white"/>
<path fill-rule="evenodd" clip-rule="evenodd" d="M10.0069 9.32178C10.3096 9.32178 10.5549 9.5671 10.5549 9.86972V16.7821C10.5549 17.0847 10.3096 17.33 10.0069 17.33C9.70431 17.33 9.45898 17.0847 9.45898 16.7821V9.86972C9.45898 9.5671 9.70431 9.32178 10.0069 9.32178Z" fill="white"/>
</svg>
