<svg width="21" height="20" viewBox="0 0 21 20" fill="none" xmlns="http://www.w3.org/2000/svg">
<path d="M20 9.99994C20 15.5228 15.5229 20 10.0001 20C4.47715 20 0 15.5228 0 9.99994C0 4.47712 4.47715 0 10.0001 0C15.5228 0 20 4.47712 20 9.99994Z" fill="white"/>
<path d="M4.16388 9.50605C4.1639 9.39421 4.18601 9.28347 4.22894 9.18021C4.27188 9.07694 4.33479 8.98316 4.41406 8.90428C4.49333 8.82539 4.58741 8.76293 4.69088 8.7205C4.79436 8.67807 4.9052 8.6565 5.01703 8.65702L6.43147 8.66164C6.657 8.66164 6.87329 8.75123 7.03276 8.9107C7.19223 9.07017 7.28182 9.28646 7.28182 9.51199V14.8607C7.44113 14.8135 7.645 14.7631 7.86935 14.7103C8.02479 14.6737 8.16331 14.5857 8.26246 14.4606C8.36161 14.3354 8.41559 14.1804 8.41562 14.0208V7.38653C8.41562 7.16099 8.50521 6.94468 8.66467 6.78518C8.82414 6.62569 9.04043 6.53606 9.26597 6.53602H10.6847C10.9102 6.53606 11.1265 6.62569 11.286 6.78518C11.4455 6.94468 11.535 7.16099 11.535 7.38653V13.5442C11.535 13.5442 11.89 13.4005 12.2355 13.2546C12.3639 13.2003 12.4735 13.1094 12.5505 12.9932C12.6276 12.8771 12.6687 12.7408 12.6688 12.6014V5.26058C12.6688 5.03508 12.7584 4.81881 12.9178 4.65935C13.0773 4.49988 13.2935 4.41027 13.519 4.41023H14.9363C15.1617 4.41045 15.3777 4.50013 15.537 4.65958C15.6963 4.81903 15.7858 5.03519 15.7858 5.26058V11.3055C17.0145 10.415 18.2597 9.34393 19.2479 8.05611C19.3913 7.86917 19.4862 7.64966 19.5241 7.41714C19.562 7.18463 19.5418 6.94634 19.4652 6.72355C19.0078 5.40752 18.2806 4.20148 17.3303 3.18259C16.3801 2.1637 15.2275 1.35441 13.9465 0.806507C12.6655 0.258602 11.2842 -0.0158526 9.89106 0.000707133C8.4979 0.0172668 7.12354 0.324475 5.85591 0.902674C4.58829 1.48087 3.45533 2.31733 2.52952 3.35852C1.60372 4.3997 0.905467 5.62269 0.479442 6.94922C0.0534176 8.27576 -0.0909942 9.67662 0.0554468 11.0622C0.201888 12.4477 0.635957 13.7874 1.32988 14.9956C1.45077 15.204 1.62864 15.3736 1.84258 15.4844C2.05652 15.5952 2.29765 15.6427 2.53763 15.6213C2.80573 15.5976 3.13953 15.5643 3.53639 15.5177C3.70912 15.4981 3.86858 15.4156 3.98441 15.286C4.10024 15.1564 4.16436 14.9887 4.16454 14.8148V9.50605" fill="#12161C"/>
<path d="M4.13379 18.0839C5.62767 19.1707 7.39308 19.823 9.23469 19.9688C11.0763 20.1145 12.9223 19.7479 14.5685 18.9095C16.2147 18.0712 17.5969 16.7938 18.5622 15.2187C19.5275 13.6436 20.0382 11.8321 20.0378 9.98475C20.0378 9.75363 20.0271 9.52614 20.0117 9.29932C16.353 14.7562 9.59741 17.3072 4.13379 18.0839Z" fill="#F0B90B"/>
</svg>
