<svg width="20" height="20" viewBox="0 0 20 20" fill="none" xmlns="http://www.w3.org/2000/svg">
<circle cx="10" cy="10" r="10" fill="white"/>
<path d="M7.90335 4.62909C7.74354 4.60485 7.7368 4.60201 7.812 4.59071C7.95612 4.56903 8.29642 4.59858 8.53092 4.6531C9.07837 4.78036 9.57652 5.10636 10.1083 5.68534L10.2495 5.83916L10.4516 5.80739C11.303 5.67359 12.1691 5.77993 12.8935 6.10719C13.0928 6.19723 13.4071 6.37645 13.4463 6.42251C13.4588 6.43718 13.4817 6.53167 13.4973 6.63249C13.5511 6.98129 13.5242 7.24865 13.4151 7.44835C13.3557 7.55701 13.3524 7.59145 13.3923 7.68445C13.4242 7.75866 13.513 7.81359 13.601 7.81347C13.781 7.81323 13.9747 7.52864 14.0645 7.13266L14.1002 6.97537L14.1708 7.05362C14.5584 7.48298 14.8627 8.06852 14.915 8.48531L14.9286 8.59398L14.8635 8.49519C14.7514 8.3252 14.6387 8.20948 14.4945 8.11614C14.2345 7.9479 13.9596 7.89065 13.2316 7.85312C12.574 7.81924 12.2018 7.76432 11.8328 7.64664C11.205 7.44645 10.8885 7.17984 10.1427 6.22293C9.81139 5.79791 9.60664 5.56275 9.40297 5.37337C8.94019 4.94306 8.48544 4.71739 7.90335 4.62909Z" fill="url(#paint0_linear)"/>
<path d="M13.5949 5.57806C13.6114 5.29326 13.6509 5.1054 13.7303 4.93384C13.7618 4.86594 13.7912 4.81036 13.7958 4.81036C13.8003 4.81036 13.7866 4.86048 13.7653 4.92174C13.7076 5.08823 13.6981 5.31596 13.7379 5.58091C13.7884 5.91709 13.8171 5.9656 14.1805 6.32874C14.3508 6.49908 14.5491 6.7139 14.6209 6.80613L14.7516 6.97384L14.6209 6.85398C14.4611 6.70742 14.0937 6.42158 14.0125 6.38072C13.9581 6.35332 13.95 6.3538 13.9164 6.38647C13.8855 6.41658 13.8789 6.46183 13.8747 6.67573C13.868 7.0091 13.8215 7.22308 13.7094 7.43703C13.6487 7.55275 13.6391 7.52805 13.694 7.39744C13.735 7.29991 13.7392 7.25704 13.7389 6.93432C13.7382 6.28589 13.6595 6.13 13.1979 5.86295C13.081 5.7953 12.8883 5.69774 12.7697 5.64613C12.6511 5.59453 12.557 5.54958 12.5604 5.54621C12.5735 5.5335 13.0236 5.66199 13.2049 5.73016C13.4744 5.83155 13.5189 5.8447 13.5516 5.83247C13.5736 5.82426 13.5842 5.76177 13.5949 5.57806Z" fill="url(#paint1_linear)"/>
<path d="M8.21414 6.68737C7.88972 6.25058 7.68899 5.5809 7.73245 5.08027L7.74589 4.92535L7.81973 4.93853C7.95841 4.96326 8.19752 5.0503 8.30948 5.1168C8.61673 5.29928 8.74975 5.53954 8.88507 6.15648C8.92471 6.33718 8.97672 6.54168 9.00065 6.61091C9.03917 6.72234 9.18475 6.98263 9.30311 7.15167C9.38836 7.27343 9.33173 7.33112 9.14328 7.31448C8.85548 7.28908 8.46563 7.02596 8.21414 6.68737Z" fill="url(#paint2_linear)"/>
<path d="M13.2012 9.93821C11.6851 9.34125 11.1511 8.82308 11.1511 7.94878C11.1511 7.82011 11.1557 7.71484 11.1612 7.71484C11.1667 7.71484 11.2254 7.7573 11.2915 7.80921C11.599 8.05035 11.9432 8.15335 12.8963 8.28932C13.4571 8.36934 13.7727 8.43397 14.0639 8.52839C14.9892 8.82851 15.5617 9.43757 15.6983 10.2671C15.738 10.5082 15.7147 10.9602 15.6504 11.1985C15.5996 11.3866 15.4446 11.7258 15.4035 11.7389C15.3921 11.7424 15.381 11.6997 15.378 11.6416C15.3624 11.3301 15.2015 11.0268 14.9312 10.7997C14.6238 10.5414 14.2109 10.3358 13.2012 9.93821Z" fill="url(#paint3_linear)"/>
<path d="M12.1368 10.1861C12.1178 10.0756 12.0849 9.93442 12.0636 9.87242L12.0249 9.7597L12.0968 9.83857C12.1962 9.94772 12.2748 10.0874 12.3414 10.2734C12.3922 10.4154 12.3979 10.4576 12.3976 10.6883C12.3972 10.9148 12.3908 10.9623 12.3439 11.0901C12.2699 11.2916 12.178 11.4345 12.0239 11.5879C11.747 11.8635 11.3909 12.0161 10.8771 12.0794C10.7878 12.0904 10.5275 12.1089 10.2986 12.1206C9.72186 12.1499 9.34226 12.2105 9.00117 12.3277C8.95214 12.3445 8.90835 12.3548 8.90391 12.3504C8.89011 12.337 9.12234 12.2016 9.31415 12.1112C9.58462 11.9838 9.85386 11.9143 10.4571 11.816C10.7551 11.7675 11.0628 11.7086 11.141 11.6852C11.8789 11.4639 12.2582 10.8929 12.1368 10.1861Z" fill="url(#paint4_linear)"/>
<path d="M12.8319 11.3931C12.6305 10.9697 12.5843 10.5608 12.6946 10.1795C12.7064 10.1388 12.7254 10.1054 12.7368 10.1054C12.7482 10.1054 12.7958 10.1305 12.8424 10.1612C12.9353 10.2224 13.1215 10.3253 13.6174 10.5897C14.2363 10.9197 14.5892 11.1752 14.8292 11.4672C15.0394 11.7228 15.1694 12.0141 15.232 12.3692C15.2675 12.5703 15.2466 13.0542 15.1939 13.2567C15.0275 13.8954 14.6407 14.397 14.0891 14.6897C14.0083 14.7326 13.9358 14.7678 13.9279 14.768C13.92 14.7681 13.9495 14.6949 13.9934 14.6053C14.1789 14.2259 14.2 13.8569 14.0597 13.4462C13.9738 13.1947 13.7987 12.8878 13.4451 12.3692C13.0339 11.7662 12.9331 11.6058 12.8319 11.3931Z" fill="url(#paint5_linear)"/>
<path d="M7.13723 13.6781C7.69984 13.2135 8.39988 12.8835 9.03753 12.7821C9.31235 12.7385 9.77015 12.7558 10.0246 12.8195C10.4325 12.9216 10.7974 13.1503 10.9872 13.4227C11.1727 13.6889 11.2522 13.921 11.3351 14.4372C11.3677 14.6409 11.4033 14.8453 11.414 14.8916C11.4763 15.1592 11.5973 15.373 11.7473 15.4805C11.9856 15.651 12.3959 15.6616 12.7995 15.5076C12.868 15.4815 12.9275 15.4634 12.9317 15.4675C12.9464 15.4817 12.7431 15.6147 12.5997 15.6848C12.4068 15.779 12.2534 15.8155 12.0495 15.8155C11.6798 15.8155 11.3729 15.6316 11.1168 15.2566C11.0664 15.1828 10.9532 14.9618 10.8651 14.7654C10.5947 14.1623 10.4612 13.9786 10.1473 13.7775C9.87405 13.6026 9.5217 13.5712 9.25664 13.6983C8.90844 13.8653 8.81129 14.3004 9.06067 14.5762C9.15979 14.6858 9.34462 14.7803 9.49576 14.7987C9.77851 14.8331 10.0215 14.6227 10.0215 14.3436C10.0215 14.1623 9.95025 14.0588 9.77091 13.9797C9.52594 13.8716 9.26264 13.998 9.2639 14.223C9.26445 14.319 9.30717 14.3792 9.40554 14.4227C9.46864 14.4507 9.4701 14.4528 9.41865 14.4424C9.1939 14.3968 9.14124 14.1318 9.32195 13.9559C9.53892 13.7448 9.98756 13.8379 10.1416 14.1262C10.2064 14.2473 10.2139 14.4885 10.1574 14.634C10.0311 14.96 9.6629 15.1313 9.28934 15.0381C9.035 14.9745 8.93144 14.9058 8.6248 14.5969C8.09196 14.0601 7.88511 13.9561 7.11693 13.8389L6.96973 13.8164L7.13723 13.6781Z" fill="url(#paint6_linear)"/>
<path fill-rule="evenodd" clip-rule="evenodd" d="M4.63706 4.07106C6.4165 6.18313 7.64209 7.05453 7.77828 7.23863C7.89074 7.39065 7.84842 7.52731 7.65577 7.63442C7.54864 7.69397 7.32838 7.75431 7.2181 7.75431C7.09338 7.75431 7.05055 7.70726 7.05055 7.70726C6.97823 7.64018 6.9375 7.65191 6.5661 7.00722C6.0505 6.22481 5.619 5.57577 5.60723 5.5649C5.58001 5.53977 5.58048 5.54062 6.51354 7.17326C6.66429 7.51354 6.54352 7.63845 6.54352 7.68692C6.54352 7.78551 6.51602 7.83733 6.39165 7.97299C6.18433 8.19918 6.09165 8.45332 6.02474 8.97929C5.94975 9.56891 5.73885 9.98539 5.15439 10.6982C4.81227 11.1155 4.75629 11.192 4.66996 11.3601C4.56123 11.5719 4.53133 11.6905 4.51921 11.958C4.5064 12.2407 4.53135 12.4234 4.61968 12.6938C4.69702 12.9305 4.77774 13.0867 4.98411 13.3993C5.16221 13.669 5.26475 13.8695 5.26475 13.948C5.26475 14.0103 5.27694 14.0104 5.55291 13.9495C6.21334 13.8036 6.74961 13.5471 7.05121 13.2327C7.23787 13.0382 7.2817 12.9307 7.28312 12.6642C7.28405 12.4897 7.27778 12.4532 7.22957 12.3529C7.1511 12.1896 7.00824 12.0538 6.69338 11.8433C6.28083 11.5675 6.10462 11.3455 6.05595 11.0401C6.01602 10.7896 6.06234 10.6128 6.29057 10.145C6.52679 9.6608 6.58534 9.45446 6.62494 8.96641C6.65051 8.65109 6.68593 8.52674 6.77857 8.42692C6.87519 8.32284 6.96217 8.28759 7.20127 8.25564C7.5911 8.20357 7.83932 8.10494 8.04336 7.92107C8.22035 7.76156 8.29442 7.60787 8.30578 7.3765L8.31442 7.20114L8.2155 7.08836C7.85731 6.67992 4.39718 3.75 4.37514 3.75C4.37043 3.75 4.4883 3.89449 4.63706 4.07106ZM5.46583 12.2779C5.54681 12.1376 5.50378 11.9574 5.36831 11.8692C5.24032 11.786 5.04148 11.8253 5.04148 11.9337C5.04148 11.9668 5.06019 11.9909 5.10237 12.0121C5.17339 12.0478 5.17855 12.0881 5.12267 12.1702C5.06608 12.2534 5.07064 12.3265 5.13556 12.3762C5.24017 12.4563 5.38827 12.4122 5.46583 12.2779Z" fill="url(#paint7_linear)"/>
<path fill-rule="evenodd" clip-rule="evenodd" d="M8.56074 8.34759C8.37774 8.40256 8.19984 8.59224 8.14478 8.79112C8.11118 8.91246 8.13024 9.12529 8.18056 9.19102C8.26185 9.29718 8.34047 9.32515 8.55333 9.32369C8.97009 9.32084 9.33239 9.14605 9.37451 8.92753C9.40904 8.7484 9.24991 8.50016 9.03074 8.39118C8.91764 8.33497 8.67711 8.31267 8.56074 8.34759ZM9.04793 8.72015C9.1122 8.63084 9.08408 8.53433 8.97478 8.46905C8.76662 8.34475 8.45184 8.44761 8.45184 8.63991C8.45184 8.73564 8.61599 8.84008 8.76646 8.84008C8.86661 8.84008 9.00366 8.78167 9.04793 8.72015Z" fill="url(#paint8_linear)"/>
<defs>
<linearGradient id="paint0_linear" x1="7.76562" y1="6.58877" x2="14.9286" y2="6.58877" gradientUnits="userSpaceOnUse">
<stop stop-color="#6F45FF"/>
<stop offset="1" stop-color="#FF6365"/>
</linearGradient>
<linearGradient id="paint1_linear" x1="12.5603" y1="6.16077" x2="14.7516" y2="6.16077" gradientUnits="userSpaceOnUse">
<stop stop-color="#6F45FF"/>
<stop offset="1" stop-color="#FF6365"/>
</linearGradient>
<linearGradient id="paint2_linear" x1="7.72656" y1="6.12132" x2="9.3418" y2="6.12132" gradientUnits="userSpaceOnUse">
<stop stop-color="#6F45FF"/>
<stop offset="1" stop-color="#FF6365"/>
</linearGradient>
<linearGradient id="paint3_linear" x1="11.1511" y1="9.72695" x2="15.7178" y2="9.72695" gradientUnits="userSpaceOnUse">
<stop stop-color="#6F45FF"/>
<stop offset="1" stop-color="#FF6365"/>
</linearGradient>
<linearGradient id="paint4_linear" x1="8.90332" y1="11.0556" x2="12.3976" y2="11.0556" gradientUnits="userSpaceOnUse">
<stop stop-color="#6F45FF"/>
<stop offset="1" stop-color="#FF6365"/>
</linearGradient>
<linearGradient id="paint5_linear" x1="12.6362" y1="12.4367" x2="15.2496" y2="12.4367" gradientUnits="userSpaceOnUse">
<stop stop-color="#6F45FF"/>
<stop offset="1" stop-color="#FF6365"/>
</linearGradient>
<linearGradient id="paint6_linear" x1="6.96973" y1="14.2867" x2="12.9324" y2="14.2867" gradientUnits="userSpaceOnUse">
<stop stop-color="#6F45FF"/>
<stop offset="1" stop-color="#FF6365"/>
</linearGradient>
<linearGradient id="paint7_linear" x1="4.375" y1="8.87248" x2="8.31442" y2="8.87248" gradientUnits="userSpaceOnUse">
<stop stop-color="#6F45FF"/>
<stop offset="1" stop-color="#FF6365"/>
</linearGradient>
<linearGradient id="paint8_linear" x1="8.12793" y1="8.82731" x2="9.37923" y2="8.82731" gradientUnits="userSpaceOnUse">
<stop stop-color="#6F45FF"/>
<stop offset="1" stop-color="#FF6365"/>
</linearGradient>
</defs>
</svg>
