 <svg width="24" height="24" viewBox="0 0 24 24" fill="none" xmlns="http://www.w3.org/2000/svg">
<path d="M3.35288 8.95043C4.00437 6.17301 6.17301 4.00437 8.95043 3.35288C10.9563 2.88237 13.0437 2.88237 15.0496 3.35288C17.827 4.00437 19.9956 6.17301 20.6471 8.95044C21.1176 10.9563 21.1176 13.0437 20.6471 15.0496C19.9956 17.827 17.827 19.9956 15.0496 20.6471C13.0437 21.1176 10.9563 21.1176 8.95044 20.6471C6.17301 19.9956 4.00437 17.827 3.35288 15.0496C2.88237 13.0437 2.88237 10.9563 3.35288 8.95043Z" stroke="#CCD2E3" stroke-width="2"/>
<path d="M13.7778 9C14.5128 9 15.1111 9.57694 15.1111 10.2857C15.1111 10.5222 15.3097 10.7143 15.5556 10.7143C15.8014 10.7143 16 10.5222 16 10.2857C16 9.10421 15.003 8.14286 13.7778 8.14286H12.4444V6.42857C12.4444 6.1921 12.2459 6 12 6C11.7541 6 11.5556 6.1921 11.5556 6.42857V8.14286H10.2222C9.59787 8.14286 8.99783 8.39879 8.57769 8.84452C8.15777 9.29004 7.95074 9.89146 8.01063 10.4948C8.11827 11.5792 9.12305 12.4286 10.2986 12.4286H11.5556V15H10.2222C9.4872 15 8.88889 14.4231 8.88889 13.7143C8.88889 13.4778 8.69032 13.2857 8.44444 13.2857C8.19857 13.2857 8 13.4778 8 13.7143C8 14.8958 8.99696 15.8571 10.2222 15.8571H11.5556V17.5714C11.5556 17.8079 11.7541 18 12 18C12.2459 18 12.4444 17.8079 12.4444 17.5714V15.8571H13.7014C14.877 15.8571 15.8817 15.0077 15.9894 13.9233C16.0493 13.3205 15.8422 12.7186 15.4223 12.2731C15.0022 11.8274 14.4021 11.5714 13.7778 11.5714H12.4444V9H13.7778ZM11.5556 11.5714H10.2986C9.57595 11.5714 8.95964 11.0627 8.89518 10.4134C8.85872 10.0449 8.9796 9.69224 9.23546 9.42125C9.48763 9.15339 9.84701 9 10.2222 9H11.5556V11.5714ZM13.7778 12.4286C14.153 12.4286 14.5124 12.582 14.765 12.8498C15.0204 13.1212 15.1417 13.4734 15.1053 13.8419C15.0404 14.4913 14.424 15 13.7014 15H12.4444V12.4286H13.7778Z" fill="#CCD2E3"/>
</svg>
