<svg width="1112" height="814" viewBox="0 0 1112 814" fill="none" xmlns="http://www.w3.org/2000/svg">
<g clip-path="url(#clip0)">
<path d="M0 1209C0 1209 41.6 910.7 146.8 883C252 855.3 656.3 770.9 738.5 685.4C820.7 599.9 619.6 199.8 694.2 184.1C808.2 160 1530 586.4 1530 586.4" stroke="#FF6365"/>
<path d="M4.60004 1206.5C4.60004 1206.5 46.6 906.4 151.8 878.8C257 851.2 661.3 766.7 743.5 681.2C825.7 595.8 626.9 196.6 701.5 180.8C815.5 156.7 1530.2 578.9 1530.2 578.9" stroke="#FC6268"/>
<path d="M9.20001 1204.1C9.20001 1204.1 51.7 902.3 156.9 874.6C262.1 846.9 666.4 762.5 748.6 677C830.8 591.6 634.4 193.3 709 177.5C823 153.4 1530.5 571.3 1530.5 571.3" stroke="#F9626B"/>
<path d="M13.8 1201.7C13.8 1201.7 56.8 898.2 162 870.5C267.2 842.8 671.5 758.4 753.7 672.9C835.9 587.5 641.8 190.1 716.4 174.4C830.4 150.3 1530.7 564 1530.7 564" stroke="#F7616E"/>
<path d="M18.3 1199.2C18.3 1199.2 61.8 893.9 167 866.3C272.2 838.7 676.5 754.2 758.7 668.7C840.9 583.2 649.1 186.8 723.7 171.1C837.7 147 1530.8 556.5 1530.8 556.5" stroke="#F46171"/>
<path d="M22.9 1196.8C22.9 1196.8 66.8 889.8 172.1 862.1C277.3 834.4 681.6 750 763.8 664.5C846 579.1 656.6 183.5 731.2 167.8C845.2 143.7 1531.2 548.9 1531.2 548.9" stroke="#F16074"/>
<path d="M27.5 1194.3C27.5 1194.3 71.9 885.6 177.1 857.9C282.3 830.2 686.6 745.8 768.8 660.3C851 574.8 663.9 180.3 738.5 164.5C852.5 140.4 1531.3 541.4 1531.3 541.4" stroke="#EE5F77"/>
<path d="M32 1191.9C32 1191.9 76.9 881.4 182.1 853.7C287.3 826 691.6 741.6 773.8 656.1C856 570.6 671.2 177 745.8 161.2C859.8 137.1 1531.4 533.9 1531.4 533.9" stroke="#EB5F7A"/>
<path d="M36.6 1189.4C36.6 1189.4 82 877.2 187.2 849.5C292.4 821.8 696.7 737.4 778.9 651.9C861.1 566.5 678.7 173.7 753.3 158C867.3 133.9 1531.8 526.4 1531.8 526.4" stroke="#E85E7D"/>
<path d="M41.2 1187C41.2 1187 87.1 873.1 192.3 845.4C297.5 817.7 701.8 733.3 784 647.8C866.2 562.3 686.1 170.5 760.7 154.8C874.7 130.7 1532 519 1532 519" stroke="#E65E80"/>
<path d="M45.8 1184.5C45.8 1184.5 92.1 868.8 197.4 841.1C302.7 813.4 706.9 729 789.1 643.5C871.3 558 693.5 167.2 768.1 151.4C882.1 127.3 1532.2 511.4 1532.2 511.4" stroke="#E35D83"/>
<path d="M50.3 1182.1C50.3 1182.1 97.1 864.7 202.3 837C307.5 809.3 711.8 724.9 794 639.4C876.2 554 700.8 164 775.4 148.2C889.4 124.1 1532.3 503.9 1532.3 503.9" stroke="#E05D86"/>
<path d="M54.9 1179.6C54.9 1179.6 102.2 860.4 207.4 832.8C312.6 805.1 716.9 720.7 799.1 635.2C881.3 549.7 708.2 160.7 782.8 145C896.8 120.9 1532.6 496.5 1532.6 496.5" stroke="#DD5C89"/>
<path d="M59.5 1177.2C59.5 1177.2 107.3 856.3 212.5 828.6C317.7 800.9 722 716.5 804.2 631C886.4 545.5 715.6 157.4 790.2 141.7C904.2 117.6 1532.8 489 1532.8 489" stroke="#DA5B8C"/>
<path d="M64 1174.7C64 1174.7 112.3 852.1 217.5 824.4C322.7 796.7 727 712.3 809.2 626.8C891.4 541.4 723 154.2 797.6 138.4C911.6 114.3 1533 481.4 1533 481.4" stroke="#D75B8F"/>
<path d="M68.6 1172.3C68.6 1172.3 117.3 847.9 222.5 820.3C327.7 792.6 732 708.2 814.2 622.7C896.4 537.2 730.3 151 804.9 135.2C918.9 111.1 1533.2 474 1533.2 474" stroke="#D55A92"/>
<path d="M73.2 1169.8C73.2 1169.8 122.4 843.7 227.6 816C332.8 788.3 737.1 703.9 819.3 618.4C901.5 533 737.7 147.6 812.3 131.9C926.3 107.8 1533.4 466.5 1533.4 466.5" stroke="#D25A95"/>
<path d="M77.8 1167.4C77.8 1167.4 127.5 839.6 232.7 811.9C337.9 784.2 742.2 699.8 824.4 614.3C906.6 528.9 745.2 144.4 819.8 128.7C933.8 104.6 1533.7 459 1533.7 459" stroke="#CF5998"/>
<path d="M82.3 1164.9C82.3 1164.9 132.5 835.3 237.7 807.6C342.9 779.9 747.2 695.5 829.4 610C911.6 524.6 752.5 141 827.1 125.3C941.1 101.2 1533.8 451.4 1533.8 451.4" stroke="#CC589B"/>
<path d="M86.9 1162.5C86.9 1162.5 137.6 831.2 242.8 803.5C348 775.8 752.3 691.4 834.5 605.9C916.7 520.4 759.9 137.9 834.5 122.1C948.5 97.9999 1534.1 444 1534.1 444" stroke="#C9589E"/>
<path d="M91.5 1160C91.5 1160 142.6 827 247.8 799.3C353 771.6 757.3 687.2 839.5 601.7C921.7 516.3 767.3 134.6 841.9 118.8C955.9 94.6998 1534.3 436.5 1534.3 436.5" stroke="#C757A1"/>
<path d="M96 1157.6C96 1157.6 147.6 822.8 252.8 795.1C358 767.4 762.3 683 844.5 597.5C926.7 512 774.6 131.3 849.2 115.6C963.2 91.5 1534.4 429 1534.4 429" stroke="#C457A4"/>
<path d="M100.6 1155.1C100.6 1155.1 152.7 818.6 257.9 790.9C363.1 763.2 767.4 678.8 849.6 593.3C931.8 507.9 782 128 856.6 112.3C970.6 88.1999 1534.7 421.5 1534.7 421.5" stroke="#C156A7"/>
<path d="M105.2 1152.7C105.2 1152.7 157.8 814.4 263 786.8C368.2 759.1 772.5 674.7 854.7 589.2C936.9 503.8 789.5 124.9 864.1 109.1C978.1 85 1535 414.1 1535 414.1" stroke="#BE55AA"/>
<path d="M109.8 1150.2C109.8 1150.2 162.9 810.2 268.1 782.5C373.3 754.8 777.6 670.4 859.8 584.9C942 499.5 796.9 121.5 871.5 105.7C985.5 81.5999 1535.2 406.4 1535.2 406.4" stroke="#BB55AD"/>
<path d="M114.3 1147.8C114.3 1147.8 167.8 806.1 273 778.4C378.2 750.7 782.5 666.3 864.7 580.8C946.9 495.3 804.1 118.3 878.7 102.6C992.7 78.4998 1535.2 399.1 1535.2 399.1" stroke="#B854B0"/>
<path d="M118.9 1145.3C118.9 1145.3 172.9 801.8 278.1 774.2C383.3 746.5 787.6 662.1 869.8 576.6C952 491.2 811.6 115 886.2 99.2998C1000.2 75.1998 1535.6 391.6 1535.6 391.6" stroke="#B654B4"/>
<path d="M123.5 1142.9C123.5 1142.9 178 797.7 283.2 770C388.4 742.3 792.7 657.9 874.9 572.4C957.1 486.9 819 111.7 893.6 96C1007.6 71.9 1535.8 384 1535.8 384" stroke="#B353B7"/>
<path d="M128 1140.4C128 1140.4 183 793.5 288.2 765.8C393.4 738.1 797.7 653.7 879.9 568.2C962.1 482.8 826.3 108.5 900.9 92.6999C1014.9 68.5999 1535.9 376.5 1535.9 376.5" stroke="#B053BA"/>
<path d="M132.6 1138C132.6 1138 188.1 789.3 293.3 761.6C398.5 733.9 802.8 649.5 885 564C967.2 478.6 833.8 105.2 908.4 89.3999C1022.4 65.2999 1536.2 369 1536.2 369" stroke="#AD52BD"/>
<path d="M137.2 1135.5C137.2 1135.5 193.1 785.1 298.3 757.4C403.5 729.7 807.8 645.3 890 559.8C972.2 474.3 841.1 101.9 915.7 86.1999C1029.7 62.0999 1536.4 361.5 1536.4 361.5" stroke="#AA51C0"/>
<path d="M141.8 1133.1C141.8 1133.1 198.2 781 303.4 753.3C408.6 725.6 812.9 641.2 895.1 555.7C977.3 470.2 848.5 98.6998 923.1 82.9998C1037.1 58.8998 1536.6 354.1 1536.6 354.1" stroke="#A751C3"/>
<path d="M146.3 1130.6C146.3 1130.6 203.2 776.7 308.4 749C413.6 721.3 817.9 636.9 900.1 551.4C982.3 466 855.9 95.4 930.5 79.6C1044.5 55.5 1536.8 346.5 1536.8 346.5" stroke="#A550C6"/>
<path d="M150.9 1128.2C150.9 1128.2 208.3 772.6 313.5 744.9C418.7 717.2 823 632.8 905.2 547.3C987.4 461.8 863.3 92.1999 937.9 76.3999C1051.9 52.2999 1537.1 339 1537.1 339" stroke="#A250C9"/>
<path d="M155.5 1125.7C155.5 1125.7 213.4 768.3 318.6 740.7C423.8 713.1 828.1 628.6 910.3 543.1C992.5 457.6 870.7 88.8999 945.3 73.1999C1059.3 49.0999 1537.3 331.6 1537.3 331.6" stroke="#9F4FCC"/>
<path d="M160.1 1123.3C160.1 1123.3 218.4 764.2 323.6 736.5C428.8 708.8 833.1 624.4 915.3 538.9C997.5 453.5 878.1 85.5999 952.7 69.8999C1066.7 45.7999 1537.5 324.1 1537.5 324.1" stroke="#9C4ECF"/>
<path d="M164.6 1120.8C164.6 1120.8 223.4 760 328.6 732.3C433.8 704.6 838.1 620.2 920.3 534.7C1002.5 449.2 885.4 82.3998 960 66.5998C1074 42.4998 1537.6 316.5 1537.6 316.5" stroke="#994ED2"/>
<path d="M169.2 1118.4C169.2 1118.4 228.5 755.8 333.7 728.2C438.9 700.6 843.2 616.1 925.4 530.6C1007.6 445.1 892.8 79.2 967.4 63.4C1081.4 39.3 1537.9 309.1 1537.9 309.1" stroke="#974DD5"/>
<path d="M173.8 1115.9C173.8 1115.9 233.6 751.6 338.8 723.9C444 696.2 848.3 611.8 930.5 526.3C1012.7 440.9 900.3 75.7999 974.9 60.0999C1088.9 35.9999 1538.2 301.6 1538.2 301.6" stroke="#944DD8"/>
<path d="M178.3 1113.5C178.3 1113.5 238.6 747.5 343.8 719.8C449 692.1 853.3 607.7 935.5 522.2C1017.7 436.8 907.6 72.6 982.2 56.9C1096.2 32.8 1538.3 294.1 1538.3 294.1" stroke="#914CDB"/>
<path d="M182.9 1111.1C182.9 1111.1 243.6 743.3 348.8 715.6C454 687.9 858.3 603.5 940.5 518C1022.7 432.5 914.9 69.2999 989.5 53.5999C1103.5 29.4999 1538.5 286.6 1538.5 286.6" stroke="#8E4BDE"/>
<path d="M187.5 1108.6C187.5 1108.6 248.7 739.1 353.9 711.4C459.1 683.7 863.4 599.3 945.6 513.8C1027.8 428.4 922.4 66.0999 997 50.2999C1111 26.1999 1538.8 279.1 1538.8 279.1" stroke="#8B4BE1"/>
<path d="M192.1 1106.2C192.1 1106.2 253.8 735 359 707.3C464.2 679.6 868.5 595.2 950.7 509.7C1032.9 424.3 929.8 62.8999 1004.4 47.0999C1118.4 22.9999 1539 271.7 1539 271.7" stroke="#884AE4"/>
<path d="M196.6 1103.7C196.6 1103.7 258.8 730.7 364 703C469.2 675.3 873.5 590.9 955.7 505.4C1037.9 420 937.1 59.4999 1011.7 43.7999C1125.7 19.6999 1539.1 264.1 1539.1 264.1" stroke="#864AE7"/>
<path d="M201.2 1101.3C201.2 1101.3 263.9 726.6 369.1 698.9C474.3 671.2 878.6 586.8 960.8 501.3C1043 415.8 944.6 56.2998 1019.2 40.5998C1133.2 16.4998 1539.5 256.7 1539.5 256.7" stroke="#8349EA"/>
<path d="M205.8 1098.8C205.8 1098.8 268.9 722.3 374.1 694.7C479.3 667 883.6 582.6 965.8 497.1C1048 411.7 951.9 53.1 1026.5 37.3C1140.5 13.2 1539.6 249.2 1539.6 249.2" stroke="#8049ED"/>
<path d="M210.3 1096.4C210.3 1096.4 273.9 718.2 379.1 690.5C484.3 662.8 888.6 578.4 970.8 492.9C1053 407.4 959.3 49.7998 1033.8 33.9998C1147.8 9.89985 1539.7 241.6 1539.7 241.6" stroke="#7D48F0"/>
<path d="M214.9 1093.9C214.9 1093.9 279 714 384.2 686.3C489.4 658.6 893.7 574.2 975.9 488.7C1058.1 403.3 966.7 46.4999 1041.3 30.7999C1155.3 6.69991 1540.1 234.2 1540.1 234.2" stroke="#7A47F3"/>
<path d="M219.5 1091.5C219.5 1091.5 284.1 709.8 389.3 682.2C494.5 654.5 898.8 570.1 981 484.6C1063.2 399.2 974.1 43.3001 1048.7 27.6001C1162.7 3.50006 1540.3 226.8 1540.3 226.8" stroke="#7747F6"/>
<path d="M224.1 1089C224.1 1089 289.2 705.6 394.4 677.9C499.6 650.2 903.9 565.8 986.1 480.3C1068.3 394.9 981.6 40 1056.2 24.2C1170.2 0.0999752 1540.6 219.1 1540.6 219.1" stroke="#7546F9"/>
<path d="M228.6 1086.6C228.6 1086.6 294.1 701.5 399.3 673.8C504.5 646.1 908.8 561.7 991 476.2C1073.2 390.7 988.8 36.8 1063.4 21C1177.4 -3.09999 1540.6 211.7 1540.6 211.7" stroke="#7246FC"/>
<path d="M233.2 1084.1C233.2 1084.1 299.2 697.2 404.4 669.5C509.6 641.8 913.9 557.4 996.1 471.9C1078.3 386.5 996.2 33.4 1070.8 17.7C1184.8 -6.40002 1540.9 204.2 1540.9 204.2" stroke="#6F45FF"/>
<path d="M124.2 -607C124.2 -607 414 -524.8 426.9 -416.8C439.8 -308.8 212.6 -112.8 285.9 -19.6C359.2 73.6 948.8 263.8 980.8 333C1018.2 414.1 1059.2 507.1 916.2 687.1C806.9 824.7 679.7 909.4 726.2 1023.1" stroke="#1C0E40"/>
<path d="M126 -602.2C126 -602.2 417.4 -519.3 430.4 -411.3C443.2 -304.1 219.5 -109.4 289.6 -14.9C310.8 13.7 377 50.9001 461.3 90.2001C658.9 182.1 953.6 290.9 977.2 341.5C1002.4 396 1028.9 455.8 1000.8 542.9C986.8 586.2 959.7 635.8 913.6 695C804.5 835.2 683.7 918.8 729.2 1030.3" stroke="#1E0F44"/>
<path d="M127.8 -597.3C127.8 -597.3 420.9 -513.7 433.8 -405.6C446.6 -299.1 226.3 -105.8 293.2 -10.0001C313.7 19.2999 378 57.3 461.2 96.4C655.9 187.8 948.9 297.4 973.5 350.2C999 404.8 1025.1 464.6 997.2 551.1C983.1 594.7 955.9 644.1 910.9 703.1C802.1 846 687.5 928.5 732.2 1037.7" stroke="#1F1047"/>
<path d="M129.6 -592.4C129.6 -592.4 424.3 -508 437.3 -400C450 -294.3 233.2 -102.1 296.9 -5.09985C316.7 25.0001 379.2 63.6001 461.2 102.7C653 193.6 944.2 304.1 970 358.9C995.7 413.5 1021.5 473.4 993.8 559.3C979.6 603.2 952.4 652.3 908.5 711.3C799.9 856.8 691.6 938.2 735.4 1045.2" stroke="#21114B"/>
<path d="M131.4 -587.6C131.4 -587.6 427.8 -502.5 440.7 -394.5C453.3 -289.6 239.9 -98.5001 300.5 -0.400146C319.6 30.4999 380.2 69.7999 461.1 108.7C650 199.1 939.4 310.4 966.3 367.4C992.2 422.1 1017.7 482 990.1 567.3C975.8 611.4 948.7 660.4 905.7 719.2C797.4 867.5 695.4 947.6 738.2 1052.4" stroke="#23124F"/>
<path d="M133.2 -582.7C133.2 -582.7 431.2 -496.9 444.2 -388.9C456.7 -284.7 246.7 -94.7999 304.2 4.40009C322.6 36.1001 381.3 76.0001 461 114.9C647 204.8 934.6 317 962.6 376C988.6 430.8 1013.9 490.7 986.5 575.4C972.1 619.8 945 668.6 903 727.3C794.9 878.3 699.2 957.3 741.2 1059.8" stroke="#241353"/>
<path d="M135 -577.8C135 -577.8 434.7 -491.3 447.6 -383.3C460 -279.9 253.4 -90.9001 307.8 9.29993C325.5 41.7999 382.4 82.3999 460.9 121.1C644.1 210.5 929.8 323.5 959 384.7C985.2 439.6 1010.2 499.5 983 583.5C968.5 628.2 941.4 676.8 900.4 735.3C792.6 889.1 703.2 966.8 744.2 1067.1" stroke="#261456"/>
<path d="M136.8 -573C136.8 -573 438.1 -485.8 451.1 -377.8C463.4 -275.2 260.1 -87.1 311.5 14C328.4 47.3 383.4 88.7 460.9 127.1C641 216.4 925.1 329.9 955.4 393.1C981.8 448.1 1006.5 508 979.5 591.4C964.9 636.3 937.9 684.8 897.9 743.1C790.4 899.7 707.2 976.1 747.3 1074.2" stroke="#27165A"/>
<path d="M138.6 -568.1C138.6 -568.1 441.6 -480.2 454.5 -372.2C466.7 -270.3 266.7 -83.2001 315.1 18.7999C331.3 52.9999 384.5 94.9999 460.8 133.3C637.9 222.2 920.3 336.4 951.8 401.8C978.3 456.9 1002.8 516.9 976 599.6C961.3 644.8 934.4 693.1 895.3 751.3C788.1 910.7 711.1 985.8 750.3 1081.7" stroke="#29175E"/>
<path d="M140.4 -563.2C140.4 -563.2 445 -474.6 458 -366.5C470.1 -265.4 273.4 -79.1 318.8 23.8C334.3 58.9 385.6 101.5 460.8 139.6C635 228 915.6 343.1 948.2 410.5C974.9 465.7 999 525.7 972.4 607.8C957.6 653.2 930.8 701.5 892.6 759.4C785.6 921.6 715 995.5 753.3 1089.1" stroke="#2B1862"/>
<path d="M142.2 -558.4C142.2 -558.4 448.5 -469 461.4 -361C473.4 -260.7 279.9 -75.0999 322.5 28.5001C337.3 64.5001 386.7 107.7 460.8 145.7C632.1 233.7 910.8 349.5 944.6 419.1C971.4 474.4 995.3 534.4 968.9 615.9C954 661.6 927.3 709.8 890 767.4C783.4 932.5 718.9 1005 756.3 1096.4" stroke="#2C1965"/>
<path d="M144 -553.5C144 -553.5 452 -463.4 464.9 -355.4C476.8 -255.8 286.5 -71 326.2 33.3C340.2 70.2 387.9 113.9 460.8 151.8C629.2 239.3 906.1 356 941.1 427.6C968.1 483 991.7 543 965.5 623.9C950.5 669.9 923.9 717.9 887.5 775.4C781.2 943.4 723 1014.5 759.4 1103.7" stroke="#2E1A69"/>
<path d="M145.8 -548.6C145.8 -548.6 455.4 -457.8 468.3 -349.8C480.1 -251 292.9 -66.9001 329.8 38.1999C343.1 75.9999 388.9 120.3 460.7 158.1C626.1 245.2 901.3 362.6 937.4 436.4C964.5 491.9 987.9 551.9 961.9 632.2C946.8 678.4 920.3 726.4 884.9 783.6C778.9 954.5 726.9 1024.3 762.5 1111.2" stroke="#301B6D"/>
<path d="M147.6 -543.8C147.6 -543.8 458.9 -452.3 471.8 -344.3C483.5 -246.3 299.3 -62.8 333.5 42.9C346 81.6 390 126.5 460.6 164.1C623.1 250.7 896.5 369 933.8 444.8C961.1 500.4 984.2 560.4 958.4 640C943.2 686.5 916.9 734.4 882.3 791.3C776.7 965.2 730.9 1033.5 765.5 1118.2" stroke="#311C71"/>
<path d="M149.4 -538.9C149.4 -538.9 462.3 -446.7 475.3 -338.7C487 -241.4 305.7 -58.5999 337.2 47.7001C348.9 87.4001 391.2 132.8 460.6 170.3C620.1 256.5 891.7 375.5 930.1 453.5C957.5 509.2 980.4 569.2 954.7 648.2C939.4 694.9 913.2 742.8 879.5 799.5C774.3 976.4 734.6 1043.2 768.3 1125.7" stroke="#331D74"/>
<path d="M151.2 -534C151.2 -534 465.8 -441.1 478.7 -333.1C490.3 -236.6 312 -54.3 340.8 52.6C351.7 93.2 392.2 139.1 460.5 176.5C617.2 262.2 886.9 382.1 926.5 462.1C954.1 517.9 976.7 577.9 951.2 656.3C935.8 703.3 909.8 751.2 876.9 807.5C772.1 987.4 738.5 1052.8 771.4 1133" stroke="#341E78"/>
<path d="M152.9 -529.2C152.9 -529.2 469.1 -435.6 482.1 -327.5C493.6 -231.8 318.2 -50.0999 344.4 57.4001C354.5 99.0001 393.2 145.4 460.4 182.6C614.2 267.9 882.1 388.5 922.9 470.7C950.6 526.6 973 586.6 947.7 664.4C932.2 711.7 906.4 759.5 874.3 815.5C769.9 998.4 742.5 1062.3 774.4 1140.3" stroke="#361F7C"/>
<path d="M154.7 -524.3C154.7 -524.3 472.6 -429.9 485.5 -321.9C496.9 -226.9 324.4 -45.8 348 62.2C357.3 104.8 394.2 151.7 460.3 188.8C611.1 273.6 877.3 395.1 919.2 479.3C947.1 535.3 969.2 595.4 944.1 672.5C928.5 720 902.9 767.8 871.7 823.6C767.7 1009.5 746.4 1071.9 777.4 1147.7" stroke="#382080"/>
<path d="M156.5 -519.4C156.5 -519.4 476 -424.3 489 -316.3C500.3 -222.1 330.6 -41.4999 351.7 67.0001C360.1 110.5 395.4 157.9 460.3 194.9C608.2 279.2 872.6 401.5 915.7 487.9C943.7 544 965.6 604.1 940.7 680.6C925 728.4 899.6 776.2 869.2 831.6C765.7 1020.6 750.5 1081.4 780.5 1155" stroke="#392183"/>
<path d="M158.3 -514.6C158.3 -514.6 479.5 -418.8 492.4 -310.8C503.6 -217.4 336.7 -37.3001 355.3 71.7999C362.9 116.3 396.4 164.2 460.2 201.1C605.2 285 867.7 408.1 912 496.5C940.1 552.7 961.8 612.8 937 688.6C921.2 736.6 896 784.4 866.4 839.5C763.4 1031.6 754.2 1090.9 783.4 1162.2" stroke="#3B2287"/>
<path d="M160.1 -509.7C160.1 -509.7 482.9 -413.2 495.9 -305.2C507 -212.5 342.8 -32.9 359 76.6C365.7 122.1 397.5 170.5 460.1 207.2C602.2 290.6 862.9 414.6 908.4 505.1C936.7 561.4 958.1 621.5 933.5 696.7C917.6 745 892.6 792.8 863.8 847.6C761.3 1042.8 758.2 1100.5 786.4 1169.6" stroke="#3D248B"/>
<path d="M161.9 -504.8C161.9 -504.8 486.4 -407.6 499.3 -299.6C510.3 -207.7 348.8 -28.6 362.6 81.4C368.4 127.9 398.6 176.7 460 213.4C599.2 296.3 858 421.1 904.7 513.7C933.1 570.1 954.3 630.2 929.9 704.8C913.9 753.4 889.1 801.2 861.2 855.6C759.3 1053.9 762.1 1110 789.4 1176.9" stroke="#3E258F"/>
<path d="M163.7 -500C163.7 -500 489.8 -402.1 502.8 -294.1C513.7 -203 354.9 -24.4 366.3 86.2C371.2 133.7 399.7 183 460 219.5C596.3 302 853.3 427.6 901.1 522.3C929.6 578.8 950.6 638.9 926.4 712.9C910.3 761.7 885.8 809.5 858.6 863.7C757.3 1065.2 766 1119.7 792.5 1184.3" stroke="#402692"/>
<path d="M165.5 -495.1C165.5 -495.1 493.3 -396.5 506.2 -288.4C517 -198 360.8 -20.0001 369.9 91.0999C373.9 139.6 400.7 189.4 459.9 225.8C593.2 307.8 848.5 434.2 897.5 531C926.2 587.6 946.9 647.7 922.9 721.1C906.7 770.2 882.5 818 856 871.8C755.3 1076.4 770 1129.3 795.5 1191.7" stroke="#412796"/>
<path d="M167.3 -490.3C167.3 -490.3 496.8 -390.9 509.7 -282.9C520.4 -193.3 366.8 -15.7001 373.6 95.7999C376.6 145.2 401.9 195.5 459.9 231.8C590.3 313.3 843.7 440.6 893.9 539.5C922.7 596.2 943.2 656.3 919.3 729.1C903 778.5 879 826.3 853.3 879.7C753.3 1087.5 773.8 1138.7 798.4 1198.9" stroke="#43289A"/>
<path d="M169.1 -485.4C169.1 -485.4 500.2 -385.3 513.1 -277.3C523.7 -188.5 372.6 -11.3999 377.2 100.7C379.2 151.1 402.9 201.9 459.8 238.1C587.3 319.2 838.9 447.3 890.3 548.2C919.2 605 939.5 665.1 915.8 737.3C899.4 786.9 875.7 834.8 850.7 887.9C751.4 1098.9 777.8 1148.5 801.5 1206.4" stroke="#45299E"/>
<path d="M170.9 -480.5C170.9 -480.5 503.7 -379.7 516.6 -271.7C527.1 -183.6 378.6 -7.1 380.9 105.5C382 156.9 404 208.2 459.8 244.2C584.4 324.8 834.1 453.7 886.7 556.8C915.7 613.7 935.8 673.9 912.3 745.3C895.8 795.2 872.4 843.1 848.2 895.8C749.7 1110.1 781.8 1157.9 804.6 1213.6" stroke="#462AA1"/>
<path d="M172.7 -475.7C172.7 -475.7 507.1 -374.2 520 -266.2C530.5 -178.9 384.3 -2.89993 384.5 110.2C384.6 162.6 405.1 214.3 459.6 250.2C581.3 330.3 829.2 460.1 882.9 565.2C912.1 622.2 931.8 682.4 908.6 753.2C892 803.3 868.9 851.3 845.4 903.6C747.7 1121.1 785.5 1167.2 807.4 1220.7" stroke="#482BA5"/>
<path d="M174.5 -470.8C174.5 -470.8 510.6 -368.6 523.5 -260.6C533.9 -174.1 390.2 1.39992 388.2 115.1C387.3 168.5 406.2 220.7 459.6 256.5C578.4 336.1 824.4 466.8 879.4 574C908.7 631.1 928.2 691.3 905.2 761.5C888.5 811.9 865.7 859.9 842.9 911.9C746 1132.7 789.6 1177 810.6 1228.3" stroke="#4A2CA9"/>
<path d="M176.3 -465.9C176.3 -465.9 514 -363 527 -255C537.3 -169.2 396 5.70015 391.9 119.9C389.9 174.2 407.3 226.9 459.6 262.6C575.5 341.7 819.6 473.3 875.8 582.5C905.2 639.7 924.5 699.9 901.6 769.5C884.8 820.2 862.3 868.2 840.2 919.8C744.2 1143.9 793.4 1186.5 813.5 1235.5" stroke="#4B2DAD"/>
<path d="M178.1 -461.1C178.1 -461.1 517.5 -357.5 530.4 -249.5C540.6 -164.5 401.8 9.79985 395.5 124.6C392.5 179.9 408.4 233.1 459.5 268.7C572.5 347.3 814.8 479.7 872.2 591.1C901.8 648.4 920.8 708.6 898.1 777.6C881.2 828.5 859.1 876.6 837.7 927.8C742.6 1155.2 797.5 1196 816.6 1242.8" stroke="#4D2EB0"/>
<path d="M179.9 -456.2C179.9 -456.2 520.9 -351.8 533.9 -243.8C544 -159.6 407.6 14.2 399.2 129.6C395.1 185.9 409.5 239.5 459.5 275C569.6 353.1 810 486.4 868.6 599.8C898.3 657.3 917.1 717.4 894.6 785.8C877.6 837 855.8 885.2 835.1 936C741 1166.7 801.4 1205.7 819.6 1250.3" stroke="#4E2FB4"/>
<path d="M181.7 -451.3C181.7 -451.3 524.4 -346.2 537.3 -238.2C547.3 -154.7 413.2 18.4 402.8 134.4C397.7 191.6 410.5 245.8 459.4 281.2C566.6 358.8 805.2 493 864.9 608.5C894.7 666.1 913.3 726.2 891 793.9C873.9 845.3 852.5 893.6 832.4 944C739.3 1178 805.3 1215.3 822.6 1257.6" stroke="#5031B8"/>
<path d="M183.5 -446.5C183.5 -446.5 527.8 -340.7 540.8 -232.7C550.7 -150 419 22.5 406.5 139.1C400.3 197.3 411.7 251.9 459.4 287.2C563.7 364.3 800.4 499.4 861.4 616.9C891.3 674.6 909.7 734.7 887.6 801.8C870.4 853.5 849.3 901.8 829.9 951.8C737.9 1189.2 809.3 1224.6 825.7 1264.7" stroke="#5232BC"/>
<path d="M185.3 -441.6C185.3 -441.6 531.3 -335.1 544.2 -227.1C554 -145.2 424.6 26.7999 410.1 144C402.8 203.1 412.7 258.3 459.2 293.5C560.6 370.1 795.4 506 857.6 625.7C887.6 683.5 905.8 743.6 883.8 810.1C866.5 862.1 845.8 910.4 827 960.1C736.1 1200.8 812.9 1234.4 828.4 1272.3" stroke="#5333BF"/>
<path d="M187.1 -436.7C187.1 -436.7 534.7 -329.5 547.7 -221.5C557.4 -140.3 430.4 31 413.8 148.8C405.4 208.8 413.9 264.5 459.2 299.6C557.7 375.7 790.7 512.5 854.1 634.2C884.3 692.1 902.2 752.2 880.4 818.1C863 870.3 842.7 918.7 824.6 968C734.9 1212.1 817.1 1243.9 831.7 1279.5" stroke="#5534C3"/>
<path d="M188.9 -431.9C188.9 -431.9 538.2 -324 551.1 -216C560.7 -135.6 436 35.0001 417.4 153.5C407.9 214.5 414.9 270.7 459.1 305.6C554.7 381.2 785.8 518.9 850.4 642.7C880.7 700.7 898.4 760.9 876.8 826.1C859.3 878.6 839.4 927.1 821.9 975.9C733.4 1223.4 820.9 1253.3 834.6 1286.7" stroke="#5735C7"/>
<path d="M190.7 -427C190.7 -427 541.7 -318.4 554.6 -210.4C564.1 -130.8 441.7 39.2 421.1 158.4C410.4 220.3 416 277 459.1 311.9C551.8 386.9 781 525.6 846.8 651.4C877.2 709.5 894.7 769.7 873.3 834.3C855.7 887.1 836.1 935.6 819.3 984.1C732.2 1235 824.9 1263 837.6 1294.2" stroke="#5836CB"/>
<path d="M192.5 -422.1C192.5 -422.1 545.1 -312.8 558 -204.7C567.4 -125.8 447.3 43.3999 424.7 163.3C412.9 226.1 417.1 283.4 459 318.1C548.8 392.6 776.1 532.2 843.2 660.1C873.7 718.3 891 778.5 869.8 842.4C852.1 895.4 832.9 944 816.7 992.1C730.9 1246.4 828.8 1272.5 840.7 1301.5" stroke="#5A37CE"/>
<path d="M194.3 -417.3C194.3 -417.3 548.6 -307.2 561.5 -199.2C570.9 -121.1 453 47.4999 428.4 168C415.4 231.7 418.2 289.5 459 324.2C545.9 398.2 771.3 538.6 839.6 668.6C870.3 726.9 887.3 787.1 866.3 850.4C848.5 903.7 829.8 952.4 814.2 1000.1C729.9 1257.9 832.8 1282.1 843.8 1308.8" stroke="#5B38D2"/>
<path d="M196.1 -412.4C196.1 -412.4 552 -301.6 564.9 -193.6C574.2 -116.3 458.5 51.6001 432 172.9C417.9 237.5 419.3 295.8 458.9 330.4C542.9 403.8 766.5 545.2 836 677.2C866.8 735.7 883.6 795.8 862.7 858.5C844.8 912 826.5 960.8 811.5 1008.1C728.7 1269.3 836.7 1291.6 846.7 1316.1" stroke="#5D39D6"/>
<path d="M197.9 -407.5C197.9 -407.5 555.5 -296 568.4 -188C577.6 -111.4 464.2 55.7 435.7 177.7C420.4 243.2 420.4 302.1 458.8 336.6C540 409.5 761.6 551.8 832.3 685.9C863.2 744.5 879.8 804.6 859.1 866.7C841.1 920.5 823.2 969.3 808.8 1016.2C727.6 1280.9 840.5 1301.2 849.6 1323.5" stroke="#5F3ADA"/>
<path d="M199.6 -402.7C199.6 -402.7 558.8 -290.5 571.8 -182.5C580.9 -106.7 469.8 59.7001 439.3 182.4C422.9 248.7 421.5 308.2 458.7 342.6C537 414.9 756.7 558.2 828.7 694.3C859.7 753 876.1 813.1 855.6 874.6C837.5 928.7 820 977.5 806.2 1024.1C726.6 1292.2 844.5 1310.7 852.7 1330.7" stroke="#603BDD"/>
<path d="M201.4 -397.8C201.4 -397.8 562.3 -284.9 575.2 -176.9C584.2 -101.9 475.3 63.6999 442.9 187.3C425.3 254.5 422.5 314.5 458.6 348.9C534.1 420.7 751.8 564.9 825 703.1C856.1 761.9 872.3 822 852 882.9C833.8 937.2 816.8 986.2 803.5 1032.3C725.7 1303.9 848.3 1320.4 855.6 1338.2" stroke="#623CE1"/>
<path d="M203.2 -392.9C203.2 -392.9 565.7 -279.3 578.7 -171.3C587.6 -96.9999 481 67.8001 446.6 192.1C427.8 260.2 423.7 320.8 458.6 355C531.2 426.2 747 571.4 821.4 711.6C852.6 770.5 868.5 830.6 848.5 890.9C830.2 945.5 813.6 994.5 801 1040.2C725 1315.3 852.4 1329.8 858.7 1345.4" stroke="#643DE5"/>
<path d="M205 -388.1C205 -388.1 569.2 -273.8 582.1 -165.7C590.9 -92.2001 486.5 71.7999 450.2 196.9C430.2 265.8 424.8 327 458.5 361.1C528.3 431.8 742.1 577.9 817.8 720.2C849.2 779.2 864.8 839.4 844.9 898.9C826.5 953.7 810.4 1002.8 798.3 1048.2C724.2 1326.8 856.2 1339.4 861.7 1352.7" stroke="#653FE9"/>
<path d="M206.8 -383.2C206.8 -383.2 572.6 -268.1 585.6 -160.1C594.3 -87.4 492.2 75.8 453.9 201.8C432.7 271.6 425.9 333.3 458.5 367.4C525.4 437.5 737.1 584.7 814.2 728.9C845.6 788.1 861.1 848.2 841.4 907.1C822.9 962.2 807.2 1011.3 795.7 1056.3C723.6 1338.3 860.1 1349 864.7 1360.1" stroke="#6740EC"/>
<path d="M208.6 -378.3C208.6 -378.3 576.1 -262.5 589 -154.5C597.6 -82.5 497.7 79.7999 457.5 206.6C435.1 277.2 427 339.5 458.4 373.5C522.5 443 732.3 591.1 810.6 737.5C842.1 796.8 857.4 856.9 837.9 915.2C819.3 970.6 804.1 1019.7 793.1 1064.3C723 1349.8 864.1 1358.5 867.7 1367.4" stroke="#6841F0"/>
<path d="M210.4 -373.5C210.4 -373.5 579.5 -257 592.5 -149C601 -77.8 503.4 83.7 461.2 211.3C437.6 282.7 428.2 345.6 458.3 379.6C519.6 448.6 727.4 597.6 806.9 746C838.6 805.4 853.6 865.5 834.3 923.2C815.6 978.8 800.8 1028 790.5 1072.3C722.6 1361.3 868 1368 870.8 1374.7" stroke="#6A42F4"/>
<path d="M212.2 -368.6C212.2 -368.6 583 -251.4 595.9 -143.4C604.3 -73.0001 508.9 87.7 464.8 216.2C440 288.5 429.3 352 458.2 385.8C516.7 454.2 722.6 604.2 803.2 754.7C835 814.2 849.8 874.3 830.7 931.4C811.9 987.3 797.6 1036.5 787.8 1080.4C722.1 1372.9 871.9 1377.7 873.7 1382.1" stroke="#6C43F8"/>
<path d="M214 -363.8C214 -363.8 586.4 -245.9 599.4 -137.9C607.7 -68.2 514.5 91.6 468.5 220.9C442.5 294 430.5 358 458.2 391.9C514 459.6 717.8 610.7 799.7 763.2C831.6 822.8 846.2 882.9 827.2 939.4C808.3 995.6 794.5 1044.8 785.2 1088.3C721.8 1384.3 875.8 1387.1 876.7 1389.3" stroke="#6D44FB"/>
<path d="M215.8 -358.9C215.8 -358.9 589.9 -240.3 602.8 -132.3C615.7 -24.2999 384.8 304.9 458.1 398.1C531.4 491.3 891.1 747.1 823.6 947.5C672.8 1395.6 879.7 1396.7 879.7 1396.7" stroke="#6F45FF"/>
</g>
<defs>
<clipPath id="clip0">
<rect width="1112" height="814" fill="white"/>
</clipPath>
</defs>
</svg>
