<svg width="20" height="20" viewBox="0 0 20 20" fill="none" xmlns="http://www.w3.org/2000/svg">
  <circle cx="10" cy="10" r="10" fill="#ECB23E"/>
  <path d="M4.14082 7.66262C4.01215 8.13224 3.94602 8.61678 3.94416 9.1037C3.94416 9.13792 3.94416 9.17135 3.94416 9.20478C3.94824 9.79328 3.88223 10.3802 3.74751 10.953C3.47612 10.8567 3.19687 10.6616 2.93021 10.3238C2.22855 9.43487 2.46178 8.00952 3.32706 7.67403C3.65429 7.54738 3.92804 7.57413 4.142 7.65711C4.14143 7.65891 4.14103 7.66075 4.14082 7.66262Z" fill="#A16552"/>
  <path d="M4.14082 7.66262C4.01215 8.13224 3.94602 8.61678 3.94416 9.1037C3.94416 9.13792 3.94416 9.17135 3.94416 9.20478C3.94824 9.79328 3.88223 10.3802 3.74751 10.953C3.47612 10.8567 3.19687 10.6616 2.93021 10.3238C2.22855 9.43487 2.46178 8.00952 3.32706 7.67403C3.65429 7.54738 3.92804 7.57413 4.142 7.65711C4.14143 7.65891 4.14103 7.66075 4.14082 7.66262Z" fill="#F5DCB4"/>
  <path d="M17.07 10.3243C16.8037 10.6614 16.5241 10.8565 16.2527 10.9536C16.1181 10.3809 16.0521 9.79412 16.056 9.20576C16.056 9.17233 16.056 9.1389 16.056 9.10468C16.0542 8.61581 15.9875 8.12935 15.8574 7.65809C16.0714 7.5751 16.3451 7.54836 16.6724 7.675C17.5376 8.00971 17.7713 9.43506 17.07 10.3243Z" fill="#A16552"/>
  <path d="M17.07 10.3243C16.8037 10.6614 16.5241 10.8565 16.2527 10.9536C16.1181 10.3809 16.0521 9.79412 16.056 9.20576C16.056 9.17233 16.056 9.1389 16.056 9.10468C16.0542 8.61581 15.9875 8.12935 15.8574 7.65809C16.0714 7.5751 16.3451 7.54836 16.6724 7.675C17.5376 8.00971 17.7713 9.43506 17.07 10.3243Z" fill="#F5DCB4"/>
  <path d="M14.3736 10.9712C14.2461 11.168 14.1644 11.3911 14.1346 11.6237C14.1048 11.8564 14.1276 12.0928 14.2014 12.3155C14.3166 12.6545 14.4197 13.0384 14.4197 13.3239C14.4189 15.4132 12.4409 17.1044 10 17.1044C7.55916 17.1044 5.58003 15.4132 5.58003 13.3239C5.58003 13.0384 5.68307 12.6553 5.79831 12.3155C5.87213 12.0929 5.89502 11.8566 5.86527 11.624C5.83552 11.3914 5.7539 11.1684 5.62644 10.9715C5.37773 10.5822 5.24512 10.1301 5.24414 9.66812C5.24414 8.28171 6.42407 7.15723 7.88128 7.15723C8.3517 7.15607 8.81441 7.27666 9.22443 7.50728C9.46081 7.64176 9.72808 7.71246 10 7.71246C10.272 7.71246 10.5393 7.64176 10.7756 7.50728C11.1855 7.27673 11.6481 7.15627 12.1184 7.15763C13.5736 7.15763 14.7559 8.2821 14.7559 9.66851C14.7563 10.0149 14.6816 10.3572 14.5369 10.6718C14.4895 10.7753 14.435 10.8753 14.3736 10.9712Z" fill="#A16552"/>
  <path d="M14.3736 10.9712C14.2461 11.168 14.1644 11.3911 14.1346 11.6237C14.1048 11.8564 14.1276 12.0928 14.2014 12.3155C14.3166 12.6545 14.4197 13.0384 14.4197 13.3239C14.4189 15.4132 12.4409 17.1044 10 17.1044C7.55916 17.1044 5.58003 15.4132 5.58003 13.3239C5.58003 13.0384 5.68307 12.6553 5.79831 12.3155C5.87213 12.0929 5.89502 11.8566 5.86527 11.624C5.83552 11.3914 5.7539 11.1684 5.62644 10.9715C5.37773 10.5822 5.24512 10.1301 5.24414 9.66812C5.24414 8.28171 6.42407 7.15723 7.88128 7.15723C8.3517 7.15607 8.81441 7.27666 9.22443 7.50728C9.46081 7.64176 9.72808 7.71246 10 7.71246C10.272 7.71246 10.5393 7.64176 10.7756 7.50728C11.1855 7.27673 11.6481 7.15627 12.1184 7.15763C13.5736 7.15763 14.7559 8.2821 14.7559 9.66851C14.7563 10.0149 14.6816 10.3572 14.5369 10.6718C14.4895 10.7753 14.435 10.8753 14.3736 10.9712Z" fill="#F5DCB4"/>
  <path d="M7.74841 13.791C7.71226 13.7909 7.6765 13.7986 7.64355 13.8134C7.61059 13.8283 7.58119 13.85 7.55731 13.8772C7.53344 13.9043 7.51565 13.9363 7.50512 13.9709C7.4946 14.0055 7.49159 14.0419 7.4963 14.0777C7.65362 15.1967 8.71556 16.062 9.99971 16.062C11.2839 16.062 12.3466 15.1967 12.5031 14.0777C12.5078 14.0419 12.5048 14.0055 12.4943 13.971C12.4838 13.9364 12.4661 13.9045 12.4422 13.8773C12.4184 13.8502 12.3891 13.8284 12.3562 13.8136C12.3232 13.7987 12.2875 13.791 12.2514 13.791H7.74841Z" fill="#4E3F3F"/>
  <path d="M8.5459 15.6451C8.98205 15.9173 9.48585 16.0616 9.99996 16.0616C10.5141 16.0616 11.0179 15.9173 11.454 15.6451C11.2715 15.0135 10.6883 15.159 9.99878 15.159C9.30931 15.159 8.72839 15.0135 8.5459 15.6451Z" fill="#E6646E"/>
  <path d="M16.9715 7.20709C16.4484 7.00414 16.0335 7.11112 15.7416 7.27906C15.6704 7.06925 15.5883 6.86328 15.4958 6.66196C15.4282 6.5146 15.3551 6.36921 15.2767 6.22578C14.4763 4.76149 13.1304 3.54616 11.5871 3.0325L11.5556 2.20105L10.5558 2.80124L10.4355 2.78786C10.3616 2.78118 10.2884 2.77606 10.2137 2.77292L10.0677 2.14362L10.0249 1.96191C9.97493 1.96191 9.92616 1.96191 9.87857 1.96742C8.94839 2.04294 8.48547 2.88816 8.4131 3.03289C6.86739 3.54656 5.52385 4.76228 4.72346 6.22578C4.6448 6.36894 4.57178 6.51434 4.50439 6.66196C4.41196 6.86337 4.32979 7.06934 4.25818 7.27906L4.22081 7.25822C3.93134 7.10286 3.52938 7.01318 3.02869 7.20709C1.92939 7.63343 1.63284 9.44501 2.52368 10.5754C2.8871 11.0348 3.27097 11.2865 3.63754 11.3986C3.63282 11.419 3.6281 11.4399 3.62377 11.4607C3.55749 11.7642 3.52413 12.074 3.52426 12.3846C3.52426 14.5411 5.11481 16.3964 7.39364 17.2117C7.92867 17.403 8.48361 17.5332 9.0479 17.5999C9.34084 17.6346 9.63549 17.653 9.93048 17.655H10.0005C13.5769 17.655 16.4759 15.2951 16.4759 12.3846C16.4761 12.0737 16.4428 11.7637 16.3764 11.4599C16.3717 11.4391 16.3674 11.4182 16.3623 11.3978C16.7308 11.2857 17.1131 11.034 17.4761 10.5742C18.3674 9.44501 18.0704 7.63304 16.9715 7.20709ZM4.14137 7.66254C4.01269 8.13215 3.94657 8.6167 3.94471 9.10362C3.94471 9.13784 3.94471 9.17127 3.94471 9.2047C3.94879 9.7932 3.88277 10.3801 3.74806 10.953C3.47667 10.8566 3.19742 10.6615 2.93076 10.3237C2.2291 9.43479 2.46233 8.00944 3.32761 7.67394C3.65484 7.5473 3.92859 7.57404 4.14255 7.65703C4.14197 7.65882 4.14158 7.66067 4.14137 7.66254ZM14.5369 10.6717C14.4896 10.7752 14.4351 10.8752 14.3737 10.9711C14.2462 11.1679 14.1645 11.391 14.1347 11.6236C14.1049 11.8563 14.1277 12.0927 14.2014 12.3154C14.3167 12.6544 14.4197 13.0383 14.4197 13.3238C14.4189 15.4131 12.441 17.1043 10.0001 17.1043C7.55922 17.1043 5.58009 15.4131 5.58009 13.3238C5.58009 13.0383 5.68314 12.6552 5.79838 12.3154C5.8722 12.0928 5.89508 11.8565 5.86533 11.6239C5.83558 11.3913 5.75396 11.1683 5.6265 10.9714C5.37779 10.5821 5.24518 10.13 5.2442 9.66802C5.2442 8.28161 6.42413 7.15714 7.88134 7.15714C8.35176 7.15597 8.81448 7.27656 9.22449 7.50718C9.46087 7.64166 9.72815 7.71236 10.0001 7.71236C10.272 7.71236 10.5393 7.64166 10.7757 7.50718C11.1856 7.27663 11.6482 7.15617 12.1185 7.15753C13.5737 7.15753 14.756 8.282 14.756 9.66841C14.7564 10.0148 14.6816 10.3571 14.5369 10.6717ZM17.0698 10.3241C16.8036 10.6611 16.5239 10.8562 16.2525 10.9534C16.118 10.3806 16.052 9.79384 16.0559 9.20549C16.0559 9.17206 16.0559 9.13863 16.0559 9.10441C16.0541 8.61554 15.9873 8.12908 15.8573 7.65782C16.0712 7.57483 16.345 7.54808 16.6722 7.67473C17.5375 8.00944 17.7711 9.43479 17.0698 10.3241Z" fill="#A16552"/>
  <path d="M8.90238 11.9017L8.89715 11.9131C8.84986 12.0167 8.89545 12.1389 8.99899 12.1862L9.50127 12.4156C9.6048 12.4629 9.72707 12.4173 9.77437 12.3138L9.77959 12.3024C9.82689 12.1988 9.78129 12.0766 9.67776 12.0293L9.17547 11.7998C9.07194 11.7525 8.94967 11.7981 8.90238 11.9017Z" fill="#4E3F3F"/>
  <path d="M10.2207 12.303L10.2259 12.3145C10.2732 12.418 10.3955 12.4636 10.499 12.4163L11.0013 12.1869C11.1048 12.1396 11.1504 12.0173 11.1031 11.9138L11.0979 11.9023C11.0506 11.7988 10.9283 11.7532 10.8248 11.8005L10.3225 12.0299C10.219 12.0772 10.1734 12.1995 10.2207 12.303Z" fill="#4E3F3F"/>
  <path d="M7.7288 10.671C7.31071 10.671 6.97168 10.3501 6.97168 9.9536V9.71447C6.97168 9.3184 7.31071 8.99707 7.7288 8.99707C8.14689 8.99707 8.48553 9.3184 8.48553 9.71447V9.9536C8.48553 10.3501 8.14689 10.671 7.7288 10.671Z" fill="#4E3F3F"/>
  <path d="M7.72852 8.99707V9.83403C7.73296 9.9314 7.77476 10.0233 7.84523 10.0906C7.9157 10.158 8.00941 10.1955 8.10688 10.1955C8.20434 10.1955 8.29806 10.158 8.36853 10.0906C8.439 10.0233 8.4808 9.9314 8.48524 9.83403V9.71604C8.48524 9.31683 8.1466 8.99707 7.72852 8.99707Z" fill="#5D5360"/>
  <path d="M7.72907 9.71459C7.86852 9.71459 7.98157 9.60753 7.98157 9.47546C7.98157 9.34339 7.86852 9.23633 7.72907 9.23633C7.58961 9.23633 7.47656 9.34339 7.47656 9.47546C7.47656 9.60753 7.58961 9.71459 7.72907 9.71459Z" fill="white"/>
  <path d="M12.2704 10.671C11.8523 10.671 11.5137 10.3501 11.5137 9.9536V9.71447C11.5137 9.3184 11.8523 8.99707 12.2704 8.99707C12.6885 8.99707 13.0275 9.3184 13.0275 9.71447V9.9536C13.0275 10.3501 12.6877 10.671 12.2704 10.671Z" fill="#4E3F3F"/>
  <path d="M12.2715 8.99707V9.83403C12.2769 9.93078 12.3191 10.0218 12.3895 10.0884C12.4599 10.1549 12.5531 10.192 12.65 10.192C12.7469 10.192 12.8402 10.1549 12.9106 10.0884C12.981 10.0218 13.0232 9.93078 13.0286 9.83403V9.71604C13.0286 9.31683 12.6888 8.99707 12.2715 8.99707Z" fill="#5D5360"/>
  <path d="M12.2711 9.71459C12.4105 9.71459 12.5236 9.60753 12.5236 9.47546C12.5236 9.34339 12.4105 9.23633 12.2711 9.23633C12.1316 9.23633 12.0186 9.34339 12.0186 9.47546C12.0186 9.60753 12.1316 9.71459 12.2711 9.71459Z" fill="white"/>
  <path opacity="0.35" d="M10.0677 2.1452C9.89823 2.12868 9.52734 2.39495 9.08448 2.85709C8.97396 2.97233 8.85832 3.10015 8.74033 3.2386C7.86915 4.25923 6.86031 5.86865 6.51341 7.52016C5.93368 10.293 5.69808 13.5103 6.72147 15.2947C7.58872 16.8066 9.04632 17.5991 9.04632 17.5991C8.48204 17.5325 7.92709 17.4022 7.39207 17.2109C5.11441 16.3964 3.52426 14.5403 3.52426 12.3846C3.5242 12.0737 3.5577 11.7637 3.62416 11.4599C3.62849 11.4391 3.63321 11.4182 3.63793 11.3978C3.2694 11.2833 2.8871 11.0332 2.52368 10.5754C1.63284 9.44659 1.92939 7.63501 3.02869 7.20866C3.52938 7.01476 3.9333 7.10443 4.22081 7.25979L4.25818 7.28063C4.32979 7.07091 4.41196 6.86495 4.50439 6.66353C4.57204 6.51617 4.64506 6.37078 4.72346 6.22735C5.52385 4.76228 6.86739 3.54656 8.4131 3.03289C8.48547 2.88816 8.94839 2.04294 9.87857 1.96742C9.92616 1.96191 9.97453 1.96191 10.0249 1.96191L10.0677 2.1452Z" fill="#4E3F3F"/>
</svg>
