<svg width="20" height="20" viewBox="0 0 20 20" fill="none" xmlns="http://www.w3.org/2000/svg">
  <circle cx="10" cy="10" r="10" fill="#FFDFA2"/>
  <path fill-rule="evenodd" clip-rule="evenodd" d="M12.3673 14.8892C11.2162 16.9075 8.66673 17.5991 6.67289 16.4337C4.67905 15.2685 3.99594 12.6876 5.1471 10.6692C6.29819 8.65092 8.8477 7.95935 10.8415 9.12466C12.8353 10.29 13.5185 12.8708 12.3673 14.8892ZM7.08977 15.7028C8.68479 16.6351 10.7244 16.0819 11.6453 14.4672C12.5662 12.8525 12.0197 10.7878 10.4247 9.85556C8.82959 8.92333 6.79 9.47655 5.8691 11.0912C4.94821 12.7059 5.4947 14.7706 7.08977 15.7028Z" fill="#482402"/>
  <path fill-rule="evenodd" clip-rule="evenodd" d="M10.9952 14.0881C10.2814 15.3394 8.70076 15.7682 7.46456 15.0457C6.22841 14.3232 5.80488 12.7231 6.51855 11.4717C7.23227 10.2203 8.81295 9.79156 10.0492 10.5141C11.2853 11.2365 11.7088 12.8366 10.9952 14.0881ZM7.88144 14.3148C8.71887 14.8042 9.78962 14.5138 10.2731 13.666C10.7566 12.8184 10.4697 11.7344 9.63227 11.245C8.79484 10.7555 7.72408 11.046 7.24061 11.8937C6.75714 12.7414 7.04406 13.8253 7.88144 14.3148Z" fill="#482402"/>
  <path fill-rule="evenodd" clip-rule="evenodd" d="M9.89725 10.7795C8.8059 10.1416 7.41036 10.5201 6.78026 11.6249C6.1502 12.7297 6.5241 14.1424 7.61545 14.7802C8.7068 15.4181 10.1023 15.0395 10.7324 13.9348C11.3625 12.83 10.9886 11.4173 9.89725 10.7795ZM5.86824 11.0919C6.78914 9.47716 8.82873 8.92394 10.4238 9.85617C12.0189 10.7884 12.5654 12.8531 11.6445 14.4678C10.7236 16.0825 8.68398 16.6357 7.08891 15.7035C5.49384 14.7712 4.94735 12.7066 5.86824 11.0919Z" fill="#F6E6D2"/>
  <path d="M15.6264 5.79844C15.3557 6.27295 14.9563 6.62523 14.4986 6.83616C14.1441 6.99952 13.9255 7.60187 14.16 7.91673C15.0555 9.11926 15.465 10.6316 15.3022 12.1269C15.2764 12.3632 15.4336 12.5829 15.653 12.6673C15.7566 12.7072 15.8584 12.7559 15.9575 12.8138C16.9544 13.3964 17.2959 14.6869 16.7204 15.696C16.1448 16.7052 14.8701 17.051 13.8732 16.4683L4.45073 10.9613C3.45379 10.3787 3.11223 9.08827 3.6878 8.07908C4.26336 7.0699 5.53811 6.72414 6.53503 7.3068C6.63408 7.36467 6.72667 7.42957 6.81252 7.50045C6.99444 7.65069 7.26101 7.67857 7.45027 7.53787C8.64801 6.64744 10.1467 6.25029 11.6232 6.4341C12.0098 6.48222 12.4158 5.98943 12.3783 5.59691C12.3299 5.09021 12.4315 4.56386 12.7022 4.08936C13.3929 2.87834 14.5057 3.19436 15.702 3.8935C15.702 3.8935 16.3171 4.58742 15.6264 5.79844Z" fill="#E89B37"/>
  <path d="M15.6264 5.79844C15.3557 6.27295 14.9563 6.62523 14.4986 6.83616C14.1441 6.99952 13.9255 7.60187 14.16 7.91673C15.0555 9.11926 15.465 10.6316 15.3022 12.1269C15.2764 12.3632 15.4336 12.5829 15.653 12.6673C15.7566 12.7072 15.8584 12.7559 15.9575 12.8138C16.9544 13.3964 17.2959 14.6869 16.7204 15.696C16.1448 16.7052 14.8701 17.051 13.8732 16.4683L4.45073 10.9613C3.45379 10.3787 3.11223 9.08827 3.6878 8.07908C4.26336 7.0699 5.53811 6.72414 6.53503 7.3068C6.63408 7.36467 6.72667 7.42957 6.81252 7.50045C6.99444 7.65069 7.26101 7.67857 7.45027 7.53787C8.64801 6.64744 10.1467 6.25029 11.6232 6.4341C12.0098 6.48222 12.4158 5.98943 12.3783 5.59691C12.3299 5.09021 12.4315 4.56386 12.7022 4.08936C13.3929 2.87834 14.5057 3.19436 15.702 3.8935C15.702 3.8935 16.3171 4.58742 15.6264 5.79844Z" fill="url(#paint0_linear)"/>
  <path d="M14.6885 11.7678C14.8514 10.2725 14.4418 8.7601 13.5463 7.55762L13.3183 7.95737C13.6629 9.62059 13.383 9.65189 13.2445 10.9238C13.2187 11.1601 13.3758 11.3798 13.5953 11.4642C13.6989 11.504 13.8007 11.5528 13.8998 11.6106C14.8967 12.1933 15.2382 13.4837 14.6627 14.4929C14.0871 15.5021 12.8123 15.8479 11.8154 15.2652L13.2595 16.1092C14.2564 16.6918 15.5312 16.3461 16.1067 15.3369C16.6823 14.3277 16.3407 13.0373 15.3438 12.4547C15.2447 12.3967 15.143 12.348 15.0394 12.3082C14.8199 12.2238 14.6628 12.0041 14.6885 11.7678Z" fill="#E28432"/>
  <path fill-rule="evenodd" clip-rule="evenodd" d="M14.1529 6.06793C14.4578 5.92743 14.7232 5.69365 14.9041 5.37637C15.3646 4.56903 15.0913 3.53668 14.2938 3.07057C13.4962 2.60443 12.4764 2.88104 12.016 3.68839C11.8351 4.00566 11.7677 4.35523 11.7999 4.6927C11.8473 5.1887 11.6243 5.63261 11.3763 5.91668C11.1336 6.19467 10.6852 6.51998 10.1132 6.4488C8.84789 6.29127 7.56217 6.63195 6.53557 7.39515C5.98968 7.80098 5.3024 7.68253 4.87734 7.3315C4.82593 7.28905 4.7702 7.24992 4.70996 7.21471C4.11181 6.86513 3.34696 7.0726 3.00162 7.67811C2.65628 8.28362 2.86122 9.05786 3.45937 9.40744L14.2898 15.7373C14.8879 16.0869 15.6528 15.8795 15.9981 15.274C16.3434 14.6685 16.1385 13.8942 15.5403 13.5446C15.4801 13.5094 15.4188 13.4801 15.3568 13.4562C14.8439 13.2591 14.399 12.7158 14.4732 12.0343C14.6128 10.7528 14.2614 9.45521 13.494 8.42473C13.1471 7.95886 13.2012 7.40308 13.3176 7.05135C13.4367 6.69188 13.7049 6.27439 14.1529 6.06793ZM14.4984 6.83605C14.9561 6.62512 15.3555 6.27284 15.6261 5.79833C16.3168 4.58731 15.907 3.03882 14.7106 2.33964C13.5143 1.64046 11.9846 2.05539 11.294 3.26638C11.0233 3.74088 10.9217 4.26723 10.9701 4.77398C11.0076 5.16645 10.6016 5.65924 10.2149 5.61111C8.73847 5.42731 7.23982 5.82445 6.04208 6.71489C5.85282 6.85559 5.58624 6.82771 5.40433 6.67751C5.31848 6.60659 5.22589 6.54173 5.12684 6.48381C4.12991 5.90116 2.85516 6.24692 2.27959 7.2561C1.70403 8.26529 2.04559 9.55573 3.04251 10.1384L13.8729 16.4683C14.8698 17.0509 16.1445 16.7051 16.7201 15.6959C17.2957 14.6867 16.9541 13.3964 15.9572 12.8137C15.8582 12.7558 15.7563 12.7071 15.6528 12.6672C15.4333 12.5829 15.2761 12.3631 15.3019 12.1269C15.4648 10.6316 15.0552 9.11915 14.1597 7.91667C13.9253 7.6018 14.1439 6.99946 14.4984 6.83605Z" fill="#482402"/>
  <path fill-rule="evenodd" clip-rule="evenodd" d="M10.6386 8.01192C10.5829 8.23807 10.3566 8.37566 10.1333 8.3193C9.88437 8.25651 9.42755 8.2104 8.92567 8.30102C8.4285 8.39078 7.91049 8.60985 7.49927 9.05371C7.34176 9.2237 7.07797 9.23224 6.91 9.0728C6.74207 8.91341 6.73364 8.64632 6.89114 8.47633C7.45436 7.86846 8.1523 7.58334 8.77928 7.47016C9.40145 7.35784 9.97687 7.41003 10.3349 7.5004C10.5583 7.55676 10.6943 7.78577 10.6386 8.01192Z" fill="#482402"/>
  <defs>
    <linearGradient id="paint0_linear" x1="4.36416" y1="6.89197" x2="16.9888" y2="14.1426" gradientUnits="userSpaceOnUse">
      <stop stop-color="#EFC443"/>
      <stop offset="1" stop-color="#E69536"/>
    </linearGradient>
  </defs>
</svg>
