<svg width="20" height="20" viewBox="0 0 20 20" fill="none" xmlns="http://www.w3.org/2000/svg">
  <circle cx="10" cy="10" r="10" fill="#2C3437"/>
  <path d="M9.43955 5.67588C9.36566 5.67588 9.29474 5.64578 9.24252 5.59221C9.19023 5.53865 9.16087 5.46599 9.16081 5.39023C9.16046 5.04806 9.02771 4.72003 8.79165 4.47807C8.55562 4.23611 8.23555 4.1 7.90173 4.0996C7.82781 4.0996 7.75695 4.0695 7.70466 4.01593C7.6524 3.96236 7.62305 3.88971 7.62305 3.81395C7.62305 3.73819 7.6524 3.66554 7.70466 3.61197C7.75695 3.55841 7.82781 3.52832 7.90173 3.52832C8.38328 3.52892 8.84491 3.72527 9.18545 4.07428C9.52594 4.42329 9.7175 4.89648 9.71809 5.39005C9.71812 5.46581 9.68882 5.53848 9.63659 5.59208C9.58433 5.64569 9.51347 5.67583 9.43955 5.67588Z" fill="white"/>
  <path d="M10.5961 5.6757C10.5222 5.67569 10.4513 5.6456 10.3991 5.59203C10.3468 5.53847 10.3174 5.46581 10.3174 5.39005C10.318 4.89644 10.5096 4.42322 10.8502 4.0742C11.1907 3.72519 11.6524 3.52887 12.134 3.52832C12.208 3.52832 12.2788 3.55842 12.3311 3.61199C12.3833 3.66556 12.4127 3.73821 12.4127 3.81397C12.4127 3.88973 12.3833 3.96238 12.3311 4.01595C12.2788 4.06952 12.208 4.0996 12.134 4.0996C11.8002 4.09999 11.4801 4.23609 11.2441 4.47805C11.008 4.72001 10.8752 5.04807 10.8748 5.39025C10.8748 5.46598 10.8454 5.53857 10.7931 5.5921C10.7408 5.64563 10.67 5.6757 10.5961 5.6757Z" fill="white"/>
  <path d="M6.31985 13.1646C5.30125 13.5388 4.44644 13.5009 3.87998 13.3885C3.09974 13.2339 2.64516 12.8938 2.57524 12.7462C2.53822 12.6679 2.56837 12.6455 2.59708 12.627L6.12983 10.5295V9.86914L2.31436 12.1345L2.30789 12.1383C2.01305 12.3244 1.91899 12.6688 2.07362 12.9953C2.26654 13.4025 2.94981 13.7857 3.77398 13.9491C4.07408 14.008 4.379 14.0375 4.68457 14.037C5.28448 14.037 6.00955 13.9255 6.81116 13.5806L6.66874 13.4963C6.5298 13.4138 6.4106 13.3004 6.31985 13.1646Z" fill="white"/>
  <path d="M17.6926 12.1383C17.6905 12.1369 17.6883 12.1356 17.6861 12.1345L13.8707 9.86914V10.5295L17.4034 12.627C17.4323 12.6454 17.4625 12.6681 17.4254 12.7462C17.3555 12.8939 16.9009 13.2339 16.1207 13.3885C15.5543 13.5007 14.6996 13.5387 13.6812 13.1646C13.5911 13.3 13.4728 13.4132 13.3347 13.496L13.1904 13.5814C13.9917 13.926 14.7163 14.0373 15.316 14.0373C15.6215 14.0378 15.9264 14.0083 16.2265 13.9494C17.0507 13.786 17.734 13.4028 17.9269 12.9956C18.0816 12.6688 17.9874 12.3244 17.6926 12.1383Z" fill="white"/>
  <path d="M13.3321 8.2786L10.5382 6.6258C10.3747 6.52874 10.1891 6.47757 10.0002 6.47754C9.81126 6.47751 9.62566 6.52856 9.46216 6.62556L6.66746 8.27875C6.5042 8.3756 6.36856 8.51466 6.27407 8.68199C6.1796 8.84937 6.12953 9.03916 6.12891 9.23251V12.5404C6.12938 12.7341 6.17934 12.9242 6.27389 13.0919C6.36841 13.2596 6.50414 13.399 6.66764 13.4962L9.4609 15.1485C9.62439 15.2458 9.81011 15.2971 9.99919 15.2972C10.1882 15.2973 10.374 15.2462 10.5376 15.1492L13.3332 13.4955C13.4959 13.3979 13.6309 13.2585 13.7249 13.0909C13.8189 12.9234 13.8686 12.7337 13.8691 12.5404V9.23254C13.8684 9.03933 13.8185 8.8497 13.7244 8.6824C13.6302 8.51507 13.4949 8.37587 13.3321 8.2786ZM6.94647 8.77336L7.85045 8.2386H12.1493L13.0523 8.77274C13.1308 8.8196 13.1961 8.88669 13.2415 8.9673C13.287 9.04797 13.3112 9.13937 13.3116 9.23254V9.95776H6.68635V9.23266C6.6868 9.13949 6.711 9.04803 6.75665 8.96745C6.80228 8.88686 6.86771 8.81996 6.94647 8.77336ZM13.0536 13.0015L12.1588 13.5307H7.84116L6.94676 13.0016C6.86777 12.9548 6.80222 12.8875 6.7565 12.8066C6.71082 12.7257 6.68665 12.6339 6.68635 12.5404V11.8117H13.3118V12.5404C13.3116 12.6336 13.2876 12.7252 13.2423 12.8061C13.1971 12.8869 13.132 12.9542 13.0536 13.0015Z" fill="white"/>
</svg>
