<svg width="20" height="20" viewBox="0 0 20 20" fill="none" xmlns="http://www.w3.org/2000/svg">
  <circle cx="10" cy="10" r="10" fill="#B0B0B0"/>
  <g clip-path="url(#clip0)">
    <path d="M4.18024 13.1486C4.14645 13.1651 4.1014 13.187 4.06198 13.2089C3.92684 13.8441 3.98878 13.9919 4.52937 14.3204C4.55189 14.3369 4.57442 14.3533 4.59694 14.3697C4.59694 14.7256 4.59131 15.0816 4.59131 15.4375C4.59131 15.5196 4.56879 15.6127 4.65889 15.662C5.26705 15.9796 5.8358 16.3684 6.47212 16.6476C6.59601 16.6367 6.6861 16.56 6.7931 16.5052C6.99582 16.4067 7.16475 16.2424 7.40689 16.226C7.53641 16.2972 7.66593 16.3684 7.79544 16.445C8.73585 16.9652 9.67625 17.4909 10.611 18.0111C11.298 17.7044 11.9118 17.2773 12.5819 16.9433C12.8353 16.8174 13.0099 16.675 12.9648 16.3738C13.0381 16.4067 13.1056 16.4395 13.1788 16.4669C13.2858 16.5983 13.3759 16.4998 13.4717 16.4505C14.1192 16.0891 14.7668 15.7222 15.42 15.3663C15.5833 15.2787 15.6396 15.1801 15.6284 14.9994C15.6115 14.7366 15.6002 14.4683 15.6284 14.2055C15.6678 13.866 15.5552 13.6469 15.2229 13.5374C15.3187 13.4662 15.4144 13.4005 15.5045 13.3293C15.5327 13.3239 15.5552 13.3129 15.5439 13.2746C15.5383 13.1486 15.5383 13.0172 15.5327 12.8913C15.5327 12.8749 15.5383 12.853 15.5383 12.8365C15.5664 12.6887 15.5608 12.5463 15.5383 12.3985C15.5383 12.3656 15.5383 12.3273 15.5383 12.2944C15.5439 12.1849 15.5496 12.0754 15.5552 11.9659C15.5608 11.8564 15.634 11.7742 15.7016 11.7085C15.9156 11.495 15.9606 11.2486 15.9606 10.9638C15.9606 10.7065 15.8536 10.7174 15.6847 10.816C14.6429 11.4019 13.6012 11.9878 12.5538 12.5682C11.6528 13.072 10.7574 13.5703 9.85645 14.0686C9.68751 13.9755 9.50732 13.8933 9.3778 13.74C8.65138 12.8694 7.92496 11.9987 7.19291 11.1336C7.11407 11.035 7.06339 10.9474 7.06339 10.816C7.07465 10.2849 7.07465 9.75918 7.07465 9.22804C7.22106 9.22804 7.2999 9.08567 7.43505 9.06925L7.45757 9.06377C7.45194 9.55658 7.45757 10.0439 7.44631 10.5367C7.44068 10.701 7.49699 10.8269 7.60398 10.9529C8.14457 11.5881 8.67953 12.2397 9.22013 12.8749C9.43411 13.1213 9.60868 13.406 9.87897 13.6086C10.4308 13.3786 10.9264 13.0501 11.4444 12.7653C12.734 12.048 14.0179 11.3252 15.3074 10.6079C15.4651 10.5203 15.527 10.4217 15.5214 10.241C15.5045 9.90703 15.5158 9.56753 15.5101 9.23352C15.6396 9.18424 15.7748 9.12948 15.9043 9.0802C15.9494 9.07472 16 9.07472 16 9.00901C16 8.77356 16 8.5381 16 8.30265C15.8987 8.10005 15.6396 8.08362 15.5045 7.91935C15.5045 7.70032 15.5045 7.48129 15.5045 7.25679C15.5383 6.56137 15.5214 5.87144 15.5101 5.17602C15.4989 5.07198 15.4088 5.05556 15.3356 5.01175C13.5955 4.0316 11.8555 3.05693 10.1155 2.06582C9.95218 1.97274 9.83955 1.97821 9.68188 2.06582C8.12205 2.94741 6.55096 3.81805 4.99113 4.69964C4.73772 4.842 4.43927 4.92962 4.24781 5.16507C4.24781 5.86048 4.24218 6.5559 4.24218 7.25131C4.18587 7.57985 4.18587 7.9084 4.24218 8.23694C4.24218 8.87212 4.23655 9.50183 4.24218 10.137C4.24781 10.5258 4.20839 10.9146 4.27034 11.3033C4.26471 11.4676 4.25907 11.6319 4.25907 11.7961C4.25907 11.8509 4.25907 11.9057 4.25907 11.9659C4.25907 12.0918 4.25907 12.2178 4.26471 12.3437C4.27034 12.4204 4.27034 12.497 4.27597 12.5792C4.27597 12.6668 4.27034 12.7544 4.27034 12.842C4.27034 12.9022 4.27034 12.957 4.26471 13.0172C4.25907 13.0501 4.24781 13.0829 4.24218 13.1158H4.24781C4.22529 13.1158 4.20276 13.1322 4.18024 13.1486Z" fill="#FEFDFD"/>
    <path d="M4.25391 5.16507C4.44537 4.92962 4.74382 4.84201 4.99722 4.69964C6.55705 3.81257 8.12251 2.94741 9.68797 2.06582C9.84565 1.97821 9.95827 1.97274 10.1216 2.06582C11.856 3.05145 13.6016 4.02613 15.3417 5.01175C15.4092 5.05008 15.505 5.07199 15.5162 5.17603C15.4318 5.20888 15.336 5.23078 15.2572 5.27459C14.2548 5.83311 13.2525 6.39711 12.2502 6.95563C11.4618 7.39916 10.6734 7.84817 9.88507 8.2917C8.48291 7.5032 7.08638 6.70922 5.68422 5.9262C5.20557 5.66884 4.75508 5.36768 4.25391 5.16507Z" fill="#F1716A"/>
    <path d="M4.25443 5.16504C4.76123 5.36216 5.20609 5.66333 5.67911 5.92616C7.08127 6.70919 8.48343 7.50316 9.87995 8.29167C9.87995 8.9816 9.87995 9.67702 9.88558 10.367L9.87995 10.3724C9.69976 10.2793 9.51956 10.1863 9.33936 10.0877C8.7143 9.74273 8.08925 9.39776 7.46419 9.05279L7.44166 9.05826C7.23894 8.87209 6.99117 8.75162 6.73214 8.65854C6.4731 8.42308 6.1465 8.28071 5.83678 8.11644C5.32435 7.84266 4.85696 7.49769 4.30511 7.29509C4.28258 7.27866 4.26569 7.26223 4.24316 7.24581C4.2488 6.55587 4.2488 5.86045 4.25443 5.16504Z" fill="#A24741"/>
    <path d="M9.8623 14.058C10.7633 13.5597 11.6643 13.0614 12.5596 12.5577C13.6014 11.9773 14.6432 11.3914 15.6906 10.8055C15.8595 10.7124 15.9665 10.6959 15.9665 10.9533C15.9665 11.238 15.9214 11.4844 15.7075 11.698C15.6399 11.7637 15.5667 11.8458 15.561 11.9554C15.4259 11.9718 15.4484 12.1032 15.3977 12.1744C15.3302 12.2072 15.257 12.2401 15.2795 12.3332C15.0036 12.4755 14.9078 12.826 14.5981 12.9355C14.5362 12.9793 14.508 13.0395 14.4968 13.1053C14.4067 13.1491 14.3672 13.2202 14.3729 13.3188C14.2152 13.4119 14.1251 13.5543 14.0406 13.7076C13.9505 13.6966 13.9336 13.5433 13.8098 13.5871C13.6464 13.8007 13.4888 14.0142 13.3705 14.2551C13.2692 14.3482 13.2128 14.4687 13.1453 14.5837C13.1059 14.5892 13.0721 14.6001 13.0327 14.6056C12.9426 14.5727 12.8525 14.5454 12.768 14.5125C12.6047 14.4961 12.4414 14.1949 12.2893 14.5016C12.188 14.7096 12.0641 14.7206 11.867 14.6603C11.7319 14.622 11.5517 14.5235 11.4616 14.7425C11.3715 14.7425 11.2757 14.748 11.1856 14.748C10.9097 14.6768 10.6281 14.633 10.341 14.6275C10.3297 14.6165 10.3184 14.6165 10.3072 14.622C10.2734 14.5892 10.2452 14.5946 10.2171 14.6275C10.1551 14.6658 10.0876 14.6987 10.0256 14.737C9.99745 14.748 9.9693 14.7534 9.94114 14.7644C9.80599 14.5399 9.92425 14.288 9.8623 14.058Z" fill="#D5D5D5"/>
    <path d="M9.87965 10.3667C9.87965 9.67681 9.87965 8.9814 9.87402 8.29146C10.6624 7.84792 11.4507 7.39892 12.2391 6.95539C13.2415 6.39139 14.2438 5.83287 15.2462 5.27434C15.325 5.23054 15.4151 5.20864 15.5052 5.17578C15.5221 5.8712 15.5333 6.56113 15.4996 7.25655C15.2912 7.33868 15.1054 7.45367 14.9308 7.58509C14.7337 7.54676 14.576 7.42082 14.4184 7.31678C14.2157 7.17989 14.0298 7.16894 13.7989 7.25107C13.0669 7.52486 12.3574 7.84792 11.7492 8.32979C11.5408 8.49406 11.2593 8.60905 11.1748 8.89378C11.0453 9.15662 11.1467 9.43588 11.1185 9.70966C10.7074 9.92869 10.2964 10.1477 9.87965 10.3667Z" fill="#DA5B54"/>
    <path d="M9.87965 10.3671C10.2907 10.1481 10.7074 9.92355 11.1185 9.70452C11.3663 9.84141 11.6309 9.9564 11.8562 10.1316C11.2818 10.3123 11.0566 10.6956 11.1805 11.2706C11.1917 11.3253 11.1748 11.3801 11.1805 11.4348C11.203 11.6758 11.1298 11.9167 11.2255 12.1522C11.4958 12.0536 11.7492 11.9167 11.9688 11.736C12.0026 11.7196 12.042 11.7031 12.0758 11.6812C12.5319 11.5389 12.8135 11.287 12.7009 10.7723C12.6896 10.7285 12.7009 10.6847 12.7009 10.6354C12.7966 10.6573 12.8867 10.6792 12.9824 10.7011C13.157 10.6901 13.2077 10.4547 13.3991 10.4711C13.4048 10.5806 13.4104 10.6847 13.4216 10.7942C13.4273 10.8435 13.4385 10.9366 13.5005 10.8927C13.7257 10.7394 14.0523 10.7175 14.1706 10.4218C14.3846 10.4711 14.5197 10.3233 14.6774 10.2357C14.9533 10.0823 15.0153 9.7757 14.8351 9.48001C15.0603 9.3924 15.263 9.25551 15.5108 9.22266C15.5108 9.55667 15.5052 9.89617 15.5221 10.2302C15.5333 10.4109 15.4658 10.5094 15.3081 10.5971C14.0186 11.3144 12.7346 12.0372 11.4451 12.7545C10.927 13.0392 10.4315 13.3678 9.87965 13.5977C9.87965 12.5245 9.87402 11.4458 9.87402 10.3726C9.87402 10.3726 9.87965 10.3671 9.87965 10.3671Z" fill="#BC957F"/>
    <path d="M4.3043 7.30078C4.85615 7.50338 5.32917 7.84835 5.83597 8.12214C6.14569 8.28641 6.46666 8.42878 6.73133 8.66423C6.65249 8.75732 6.49482 8.7628 6.44414 8.89421C6.34841 8.9873 6.39346 9.10229 6.39346 9.20633C6.39346 9.9784 6.43851 10.7505 6.15695 11.4952C6.07248 11.7197 6.03869 11.9497 6.04432 12.1906C5.99364 12.1851 5.93733 12.1742 5.88665 12.1687C5.71209 11.9278 5.48121 12.0373 5.26159 12.0756C5.18839 12.0756 5.1546 12.0373 5.14334 11.9716C5.21654 11.9606 5.30101 11.9442 5.30101 11.8511C5.30101 11.7744 5.22781 11.7471 5.1715 11.7306C5.10955 11.7087 5.04761 11.7032 4.98567 11.6923C4.96877 11.6704 4.94625 11.654 4.92936 11.6321C4.86741 11.528 4.76605 11.4897 4.6478 11.4733C4.53517 11.4021 4.45071 11.2707 4.28177 11.3035C4.2142 10.9147 4.25362 10.526 4.25362 10.1372C4.24799 9.50202 4.25362 8.87231 4.25362 8.23713C4.37187 7.93049 4.27051 7.6129 4.3043 7.30078Z" fill="#886B59"/>
    <path d="M6.04454 12.185C6.03891 11.9496 6.0727 11.7141 6.15717 11.4896C6.43873 10.7449 6.39368 9.97286 6.39368 9.20079C6.39368 9.09675 6.35426 8.98176 6.44436 8.88867C6.65834 8.99819 6.86669 9.1077 7.08068 9.21721C7.07505 9.74836 7.07505 10.274 7.06942 10.8052C7.06942 10.9366 7.1201 11.0242 7.19893 11.1228C7.93098 11.9879 8.6574 12.8586 9.38382 13.7292C9.51334 13.8825 9.69354 13.9646 9.86247 14.0577C9.92441 14.2877 9.80616 14.5396 9.93568 14.7641C9.91878 14.7805 9.90189 14.7915 9.885 14.8079C9.81179 14.7696 9.73295 14.7312 9.65975 14.6984C9.58654 14.6163 9.49645 14.5779 9.38382 14.5834C9.38945 14.5396 9.37256 14.5013 9.32188 14.4848C9.26557 14.4629 9.20926 14.4356 9.14731 14.4137C9.11353 14.3479 9.05722 14.3151 8.97838 14.3151C8.78692 14.1344 8.55604 14.0085 8.30827 13.9263C8.29138 13.9044 8.26885 13.888 8.25196 13.8661C8.1506 13.7894 8.0605 13.7073 7.92535 13.6963C7.90283 13.6087 7.82962 13.5923 7.75079 13.5923C7.66632 13.4773 7.54806 13.4061 7.40729 13.3733V13.3787C7.38476 13.3623 7.36787 13.3404 7.34534 13.324C7.30592 13.2583 7.23835 13.2692 7.17641 13.2583C7.13699 13.198 7.08631 13.1652 7.0131 13.1597C6.90048 13.0119 6.72592 12.9571 6.55698 12.8859C6.52319 12.8312 6.46125 12.8257 6.39931 12.8202C6.31484 12.6888 6.14591 12.6669 6.04454 12.5574C6.04454 12.4862 6.04454 12.415 6.04454 12.3384C6.05018 12.2891 6.05018 12.2398 6.04454 12.185Z" fill="#898989"/>
    <path d="M11.1738 8.88894C11.2639 8.60421 11.5399 8.48922 11.7482 8.32495C12.362 7.83761 13.0659 7.51454 13.798 7.24623C14.0288 7.15862 14.2147 7.16957 14.4174 7.31194C14.5751 7.41598 14.7327 7.54192 14.9298 7.58025C15.0931 7.72809 15.2846 7.84308 15.4986 7.91427C15.6393 8.07306 15.8928 8.08949 15.9941 8.29757C15.8759 8.29757 15.7576 8.29209 15.6337 8.3359C14.9692 8.56588 14.3442 8.86156 13.7811 9.27772C13.5051 9.48032 13.2743 9.7322 12.9645 9.891C12.3676 9.5515 11.7707 9.22296 11.1738 8.88894Z" fill="#F1716A"/>
    <path d="M9.87371 10.3728C9.87371 11.446 9.87934 12.5247 9.87934 13.598C9.60904 13.3953 9.43448 13.1161 9.22049 12.8642C8.6799 12.2345 8.15057 11.5829 7.60435 10.9477C7.49735 10.8218 7.44104 10.6958 7.44667 10.5316C7.45794 10.0387 7.45794 9.55141 7.45794 9.05859C8.083 9.40356 8.70806 9.74853 9.33312 10.0935C9.51331 10.1866 9.69351 10.2797 9.87371 10.3728Z" fill="#886B59"/>
    <path d="M12.9712 16.3575C13.0162 16.6586 12.836 16.8065 12.5883 16.927C11.9182 17.261 11.2987 17.6881 10.6174 17.9947C10.6174 17.6497 10.5948 17.3048 10.623 16.9598C10.6511 16.6258 10.5385 16.4232 10.2119 16.3246C10.4203 16.1987 10.6286 16.0727 10.837 15.9468C10.8933 15.914 10.9552 15.8811 11.0115 15.8482C11.1917 15.7497 11.3719 15.6621 11.5409 15.5416C11.6422 15.4704 11.5409 15.443 11.5634 15.4047C11.7436 15.4266 11.9013 15.3828 12.0589 15.2897C12.1885 15.2076 12.3123 15.109 12.47 15.0762C12.684 15.0816 12.9599 15.12 12.9543 15.3335C12.943 15.6785 13.0219 16.018 12.9712 16.3575Z" fill="#3E1C28"/>
    <path d="M15.229 13.5322C15.5613 13.6417 15.6739 13.8608 15.6345 14.2003C15.6063 14.4631 15.6176 14.7259 15.6345 14.9942C15.6457 15.1749 15.5838 15.2735 15.4261 15.3611C14.7729 15.717 14.1253 16.0839 13.4777 16.4453C13.3876 16.4946 13.2919 16.5931 13.1849 16.4617C13.2975 16.4179 13.3201 16.3248 13.3144 16.2153C13.3088 16.051 13.3144 15.8868 13.3144 15.728C13.3088 15.4049 13.4045 15.0435 12.9935 14.8683C12.9766 14.8628 12.9822 14.819 12.9766 14.7916C13.0329 14.7478 13.0948 14.6985 13.1511 14.6547C13.3201 14.6219 13.4552 14.5124 13.596 14.4302C13.9902 14.1948 14.4238 14.0141 14.7842 13.7184C14.8011 13.7129 14.818 13.7074 14.8292 13.7074C14.9418 13.6801 15.0376 13.6308 15.1164 13.5487C15.1502 13.5377 15.1896 13.5377 15.229 13.5322Z" fill="#3E1C28"/>
    <path d="M10.2059 16.33C10.5325 16.4286 10.6451 16.6312 10.617 16.9652C10.5888 17.3047 10.6114 17.6551 10.6114 18.0001C9.67095 17.4799 8.73055 16.9542 7.79578 16.434C7.66626 16.3629 7.53674 16.2917 7.40723 16.215C7.67189 15.9358 8.04918 15.8262 8.35889 15.6182C8.5053 15.6948 8.65734 15.777 8.80375 15.8536C8.83754 15.87 8.87696 15.8865 8.91074 15.9029C9.22046 16.1055 9.52454 16.3136 9.8793 16.4395C10.0145 16.4724 10.0877 16.341 10.2059 16.33Z" fill="#2B141C"/>
    <path d="M7.013 13.159C7.08621 13.1645 7.14252 13.1974 7.17631 13.2576C7.15378 13.2795 7.13126 13.2959 7.10873 13.3178C6.88912 13.4109 6.66387 13.504 6.44426 13.5971C6.38231 13.5971 6.326 13.6026 6.26406 13.6026C6.13454 13.6026 6.11202 13.4876 6.05571 13.4164C5.98813 13.3397 5.96561 13.2083 5.82483 13.2083C5.82483 13.1919 5.82483 13.1755 5.82483 13.1645C5.84172 13.0167 5.74599 12.9072 5.66716 12.8031C5.58832 12.6991 5.52075 12.6936 5.4757 12.8305C4.96889 12.9345 4.96326 12.9564 5.25608 13.3288C5.27861 13.3835 5.2955 13.4383 5.31802 13.4931C5.55453 13.849 5.55453 13.849 5.93745 13.6518C6.00503 13.6902 6.04444 13.7395 6.04444 13.8216C5.88114 13.8271 5.67842 13.8818 5.64463 14.0078C5.60521 14.1501 5.83046 14.1994 5.93745 14.287C5.96561 14.3089 6.00503 14.3089 6.03881 14.3199C5.99376 14.402 5.75162 14.4513 5.9825 14.5882C6.06697 14.8401 6.26406 15.0372 6.32037 15.3055C6.03318 15.1522 5.71221 15.0591 5.48133 14.8127C5.52075 14.7963 5.5658 14.7744 5.60521 14.7634C5.68968 14.7415 5.77978 14.6977 5.74036 14.6046C5.68968 14.4896 5.59958 14.5718 5.53201 14.5991C5.45317 14.6265 5.3856 14.6703 5.31239 14.7032C5.32929 14.5608 5.19977 14.4677 5.16598 14.3418C5.14909 14.2925 5.08715 14.2651 5.03084 14.287C4.96326 14.3144 4.97452 14.3692 4.99142 14.4184C5.00268 14.4623 5.01394 14.5061 5.0252 14.5444C4.85064 14.5499 4.72675 14.4349 4.58034 14.3801C4.55782 14.3637 4.53529 14.3473 4.51277 14.3308C3.97218 14.0078 3.91023 13.8599 4.04538 13.2193C4.10169 13.2247 4.15237 13.2302 4.16927 13.1536L4.16364 13.159C4.20305 13.159 4.21995 13.1426 4.23121 13.1098H4.22558C4.4283 13.1152 4.58034 13.0167 4.74365 12.8853C4.56345 12.8031 4.47898 13.0002 4.3382 12.9564C4.31005 12.9181 4.27626 12.8798 4.2481 12.8414C4.2481 12.7538 4.25374 12.6662 4.25374 12.5786C4.37762 12.5677 4.46209 12.502 4.50714 12.387C4.56345 12.3924 4.61976 12.3979 4.67607 12.4034C4.6986 12.5184 4.73802 12.6279 4.85627 12.6827C4.85064 12.7757 4.85064 12.8579 4.98579 12.7976C5.08715 12.7538 5.19414 12.7155 5.2955 12.6717C5.39123 12.6827 5.4757 12.6662 5.52075 12.5677C5.52075 12.5293 5.52638 12.491 5.52638 12.4527C5.71221 12.502 5.85862 12.3815 6.02755 12.3486C6.02755 12.4198 6.02755 12.491 6.02755 12.5677C5.74599 12.6334 5.74036 12.6662 5.97124 12.9564C5.97124 13.0331 6.01066 13.0879 6.08386 13.1207C6.20775 13.4766 6.25843 13.4985 6.58504 13.3452C6.74271 13.2686 6.88349 13.2193 7.013 13.159ZM5.32366 13.9202C5.33492 13.9092 5.35181 13.8928 5.36307 13.8818C5.22229 13.6518 5.08152 13.4273 4.94074 13.1974C4.89006 13.1098 4.81122 13.0879 4.72675 13.1262C4.5916 13.1919 4.43956 13.2247 4.32131 13.3562C4.67607 13.5533 5.00268 13.734 5.32366 13.9202Z" fill="#A43A59"/>
    <path d="M12.9707 9.88564C13.2804 9.72685 13.5113 9.47496 13.7872 9.27236C14.356 8.85621 14.9754 8.56052 15.6399 8.33054C15.7581 8.28674 15.8764 8.29221 16.0003 8.29221C16.0003 8.52767 16.0003 8.76312 16.0003 8.99858C15.9552 9.00405 15.9158 9.02048 15.9045 9.06976C15.775 9.11904 15.6399 9.1738 15.5104 9.22308C15.2626 9.25594 15.0599 9.39283 14.8346 9.48044C14.6094 9.61186 14.3841 9.74327 14.1589 9.87469C13.883 10.0499 13.5732 10.1813 13.393 10.477C13.2016 10.4606 13.1509 10.6906 12.9763 10.707C12.9763 10.4332 12.9707 10.1594 12.9707 9.88564Z" fill="#DA5B54"/>
    <path d="M4.59745 14.3643C4.74386 14.4245 4.86774 14.5395 5.04231 14.5285C5.04231 14.545 5.04231 14.5669 5.04794 14.5833C5.10988 14.6545 5.18872 14.6873 5.27882 14.6928C5.33513 14.7585 5.41397 14.7914 5.50407 14.7968C5.72931 15.0432 6.05592 15.1418 6.34311 15.2897H6.34874C6.36563 15.3061 6.38253 15.3225 6.39942 15.3389C6.43884 15.3608 6.48389 15.3827 6.52331 15.4046C6.51204 15.8099 6.50078 16.2205 6.48389 16.6257C5.84757 16.3519 5.27882 15.9632 4.67065 15.6401C4.58056 15.5908 4.60308 15.4977 4.60308 15.4156C4.59182 15.0761 4.59182 14.7202 4.59745 14.3643Z" fill="#886B59"/>
    <path d="M6.47266 16.6372C6.48392 16.232 6.49518 15.8213 6.51207 15.4161C6.54586 15.4161 6.58528 15.4161 6.61907 15.4161C6.61907 15.4818 6.65848 15.5147 6.72606 15.5147C6.83868 15.6242 6.94567 15.7556 7.1315 15.6297C7.19344 15.6242 7.26102 15.6297 7.29481 15.564C7.37364 15.5694 7.42432 15.5311 7.46937 15.4709C7.70588 15.3614 7.94802 15.2518 8.14511 15.0821C8.21268 15.0657 8.28589 15.0438 8.35346 15.0273C8.36473 15.0821 8.37599 15.1314 8.38162 15.1861C8.37036 15.334 8.36473 15.4764 8.35346 15.6242C8.04375 15.8323 7.66646 15.9418 7.4018 16.2211C7.15966 16.2375 6.99072 16.4018 6.788 16.5003C6.69227 16.5496 6.59654 16.6263 6.47266 16.6372Z" fill="#BC957F"/>
    <path d="M12.9707 14.7803C12.9763 14.8077 12.9707 14.8515 12.9876 14.8569C13.4043 15.0376 13.3085 15.3936 13.3085 15.7166C13.3085 15.8809 13.3085 16.0452 13.3085 16.204C13.3085 16.3135 13.2916 16.4011 13.179 16.4504C13.1058 16.4175 13.0382 16.3847 12.965 16.3573C13.0214 16.0178 12.9369 15.6728 12.9481 15.3333C12.9538 15.1198 12.6722 15.0814 12.4639 15.076C12.4695 15.0486 12.4751 15.0157 12.4751 14.9884C12.5089 14.961 12.5427 14.9336 12.5765 14.9062C12.7454 14.9664 12.8355 14.8131 12.9707 14.7803Z" fill="#2B141C"/>
    <path d="M4.28177 11.2973C4.44507 11.2645 4.53517 11.3904 4.6478 11.4671C4.68721 11.6149 4.80547 11.719 4.87867 11.8449C4.91809 11.8997 4.95751 11.9599 4.9913 12.0147C4.86741 12.1297 4.70411 12.1844 4.54643 12.2446C4.51828 12.0968 4.4507 11.9763 4.30993 11.8997C4.29866 11.8613 4.28177 11.8285 4.27051 11.7902C4.27051 11.6259 4.27614 11.4616 4.28177 11.2973Z" fill="#A24741"/>
    <path d="M7.08066 9.21672C6.86667 9.10721 6.65832 8.99769 6.44434 8.88818C6.49502 8.75677 6.65269 8.75677 6.73153 8.6582C6.99056 8.75129 7.2327 8.87175 7.44105 9.05793C7.30591 9.07983 7.22707 9.2222 7.08066 9.21672Z" fill="#F7F6F5"/>
    <path d="M15.2291 13.5319C15.1897 13.5319 15.1559 13.5374 15.1165 13.5374C14.987 13.4388 14.8744 13.3238 14.835 13.1595C15.0715 13.0664 15.3023 12.9734 15.5389 12.8857C15.5445 13.0117 15.5445 13.1431 15.5501 13.269C15.5389 13.2855 15.522 13.3019 15.5107 13.3238C15.415 13.395 15.3192 13.4662 15.2291 13.5319Z" fill="#C65063"/>
    <path d="M15.5053 7.90865C15.2913 7.83747 15.0998 7.72796 14.9365 7.57464C15.1111 7.44322 15.3025 7.32823 15.5053 7.24609C15.5053 7.4706 15.5053 7.68963 15.5053 7.90865Z" fill="#BC957F"/>
    <path d="M15.5382 12.886C15.3017 12.979 15.0708 13.0721 14.8343 13.1597C14.7611 13.1269 14.7217 13.0721 14.7217 12.9955C14.992 12.9626 15.1947 12.7764 15.4537 12.7217C15.4819 12.76 15.5157 12.7929 15.5438 12.8312C15.5382 12.8531 15.5382 12.8695 15.5382 12.886Z" fill="#C2544D"/>
    <path d="M4.3046 7.30123C4.26518 7.61335 4.36654 7.93094 4.24829 8.23758C4.19198 7.90904 4.19198 7.5805 4.24829 7.25195C4.26518 7.26838 4.28771 7.28481 4.3046 7.30123Z" fill="#BC957F"/>
    <path d="M4.30407 11.9004C4.44485 11.9771 4.50679 12.0975 4.54058 12.2454C4.54058 12.2837 4.53494 12.322 4.53494 12.3604C4.44485 12.3494 4.35475 12.3439 4.27028 12.333C4.27028 12.207 4.27028 12.0811 4.26465 11.9551C4.27591 11.9387 4.2928 11.9223 4.30407 11.9004Z" fill="#A43A59"/>
    <path d="M15.5443 12.8313C15.5162 12.793 15.4824 12.7601 15.4542 12.7218C15.4092 12.5849 15.2628 12.4973 15.2797 12.333C15.3698 12.3494 15.4542 12.3713 15.5443 12.3878C15.5612 12.5411 15.5669 12.6835 15.5443 12.8313Z" fill="#CF7D6C"/>
    <path d="M4.36067 12.9459C4.50145 12.9897 4.58592 12.7926 4.76611 12.8747C4.60281 13.0062 4.45077 13.1047 4.24805 13.0993C4.25368 13.0664 4.26494 13.0335 4.27057 13.0007C4.29873 12.9843 4.32688 12.9678 4.36067 12.9459Z" fill="#C65063"/>
    <path d="M4.27051 12.333C4.36061 12.344 4.4507 12.3494 4.53517 12.3604L4.52954 12.3768C4.48449 12.4918 4.40002 12.5575 4.27614 12.5685C4.27614 12.4918 4.27051 12.4151 4.27051 12.333Z" fill="#BC957F"/>
    <path d="M15.3975 12.18C15.4481 12.1033 15.4256 11.9774 15.5608 11.9609C15.5551 12.0705 15.5495 12.18 15.5439 12.2895C15.465 12.284 15.42 12.2457 15.3975 12.18Z" fill="#CF7D6C"/>
    <path d="M15.3978 12.1797C15.426 12.2454 15.471 12.2892 15.5442 12.2892C15.5442 12.3221 15.5442 12.3604 15.5442 12.3932C15.4541 12.3768 15.3696 12.3549 15.2795 12.3385C15.257 12.2399 15.3302 12.2125 15.3978 12.1797Z" fill="#C65063"/>
    <path d="M4.36061 12.9466C4.33245 12.9631 4.29866 12.985 4.27051 13.0014C4.27051 12.9412 4.27051 12.8864 4.27614 12.8262C4.29866 12.87 4.32682 12.9083 4.36061 12.9466Z" fill="#BC957F"/>
    <path d="M4.30407 11.9005C4.2928 11.9224 4.27591 11.9389 4.26465 11.9608C4.26465 11.906 4.26465 11.8512 4.26465 11.791C4.28154 11.8293 4.2928 11.8622 4.30407 11.9005Z" fill="#BC957F"/>
    <path d="M15.9043 9.06923C15.9156 9.01995 15.9493 9.00352 16 8.99805C16 9.06376 15.955 9.06923 15.9043 9.06923Z" fill="#F1716A"/>
    <path d="M4.18541 13.1426C4.17415 13.2138 4.11784 13.2138 4.06152 13.2083C4.10094 13.1864 4.14036 13.1645 4.18541 13.1426Z" fill="#C65063"/>
    <path d="M4.24824 13.0996C4.24261 13.1325 4.22008 13.1544 4.18066 13.1489C4.20319 13.1325 4.22571 13.116 4.24824 13.0996Z" fill="#C65063"/>
    <path d="M15.5098 13.3233C15.521 13.3069 15.5379 13.2905 15.5492 13.2686C15.5604 13.3069 15.5379 13.3178 15.5098 13.3233Z" fill="#CF7D6C"/>
    <path d="M9.88445 16.4401C9.52969 16.3141 9.21997 16.1115 8.91589 15.9034C9.00036 15.8706 9.09046 15.8432 9.16929 15.8049C9.2425 15.772 9.34386 15.7392 9.28192 15.6351C9.23124 15.5475 9.15803 15.6023 9.09046 15.6297C9.00036 15.668 8.90463 15.7008 8.8089 15.7392C8.69628 15.5859 8.53861 15.4544 8.52734 15.2464C8.9722 15.104 9.00036 15.0492 8.75822 14.8028C8.74133 14.7481 8.7188 14.6933 8.70191 14.6386C8.82579 14.5126 9.01725 14.5236 9.1524 14.4141C9.20871 14.436 9.26502 14.4633 9.32697 14.4852C9.32697 14.5291 9.33823 14.5674 9.38891 14.5838C9.43959 14.7207 9.46211 14.9178 9.66484 14.6988C9.73804 14.7371 9.81688 14.7755 9.89008 14.8083C9.89008 14.8904 9.88445 14.9726 9.89571 15.0492C9.91824 15.1752 9.99707 15.208 10.1153 15.1588C10.2223 15.1149 10.3293 15.0547 10.2448 14.9233C10.1942 14.8412 10.1491 14.7481 10.0252 14.7426C10.0872 14.7043 10.1547 14.6714 10.2167 14.6331C10.2448 14.6331 10.2786 14.6276 10.3068 14.6276C10.318 14.6221 10.3293 14.6221 10.3406 14.6331C10.3518 14.7645 10.4138 14.8795 10.5095 14.9726C10.5095 15.0492 10.5489 15.104 10.6221 15.1369C10.7404 15.4873 10.7629 15.4928 11.0895 15.3504C11.1402 15.3285 11.1909 15.3175 11.2416 15.3011C11.2866 15.3066 11.3317 15.3121 11.3542 15.3559C11.3035 15.3778 11.2922 15.4161 11.2922 15.4654C11.219 15.5037 11.1458 15.5421 11.0726 15.5694C10.8924 15.6351 10.8699 15.7282 11.0163 15.8542C10.96 15.887 10.8981 15.9199 10.8417 15.9527C10.7742 15.7447 10.6559 15.7118 10.4701 15.8323C10.3856 15.887 10.2955 15.9418 10.1998 15.9637C9.91824 16.0239 9.84503 16.1937 9.88445 16.4401ZM10.3518 15.2464C10.2786 15.3285 10.1041 15.3066 10.121 15.449C10.1322 15.553 10.1604 15.7118 10.3068 15.7063C10.4081 15.7008 10.5658 15.6625 10.5489 15.5037C10.5377 15.3887 10.4645 15.3066 10.3518 15.2464Z" fill="#A43A59"/>
    <path d="M12.5823 14.907C12.5485 14.9343 12.5147 14.9617 12.4809 14.9891C12.4584 14.9672 12.4359 14.9398 12.4134 14.9179C12.357 14.8029 12.2669 14.792 12.16 14.8522C12.0699 14.9015 11.9741 14.9398 11.884 14.9836C11.5799 15.1315 11.518 15.0986 11.4561 14.7482C11.5462 14.5291 11.7264 14.6277 11.8615 14.666C12.0586 14.7262 12.1881 14.7098 12.2838 14.5072C12.4302 14.2006 12.5992 14.5017 12.7625 14.5182C12.7737 14.6551 12.4471 14.6003 12.5823 14.8139C12.5823 14.8412 12.5823 14.8741 12.5823 14.907Z" fill="#C65063"/>
    <path d="M14.7783 13.7131C14.4179 14.0088 13.9843 14.184 13.5901 14.425C13.4494 14.5126 13.3142 14.6166 13.1453 14.6495C13.1453 14.6276 13.1396 14.6057 13.1396 14.5838C13.2072 14.4688 13.2635 14.3483 13.3649 14.2552C13.4606 14.2662 13.5113 14.184 13.5901 14.1567C14.0463 13.9924 14.0463 13.9924 13.8098 13.5872C13.9336 13.5434 13.9505 13.6912 14.0406 13.7076C14.1701 13.8664 14.3166 13.9048 14.4968 13.7734C14.5474 13.735 14.615 13.7295 14.6713 13.7076C14.7051 13.7022 14.7445 13.7076 14.7783 13.7131Z" fill="#A43A59"/>
    <path d="M11.4503 14.7471C11.5122 15.0975 11.5742 15.1304 11.8782 14.9825C11.9683 14.9387 12.0641 14.8949 12.1542 14.8511C12.2668 14.7909 12.3513 14.8018 12.4076 14.9168C12.1091 15.0263 11.8613 15.2727 11.5066 15.2454C11.3545 15.1249 11.2813 14.9497 11.1631 14.8073C11.1631 14.7909 11.1687 14.769 11.1687 14.7525C11.2701 14.7471 11.3602 14.7471 11.4503 14.7471Z" fill="#A43A59"/>
    <path d="M15.279 12.3379C15.2621 12.4967 15.4085 12.5898 15.4536 12.7267C15.1946 12.7869 14.9862 12.9731 14.7215 13.0005C14.6821 12.9786 14.6427 12.9567 14.5977 12.9402C14.9074 12.8252 14.9975 12.4803 15.279 12.3379Z" fill="#C65063"/>
    <path d="M14.6717 13.6964C14.6098 13.7183 14.5422 13.7293 14.4971 13.7621C14.3169 13.8935 14.1705 13.8607 14.041 13.6964C14.1255 13.5486 14.2156 13.4007 14.3733 13.3076C14.5647 13.3733 14.5816 13.565 14.6717 13.6964Z" fill="#C65063"/>
    <path d="M13.8042 13.5811C14.0407 13.9863 14.0407 13.9863 13.5846 14.1505C13.5058 14.1779 13.4551 14.26 13.3594 14.2491C13.4833 14.0136 13.6409 13.7946 13.8042 13.5811Z" fill="#C65063"/>
    <path d="M11.1738 14.7474C11.1738 14.7638 11.1738 14.7857 11.1681 14.8022C11.1118 14.8022 11.0555 14.8022 11.0048 14.8022C10.8134 14.7857 10.6782 14.95 10.498 14.9664C10.4023 14.8734 10.346 14.7584 10.3291 14.627C10.6163 14.6324 10.8978 14.6762 11.1738 14.7474Z" fill="#C65063"/>
    <path d="M14.5984 12.9355C14.6378 12.9574 14.6773 12.9794 14.7223 12.9958C14.7223 13.0724 14.7617 13.1272 14.8349 13.1601C14.8744 13.3243 14.9813 13.4393 15.1165 13.5379C15.0377 13.62 14.9419 13.6693 14.8293 13.6967C14.8406 13.4338 14.6829 13.2586 14.4971 13.1053C14.5083 13.0396 14.5365 12.9794 14.5984 12.9355Z" fill="#A43A59"/>
    <path d="M10.0194 14.7363C10.1433 14.7363 10.1883 14.8349 10.239 14.917C10.3235 15.0539 10.2165 15.1087 10.1095 15.1525C9.99121 15.2072 9.91238 15.1689 9.88985 15.043C9.87859 14.9663 9.88422 14.8842 9.88422 14.802C9.90111 14.7856 9.91801 14.7747 9.9349 14.7582C9.96306 14.7528 9.99121 14.7473 10.0194 14.7363Z" fill="#C65063"/>
    <path d="M14.4916 13.1045C14.6774 13.2633 14.8351 13.433 14.8238 13.6959C14.8069 13.7013 14.7901 13.7068 14.7788 13.7068C14.745 13.7013 14.7056 13.7013 14.6718 13.6959C14.5817 13.559 14.5648 13.3728 14.3677 13.3126C14.3621 13.2195 14.4015 13.1483 14.4916 13.1045Z" fill="#CF7D6C"/>
    <path d="M12.5826 14.8025C12.4475 14.5944 12.7741 14.6492 12.7628 14.5068C12.8529 14.5397 12.943 14.5671 13.0275 14.5999C12.9092 14.7368 12.7403 14.7587 12.5826 14.8025Z" fill="#A43A59"/>
    <path d="M12.582 14.8026C12.7397 14.7534 12.9086 14.7369 13.0269 14.6C13.0663 14.5946 13.1001 14.5836 13.1395 14.5781C13.1395 14.6 13.1451 14.6219 13.1451 14.6438C13.0888 14.6876 13.0269 14.7369 12.9706 14.7807C12.8354 14.8081 12.7453 14.9614 12.582 14.9067C12.582 14.8738 12.582 14.841 12.582 14.8026Z" fill="#C2544D"/>
    <path d="M10.2962 14.6215C10.268 14.6215 10.2342 14.6269 10.2061 14.6269C10.2398 14.5941 10.268 14.5941 10.2962 14.6215Z" fill="#C65063"/>
    <path d="M12.9707 9.88525C12.9764 10.159 12.9764 10.4328 12.982 10.7066C12.8863 10.6847 12.7962 10.6628 12.7004 10.6409C12.6666 10.619 12.6272 10.6026 12.5934 10.5807C12.3907 10.3671 12.1373 10.2357 11.8614 10.1317C11.6361 9.95643 11.3715 9.84144 11.1237 9.70455C11.1519 9.43077 11.0505 9.15151 11.18 8.88867C11.7713 9.22269 12.3682 9.55123 12.9707 9.88525Z" fill="#A24741"/>
    <path d="M11.8552 10.1309C12.1311 10.2294 12.3845 10.3663 12.5872 10.5799C12.4127 10.6784 12.2381 10.7825 12.0635 10.881C11.9622 10.9084 11.9509 10.9796 11.9565 11.0672C11.9622 11.2917 11.9622 11.5107 11.9678 11.7352C11.7482 11.9214 11.5004 12.0528 11.2245 12.1514C11.1288 11.9159 11.2076 11.6695 11.1795 11.4341C11.1738 11.3793 11.1907 11.3246 11.1795 11.2698C11.0556 10.6949 11.2808 10.317 11.8552 10.1309Z" fill="#F7F6F5"/>
    <path d="M12.0645 10.8822C12.239 10.7837 12.4136 10.6796 12.5882 10.5811C12.6219 10.603 12.6614 10.6194 12.6951 10.6413C12.6951 10.6851 12.6839 10.7344 12.6951 10.7782C12.8134 11.2929 12.5262 11.5448 12.0701 11.6871C12.0701 11.4188 12.0701 11.1505 12.0645 10.8822Z" fill="#4A343A"/>
    <path d="M14.1592 9.87374C14.3844 9.74232 14.6097 9.61091 14.8349 9.47949C15.0151 9.77518 14.9532 10.0818 14.6772 10.2351C14.5196 10.3227 14.3788 10.4706 14.1704 10.4213C14.1648 10.2406 14.1648 10.0544 14.1592 9.87374Z" fill="#4A343A"/>
    <path d="M14.1586 9.87402C14.1643 10.0547 14.1643 10.2409 14.1699 10.4216C14.0517 10.7173 13.725 10.7392 13.4998 10.8925C13.4322 10.9363 13.421 10.8487 13.421 10.7939C13.4153 10.6844 13.4041 10.5804 13.3984 10.4709C13.573 10.1807 13.8827 10.0492 14.1586 9.87402Z" fill="#FEFDFD"/>
    <path d="M12.0638 10.8818C12.0638 11.1501 12.0694 11.4184 12.0694 11.6813C12.0356 11.6977 11.9962 11.7141 11.9624 11.736C11.9568 11.5115 11.9568 11.2925 11.9512 11.068C11.9568 10.9804 11.9624 10.9092 12.0638 10.8818Z" fill="#3E1C28"/>
    <path d="M4.5293 12.3771L4.53493 12.3607C4.53493 12.3223 4.54056 12.284 4.54056 12.2457C4.69823 12.1854 4.86154 12.1307 4.98542 12.0157C5.04736 12.0431 5.09804 12.054 5.09804 11.9609C5.11494 11.9609 5.1262 11.9609 5.14309 11.9664C5.15436 12.0321 5.18814 12.0705 5.26135 12.0705C5.26698 12.2511 5.45844 12.3716 5.43028 12.5578C5.41339 12.5578 5.3965 12.5578 5.3796 12.5578C5.34581 12.503 5.28387 12.5085 5.23319 12.4976C5.1994 12.2511 5.08678 12.1635 4.85027 12.3169C4.80522 12.3442 4.75454 12.3661 4.70386 12.388C4.64192 12.388 4.58561 12.3826 4.5293 12.3771Z" fill="#CF7D6C"/>
    <path d="M5.43065 12.5574C5.45881 12.3658 5.27298 12.2453 5.26172 12.0701C5.48133 12.0318 5.71221 11.9277 5.88678 12.1687C5.75163 12.2398 5.5827 12.2672 5.54891 12.4479C5.54891 12.4863 5.54328 12.5246 5.54328 12.5629C5.50386 12.5629 5.46444 12.5629 5.43065 12.5574Z" fill="#A24741"/>
    <path d="M5.54883 12.4482C5.58262 12.262 5.75155 12.2347 5.8867 12.1689C5.93738 12.1744 5.99369 12.1854 6.04437 12.1908C6.04437 12.2401 6.04437 12.2949 6.05 12.3442C5.88107 12.377 5.73466 12.4975 5.54883 12.4482Z" fill="#DA5B54"/>
    <path d="M4.87248 11.8456C4.80491 11.7142 4.68102 11.6156 4.6416 11.4678C4.75986 11.4842 4.86122 11.5225 4.92316 11.6266C4.94005 11.6485 4.96258 11.6649 4.97947 11.6868C4.99636 11.7416 5.01326 11.7908 5.03015 11.8456C4.97947 11.8456 4.92316 11.8456 4.87248 11.8456Z" fill="#CF7D6C"/>
    <path d="M5.03115 11.8453C5.01426 11.7906 4.99736 11.7413 4.98047 11.6865C5.04241 11.6975 5.10999 11.703 5.1663 11.7249C5.22824 11.7468 5.30144 11.7741 5.29581 11.8453C5.29581 11.9384 5.21135 11.9494 5.13814 11.9658C5.12125 11.9658 5.10999 11.9603 5.09309 11.9603C5.09309 11.911 5.08183 11.8672 5.03115 11.8453Z" fill="#A24741"/>
    <path d="M4.98014 11.6862C4.96325 11.6643 4.94072 11.6479 4.92383 11.626C4.94635 11.6479 4.96325 11.6643 4.98014 11.6862Z" fill="#A24741"/>
    <path d="M6.05011 13.8168C6.05574 13.7401 6.01069 13.6854 5.94312 13.647C5.88681 13.5047 5.82487 13.3623 5.76855 13.2145C5.78545 13.2145 5.80797 13.209 5.82487 13.209C5.96565 13.209 5.98817 13.3404 6.05574 13.4171C6.11769 13.4882 6.14021 13.6032 6.2641 13.6032C6.24157 13.8223 6.40488 13.9701 6.50061 14.1344C6.54566 14.211 6.58507 14.1234 6.61323 14.0906C6.6977 14.0522 6.77653 14.0084 6.861 13.9701C7.30586 13.7511 7.30586 13.7511 7.10877 13.3185C7.1313 13.2966 7.15382 13.2802 7.17635 13.2583C7.23829 13.2692 7.30586 13.2583 7.34528 13.324C7.36781 13.3404 7.3847 13.3623 7.40722 13.3787V13.3733C7.43538 13.5759 7.52548 13.6854 7.75073 13.5923C7.82956 13.5923 7.90277 13.6032 7.92529 13.6963C7.655 13.7949 7.64936 13.9482 7.8183 14.1453C7.88587 14.222 7.92529 14.3151 8.01539 14.3698C8.03228 14.682 7.86335 14.5177 7.74509 14.4739C7.76199 14.3315 7.6381 14.2494 7.59305 14.1289C7.51985 13.9427 7.40722 13.9099 7.2214 14.0139C7.06935 14.0961 6.92294 14.2056 6.73148 14.2056C6.60197 14.2165 6.6076 14.2932 6.65265 14.3808C6.73148 14.5232 6.81595 14.6655 6.89479 14.8079C6.90605 14.8353 6.90605 14.8627 6.92294 14.8846C6.96799 14.9393 7.06372 14.9886 6.96799 15.0598C6.88353 15.1145 6.81032 15.0653 6.7709 14.9776C6.73712 14.9119 6.70333 14.8462 6.66954 14.786C6.47808 14.4739 6.3373 14.4355 6.00506 14.5889C5.77419 14.452 6.01633 14.4027 6.06138 14.3206C6.25847 14.2877 6.35983 14.2165 6.19652 14.0249C6.13458 13.9537 6.09516 13.8825 6.05011 13.8168Z" fill="#CF7D6C"/>
    <path d="M9.14678 14.4142C9.01164 14.5182 8.82018 14.5128 8.69629 14.6387C8.57804 14.688 8.46541 14.7318 8.34716 14.7865C8.20638 14.8523 8.25706 14.9125 8.35842 14.9727C8.35842 14.9892 8.35842 15.0111 8.35279 15.0275C8.28522 15.0439 8.21201 15.0658 8.14444 15.0822C8.09376 14.9946 8.02618 14.9508 7.91919 14.9892C7.73899 15.0603 7.55316 15.1096 7.40675 15.241C7.33918 15.2629 7.24908 15.1808 7.20403 15.2465C7.14772 15.3232 7.2153 15.3944 7.26034 15.4601C7.27724 15.4874 7.28287 15.5258 7.29976 15.5586C7.26598 15.6298 7.1984 15.6189 7.13646 15.6243C7.06889 15.3615 6.91121 15.3944 6.73102 15.5093C6.66344 15.5093 6.62402 15.4765 6.62402 15.4108C6.96752 15.2082 7.32792 15.0275 7.69394 14.8632C7.78404 14.8249 7.89667 14.8194 7.91919 14.6935C7.9924 14.6661 8.10502 14.8139 8.13881 14.6387C8.31337 14.5785 8.49357 14.5237 8.65124 14.4197C8.75823 14.3813 8.86523 14.343 8.97785 14.3047C9.05105 14.3156 9.10736 14.3485 9.14678 14.4142Z" fill="#CF7D6C"/>
    <path d="M8.01456 14.3698C7.91883 14.3205 7.87941 14.222 7.81747 14.1453C7.6429 13.9427 7.65416 13.7949 7.92446 13.6963C8.05961 13.7072 8.15534 13.7894 8.25107 13.866C8.26796 13.8879 8.29049 13.9044 8.30738 13.9263C8.32427 14.0029 8.3468 14.0741 8.36369 14.1508C8.23417 14.2001 8.11592 14.2712 8.01456 14.3698Z" fill="#DA5B54"/>
    <path d="M7.01306 13.1595C6.87791 13.2143 6.74277 13.2636 6.60762 13.3293C6.28101 13.4826 6.23033 13.4607 6.10645 13.1048C6.27538 13.061 6.42742 12.9953 6.55694 12.8857C6.72587 12.9569 6.90044 13.0117 7.01306 13.1595Z" fill="#C65063"/>
    <path d="M8.36491 14.1454C8.34801 14.0687 8.32549 13.9976 8.30859 13.9209C8.562 14.003 8.78724 14.129 8.9787 14.3097C8.87171 14.348 8.76472 14.3863 8.65209 14.4247C8.562 14.4301 8.53384 14.348 8.4719 14.3097C8.43811 14.2549 8.40432 14.2002 8.36491 14.1454Z" fill="#A43A59"/>
    <path d="M5.99381 12.9464C5.76293 12.6562 5.76857 12.6288 6.05012 12.5576C6.15149 12.6671 6.32042 12.689 6.40489 12.8204C6.26411 12.8424 6.15149 12.9573 5.99381 12.9464Z" fill="#C65063"/>
    <path d="M5.99316 12.9466C6.14521 12.9631 6.25783 12.8426 6.40424 12.8262C6.46055 12.8371 6.52249 12.8371 6.56191 12.8919C6.43239 13.0014 6.27472 13.0671 6.11142 13.1109C6.03258 13.0781 5.9988 13.0233 5.99316 12.9466Z" fill="#C2544D"/>
    <path d="M7.75073 13.5921C7.52548 13.6906 7.42975 13.5811 7.40723 13.373C7.54801 13.4059 7.66626 13.4771 7.75073 13.5921Z" fill="#DA5B54"/>
    <path d="M9.65386 14.6977C9.4455 14.9167 9.42861 14.7196 9.37793 14.5827C9.49055 14.5718 9.58065 14.6156 9.65386 14.6977Z" fill="#A24741"/>
    <path d="M9.37835 14.5829C9.3333 14.5665 9.32204 14.5282 9.31641 14.4844C9.36708 14.5008 9.38398 14.5337 9.37835 14.5829Z" fill="#A24741"/>
    <path d="M8.30827 13.9264C8.29137 13.9045 8.26885 13.8881 8.25195 13.8662C8.26885 13.8881 8.29137 13.9045 8.30827 13.9264Z" fill="#A43A59"/>
    <path d="M7.40667 13.379C7.38414 13.3625 7.36725 13.3406 7.34473 13.3242C7.36725 13.3461 7.38414 13.3625 7.40667 13.379Z" fill="#DA5B54"/>
    <path d="M9.88491 16.4402C9.84549 16.1938 9.9187 16.0241 10.1946 15.9638C10.2904 15.9419 10.3861 15.8872 10.4649 15.8324C10.6451 15.7119 10.769 15.7448 10.8366 15.9529C10.6282 16.0788 10.4199 16.2048 10.2115 16.3307C10.0876 16.3416 10.0144 16.4731 9.88491 16.4402Z" fill="#C65063"/>
    <path d="M11.5124 15.2406C11.8615 15.268 12.1093 15.0216 12.4133 14.9121C12.4359 14.934 12.4584 14.9614 12.4809 14.9833C12.4753 15.0107 12.4697 15.0435 12.4697 15.0709C12.312 15.1038 12.1881 15.2023 12.0586 15.2844C11.9009 15.383 11.7432 15.4268 11.563 15.3994C11.4729 15.4159 11.3772 15.4378 11.2871 15.4542C11.2871 15.4104 11.2984 15.3666 11.3491 15.3447C11.4279 15.3502 11.5067 15.3502 11.5124 15.2406Z" fill="#C2544D"/>
    <path d="M11.2871 15.4591C11.3772 15.4426 11.4729 15.4207 11.563 15.4043C11.5405 15.4426 11.6418 15.47 11.5405 15.5412C11.3715 15.6616 11.1913 15.7493 11.0111 15.8478C10.8647 15.7219 10.8873 15.6288 11.0675 15.5631C11.1407 15.5357 11.2139 15.4919 11.2871 15.4591Z" fill="#DA5B54"/>
    <path d="M8.5217 15.2458C8.53296 15.4539 8.69627 15.5853 8.80326 15.7386C8.80326 15.7769 8.80326 15.8207 8.80326 15.8591C8.65685 15.7824 8.50481 15.7003 8.3584 15.6236C8.36966 15.4758 8.37529 15.3334 8.38655 15.1855C8.4316 15.202 8.47665 15.2239 8.5217 15.2458Z" fill="#886B59"/>
    <path d="M8.80371 15.8591C8.80371 15.8208 8.80371 15.777 8.80371 15.7386C8.89944 15.7003 8.98954 15.6674 9.08527 15.6291C9.15284 15.6017 9.23168 15.547 9.27673 15.6346C9.33867 15.7441 9.23168 15.7715 9.16411 15.8043C9.07964 15.8427 8.99517 15.87 8.9107 15.9029C8.87692 15.8865 8.84313 15.87 8.80371 15.8591Z" fill="#A24741"/>
    <path d="M7.91339 14.6979C7.89086 14.8183 7.77824 14.8293 7.68814 14.8676C7.32212 15.0319 6.96172 15.2071 6.61822 15.4152C6.58444 15.4152 6.54502 15.4152 6.51123 15.4152C6.47181 15.3933 6.42676 15.3714 6.38735 15.3495C6.37045 15.3331 6.35356 15.3166 6.33666 15.3002H6.33103C6.28035 15.0374 6.07763 14.8348 5.99316 14.5829C6.3254 14.4241 6.46055 14.4679 6.65764 14.78C6.69706 14.8402 6.73085 14.906 6.759 14.9717C6.79842 15.0593 6.87726 15.1086 6.95609 15.0538C7.05182 14.9881 6.95609 14.9333 6.91104 14.8786C6.89415 14.8567 6.89415 14.8293 6.88289 14.8019C6.9392 14.8019 7.00114 14.8019 7.05745 14.8019C7.11376 14.8183 7.17008 14.8402 7.22639 14.8567C7.3728 14.8457 7.47979 14.7526 7.60931 14.7034C7.7163 14.6596 7.81203 14.5829 7.91339 14.6979Z" fill="#A24741"/>
    <path d="M7.11375 13.3184C7.31084 13.7509 7.31084 13.7509 6.86597 13.97C6.78151 14.0083 6.70267 14.0521 6.6182 14.0904C6.60131 13.9152 6.42674 13.7893 6.44927 13.5976C6.66888 13.5045 6.89413 13.4114 7.11375 13.3184Z" fill="#DA5B54"/>
    <path d="M5.32386 13.921C4.99726 13.7403 4.67628 13.5541 4.32715 13.357C4.43977 13.2256 4.59744 13.1927 4.73259 13.127C4.81706 13.0832 4.8959 13.1106 4.94658 13.1982C5.08735 13.4282 5.22813 13.6527 5.36891 13.8826C5.35202 13.8936 5.34076 13.9045 5.32386 13.921Z" fill="#C65063"/>
    <path d="M6.05012 13.8164C6.09517 13.8821 6.13459 13.9533 6.18527 14.0135C6.34857 14.2052 6.24721 14.2764 6.05012 14.3092C6.01634 14.2983 5.97129 14.2983 5.94876 14.2764C5.84177 14.1888 5.61652 14.1395 5.65594 13.9971C5.68973 13.8712 5.88682 13.8164 6.05012 13.8164Z" fill="#DA5B54"/>
    <path d="M5.77396 13.2139C5.83028 13.3562 5.89222 13.4986 5.94853 13.6464C5.56561 13.8436 5.56561 13.8436 5.3291 13.4877C5.47551 13.4 5.6726 13.3836 5.77396 13.2139Z" fill="#C65063"/>
    <path d="M5.26192 13.3245C4.96346 12.9521 4.97473 12.9302 5.48153 12.8262C5.52658 12.9412 5.64483 13.0288 5.66173 13.1602C5.51532 13.1821 5.39706 13.2752 5.26192 13.3245Z" fill="#C65063"/>
    <path d="M4.69824 12.3926C4.74892 12.3707 4.7996 12.3488 4.84465 12.3215C5.08116 12.1681 5.19378 12.2503 5.22757 12.5022C5.12621 12.5898 5.00796 12.6445 4.87844 12.6774C4.76018 12.6171 4.72077 12.5076 4.69824 12.3926Z" fill="#A24741"/>
    <path d="M6.44988 13.6035C6.43299 13.7897 6.60192 13.9211 6.61882 14.0963C6.58503 14.1292 6.55124 14.2223 6.50619 14.1401C6.41046 13.9704 6.24716 13.828 6.26969 13.609C6.33163 13.6035 6.38794 13.6035 6.44988 13.6035Z" fill="#C2544D"/>
    <path d="M5.27342 14.6978C5.18333 14.6869 5.10449 14.6595 5.04255 14.5883C5.08196 14.5664 5.07633 14.55 5.03692 14.5335C5.02565 14.4897 5.01439 14.4459 5.00313 14.4076C4.98623 14.3528 4.97497 14.2981 5.04255 14.2762C5.09886 14.2543 5.16643 14.2817 5.17769 14.3309C5.21148 14.4569 5.341 14.55 5.3241 14.6923C5.30721 14.6923 5.29032 14.6978 5.27342 14.6978Z" fill="#A24741"/>
    <path d="M5.26172 13.3235C5.39687 13.2687 5.50949 13.1756 5.6559 13.1592C5.71221 13.1592 5.76852 13.1592 5.82483 13.1647C5.82483 13.1811 5.82483 13.1975 5.82483 13.2085C5.80794 13.2085 5.78541 13.2139 5.76852 13.2139C5.66716 13.3837 5.47007 13.3946 5.32366 13.4877C5.30677 13.433 5.28424 13.3782 5.26172 13.3235Z" fill="#C2544D"/>
    <path d="M5.83058 13.1654C5.77427 13.1654 5.71795 13.1654 5.66164 13.1599C5.64475 13.0285 5.52649 12.9464 5.48145 12.8259C5.52649 12.689 5.59407 12.6945 5.66727 12.7985C5.75174 12.908 5.84747 13.0121 5.83058 13.1654Z" fill="#CF7D6C"/>
    <path d="M5.27246 14.6987C5.28935 14.6987 5.30625 14.6987 5.32314 14.6933C5.39635 14.6604 5.46955 14.6166 5.54276 14.5892C5.61033 14.5618 5.70043 14.4797 5.75111 14.5947C5.79053 14.6933 5.70606 14.7316 5.61596 14.7535C5.57091 14.7644 5.5315 14.7863 5.49208 14.8028C5.40761 14.7918 5.32877 14.7644 5.27246 14.6987Z" fill="#C65063"/>
    <path d="M4.8787 12.6723C5.00822 12.6394 5.12647 12.5847 5.22783 12.4971C5.28414 12.5025 5.34045 12.4971 5.37424 12.5573C5.32919 12.5792 5.31793 12.623 5.31793 12.6668C5.21657 12.7106 5.10958 12.749 5.00822 12.7928C4.87307 12.853 4.87307 12.7709 4.8787 12.6723Z" fill="#DA5B54"/>
    <path d="M5.32422 12.6671C5.32422 12.6233 5.33548 12.585 5.38053 12.5576C5.39742 12.5576 5.41432 12.5576 5.43121 12.5576C5.47063 12.5576 5.51005 12.5576 5.54946 12.5631C5.50442 12.6617 5.41995 12.6781 5.32422 12.6671Z" fill="#C65063"/>
    <path d="M5.03613 14.5283C5.07555 14.5447 5.07555 14.5612 5.04176 14.5831C5.03613 14.5667 5.03613 14.5502 5.03613 14.5283Z" fill="#A43A59"/>
    <path d="M6.33691 15.3008C6.35381 15.3172 6.3707 15.3336 6.38759 15.3501C6.3707 15.3336 6.35381 15.3172 6.33691 15.3008Z" fill="#A43A59"/>
    <path d="M7.40111 15.2406C7.54752 15.1092 7.73898 15.0599 7.91354 14.9888C8.02617 14.945 8.08811 14.9888 8.13879 15.0818C7.93607 15.2516 7.69956 15.3611 7.46305 15.4706C7.42363 15.3994 7.39548 15.3283 7.40111 15.2406Z" fill="#C2544D"/>
    <path d="M8.52245 15.2457C8.4774 15.2238 8.43235 15.2073 8.38167 15.1854C8.37041 15.1307 8.35915 15.0814 8.35352 15.0266C8.35352 15.0102 8.35352 14.9883 8.35915 14.9719C8.51119 14.9609 8.60129 14.8076 8.75333 14.8076C8.99547 15.0485 8.96731 15.1033 8.52245 15.2457Z" fill="#A24741"/>
    <path d="M6.72559 15.5136C6.90578 15.3986 7.06346 15.3658 7.13103 15.6286C6.9452 15.7546 6.83821 15.6232 6.72559 15.5136Z" fill="#A24741"/>
    <path d="M7.40162 15.2403C7.39036 15.3224 7.42415 15.3991 7.46357 15.4648C7.42415 15.525 7.36784 15.5633 7.289 15.5579C7.27774 15.525 7.27211 15.4867 7.24959 15.4593C7.20454 15.3936 7.13696 15.3169 7.19328 15.2457C7.24395 15.18 7.33405 15.2622 7.40162 15.2403Z" fill="#A24741"/>
    <path d="M5.03072 11.8457C5.0814 11.8676 5.09266 11.9169 5.09829 11.9607C5.09829 12.0538 5.04761 12.0428 4.98567 12.0154C4.94625 11.9607 4.90683 11.9005 4.87305 11.8457C4.92373 11.8457 4.98004 11.8457 5.03072 11.8457Z" fill="#886B59"/>
    <path d="M11.2366 15.2959C11.1859 15.3124 11.1296 15.3233 11.0846 15.3452C10.758 15.4931 10.7354 15.4821 10.6172 15.1317C10.7523 15.0769 10.8819 15.0167 11.017 14.9619C11.1409 15.0386 11.2085 15.1536 11.2366 15.2959Z" fill="#C65063"/>
    <path d="M10.3521 15.2461C10.4648 15.3063 10.538 15.3885 10.5492 15.498C10.5661 15.6568 10.4028 15.7006 10.3071 15.7006C10.1607 15.7061 10.1325 15.5473 10.1213 15.4432C10.1044 15.3063 10.2789 15.3282 10.3521 15.2461Z" fill="#C65063"/>
    <path d="M11.237 15.295C11.2088 15.1526 11.1412 15.0431 11.0173 14.9664C11.0173 14.9117 11.0117 14.8569 11.0117 14.8076C11.068 14.8076 11.1243 14.8076 11.175 14.8076C11.2933 14.95 11.3665 15.1252 11.5185 15.2457C11.5129 15.3497 11.4341 15.3552 11.3552 15.3552C11.3214 15.3059 11.282 15.295 11.237 15.295Z" fill="#CF7D6C"/>
    <path d="M11.0049 14.8029C11.0049 14.8577 11.0105 14.9124 11.0105 14.9617C10.8753 15.0165 10.7458 15.0767 10.6107 15.1315C10.5375 15.0986 10.498 15.0439 10.498 14.9672C10.6782 14.9508 10.8134 14.7865 11.0049 14.8029Z" fill="#C2544D"/>
    <path d="M8.75353 14.8026C8.59586 14.8026 8.51139 14.9559 8.35935 14.9668C8.26362 14.9121 8.21294 14.8464 8.34809 14.7807C8.46071 14.7259 8.57897 14.6821 8.69722 14.6328C8.71412 14.693 8.73664 14.7478 8.75353 14.8026Z" fill="#C2544D"/>
    <path d="M7.23239 14.8568C7.17608 14.8403 7.11977 14.8184 7.06346 14.802C6.99025 14.583 6.82695 14.4078 6.72559 14.2052C6.91705 14.2052 7.06346 14.1011 7.2155 14.0135C7.40133 13.9095 7.51395 13.9423 7.58715 14.1285C7.6322 14.2435 7.75609 14.3256 7.73919 14.4735C7.61531 14.6542 7.33375 14.6377 7.23239 14.8568Z" fill="#DA5B54"/>
    <path d="M7.23242 14.8573C7.33378 14.6383 7.61534 14.6547 7.74486 14.474C7.86874 14.5179 8.03768 14.6821 8.01515 14.37C8.11651 14.2714 8.23477 14.2003 8.36429 14.1455C8.39807 14.2003 8.43749 14.255 8.47128 14.3098C8.36992 14.3591 8.27419 14.4083 8.17283 14.4576C8.0771 14.5069 8.04331 14.5617 8.13904 14.6438C8.10525 14.819 7.987 14.6712 7.91942 14.6986C7.81806 14.589 7.7167 14.6602 7.61534 14.704C7.48582 14.7533 7.37883 14.8409 7.23242 14.8573Z" fill="#C2544D"/>
    <path d="M6.72604 14.2061C6.8274 14.4141 6.99071 14.5839 7.06391 14.8029C7.0076 14.8029 6.94566 14.8029 6.88935 14.8029C6.81051 14.6605 6.72604 14.5182 6.64721 14.3758C6.60216 14.2937 6.59653 14.217 6.72604 14.2061Z" fill="#C2544D"/>
    <path d="M8.13992 14.6436C8.04982 14.5615 8.08361 14.5067 8.1737 14.4574C8.27506 14.4081 8.37079 14.3589 8.47215 14.3096C8.53409 14.3479 8.56225 14.43 8.65235 14.4246C8.49468 14.5286 8.31448 14.5834 8.13992 14.6436Z" fill="#A24741"/>
  </g>
  <defs>
    <clipPath id="clip0">
      <rect width="12" height="16" fill="white" transform="translate(4 2)"/>
    </clipPath>
  </defs>
</svg>
