<svg width="20" height="20" viewBox="0 0 20 20" fill="none" xmlns="http://www.w3.org/2000/svg">
  <g clip-path="url(#clip0)">
    <path d="M10.0153 20C4.48855 20 0 15.5114 0 10.0153C0 4.51908 4.48855 0 10.0153 0C15.542 0 20.0305 4.48855 20.0305 10.0153C20.0305 15.542 15.5115 20 10.0153 20ZM10.0153 1.52672C5.34351 1.52672 1.52672 5.34351 1.52672 10.0153C1.52672 14.687 5.34351 18.5038 10.0153 18.5038C14.687 18.5038 18.5038 14.687 18.5038 10.0153C18.5038 5.34351 14.687 1.52672 10.0153 1.52672Z" fill="white"/>
    <path d="M8.73271 8.09228C9.12965 8.45869 9.55713 8.85563 9.95408 9.22205C9.80141 9.40525 9.6182 9.55792 9.46553 9.74113C9.16019 10.1381 9.12965 10.6266 9.37393 10.993C9.6182 11.39 10.0457 11.6037 10.5037 11.5121C10.9922 11.4205 11.3281 11.1457 11.4503 10.6572C11.5419 10.2297 11.3587 9.8938 11.0533 9.61899C10.4426 9.06937 9.83194 8.51976 9.22126 7.9396C8.91591 7.66479 8.61057 7.38999 8.33576 7.11518C7.96935 6.7793 7.5724 6.6877 7.14492 6.8709C6.71744 7.05411 6.47317 7.45105 6.47317 7.90907C6.47317 9.03884 6.47317 10.1991 6.5037 11.3289C6.5037 12.3976 6.5037 13.4663 6.5037 14.5656C6.22889 14.6877 5.98462 14.6266 5.74034 14.5045C5.22126 14.2297 4.91591 13.8022 4.91591 13.222C4.91591 11.39 4.88538 9.52739 4.91591 7.69533C4.94645 6.41289 5.98462 5.34418 7.26706 5.19151C8.12202 5.09991 8.85484 5.34418 9.46553 5.95487C10.4426 6.90144 11.4503 7.81747 12.4274 8.7335C12.9159 9.19151 13.0686 9.77166 13.0686 10.3824C13.0686 12.0312 11.7861 13.2526 10.1678 13.1915C8.97698 13.161 7.87775 12.1228 7.66401 10.9014C7.45027 9.74113 7.90828 8.85563 8.73271 8.09228Z" fill="white"/>
    <path d="M10.5957 6.47397C11.0232 5.77168 11.6339 5.3442 12.4278 5.22206C13.527 5.06939 14.5041 5.37473 15.2064 6.29076C15.5423 6.71824 15.6339 7.20679 15.6339 7.69534C15.6339 9.5274 15.6033 11.39 15.6033 13.2221C15.6033 13.8633 14.9927 14.474 14.3514 14.5045C14.2598 14.5045 14.1682 14.474 14.0461 14.474C14.0461 13.7411 14.0461 13.0389 14.0461 12.3366C14.0461 10.932 14.0766 9.49687 14.0766 8.09229C14.0766 7.84801 14.0461 7.5732 13.9239 7.32893C13.6491 6.71824 12.8858 6.47397 12.3362 6.84038C12.0919 6.99305 11.8781 7.20679 11.6339 7.39C11.298 7.11519 10.9621 6.80985 10.5957 6.47397Z" fill="#4CA9DC"/>
  </g>
  <defs>
    <clipPath id="clip0">
      <rect width="20" height="20" fill="white"/>
    </clipPath>
  </defs>
</svg>
