<svg width="20" height="20" viewBox="0 0 20 20" fill="none" xmlns="http://www.w3.org/2000/svg">
  <circle cx="10" cy="10" r="10" fill="#2996A4"/>
  <path fill-rule="evenodd" clip-rule="evenodd" d="M6.22 5.9548C6.03025 4.93872 6.8099 4 7.84355 4C8.75571 4 9.49516 4.73945 9.49516 5.65161V7.6878C9.72333 7.6717 9.95514 7.66344 10.1899 7.66344C10.4155 7.66344 10.6384 7.67106 10.8579 7.68594V5.65161C10.8579 4.73945 11.5973 4 12.5095 4C13.5431 4 14.3227 4.93872 14.133 5.9548L13.6861 8.34823C15.22 9.01795 16.3799 10.1811 16.3799 11.6427V12.527C16.3799 13.7289 15.5848 14.7353 14.4731 15.4146C13.3528 16.0992 11.8372 16.5062 10.1899 16.5062C8.5427 16.5062 7.02712 16.0992 5.90681 15.4146C4.79517 14.7353 4 13.7289 4 12.527V11.6427C4 10.1888 5.14798 9.03014 6.66899 8.35911L6.22 5.9548ZM13.1133 8.66269L13.6363 5.86204C13.768 5.15683 13.2269 4.5053 12.5095 4.5053C11.8764 4.5053 11.3632 5.01852 11.3632 5.65161V8.24281C11.1973 8.22154 11.0287 8.20469 10.8579 8.19247C10.6388 8.1768 10.4159 8.16875 10.1899 8.16875C9.95473 8.16875 9.72287 8.17747 9.49516 8.19443C9.32428 8.20716 9.15573 8.22452 8.98986 8.2463V5.65161C8.98986 5.01852 8.47664 4.5053 7.84355 4.5053C7.12614 4.5053 6.58502 5.15682 6.71672 5.86204L7.24146 8.67198C5.60103 9.28131 4.5053 10.3838 4.5053 11.6427V12.527C4.5053 14.4456 7.05041 16.0009 10.1899 16.0009C13.3295 16.0009 15.8746 14.4456 15.8746 12.527V11.6427C15.8746 10.3774 14.7677 9.27009 13.1133 8.66269Z" fill="#633001"/>
  <path d="M15.8742 12.5269C15.8742 14.4455 13.3291 16.0008 10.1895 16.0008C7.04999 16.0008 4.50488 14.4455 4.50488 12.5269V11.6426H15.8742V12.5269Z" fill="#FEDC90"/>
  <path fill-rule="evenodd" clip-rule="evenodd" d="M6.71629 5.86163C6.5846 5.15641 7.12572 4.50488 7.84313 4.50488C8.47622 4.50488 8.98944 5.0181 8.98944 5.6512V8.24588C9.3763 8.19507 9.77782 8.16832 10.1895 8.16832C10.5917 8.16832 10.9842 8.19385 11.3627 8.24239V5.6512C11.3627 5.0181 11.876 4.50488 12.509 4.50488C13.2265 4.50488 13.7676 5.15641 13.6359 5.86163L13.1128 8.66226C14.7672 9.26967 15.8742 10.377 15.8742 11.6423C15.8742 13.5609 13.3291 15.1162 10.1895 15.1162C7.04999 15.1162 4.50488 13.5609 4.50488 11.6423C4.50488 10.3834 5.60061 9.28089 7.24104 8.67156L6.71629 5.86163Z" fill="#D1884F"/>
  <path d="M8.61091 11.3908C8.61091 11.9141 8.32812 12.3383 7.97928 12.3383C7.63044 12.3383 7.34766 11.9141 7.34766 11.3908C7.34766 10.8675 7.63044 10.4434 7.97928 10.4434C8.32812 10.4434 8.61091 10.8675 8.61091 11.3908Z" fill="#633001"/>
  <path d="M12.9693 11.3908C12.9693 11.9141 12.6865 12.3383 12.3377 12.3383C11.9888 12.3383 11.7061 11.9141 11.7061 11.3908C11.7061 10.8675 11.9888 10.4434 12.3377 10.4434C12.6865 10.4434 12.9693 10.8675 12.9693 11.3908Z" fill="#633001"/>
</svg>
