<svg width="20" height="20" viewBox="0 0 20 20" fill="none" xmlns="http://www.w3.org/2000/svg">
  <circle cx="10" cy="10" r="10" fill="#FFE3CF"/>
  <path d="M5.78332 13.3942C5.81601 13.4534 5.83621 13.4966 5.84486 13.5159C6.04919 13.912 6.29967 14.3115 6.64245 14.5385L6.67611 14.5596C7.06361 14.7995 7.75784 15.0072 8.47178 15.1221C8.51938 14.5711 8.84966 14.0716 9.17707 13.7038C8.74917 13.8328 8.30474 13.8985 7.85784 13.899C7.13582 13.8999 6.42423 13.7267 5.78332 13.3942ZM11.2482 11.2976C10.841 11.1663 10.2309 10.5553 9.30447 10.7769C8.54005 10.9596 8.31072 11.4923 8.18909 11.686C7.90399 11.4053 7.60159 11.2149 7.35063 11.1716C7.15976 11.1394 7.03476 11.1976 6.96313 11.2514C6.83332 11.3505 6.82995 11.3538 7.69486 13.1534L7.76697 13.3029C7.76793 13.3058 7.77034 13.3077 7.77178 13.3106L7.84966 13.4711C7.84966 13.4711 7.89918 13.6394 8.18668 13.5596C8.18668 13.5596 10.178 13.3692 10.9357 11.9913C11.0463 11.7628 11.1505 11.5313 11.2482 11.2971V11.2976ZM3.37323 8.8923C3.37948 8.77692 3.37178 8.51971 3.2064 8.3875C3.07338 8.87633 2.99692 9.37882 2.97852 9.88509C3.13519 9.90113 3.28375 9.96263 3.40592 10.062C3.3689 9.82403 3.29053 9.42115 3.37371 8.8923H3.37323ZM10.8723 14.9279C10.5473 14.576 10.492 13.9178 10.7093 12.9625C10.7266 12.8875 10.7453 12.813 10.7641 12.7394C10.455 13.0707 9.93957 13.3942 9.62274 13.701C9.27226 14.0404 8.83091 14.5836 8.78861 15.1668C9.16216 15.212 9.52947 15.2336 9.84966 15.2101C10.465 15.1649 10.7612 14.9774 10.8723 14.9279ZM14.6247 6.63557C14.7792 6.82706 14.9084 7.03759 15.0093 7.26202C15.2314 7.68028 15.9559 8.87019 16.9122 8.6423C16.8579 8.29933 16.7825 7.96006 16.6862 7.62644C16.6795 7.60625 16.6727 7.58605 16.665 7.56538L16.6684 7.56442C16.5723 7.24327 16.4521 6.92019 16.3045 6.60048C15.7554 6.83028 15.1098 6.75625 14.6247 6.63557ZM13.628 4.17692C13.6522 4.19907 13.669 4.22809 13.6761 4.26007C13.6832 4.29205 13.6804 4.32546 13.6679 4.35577C13.4309 4.92788 12.8915 5.39904 12.4299 5.71827C12.853 5.71202 13.4126 5.79519 14.0679 6.11346C14.2771 6.20192 15.3689 6.63269 16.1641 6.31346C16.1617 6.30913 16.1583 6.30384 16.1564 6.29904C16.1405 6.26827 16.1232 6.23798 16.1069 6.20769C15.553 5.22833 14.7682 4.39916 13.8208 3.79231C13.126 3.37071 12.3499 3.10071 11.5434 3C11.6207 3.39675 11.5779 3.80755 11.4203 4.17981C12.6405 3.64423 13.2905 3.86827 13.628 4.17692ZM11.1886 14.7836C11.6894 14.5543 12.1799 14.3033 12.6588 14.0312C12.6266 14.0183 12.5968 14.0043 12.5694 13.9894C11.9766 13.6654 11.6449 12.55 11.4953 11.5755C11.4743 11.6307 11.4519 11.6853 11.428 11.7394C11.262 12.1619 11.1262 12.5957 11.0218 13.0375C10.7631 14.1735 10.9574 14.6163 11.1886 14.7832V14.7836ZM15.0232 9.16634C14.278 9.58028 13.5439 9.78846 12.8285 9.78846C12.4264 9.78838 12.0271 9.72177 11.6468 9.59134C11.779 10.1221 11.6824 10.6572 11.7602 11.1409C11.7963 11.1534 11.8333 11.1663 11.8708 11.1779C12.9694 11.538 13.8227 11.6005 14.3386 11.3586C14.4797 11.2943 14.6038 11.1976 14.7006 11.0764C15.0612 10.6221 15.0396 9.67355 15.0227 9.16634H15.0232Z" fill="#FF6B00"/>
  <path d="M13.2957 13.6293L13.2967 13.6307C14.0626 13.1788 14.5226 12.1351 14.6842 11.5274C14.6193 11.5726 14.5496 11.613 14.4741 11.6485C14.2101 11.7721 13.8986 11.8231 13.5654 11.8231C12.9981 11.8231 12.3683 11.6759 11.8068 11.4947C11.9501 12.4336 12.2635 13.4567 12.7231 13.7081C12.8948 13.8019 13.0823 13.7764 13.2957 13.6293ZM11.564 9.21921C11.6947 9.27195 11.8284 9.3169 11.9645 9.35383C12.9313 9.61248 13.9549 9.42835 15.0077 8.80575C14.9972 8.22402 14.8837 7.76296 14.7183 7.39758C14.6736 7.312 14.6496 7.25816 14.6462 7.25142H14.6467C14.4654 6.90267 14.2021 6.60321 13.8794 6.37883C13.165 6.04325 12.5799 6.01344 12.1972 6.05623C13.2914 6.48652 13.4779 7.10623 13.4866 7.13604L13.4943 7.162C13.5023 7.19037 13.5001 7.22064 13.4882 7.24759C13.4763 7.27454 13.4553 7.29647 13.4289 7.3096L13.4049 7.32162C12.3529 7.85431 11.3577 7.55671 10.814 7.30142C10.9741 7.67979 11.1866 8.18556 11.2693 8.38123L11.2712 8.38027C11.3053 8.45815 11.3385 8.5394 11.3712 8.62354L11.3731 8.62835C11.4438 8.81392 11.5092 9.01104 11.5635 9.21921H11.564ZM15.1299 13.8456C14.8486 13.4399 14.7563 12.849 14.7428 12.3057C14.6452 12.536 14.5438 12.7413 14.4462 12.9178L14.4467 12.9182C14.4323 12.9519 14.4145 12.9846 14.3943 13.0182C14.2308 13.3394 13.7029 14.4644 13.9481 15.187C14.0193 15.3976 14.1501 15.5524 14.3452 15.6577C14.5438 15.511 15.1212 15.0519 15.6837 14.2827C15.4575 14.1995 15.2636 14.0466 15.1299 13.8461V13.8456ZM4.39285 12.2654C4.02939 11.7894 3.76689 11.3798 3.63467 10.9481C3.56208 10.7106 3.31689 10.2634 2.97266 10.2086C2.97746 10.9096 3.08564 11.5865 3.28275 12.225C3.714 12.1519 4.08227 12.1798 4.39285 12.2654Z" fill="#FF6B00"/>
  <path d="M13.6444 15.2887C13.4775 14.7945 13.6011 14.1757 13.7694 13.6753C13.6738 13.7505 13.5758 13.8226 13.4756 13.8916L13.4766 13.8931L13.4247 13.9257C13.3014 14.0098 13.176 14.0908 13.0487 14.1685L13.0497 14.17C12.9747 14.2166 11.2449 15.3108 12.0703 16.8729C12.7913 16.6499 13.4715 16.3121 14.0848 15.8724C13.8764 15.733 13.7212 15.5273 13.6444 15.2887ZM16.9559 8.95989C16.8593 8.98056 16.7626 8.99162 16.6665 8.99162C16.1915 8.99162 15.7213 8.73729 15.2876 8.24065C15.2865 8.23908 15.2852 8.23763 15.2838 8.23633C15.3131 8.44402 15.3285 8.66229 15.3285 8.88921C15.3333 8.95652 15.3372 9.02383 15.34 9.09065C15.3737 9.4719 15.5064 10.3181 16.0203 10.7719C16.2708 10.9935 16.5876 11.0945 16.9641 11.0743C16.9674 11.0594 16.9708 11.0421 16.9737 11.0243C17.0093 10.7367 17.0271 10.4472 17.0271 10.1575C17.0275 9.79546 17.0088 9.39017 16.9559 8.95989Z" fill="#FF6B00"/>
  <path d="M15.8079 11.0116C15.5742 10.8049 15.4088 10.5381 15.292 10.2631C15.2598 10.5215 15.2142 10.7781 15.1555 11.0318C15.1136 11.2785 14.8665 12.9059 15.393 13.6645C15.5189 13.8467 15.6771 13.9588 15.8747 14.0078C16.1187 13.6396 16.3258 13.2483 16.493 12.8395L16.4949 12.8405C16.6853 12.3814 16.829 11.8982 16.9184 11.3967C16.4833 11.4078 16.1107 11.2789 15.8079 11.0116ZM5.88768 14.2164C5.732 13.9862 5.59426 13.7443 5.47566 13.4929C5.27518 13.1424 4.66797 12.3414 3.38672 12.5328C3.64492 13.2481 4.01738 13.9169 4.4896 14.5131C4.87181 14.1102 5.41027 14.0938 5.88768 14.2164ZM9.94008 15.5275C9.47277 15.5664 8.92469 15.5265 8.39393 15.4366C8.00643 15.3958 6.92614 15.3559 6.17037 16.0472C7.05639 16.6265 8.06252 16.9967 9.11268 17.1299C9.09969 16.6592 9.31796 16.1732 9.7521 15.7136C9.8146 15.6463 9.87806 15.5847 9.9396 15.5275H9.94008ZM6.48864 14.8203C6.3122 14.7145 5.26845 14.1304 4.70499 14.7496C4.86076 14.9414 5.26412 15.3972 5.9021 15.8607C6.317 15.4554 6.817 15.2559 7.27373 15.165C6.99753 15.0865 6.73338 14.9705 6.48864 14.8203ZM11.9824 14.7549C11.5882 14.953 10.5266 15.3121 9.91941 16.0054C9.64729 16.316 9.40883 16.7136 9.43383 17.153C9.64825 17.1765 10.1391 17.2116 10.78 17.1414L10.8742 17.1309L10.9127 17.1261C11.1992 17.089 11.4809 17.0347 11.7564 16.9636C11.3088 16.0616 11.5886 15.2958 11.9824 14.7549ZM5.75162 11.1472C5.77133 11.1626 5.80547 11.1847 5.91604 11.1847C6.04874 11.1847 6.292 11.1525 6.7545 11.0352C7.15354 10.9342 7.7545 10.7539 8.42518 10.4583C8.49969 10.4237 8.6896 10.3314 8.90883 10.2227C8.98191 10.3044 9.04537 10.4006 9.08671 10.514C10.3367 10.241 10.8122 10.7833 11.3353 10.9862C11.4425 10.4756 11.4252 9.80683 11.2949 9.45347C10.0805 8.91116 9.30691 7.85876 9.02133 7.41309C8.73575 7.6352 8.30979 7.93087 8.05114 8.45395C7.52518 9.51741 6.97037 10.4737 5.97902 10.7785C5.80931 10.8309 5.69874 10.8727 5.68431 10.9958C5.68165 11.0247 5.68644 11.0538 5.69822 11.0803C5.71001 11.1068 5.72839 11.1298 5.75162 11.1472Z" fill="#FF6B00"/>
  <path d="M6.5908 8.88749C6.88071 8.67884 7.4033 8.30576 7.58599 8.15576C7.91869 7.88221 8.8384 7.15576 9.07013 6.97259C9.07666 6.96744 9.08426 6.96381 9.09238 6.96198C9.10049 6.96014 9.10892 6.96015 9.11703 6.96199C9.12514 6.96384 9.13274 6.96747 9.13927 6.97263C9.14579 6.97779 9.15108 6.98435 9.15474 6.99182C9.87109 8.4173 11.1793 9.03942 11.1793 9.03942C11.123 8.86538 11.0557 8.68845 10.9773 8.50865L10.9788 8.50817L10.7047 7.86153L10.5317 7.45336C10.4336 7.22403 10.3576 7.04471 10.3355 6.99567L10.1269 6.51826C10.1201 6.5024 10.1384 6.48798 10.1528 6.49807L10.5759 6.8024C10.5879 6.81105 11.8081 7.66346 13.1168 7.10384C12.9841 6.8923 12.5927 6.45 11.5466 6.18413L11.1894 6.09326C11.1639 6.08701 11.1605 6.05192 11.1845 6.04038L11.5177 5.88365C11.5317 5.8774 12.8668 5.24086 13.3206 4.34134C12.7235 3.93269 11.6812 4.3798 11.0937 4.69423L10.424 5.05384C10.4081 5.06202 10.3922 5.0423 10.4038 5.02836L10.8961 4.45C10.9172 4.425 11.3956 3.84327 11.223 3.03317C10.8966 2.98269 9.79032 2.90577 8.81195 3.92836L8.61676 4.13269C8.6128 4.13674 8.60777 4.13958 8.60226 4.14087C8.59674 4.14216 8.59098 4.14186 8.58563 4.13999C8.58028 4.13812 8.57558 4.13477 8.57207 4.13033C8.56855 4.12589 8.56638 4.12053 8.5658 4.1149L8.48407 3.30577C7.99561 3.5149 6.70474 4.2375 6.51388 6.08942C6.44609 6.74807 6.33936 7.31442 6.19369 7.79567L6.19273 7.79471L6.1735 7.86249C6.12253 8.02259 6.06725 8.17259 6.00763 8.31345C5.96105 8.41477 5.90672 8.51233 5.84513 8.60528C5.73792 8.76586 5.786 8.87307 5.83071 8.9173C5.91725 9.00576 6.34513 9.06442 6.5908 8.88749ZM8.03984 5.85576C8.25667 5.71634 8.48695 5.94711 8.34801 6.16442C8.33888 6.17884 8.32638 6.19134 8.31195 6.20048C8.09465 6.3399 7.86436 6.10913 8.0033 5.8923C8.01292 5.87788 8.02542 5.86538 8.03984 5.85576ZM6.89609 5.85576C7.1134 5.71634 7.34321 5.94711 7.20426 6.16442C7.19513 6.17884 7.18263 6.19134 7.16821 6.20048C6.9509 6.3399 6.72061 6.10913 6.86003 5.8923C6.86965 5.87788 6.88167 5.86538 6.89609 5.85576Z" fill="#FF6B00"/>
</svg>
