<svg width="20" height="20" viewBox="0 0 20 20" fill="none" xmlns="http://www.w3.org/2000/svg">
  <circle cx="10" cy="10" r="10" fill="#2996A4"/>
  <path d="M3.04806 7.10139C3.09242 6.86109 3.12569 6.6171 3.18484 6.3805C3.50277 5.07551 4.27911 4.07366 5.29205 3.24187C6.26433 2.44334 7.39556 2.06257 8.6451 2.0293C8.878 2.0293 9.1146 2.0293 9.34751 2.0293C10.6821 2.07736 11.8762 2.50249 12.8854 3.39344C13.7357 4.1439 14.4196 5.01636 14.7449 6.12542C14.8928 6.62079 14.9815 7.12726 14.9889 7.64482C14.9963 8.11432 14.9667 8.58383 14.9963 9.04963C15.0628 10.0774 15.5434 10.9165 16.597 11.2677C17.3253 11.508 17.4843 12.1069 16.9889 12.7132C16.6562 13.1199 16.2237 13.2677 15.7172 13.3047C14.8262 13.3676 14.2458 13.9406 14.2384 14.8648C14.2348 15.6929 13.6802 16.2437 13.122 16.362C12.8299 16.4249 12.5231 16.3953 12.2348 16.4877C11.8133 16.6208 11.4695 16.8426 11.2884 17.2677C11.2366 17.3897 11.1701 17.5117 11.1035 17.6263C10.9593 17.8777 10.7079 17.9369 10.4455 17.9738C10.1756 17.9738 9.90573 17.9738 9.63216 17.9738C9.42884 17.9295 9.21811 17.9369 9.01109 17.9073C8.1793 17.8001 7.40296 17.5413 6.67098 17.1421C5.89464 16.7206 5.24769 16.1402 4.66728 15.4822C3.88725 14.5986 3.37338 13.5857 3.14048 12.4249C3.09242 12.1883 3.09612 11.9443 3 11.7188L3.04806 7.10139ZM8.61183 2.60231C8.32348 2.60601 8.03882 2.65776 7.75786 2.72061C5.3512 3.26035 3.64695 5.26774 3.54344 7.80379C3.49538 8.95721 3.48799 10.118 3.56192 11.2751C3.66174 12.8574 4.26063 14.2326 5.3549 15.375C6.73752 16.8204 8.46026 17.4489 10.4418 17.4119C10.549 17.4082 10.6044 17.375 10.6081 17.2677C10.6155 17.253 10.6266 17.2382 10.634 17.2197C10.8743 16.4766 11.6617 15.8445 12.4972 15.8518C13.2033 15.8592 13.6506 15.3565 13.658 14.6282C13.6691 13.6818 14.5194 12.7872 15.4547 12.7391C15.5656 12.7835 15.6728 12.7243 15.78 12.7095C16.1497 12.6541 16.4418 12.4692 16.6229 12.1291C16.6969 11.9923 16.6895 11.9147 16.512 11.874C15.3327 11.5894 14.3863 10.4507 14.3974 9.0866C14.4048 8.41747 14.4381 7.74834 14.3272 7.0829C14.1497 6.04039 13.7061 5.13835 13.0037 4.35462C12.4011 3.68179 11.6654 3.21229 10.8189 2.90915C10.4122 2.76127 9.99076 2.66146 9.55453 2.64667C9.24399 2.57274 8.92976 2.56904 8.61183 2.60231Z" fill="#323335"/>
  <path d="M9.63965 18.0003C9.63965 17.9892 9.63965 17.9818 9.63965 17.9707C9.90952 17.9707 10.1794 17.9707 10.453 17.9707C10.453 17.9818 10.453 17.9929 10.453 18.0003C10.1831 18.0003 9.91322 18.0003 9.63965 18.0003Z" fill="#ECECEC"/>
  <path d="M8.64551 2.03327C8.64551 2.02218 8.64551 2.01109 8.64551 2C8.87841 2 9.11131 2 9.34421 2C9.34421 2.01109 9.34421 2.02218 9.34421 2.02957C9.11501 2.02957 8.87841 2.02957 8.64551 2.03327Z" fill="#DDDDDD"/>
  <path d="M15.4542 12.7391C14.5189 12.7835 13.665 13.6781 13.6576 14.6282C13.6502 15.3565 13.2029 15.8593 12.4968 15.8519C11.6613 15.8445 10.8738 16.4803 10.6335 17.2197C10.6298 17.2382 10.6151 17.2493 10.6077 17.2678C10.4598 17.2641 10.3119 17.2271 10.1788 17.1753C9.10674 16.7428 8.03465 16.3103 7.10674 15.5894C6.4524 15.0792 5.95332 14.4655 5.60212 13.7003C5.22874 12.8833 5.01802 12.0404 4.99953 11.1495C4.98105 10.2216 4.99583 9.29364 4.99583 8.36204C4.99583 8.29919 4.96996 8.22525 5.0328 8.1735C5.48752 8.67627 6.04574 8.92396 6.72227 8.83893C7.45794 8.75021 7.98659 8.35095 8.27125 7.66333C8.5633 6.96093 8.4524 6.2881 7.96811 5.71139C7.39509 5.02377 6.64833 4.8722 5.80914 5.14207C5.80914 5.08292 5.83872 5.03856 5.87199 4.9905C6.26016 4.41749 6.66681 3.85926 7.21395 3.42673C7.48012 3.21601 7.73151 2.98311 8.06053 2.86111C8.24907 2.79087 8.45979 2.7576 8.61136 2.60603C8.92929 2.57276 9.24352 2.57645 9.55776 2.65039C9.58733 2.71693 9.65757 2.71693 9.71302 2.73542C10.8664 3.17904 11.7389 3.92581 12.2269 5.08292C12.2491 5.13838 12.323 5.19013 12.2565 5.26037C11.5799 4.90917 10.9034 4.91657 10.2676 5.33801C9.6243 5.76315 9.35443 6.38791 9.42097 7.16056C9.5023 8.13653 10.4709 8.94244 11.4432 8.85372C12.1234 8.79087 12.6298 8.46555 12.9884 7.89254C13.0217 7.92581 13.0291 7.96647 13.0291 8.01084C13.0439 8.2881 13.0587 8.56167 13.0698 8.83893C13.0956 9.39716 13.0993 9.95908 13.1548 10.5136C13.2029 10.9794 13.3803 11.4082 13.7389 11.7336C14.2232 12.1735 14.7629 12.5136 15.3988 12.6837C15.4321 12.6874 15.4505 12.7021 15.4542 12.7391Z" fill="#BED1D2"/>
  <path d="M8.61184 2.60352C8.46027 2.75509 8.24954 2.79206 8.061 2.8586C7.72829 2.9806 7.4806 3.2135 7.21442 3.42422C6.66359 3.86045 6.25694 4.41867 5.86876 4.99169C5.83919 5.03605 5.80961 5.08411 5.80592 5.14326C4.57486 5.66082 4.21257 7.14695 5.03697 8.17098C4.97412 8.22274 5 8.29668 5 8.35952C5 9.28743 4.98521 10.219 5.0037 11.147C5.02218 12.0379 5.2329 12.8808 5.60629 13.6978C5.95379 14.4593 6.45657 15.0767 7.11091 15.5869C8.03513 16.3078 9.10722 16.7403 10.1793 17.1728C10.3124 17.2246 10.4603 17.2653 10.6081 17.2653C10.6044 17.3725 10.549 17.4094 10.4418 17.4094C8.46027 17.4501 6.73753 16.8179 5.3549 15.3725C4.26063 14.2338 3.66174 12.8586 3.56192 11.2763C3.48798 10.1192 3.49538 8.96211 3.54344 7.80499C3.64695 5.26895 5.3512 3.26156 7.75786 2.72182C8.03882 2.65897 8.32348 2.60721 8.61184 2.60352Z" fill="#A5B4B5"/>
  <path d="M12.2563 5.26037C12.3229 5.19013 12.2489 5.13838 12.2267 5.08292C11.7388 3.92581 10.8663 3.17534 9.71289 2.73542C9.65743 2.71324 9.58719 2.71693 9.55762 2.65039C9.99385 2.66518 10.4153 2.76499 10.8219 2.91287C11.6685 3.21601 12.4042 3.68921 13.0068 4.35834C13.7092 5.13838 14.1528 6.04411 14.3303 7.08662C14.4449 7.75206 14.4079 8.42488 14.4005 9.09032C14.3857 10.4545 15.3358 11.5894 16.5151 11.8777C16.6889 11.9221 16.6962 11.9997 16.626 12.1328C16.4449 12.4729 16.1528 12.6578 15.7831 12.7132C15.6759 12.728 15.5724 12.7872 15.4578 12.7428C15.4541 12.7058 15.4356 12.6948 15.4023 12.6837C14.7665 12.5136 14.2267 12.1698 13.7425 11.7336C13.3839 11.4082 13.2064 10.9794 13.1584 10.5136C13.1029 9.95908 13.0992 9.39716 13.0733 8.83893C13.0585 8.56167 13.0438 8.2881 13.0327 8.01083C13.029 7.96647 13.0253 7.92581 12.992 7.89254C13.4911 6.88699 13.1953 5.82599 12.2563 5.26037Z" fill="#758081"/>
  <path d="M12.2564 5.25995C13.1991 5.82926 13.4911 6.88657 12.9846 7.89211C12.626 8.46513 12.1196 8.79045 11.4393 8.8533C10.4708 8.94202 9.50219 8.13611 9.41716 7.16014C9.35432 6.38749 9.62049 5.76272 10.2637 5.33758C10.9033 4.91244 11.5761 4.90874 12.2564 5.25995ZM11.273 6.94941C11.273 6.66106 11.2693 6.36901 11.2767 6.08065C11.2804 5.96235 11.2582 5.92169 11.1214 5.94387C10.6593 6.0215 10.3044 6.43555 10.297 6.91614C10.2933 7.41522 10.6334 7.83296 11.1029 7.91799C11.2286 7.94017 11.2767 7.92169 11.273 7.78121C11.2656 7.50394 11.273 7.22668 11.273 6.94941Z" fill="#303656"/>
  <path d="M5.03648 8.16974C4.21208 7.14571 4.57437 5.65958 5.80913 5.14202C6.65201 4.87584 7.39508 5.02372 7.97179 5.71133C8.45608 6.28804 8.56329 6.96087 8.27493 7.66327C7.99027 8.35088 7.46532 8.74645 6.72595 8.83887C6.04942 8.9202 5.49119 8.67251 5.03648 8.16974ZM6.5411 6.94608C6.5411 6.65773 6.53741 6.36937 6.5448 6.08102C6.5485 5.96272 6.51153 5.93684 6.39693 5.95163C5.93112 6.00338 5.50968 6.48767 5.52447 6.96456C5.54295 7.46734 5.9607 7.92205 6.4265 7.94793C6.5411 7.95532 6.5411 7.89247 6.5411 7.81114C6.53741 7.52279 6.5411 7.23443 6.5411 6.94608Z" fill="#303655"/>
  <path d="M11.2732 6.95079C11.2732 7.22806 11.2658 7.50532 11.2769 7.78259C11.2806 7.92307 11.2325 7.94155 11.1068 7.91937C10.6336 7.83434 10.2935 7.4166 10.3009 6.91752C10.3046 6.43693 10.6632 6.02288 11.1253 5.94525C11.2584 5.92306 11.2806 5.96373 11.2806 6.08203C11.2695 6.37408 11.2732 6.66244 11.2732 6.95079Z" fill="#5FD3DA"/>
  <path d="M6.54164 6.94623C6.54164 7.23458 6.54164 7.52294 6.54164 7.81129C6.54164 7.89262 6.54164 7.95547 6.42703 7.94808C5.96123 7.9185 5.54348 7.46379 5.525 6.96471C5.50652 6.48781 5.92796 6.00353 6.39746 5.95177C6.51576 5.93698 6.54903 5.96656 6.54533 6.08116C6.53794 6.36582 6.54164 6.65417 6.54164 6.94623Z" fill="#51D382"/>
</svg>
