<svg width="20" height="20" viewBox="0 0 20 20" fill="none" xmlns="http://www.w3.org/2000/svg">
  <path d="M0 10C0 12.6522 1.05357 15.1957 2.92893 17.0711C4.8043 18.9464 7.34784 20 10 20C12.6522 20 15.1957 18.9464 17.0711 17.0711C18.9464 15.1957 20 12.6522 20 10C20 7.34784 18.9464 4.8043 17.0711 2.92893C15.1957 1.05357 12.6522 0 10 0C7.34784 0 4.8043 1.05357 2.92893 2.92893C1.05357 4.8043 0 7.34784 0 10H0Z" fill="#121122"/>
  <path fill-rule="evenodd" clip-rule="evenodd" d="M3.01758 7.46609C2.8954 8.25265 3.03946 9.06203 3.18883 9.83984C3.24633 9.96421 3.37258 10.0477 3.52821 10.1014C3.2035 10.781 3.0346 11.5245 3.03383 12.2777C3.03383 15.5327 6.18477 18.1736 10.0713 18.1736C13.9582 18.1736 17.1116 15.5389 17.1116 12.2777C17.1109 11.5168 16.9386 10.7659 16.6076 10.0808C16.7376 10.027 16.8413 9.94921 16.892 9.83984C17.0416 9.06203 17.1848 8.25234 17.0626 7.46609C16.9482 6.41046 16.586 6.08796 15.4982 6.35859C14.9451 6.48734 14.2154 6.8139 13.6545 7.19796C12.6048 6.67703 11.3795 6.37828 10.0716 6.37828C8.74821 6.37828 7.5104 6.68453 6.4529 7.21671C5.88883 6.82453 5.14446 6.48921 4.58258 6.35859C3.49415 6.08828 3.13258 6.41046 3.01758 7.46609ZM7.1154 12.1198C6.2904 11.7561 4.8804 11.848 4.8804 11.848C4.8804 11.848 4.94665 13.1755 5.75602 13.6261C6.71602 14.1598 8.50102 13.8955 8.50102 13.8955C8.50102 13.8955 8.34915 12.6611 7.1154 12.1173V12.1198ZM11.6991 13.8977C11.6991 13.8977 13.4841 14.162 14.4441 13.6283C15.2535 13.1777 15.3198 11.8502 15.3198 11.8502C15.3198 11.8502 13.9098 11.7583 13.0848 12.122C11.851 12.6611 11.6991 13.8927 11.6991 13.8927V13.8977ZM9.71915 14.8333C9.71915 14.9311 9.90102 15.0105 10.1248 15.0105C10.3488 15.0105 10.5304 14.9311 10.5304 14.8333C10.5304 14.7355 10.3488 14.6564 10.1248 14.6564C9.90102 14.6564 9.71915 14.7326 9.71915 14.8333Z" fill="#F2F4F8"/>
  <path fill-rule="evenodd" clip-rule="evenodd" d="M18.0915 14.0165C17.4328 13.7621 16.7332 13.6303 16.0271 13.6274H16.0283C15.8493 13.6274 15.8493 13.3496 16.0283 13.3496C16.7595 13.352 17.484 13.4878 18.1665 13.7502C18.201 13.7608 18.2302 13.7841 18.2481 13.8155C18.266 13.8469 18.2712 13.8839 18.2627 13.919C18.2528 13.9545 18.2292 13.9847 18.1972 14.003C18.1651 14.0212 18.1271 14.0261 18.0915 14.0165ZM2.02178 13.7565C2.70454 13.4941 3.4294 13.3583 4.16084 13.3559V13.3574C4.33959 13.3574 4.33897 13.6352 4.16084 13.6352C3.45459 13.6377 2.75459 13.7696 2.09584 14.024C2.06038 14.0334 2.02263 14.0286 1.99072 14.0104C1.95881 13.9923 1.93529 13.9624 1.92522 13.9271C1.91627 13.8916 1.92134 13.8541 1.93938 13.8222C1.95743 13.7904 1.98705 13.7667 2.02209 13.7562L2.02178 13.7565ZM3.43803 14.5524C3.77954 14.4437 4.13475 14.3841 4.49303 14.3752C4.67116 14.3762 4.67053 14.653 4.49209 14.653C4.16528 14.6616 3.84128 14.716 3.52959 14.8146C3.23928 14.8996 2.90772 15.0196 2.69584 15.2159C2.56459 15.3377 2.36834 15.1415 2.49991 15.0196C2.75709 14.7821 3.11084 14.6509 3.43741 14.5524H3.43803ZM4.81022 15.069C4.53178 15.1884 4.26366 15.3315 4.00959 15.4962C3.75293 15.6544 3.52709 15.8579 3.34303 16.0968C3.32454 16.1286 3.31935 16.1664 3.32859 16.202C3.33784 16.2376 3.36078 16.268 3.39241 16.2868C3.42445 16.3046 3.46211 16.3094 3.49759 16.3002C3.53307 16.291 3.56367 16.2685 3.58303 16.2374C3.73928 16.0218 3.96303 15.8546 4.18459 15.7118C4.42794 15.5574 4.68323 15.4227 4.94803 15.309C4.97964 15.2902 5.0026 15.2598 5.01196 15.2242C5.02131 15.1887 5.01631 15.1509 4.99803 15.119C4.97878 15.0879 4.94834 15.0654 4.913 15.0561C4.87765 15.0468 4.84009 15.0514 4.80803 15.069H4.81022ZM15.6946 14.6474C16.0215 14.6555 16.3458 14.7099 16.6574 14.8087C16.8187 14.8543 16.9758 14.9124 17.128 14.9824C17.2593 15.0399 17.3812 15.1168 17.4896 15.2102C17.6208 15.3315 17.8177 15.1359 17.6865 15.0134C17.4308 14.7762 17.079 14.6446 16.7502 14.5462C16.4085 14.4374 16.0531 14.378 15.6946 14.3696C15.5158 14.3696 15.5152 14.6477 15.6946 14.6477V14.6474ZM16.0012 15.7037C15.7609 15.555 15.5097 15.425 15.2496 15.3146V15.3118C15.2181 15.2929 15.1953 15.2625 15.1859 15.227C15.1766 15.1915 15.1815 15.1537 15.1996 15.1218C15.2191 15.0909 15.2497 15.0685 15.2851 15.0593C15.3205 15.0502 15.3581 15.0548 15.3902 15.0724C15.9315 15.3087 16.5008 15.6118 16.8546 16.1002C16.8729 16.1321 16.878 16.1698 16.8688 16.2053C16.8596 16.2409 16.8367 16.2714 16.8052 16.2902C16.7732 16.308 16.7356 16.3126 16.7002 16.3033C16.6648 16.294 16.6344 16.2714 16.6152 16.2402C16.4552 16.0196 16.229 15.8487 16.0012 15.7037Z" fill="#F2F4F8"/>
  <path d="M0.965726 10.5478C1.09385 10.3478 2.22198 9.74591 3.61729 9.38872C3.91845 8.53338 4.29003 7.7045 4.72823 6.91059C4.72291 6.91059 5.84448 4.89716 5.83948 4.89622C5.51778 4.74975 5.2089 4.57664 4.91604 4.37872C4.86652 4.34065 4.82164 4.29691 4.78229 4.24841C4.7526 4.19933 4.73723 4.14294 4.73791 4.08559C4.73791 4.03872 4.80385 3.95559 4.83323 3.91872C4.90823 3.83059 4.99135 3.74903 5.08104 3.67559C5.2949 3.50044 5.51962 3.33897 5.75385 3.19216C5.8651 3.11872 5.98073 3.04716 6.09448 2.97497C6.89448 2.46559 7.33291 2.08216 8.06541 1.66122C8.76541 1.25997 9.10573 1.01278 9.91729 1.05434C10.9373 1.05434 13.4729 4.28434 14.616 5.94872C15.3017 6.94872 16.2217 8.74934 16.5604 9.42684C16.6417 9.44715 16.7151 9.46653 16.7829 9.48653C17.8229 9.79903 18.8429 10.2565 19.0923 10.5478C19.3145 10.8065 18.3432 10.9222 17.386 11.0887C16.4289 11.2556 13.1817 11.3384 10.061 11.3593C6.94041 11.3806 3.29854 11.2759 2.50573 11.1512C1.71291 11.0262 0.806039 10.7972 0.965726 10.5478Z" fill="#6665DD"/>
  <path d="M15.6916 7.75816C15.6916 7.75816 13.636 7.24316 10.0141 7.24316C6.12535 7.24316 4.25254 7.84316 4.25254 7.84316C4.25254 7.84316 4.03035 8.26535 3.93379 8.50973C3.83691 8.7541 3.61816 9.3891 3.61816 9.3891C3.61816 9.3891 6.44754 8.88285 10.0688 8.88285C12.2491 8.8916 14.4254 9.07566 16.5766 9.43285C16.5766 9.43285 16.2482 8.6641 16.0516 8.3366C15.9348 8.1418 15.8148 7.94896 15.6916 7.75816Z" fill="#FF99A5"/>
  <path d="M3.4567 3.41232C3.69233 3.37795 4.01233 4.0992 4.01233 4.0992C4.01233 4.0992 4.75327 3.89982 4.86889 4.0992C4.98452 4.29857 4.34795 4.77732 4.34795 4.77732C4.34795 4.77732 4.73233 5.45357 4.61045 5.5942C4.48889 5.73482 3.80327 5.30826 3.80327 5.30826C3.80327 5.30826 3.28045 5.89701 3.11014 5.80826C2.93952 5.7192 3.13295 4.95201 3.13295 4.95201C3.13295 4.95201 2.39327 4.63764 2.44389 4.45076C2.49452 4.2642 3.26514 4.20764 3.26514 4.20764C3.26514 4.20764 3.2217 3.44701 3.4567 3.41264V3.41232Z" fill="#FFE600"/>
</svg>
