<svg width="20" height="20" viewBox="0 0 20 20" fill="none" xmlns="http://www.w3.org/2000/svg">
  <circle cx="10" cy="10" r="10" fill="white"/>
  <path d="M5.74874 4.73535L16.0971 12.1273L13.5379 16.0852L3.18945 8.63505L5.74874 4.73535Z" fill="url(#paint0_linear)"/>
  <path d="M16.0971 12.1277C15.207 13.4664 12.2026 12.9426 9.3651 10.8472C6.47199 8.81007 4.91417 6.07446 5.74872 4.73575C6.6389 3.39705 9.64328 3.92089 12.4808 6.01625C15.3739 7.9952 16.9317 10.789 16.0971 12.1277Z" fill="url(#paint1_linear)"/>
  <path d="M13.5379 16.0277C12.6477 17.3664 9.64332 16.8426 6.80585 14.7472C3.96839 12.6519 2.35493 9.97446 3.24511 8.57755C4.1353 7.23885 7.13967 7.76269 9.97714 9.85805C12.8146 11.9534 14.3724 14.689 13.5379 16.0277Z" fill="url(#paint2_linear)"/>
  <path d="M16.0972 12.1282L13.5379 16.0861C12.6477 17.4248 9.64334 16.8427 6.80587 14.8056C6.24951 14.3981 5.74878 13.9907 5.24805 13.5251C5.6375 13.4669 6.13823 13.234 6.63896 12.652C7.52915 11.6625 7.97424 11.4297 8.3637 11.4879C8.75315 11.4879 9.19824 11.8953 9.92152 12.8848C10.6448 13.8743 11.6463 14.1653 12.2583 13.6415C12.3139 13.5833 12.3695 13.5833 12.4252 13.5251C12.9259 13.1176 13.0928 12.943 14.0386 11.0805C14.2612 10.6148 15.0401 9.85819 16.0972 10.2074C16.3754 10.9641 16.3754 11.6043 16.0972 12.1282Z" fill="#0E0F23"/>
  <path fill-rule="evenodd" clip-rule="evenodd" d="M15.7078 11.8949C14.9289 13.059 12.2027 12.477 9.58778 10.5562C6.91722 8.63548 5.35939 6.19089 6.1383 5.0268C6.91722 3.86271 9.64342 4.44476 12.2583 6.3655C14.8733 8.28625 16.4311 10.7308 15.7078 11.8949ZM13.2598 10.1488C12.8703 10.7308 11.5351 10.4398 10.1998 9.50854C8.92014 8.57727 8.14123 7.35498 8.53068 6.77293C8.92014 6.19089 10.2554 6.48191 11.5907 7.41318C12.8703 8.34446 13.6493 9.56675 13.2598 10.1488Z" fill="white"/>
  <path d="M5.52627 6.0745C5.52627 6.0163 5.47063 5.95809 5.41499 6.0163C5.35935 6.0745 5.30371 6.0745 5.30371 6.13271C5.35935 6.30732 5.41499 6.42373 5.41499 6.54014C5.41499 6.59834 5.47063 6.65655 5.52627 6.59834C5.5819 6.59834 5.63754 6.54014 5.5819 6.48193C5.5819 6.36552 5.5819 6.24911 5.52627 6.0745Z" fill="white"/>
  <path d="M5.8046 7.00614C5.8046 6.94794 5.74897 6.88973 5.69333 6.94794C5.6377 7.00614 5.6377 7.00614 5.6377 7.06435C6.2497 8.51946 7.52934 10.091 9.19844 11.2551C9.25408 11.3133 9.30971 11.2551 9.36535 11.2551C9.42098 11.1969 9.36535 11.1387 9.36535 11.0805C7.64061 9.91636 6.41661 8.40305 5.8046 7.00614Z" fill="white"/>
  <path d="M12.5361 12.71C12.4804 12.71 12.4248 12.71 12.4248 12.7682C12.4248 12.8264 12.4248 12.8846 12.4804 12.8846C12.6474 12.9428 12.8699 13.001 13.0368 13.0592C13.0925 13.0592 13.1481 13.0592 13.1481 13.001C13.1481 12.9428 13.1481 12.8846 13.0925 12.8846C12.9255 12.8264 12.703 12.7682 12.5361 12.71Z" fill="white"/>
  <path d="M13.538 12.9424C13.4824 12.9424 13.4268 13.0006 13.4268 13.0588C13.4268 13.117 13.4824 13.1752 13.538 13.1752C13.9831 13.2334 14.4839 13.2916 14.8733 13.2334C14.929 13.2334 14.9846 13.1752 14.9846 13.117C14.9846 13.0588 14.929 13.0006 14.8733 13.0006C14.4282 13.0588 13.9831 13.0006 13.538 12.9424Z" fill="white"/>
  <defs>
    <linearGradient id="paint0_linear" x1="7.77624" y1="3.68435" x2="10.0058" y2="11.0026" gradientUnits="userSpaceOnUse">
      <stop stop-color="#03B8FF"/>
      <stop offset="1" stop-color="#FA52A0"/>
    </linearGradient>
    <linearGradient id="paint1_linear" x1="9.46625" y1="3.16982" x2="11.6959" y2="10.4881" gradientUnits="userSpaceOnUse">
      <stop stop-color="#03B8FF"/>
      <stop offset="1" stop-color="#FA52A0"/>
    </linearGradient>
    <linearGradient id="paint2_linear" x1="6.09148" y1="4.19831" x2="8.3211" y2="11.5166" gradientUnits="userSpaceOnUse">
      <stop stop-color="#03B8FF"/>
      <stop offset="1" stop-color="#FA52A0"/>
    </linearGradient>
  </defs>
</svg>
