<svg width="20" height="20" viewBox="0 0 20 20" fill="none" xmlns="http://www.w3.org/2000/svg">
  <circle cx="10" cy="10" r="10" fill="white"/>
  <path d="M8.37286 4.87952C8.2201 4.85528 8.21366 4.85244 8.28554 4.84113C8.4233 4.81946 8.74858 4.849 8.97274 4.90353C9.49604 5.03079 9.97221 5.35679 10.4805 5.93577L10.6155 6.08959L10.8087 6.05781C11.6225 5.92402 12.4504 6.03036 13.1429 6.35762C13.3334 6.44766 13.6337 6.62688 13.6713 6.67294C13.6832 6.68761 13.7051 6.78209 13.72 6.88291C13.7714 7.23172 13.7457 7.49908 13.6415 7.69878C13.5847 7.80744 13.5815 7.84188 13.6197 7.93488C13.6501 8.00909 13.735 8.06402 13.8191 8.0639C13.9912 8.06366 14.1764 7.77907 14.2622 7.38308L14.2963 7.2258L14.3638 7.30405C14.7342 7.73341 15.0252 8.31895 15.0752 8.73574L15.0882 8.84441L15.0259 8.74562C14.9188 8.57563 14.8111 8.4599 14.6732 8.36657C14.4247 8.19833 14.1619 8.14108 13.466 8.10355C12.8374 8.06967 12.4817 8.01474 12.129 7.89707C11.5288 7.69688 11.2263 7.43027 10.5134 6.47336C10.1967 6.04833 10.001 5.81318 9.80632 5.6238C9.36395 5.19349 8.92927 4.96782 8.37286 4.87952Z" fill="url(#paint0_linear)"/>
  <path d="M13.8131 5.82825C13.829 5.54344 13.8667 5.35559 13.9426 5.18403C13.9727 5.11612 14.0008 5.06055 14.0052 5.06055C14.0095 5.06055 13.9964 5.11066 13.9761 5.17192C13.9209 5.33841 13.9118 5.56614 13.9499 5.8311C13.9981 6.16727 14.0256 6.21578 14.3729 6.57892C14.5358 6.74926 14.7253 6.96408 14.7939 7.05631L14.9189 7.22402L14.7939 7.10417C14.6412 6.9576 14.29 6.67177 14.2124 6.6309C14.1603 6.6035 14.1526 6.60398 14.1205 6.63666C14.091 6.66677 14.0847 6.71201 14.0806 6.92591C14.0742 7.25929 14.0298 7.47326 13.9226 7.68721C13.8646 7.80293 13.8555 7.77823 13.9079 7.64762C13.9471 7.55009 13.9511 7.50723 13.9508 7.1845C13.9502 6.53607 13.875 6.38018 13.4337 6.11313C13.3219 6.04548 13.1377 5.94792 13.0244 5.89632C12.9111 5.84471 12.821 5.79976 12.8243 5.7964C12.8368 5.78368 13.2671 5.91218 13.4404 5.98035C13.698 6.08174 13.7405 6.09488 13.7718 6.08265C13.7928 6.07445 13.803 6.01195 13.8131 5.82825Z" fill="url(#paint1_linear)"/>
  <path d="M8.67017 6.9378C8.36006 6.50101 8.16819 5.83132 8.20973 5.3307L8.22257 5.17578L8.29316 5.18896C8.42572 5.21369 8.65428 5.30073 8.7613 5.36723C9.05499 5.54971 9.18214 5.78997 9.31149 6.4069C9.34939 6.58761 9.3991 6.79211 9.42197 6.86134C9.4588 6.97277 9.59795 7.23306 9.71109 7.4021C9.79258 7.52385 9.73845 7.58155 9.55831 7.56491C9.28321 7.53951 8.91057 7.27639 8.67017 6.9378Z" fill="url(#paint2_linear)"/>
  <path d="M13.4372 10.1882C11.988 9.59125 11.4775 9.07308 11.4775 8.19878C11.4775 8.07011 11.4819 7.96484 11.4871 7.96484C11.4924 7.96484 11.5485 8.0073 11.6117 8.05921C11.9056 8.30035 12.2347 8.40335 13.1457 8.53932C13.6818 8.61934 13.9835 8.68397 14.2618 8.77839C15.1463 9.07851 15.6936 9.68757 15.8241 10.5171C15.8621 10.7582 15.8398 11.2102 15.7783 11.4485C15.7298 11.6366 15.5817 11.9758 15.5423 11.9889C15.5315 11.9925 15.5208 11.9497 15.518 11.8916C15.5031 11.5801 15.3493 11.2768 15.0909 11.0497C14.797 10.7914 14.4023 10.5858 13.4372 10.1882Z" fill="url(#paint3_linear)"/>
  <path d="M12.42 10.4362C12.4018 10.3257 12.3703 10.1845 12.35 10.1225L12.313 10.0098L12.3817 10.0886C12.4767 10.1978 12.5518 10.3374 12.6155 10.5235C12.6641 10.6654 12.6695 10.7077 12.6692 10.9384C12.6688 11.1649 12.6627 11.2124 12.6179 11.3402C12.5471 11.5417 12.4593 11.6846 12.312 11.8379C12.0473 12.1136 11.7069 12.2662 11.2158 12.3295C11.1304 12.3404 10.8816 12.359 10.6628 12.3706C10.1115 12.4 9.74868 12.4606 9.42264 12.5777C9.37577 12.5945 9.33391 12.6048 9.32966 12.6005C9.31647 12.587 9.53846 12.4516 9.72181 12.3613C9.98034 12.2338 10.2377 12.1643 10.8143 12.0661C11.0992 12.0175 11.3933 11.9587 11.468 11.9352C12.1734 11.714 12.536 11.143 12.42 10.4362Z" fill="url(#paint4_linear)"/>
  <path d="M13.0845 11.6432C12.892 11.2197 12.8478 10.8109 12.9533 10.4296C12.9646 10.3888 12.9827 10.3555 12.9936 10.3555C13.0045 10.3555 13.05 10.3806 13.0946 10.4113C13.1833 10.4724 13.3613 10.5753 13.8354 10.8398C14.427 11.1698 14.7643 11.4253 14.9937 11.7172C15.1946 11.9729 15.3189 12.2641 15.3788 12.6192C15.4126 12.8203 15.3927 13.3043 15.3423 13.5068C15.1832 14.1454 14.8136 14.647 14.2863 14.9398C14.209 14.9827 14.1397 15.0179 14.1322 15.018C14.1246 15.0182 14.1528 14.945 14.1947 14.8553C14.3721 14.476 14.3923 14.107 14.2582 13.6963C14.1761 13.4448 14.0086 13.1379 13.6706 12.6192C13.2776 12.0163 13.1812 11.8558 13.0845 11.6432Z" fill="url(#paint5_linear)"/>
  <path d="M7.64058 13.9279C8.17837 13.4633 8.84752 13.1333 9.45705 13.032C9.71974 12.9883 10.1573 13.0056 10.4006 13.0693C10.7905 13.1714 11.1393 13.4001 11.3207 13.6725C11.498 13.9388 11.574 14.1708 11.6532 14.687C11.6844 14.8907 11.7184 15.0951 11.7287 15.1415C11.7882 15.409 11.9039 15.6228 12.0473 15.7303C12.2751 15.9008 12.6672 15.9114 13.0531 15.7574C13.1185 15.7313 13.1754 15.7132 13.1794 15.7173C13.1934 15.7315 12.9991 15.8646 12.8621 15.9346C12.6776 16.0289 12.531 16.0653 12.3361 16.0653C11.9828 16.0653 11.6894 15.8814 11.4446 15.5064C11.3964 15.4326 11.2882 15.2116 11.204 15.0152C10.9455 14.4121 10.8179 14.2284 10.5178 14.0273C10.2567 13.8524 9.91985 13.821 9.66648 13.9481C9.33365 14.1151 9.24079 14.5502 9.47917 14.826C9.57391 14.9356 9.75059 15.0301 9.89505 15.0485C10.1653 15.0829 10.3976 14.8726 10.3976 14.5934C10.3976 14.4121 10.3295 14.3087 10.1581 14.2295C9.92391 14.1214 9.67222 14.2478 9.67343 14.4728C9.67395 14.5688 9.71479 14.629 9.80881 14.6726C9.86913 14.7005 9.87053 14.7027 9.82135 14.6922C9.60651 14.6466 9.55618 14.3817 9.72892 14.2057C9.93631 13.9946 10.3652 14.0878 10.5124 14.3761C10.5743 14.4971 10.5815 14.7383 10.5275 14.8838C10.4068 15.2098 10.0548 15.3811 9.69774 15.2879C9.45463 15.2243 9.35563 15.1556 9.06252 14.8467C8.55319 14.3099 8.35546 14.2059 7.62118 14.0887L7.48047 14.0662L7.64058 13.9279Z" fill="url(#paint6_linear)"/>
  <path fill-rule="evenodd" clip-rule="evenodd" d="M5.2505 4.32106C6.95144 6.43313 8.12296 7.30453 8.25314 7.48863C8.36064 7.64065 8.32018 7.77731 8.13603 7.88442C8.03363 7.94397 7.82309 8.00431 7.71767 8.00431C7.59845 8.00431 7.55751 7.95726 7.55751 7.95726C7.48838 7.89018 7.44945 7.90191 7.09444 7.25722C6.60159 6.47481 6.18912 5.82577 6.17787 5.8149C6.15185 5.78977 6.1523 5.79062 7.04419 7.42326C7.1883 7.76354 7.07285 7.88845 7.07285 7.93692C7.07285 8.03551 7.04656 8.08733 6.92768 8.22299C6.72951 8.44918 6.64092 8.70332 6.57696 9.22929C6.50528 9.81891 6.30368 10.2354 5.74501 10.9482C5.41798 11.3655 5.36447 11.442 5.28195 11.6101C5.17801 11.8219 5.14943 11.9405 5.13785 12.208C5.12561 12.4907 5.14945 12.6734 5.23389 12.9438C5.30781 13.1805 5.38498 13.3367 5.58224 13.6493C5.75248 13.919 5.8505 14.1195 5.8505 14.198C5.8505 14.2603 5.86215 14.2604 6.12594 14.1995C6.75724 14.0536 7.26985 13.7971 7.55815 13.4827C7.73658 13.2882 7.77847 13.1807 7.77982 12.9142C7.78072 12.7397 7.77472 12.7032 7.72864 12.6029C7.65363 12.4396 7.51708 12.3038 7.2161 12.0933C6.82175 11.8175 6.65331 11.5955 6.60679 11.2901C6.56862 11.0396 6.6129 10.8628 6.83106 10.395C7.05686 9.9108 7.11282 9.70446 7.15068 9.21641C7.17513 8.90109 7.20898 8.77674 7.29753 8.67692C7.38989 8.57284 7.47303 8.53759 7.70159 8.50564C8.07422 8.45357 8.31149 8.35494 8.50653 8.17107C8.67571 8.01156 8.74651 7.85787 8.75737 7.6265L8.76562 7.45114L8.67107 7.33836C8.32868 6.92992 5.0212 4 5.00013 4C4.99563 4 5.1083 4.14449 5.2505 4.32106ZM6.0427 12.5279C6.12012 12.3876 6.07898 12.2074 5.94949 12.1192C5.82714 12.036 5.63707 12.0753 5.63707 12.1837C5.63707 12.2168 5.65496 12.2409 5.69528 12.2621C5.76317 12.2978 5.7681 12.3381 5.71468 12.4202C5.66059 12.5034 5.66495 12.5765 5.727 12.6262C5.82701 12.7063 5.96857 12.6622 6.0427 12.5279Z" fill="url(#paint7_linear)"/>
  <path fill-rule="evenodd" clip-rule="evenodd" d="M9.00161 8.59777C8.82668 8.65274 8.65663 8.84242 8.60399 9.04131C8.57188 9.16264 8.5901 9.37547 8.6382 9.4412C8.71591 9.54736 8.79105 9.57533 8.99453 9.57387C9.3929 9.57103 9.73922 9.39623 9.77949 9.17771C9.81249 8.99859 9.66039 8.75035 9.45088 8.64136C9.34277 8.58515 9.11285 8.56285 9.00161 8.59777ZM9.46731 8.97033C9.52874 8.88103 9.50186 8.78451 9.39739 8.71923C9.19841 8.59493 8.89751 8.69779 8.89751 8.8901C8.89751 8.98582 9.05443 9.09026 9.19826 9.09026C9.29399 9.09026 9.425 9.03186 9.46731 8.97033Z" fill="url(#paint8_linear)"/>
  <defs>
    <linearGradient id="paint0_linear" x1="8.24121" y1="6.8392" x2="15.0882" y2="6.8392" gradientUnits="userSpaceOnUse">
      <stop stop-color="#6F45FF"/>
      <stop offset="1" stop-color="#FF6365"/>
    </linearGradient>
    <linearGradient id="paint1_linear" x1="12.8242" y1="6.41095" x2="14.9189" y2="6.41095" gradientUnits="userSpaceOnUse">
      <stop stop-color="#6F45FF"/>
      <stop offset="1" stop-color="#FF6365"/>
    </linearGradient>
    <linearGradient id="paint2_linear" x1="8.2041" y1="6.37175" x2="9.74808" y2="6.37175" gradientUnits="userSpaceOnUse">
      <stop stop-color="#6F45FF"/>
      <stop offset="1" stop-color="#FF6365"/>
    </linearGradient>
    <linearGradient id="paint3_linear" x1="11.4775" y1="9.97696" x2="15.8428" y2="9.97696" gradientUnits="userSpaceOnUse">
      <stop stop-color="#6F45FF"/>
      <stop offset="1" stop-color="#FF6365"/>
    </linearGradient>
    <linearGradient id="paint4_linear" x1="9.3291" y1="11.3056" x2="12.6692" y2="11.3056" gradientUnits="userSpaceOnUse">
      <stop stop-color="#6F45FF"/>
      <stop offset="1" stop-color="#FF6365"/>
    </linearGradient>
    <linearGradient id="paint5_linear" x1="12.8975" y1="12.6868" x2="15.3956" y2="12.6868" gradientUnits="userSpaceOnUse">
      <stop stop-color="#6F45FF"/>
      <stop offset="1" stop-color="#FF6365"/>
    </linearGradient>
    <linearGradient id="paint6_linear" x1="7.48047" y1="14.5366" x2="13.1801" y2="14.5366" gradientUnits="userSpaceOnUse">
      <stop stop-color="#6F45FF"/>
      <stop offset="1" stop-color="#FF6365"/>
    </linearGradient>
    <linearGradient id="paint7_linear" x1="5" y1="9.12248" x2="8.76562" y2="9.12248" gradientUnits="userSpaceOnUse">
      <stop stop-color="#6F45FF"/>
      <stop offset="1" stop-color="#FF6365"/>
    </linearGradient>
    <linearGradient id="paint8_linear" x1="8.58789" y1="9.07749" x2="9.784" y2="9.07749" gradientUnits="userSpaceOnUse">
      <stop stop-color="#6F45FF"/>
      <stop offset="1" stop-color="#FF6365"/>
    </linearGradient>
  </defs>
</svg>
