<?xml version="1.0" standalone="no"?>
<!DOCTYPE svg PUBLIC "-//W3C//DTD SVG 20010904//EN"
 "http://www.w3.org/TR/2001/REC-SVG-20010904/DTD/svg10.dtd">
<svg version="1.0" xmlns="http://www.w3.org/2000/svg"
 width="179.000000pt" height="179.000000pt" viewBox="0 0 179.000000 179.000000"
 preserveAspectRatio="xMidYMid meet">
<metadata>
Created by potrace 1.14, written by Peter Selinger 2001-2017
</metadata>
<g transform="translate(0.000000,179.000000) scale(0.100000,-0.100000)"
fill="#000000" stroke="none">
<path d="M1640 1759 c-30 -17 -183 -103 -340 -192 -157 -88 -317 -178 -356
-199 l-70 -39 0 -155 c1 -85 3 -154 5 -154 5 0 167 89 291 160 108 63 294 166
310 174 8 3 60 33 115 65 l100 58 1 157 c1 86 1 156 0 156 -1 0 -26 -14 -56
-31z"/>
<path d="M82 1118 l-2 -663 192 -108 c106 -59 209 -116 228 -127 19 -11 115
-64 212 -119 l177 -99 178 100 c332 186 389 218 561 313 l72 40 0 158 0 159
-42 -25 c-55 -32 -92 -52 -268 -150 -80 -44 -224 -125 -320 -179 -158 -90
-177 -98 -200 -88 -14 6 -134 73 -267 148 l-242 137 2 508 2 507 -131 75 c-73
41 -136 75 -141 75 -5 0 -10 -280 -11 -662z"/>
<path d="M1605 1229 c-49 -28 -109 -62 -132 -75 -24 -13 -64 -36 -90 -50 -27
-15 -61 -34 -78 -44 -31 -18 -39 -23 -265 -148 -74 -41 -142 -81 -151 -89 -13
-11 -15 -36 -13 -161 1 -81 2 -149 3 -150 1 -4 87 43 336 183 61 34 137 77
170 95 33 19 85 47 115 64 31 17 88 49 127 71 l72 40 -1 158 c-1 86 -2 157 -2
157 -1 0 -41 -23 -91 -51z"/>
</g>
</svg>
