<svg width="20" height="20" viewBox="0 0 20 20" fill="none" xmlns="http://www.w3.org/2000/svg">
<circle cx="10" cy="10" r="10" fill="white"/>
<path d="M10.0005 10.777C8.25699 10.777 6.7959 10.2648 6.39699 9.57422C6.32686 9.69576 6.28592 9.82207 6.28592 9.95314V11.0832C6.28592 11.9563 7.94948 12.6646 10.0005 12.6646C12.0528 12.6646 13.717 11.9563 13.717 11.0832V9.95314C13.717 9.82207 13.6755 9.69576 13.6047 9.57422C13.2058 10.2645 11.746 10.777 10.0005 10.777Z" fill="url(#paint0_linear)"/>
<path d="M10.0005 13.1113C8.25699 13.1113 6.7959 12.5985 6.39699 11.9092C6.32686 12.0301 6.28592 12.1564 6.28592 12.2871V13.4182C6.28592 14.2915 7.94948 14.9996 10.0005 14.9996C12.0528 14.9996 13.717 14.2919 13.717 13.4182V12.2871C13.717 12.1564 13.6755 12.0301 13.6047 11.9095C13.2058 12.5985 11.746 13.1113 10.0005 13.1113Z" fill="url(#paint1_linear)"/>
<path d="M13.6155 7.31348C13.5425 7.95326 11.9551 8.46515 10.0005 8.46515C8.0469 8.46515 6.45951 7.95326 6.38684 7.31379C6.32305 7.42994 6.28592 7.55117 6.28592 7.67589V8.80598C6.28592 9.67933 7.94948 10.3873 10.0005 10.3873C12.0528 10.3873 13.717 9.67965 13.717 8.80598V7.67589C13.717 7.55117 13.6793 7.42994 13.6155 7.31348Z" fill="url(#paint2_linear)"/>
<path d="M10.0005 8.10702C12.0008 8.10702 13.6215 7.57164 13.6215 6.91028C13.6215 6.24956 12.0008 5.71387 10.0005 5.71387C8.00151 5.71418 6.38016 6.24987 6.38016 6.9106C6.38016 7.57164 8.00151 8.10702 10.0005 8.10702Z" fill="url(#paint3_linear)"/>
<defs>
<linearGradient id="paint0_linear" x1="6.28592" y1="11.1194" x2="13.717" y2="11.1194" gradientUnits="userSpaceOnUse">
<stop stop-color="#6F45FF"/>
<stop offset="1" stop-color="#FF6365"/>
</linearGradient>
<linearGradient id="paint1_linear" x1="6.28592" y1="13.4544" x2="13.717" y2="13.4544" gradientUnits="userSpaceOnUse">
<stop stop-color="#6F45FF"/>
<stop offset="1" stop-color="#FF6365"/>
</linearGradient>
<linearGradient id="paint2_linear" x1="6.28592" y1="8.85041" x2="13.717" y2="8.85041" gradientUnits="userSpaceOnUse">
<stop stop-color="#6F45FF"/>
<stop offset="1" stop-color="#FF6365"/>
</linearGradient>
<linearGradient id="paint3_linear" x1="6.38016" y1="6.91044" x2="13.6215" y2="6.91044" gradientUnits="userSpaceOnUse">
<stop stop-color="#6F45FF"/>
<stop offset="1" stop-color="#FF6365"/>
</linearGradient>
</defs>
</svg>
