<svg width="20" height="20" viewBox="0 0 20 20" fill="none" xmlns="http://www.w3.org/2000/svg">
<circle cx="10" cy="10" r="10" fill="#674DF6"/>
<path d="M10.0007 10.777C8.25721 10.777 6.79612 10.2648 6.39721 9.57422C6.32707 9.69576 6.28613 9.82207 6.28613 9.95314V11.0832C6.28613 11.9563 7.94969 12.6646 10.0007 12.6646C12.0531 12.6646 13.7172 11.9563 13.7172 11.0832V9.95314C13.7172 9.82207 13.6757 9.69576 13.6049 9.57422C13.206 10.2645 11.7462 10.777 10.0007 10.777Z" fill="white"/>
<path d="M10.0007 13.1113C8.25721 13.1113 6.79612 12.5985 6.39721 11.9092C6.32707 12.0301 6.28613 12.1564 6.28613 12.2871V13.4182C6.28613 14.2915 7.94969 14.9996 10.0007 14.9996C12.0531 14.9996 13.7172 14.2919 13.7172 13.4182V12.2871C13.7172 12.1564 13.6757 12.0301 13.6049 11.9095C13.206 12.5985 11.7462 13.1113 10.0007 13.1113Z" fill="white"/>
<path d="M13.6157 7.31348C13.5427 7.95326 11.9553 8.46515 10.0007 8.46515C8.04712 8.46515 6.45972 7.95326 6.38705 7.31379C6.32326 7.42994 6.28613 7.55117 6.28613 7.67589V8.80598C6.28613 9.67933 7.94969 10.3873 10.0007 10.3873C12.0531 10.3873 13.7172 9.67965 13.7172 8.80598V7.67589C13.7172 7.55117 13.6795 7.42994 13.6157 7.31348Z" fill="white"/>
<path d="M10.0007 8.10702C12.001 8.10702 13.6217 7.57164 13.6217 6.91028C13.6217 6.24956 12.001 5.71387 10.0007 5.71387C8.00172 5.71418 6.38037 6.24987 6.38037 6.9106C6.38037 7.57164 8.00172 8.10702 10.0007 8.10702Z" fill="white"/>
</svg>
