<svg width="20" height="20" viewBox="0 0 20 20" fill="none" xmlns="http://www.w3.org/2000/svg">
<path d="M4.1665 10.633C4.1665 9.50149 4.1665 8.93576 4.39522 8.43848C4.62394 7.94119 5.05348 7.57302 5.91255 6.83667L6.74588 6.12239C8.29865 4.79145 9.07503 4.12598 9.99984 4.12598C10.9246 4.12598 11.701 4.79145 13.2538 6.12239L14.0871 6.83667C14.9462 7.57302 15.3757 7.94119 15.6045 8.43848C15.8332 8.93576 15.8332 9.50149 15.8332 10.633V14.1666C15.8332 15.738 15.8332 16.5236 15.345 17.0118C14.8569 17.4999 14.0712 17.4999 12.4998 17.4999H7.49984C5.92849 17.4999 5.14281 17.4999 4.65466 17.0118C4.1665 16.5236 4.1665 15.738 4.1665 14.1666V10.633Z" stroke="white" stroke-width="2"/>
<path d="M12.0832 17.5V13.5C12.0832 12.9477 11.6355 12.5 11.0832 12.5H8.9165C8.36422 12.5 7.9165 12.9477 7.9165 13.5V17.5" stroke="white" stroke-width="2" stroke-linecap="round" stroke-linejoin="round"/>
</svg>
