<svg width="20" height="20" viewBox="0 0 20 20" fill="none" xmlns="http://www.w3.org/2000/svg">
<path d="M7.5 5C7.5 5.3283 7.56466 5.65339 7.6903 5.95671C7.81594 6.26002 8.00009 6.53562 8.23223 6.76777C8.46438 6.99991 8.73998 7.18406 9.04329 7.3097C9.34661 7.43534 9.6717 7.5 10 7.5C10.3283 7.5 10.6534 7.43534 10.9567 7.3097C11.26 7.18406 11.5356 6.99991 11.7678 6.76777C11.9999 6.53562 12.1841 6.26002 12.3097 5.95671C12.4353 5.65339 12.5 5.3283 12.5 5C12.5 4.67169 12.4353 4.3466 12.3097 4.04329C12.1841 3.73998 11.9999 3.46438 11.7678 3.23223C11.5356 3.00009 11.26 2.81594 10.9567 2.6903C10.6534 2.56466 10.3283 2.5 10 2.5C9.67169 2.5 9.3466 2.56466 9.04329 2.6903C8.73998 2.81594 8.46438 3.00009 8.23223 3.23223C8.00009 3.46438 7.81594 3.73998 7.6903 4.04329C7.56466 4.34661 7.5 4.6717 7.5 5L7.5 5Z" stroke="white" stroke-width="2"/>
<path d="M3.69819 11.5849C3.41387 11.7491 3.16466 11.9676 2.9648 12.2281C2.76494 12.4885 2.61834 12.7858 2.53337 13.1029C2.4484 13.42 2.42672 13.7508 2.46958 14.0763C2.51243 14.4018 2.61897 14.7157 2.78312 15C2.94728 15.2843 3.16582 15.5335 3.42628 15.7334C3.68675 15.9332 3.98402 16.0798 4.30114 16.1648C4.61826 16.2498 4.94901 16.2714 5.2745 16.2286C5.6 16.1857 5.91387 16.0792 6.19819 15.915C6.48251 15.7509 6.73171 15.5323 6.93157 15.2719C7.13143 15.0114 7.27803 14.7141 7.363 14.397C7.44797 14.0799 7.46965 13.7492 7.4268 13.4237C7.38395 13.0982 7.2774 12.7843 7.11325 12.5C6.9491 12.2157 6.73055 11.9665 6.47009 11.7666C6.20963 11.5667 5.91235 11.4201 5.59523 11.3352C5.27812 11.2502 4.94737 11.2285 4.62187 11.2714C4.29637 11.3142 3.98251 11.4208 3.69819 11.5849L3.69819 11.5849Z" stroke="white" stroke-width="2"/>
<path d="M16.3018 11.5849C16.5861 11.7491 16.8353 11.9676 17.0352 12.2281C17.2351 12.4885 17.3817 12.7858 17.4666 13.1029C17.5516 13.42 17.5733 13.7508 17.5304 14.0763C17.4876 14.4018 17.381 14.7157 17.2169 15C17.0527 15.2843 16.8342 15.5335 16.5737 15.7334C16.3133 15.9332 16.016 16.0798 15.6989 16.1648C15.3817 16.2498 15.051 16.2714 14.7255 16.2286C14.4 16.1857 14.0861 16.0792 13.8018 15.915C13.5175 15.7509 13.2683 15.5323 13.0684 15.2719C12.8686 15.0114 12.722 14.7141 12.637 14.397C12.552 14.0799 12.5303 13.7492 12.5732 13.4237C12.6161 13.0982 12.7226 12.7843 12.8868 12.5C13.0509 12.2157 13.2694 11.9664 13.5299 11.7666C13.7904 11.5667 14.0876 11.4201 14.4048 11.3352C14.7219 11.2502 15.0526 11.2285 15.3781 11.2714C15.7036 11.3142 16.0175 11.4208 16.3018 11.5849L16.3018 11.5849Z" stroke="white" stroke-width="2"/>
<path fill-rule="evenodd" clip-rule="evenodd" d="M7.59996 5.70079C7.53375 5.47381 7.49995 5.23813 7.49995 5.00077C7.49995 4.67247 7.56462 4.34738 7.69025 4.04406C7.78447 3.8166 7.91159 3.60473 8.06719 3.41508C7.72691 3.50373 7.3924 3.61587 7.0661 3.75103C6.13594 4.13632 5.29077 4.70104 4.57885 5.41296C3.86694 6.12487 3.30222 6.97004 2.91693 7.9002C2.53165 8.83037 2.33334 9.82731 2.33334 10.8341C2.33334 11.5233 2.42626 12.2078 2.60847 12.8695C2.69492 12.6399 2.81485 12.4239 2.96475 12.2285C3.16461 11.9681 3.41381 11.7495 3.69813 11.5854C3.90369 11.4667 4.1247 11.3781 4.35438 11.322C4.34039 11.16 4.33334 10.9972 4.33334 10.8341C4.33334 10.09 4.47992 9.35308 4.76469 8.66557C5.04947 7.97806 5.46687 7.35337 5.99307 6.82717C6.45957 6.36066 7.00349 5.97967 7.59996 5.70079ZM12.4 5.70075C12.9965 5.97963 13.5404 6.36064 14.0069 6.82716C14.5331 7.35336 14.9505 7.97805 15.2353 8.66556C15.5201 9.35307 15.6667 10.0899 15.6667 10.8341C15.6667 10.9972 15.6596 11.16 15.6456 11.322C15.8753 11.3781 16.0962 11.4667 16.3018 11.5854C16.5861 11.7495 16.8353 11.9681 17.0352 12.2285C17.1851 12.4239 17.305 12.64 17.3915 12.8697C17.5737 12.208 17.6667 11.5233 17.6667 10.8341C17.6667 9.8273 17.4684 8.83036 17.0831 7.9002C16.6978 6.97003 16.1331 6.12487 15.4212 5.41295C14.7092 4.70103 13.8641 4.13631 12.9339 3.75103C12.6076 3.61585 12.273 3.50369 11.9327 3.41504C12.0883 3.6047 12.2154 3.81659 12.3097 4.04406C12.4353 4.34738 12.5 4.67247 12.5 5.00077C12.5 5.23811 12.4662 5.47378 12.4 5.70075ZM15.4591 16.217C15.2169 16.257 14.9697 16.2612 14.7255 16.229C14.4 16.1862 14.0861 16.0796 13.8018 15.9155C13.5963 15.7969 13.4092 15.6498 13.2458 15.4791C12.9099 15.7138 12.5489 15.9119 12.1685 16.0694C11.481 16.3542 10.7442 16.5008 10 16.5008C9.25585 16.5008 8.51898 16.3542 7.83147 16.0694C7.45113 15.9119 7.09002 15.7137 6.75417 15.4791C6.59075 15.6498 6.40361 15.7969 6.19813 15.9155C5.91381 16.0796 5.59994 16.1862 5.27445 16.229C5.03023 16.2612 4.78306 16.257 4.5409 16.217C4.55351 16.2298 4.56616 16.2426 4.57886 16.2553C5.29077 16.9672 6.13594 17.5319 7.0661 17.9172C7.99627 18.3025 8.99321 18.5008 10 18.5008C11.0068 18.5008 12.0038 18.3025 12.9339 17.9172C13.8641 17.5319 14.7092 16.9672 15.4212 16.2553C15.4339 16.2425 15.4465 16.2298 15.4591 16.217Z" fill="white"/>
</svg>
