<svg width="20" height="20" viewBox="0 0 20 20" fill="none" xmlns="http://www.w3.org/2000/svg">
<path d="M7.5 5C7.5 5.3283 7.56466 5.65339 7.6903 5.95671C7.81594 6.26002 8.00009 6.53562 8.23223 6.76777C8.46438 6.99991 8.73998 7.18406 9.04329 7.3097C9.34661 7.43534 9.6717 7.5 10 7.5C10.3283 7.5 10.6534 7.43534 10.9567 7.3097C11.26 7.18406 11.5356 6.99991 11.7678 6.76777C11.9999 6.53562 12.1841 6.26002 12.3097 5.95671C12.4353 5.65339 12.5 5.3283 12.5 5C12.5 4.67169 12.4353 4.3466 12.3097 4.04329C12.1841 3.73998 11.9999 3.46438 11.7678 3.23223C11.5356 3.00009 11.26 2.81594 10.9567 2.6903C10.6534 2.56466 10.3283 2.5 10 2.5C9.67169 2.5 9.3466 2.56466 9.04329 2.6903C8.73998 2.81594 8.46438 3.00009 8.23223 3.23223C8.00009 3.46438 7.81594 3.73998 7.6903 4.04329C7.56466 4.34661 7.5 4.6717 7.5 5L7.5 5Z" stroke="#674DF6" stroke-width="2"/>
<path d="M3.69822 11.5849C3.4139 11.7491 3.16469 11.9676 2.96483 12.2281C2.76498 12.4885 2.61837 12.7858 2.5334 13.1029C2.44843 13.42 2.42675 13.7508 2.46961 14.0763C2.51246 14.4018 2.619 14.7157 2.78315 15C2.94731 15.2843 3.16585 15.5335 3.42631 15.7334C3.68678 15.9332 3.98405 16.0798 4.30117 16.1648C4.61829 16.2498 4.94904 16.2714 5.27453 16.2286C5.60003 16.1857 5.9139 16.0792 6.19822 15.915C6.48254 15.7509 6.73174 15.5323 6.9316 15.2719C7.13146 15.0114 7.27806 14.7141 7.36303 14.397C7.448 14.0799 7.46968 13.7492 7.42683 13.4237C7.38398 13.0982 7.27743 12.7843 7.11328 12.5C6.94913 12.2157 6.73058 11.9665 6.47012 11.7666C6.20966 11.5667 5.91238 11.4201 5.59526 11.3352C5.27815 11.2502 4.9474 11.2285 4.6219 11.2714C4.2964 11.3142 3.98254 11.4208 3.69822 11.5849L3.69822 11.5849Z" stroke="#674DF6" stroke-width="2"/>
<path d="M16.3018 11.5849C16.5861 11.7491 16.8353 11.9676 17.0352 12.2281C17.235 12.4885 17.3816 12.7858 17.4666 13.1029C17.5516 13.42 17.5732 13.7508 17.5304 14.0763C17.4875 14.4018 17.381 14.7157 17.2168 15C17.0527 15.2843 16.8341 15.5335 16.5737 15.7334C16.3132 15.9332 16.0159 16.0798 15.6988 16.1648C15.3817 16.2498 15.051 16.2714 14.7255 16.2286C14.4 16.1857 14.0861 16.0792 13.8018 15.915C13.5175 15.7509 13.2683 15.5323 13.0684 15.2719C12.8685 15.0114 12.7219 14.7141 12.637 14.397C12.552 14.0799 12.5303 13.7492 12.5732 13.4237C12.616 13.0982 12.7226 12.7843 12.8867 12.5C13.0509 12.2157 13.2694 11.9664 13.5299 11.7666C13.7903 11.5667 14.0876 11.4201 14.4047 11.3352C14.7219 11.2502 15.0526 11.2285 15.3781 11.2714C15.7036 11.3142 16.0175 11.4208 16.3018 11.5849L16.3018 11.5849Z" stroke="#674DF6" stroke-width="2"/>
<path fill-rule="evenodd" clip-rule="evenodd" d="M7.60011 5.70079C7.53391 5.47381 7.50011 5.23813 7.50011 5.00077C7.5001 4.67247 7.56477 4.34738 7.69041 4.04406C7.78462 3.8166 7.91175 3.60473 8.06734 3.41508C7.72707 3.50373 7.39255 3.61587 7.06625 3.75103C6.13609 4.13632 5.29092 4.70104 4.57901 5.41296C3.86709 6.12487 3.30237 6.97004 2.91708 7.9002C2.5318 8.83037 2.3335 9.82731 2.3335 10.8341C2.3335 11.5233 2.42642 12.2078 2.60862 12.8695C2.69507 12.6399 2.81501 12.4239 2.9649 12.2285C3.16476 11.9681 3.41396 11.7495 3.69828 11.5854C3.90385 11.4667 4.12485 11.3781 4.35453 11.322C4.34054 11.16 4.3335 10.9972 4.3335 10.8341C4.3335 10.09 4.48007 9.35308 4.76484 8.66557C5.04962 7.97806 5.46702 7.35337 5.99322 6.82717C6.45973 6.36066 7.00364 5.97967 7.60011 5.70079ZM12.4001 5.70075C12.9966 5.97963 13.5406 6.36064 14.0071 6.82716C14.5333 7.35336 14.9507 7.97805 15.2355 8.66556C15.5203 9.35307 15.6668 10.0899 15.6668 10.8341C15.6668 10.9972 15.6598 11.16 15.6458 11.322C15.8754 11.3781 16.0964 11.4667 16.3019 11.5854C16.5862 11.7495 16.8355 11.9681 17.0353 12.2285C17.1852 12.4239 17.3052 12.64 17.3917 12.8697C17.5739 12.208 17.6668 11.5233 17.6668 10.8341C17.6668 9.8273 17.4685 8.83036 17.0832 7.9002C16.698 6.97003 16.1332 6.12487 15.4213 5.41295C14.7094 4.70103 13.8642 4.13631 12.9341 3.75103C12.6077 3.61585 12.2732 3.50369 11.9328 3.41504C12.0884 3.6047 12.2156 3.81659 12.3098 4.04406C12.4354 4.34738 12.5001 4.67247 12.5001 5.00077C12.5001 5.23811 12.4663 5.47378 12.4001 5.70075ZM15.4593 16.217C15.2171 16.257 14.9699 16.2612 14.7256 16.229C14.4001 16.1862 14.0862 16.0796 13.8019 15.9155C13.5965 15.7969 13.4093 15.6498 13.2459 15.4791C12.9101 15.7138 12.549 15.9119 12.1687 16.0694C11.4812 16.3542 10.7443 16.5008 10.0002 16.5008C9.25601 16.5008 8.51914 16.3542 7.83162 16.0694C7.45128 15.9119 7.09018 15.7137 6.75433 15.4791C6.5909 15.6498 6.40376 15.7969 6.19828 15.9155C5.91396 16.0796 5.60009 16.1862 5.2746 16.229C5.03038 16.2612 4.78321 16.257 4.54106 16.217C4.55366 16.2298 4.56631 16.2426 4.57901 16.2553C5.29093 16.9672 6.13609 17.5319 7.06626 17.9172C7.99642 18.3025 8.99336 18.5008 10.0002 18.5008C11.007 18.5008 12.0039 18.3025 12.9341 17.9172C13.8642 17.5319 14.7094 16.9672 15.4213 16.2553C15.434 16.2425 15.4467 16.2298 15.4593 16.217Z" fill="#674DF6"/>
</svg>
