<svg width="20" height="20" viewBox="0 0 20 20" fill="none" xmlns="http://www.w3.org/2000/svg">
<circle cx="10" cy="10" r="10" fill="white"/>
<path d="M8.45556 8.98781C8.43069 8.42067 8.43012 7.82406 8.43938 7.29692C8.90053 7.55247 9.41693 7.85126 9.89565 8.15638C10.2769 8.39939 10.6179 8.63607 10.8824 8.84944C11.0143 8.95583 11.1173 9.04847 11.1927 9.12578C11.2299 9.16392 11.2568 9.19469 11.2754 9.218C11.2927 9.23966 11.2992 9.25039 11.2993 9.25038C11.2993 9.25038 11.2992 9.25027 11.2991 9.25005C11.2989 9.24983 11.2989 9.24972 11.2989 9.24972C11.2989 9.24973 11.3049 9.26074 11.315 9.28655C11.3259 9.31434 11.3391 9.35304 11.3535 9.40433C11.3827 9.50829 11.4115 9.64376 11.4377 9.81117C11.4902 10.1469 11.5247 10.5606 11.5445 11.0123C11.5694 11.5794 11.5699 12.176 11.5607 12.7032C11.0995 12.4476 10.5831 12.1488 10.1044 11.8437C9.72314 11.6007 9.38215 11.364 9.11763 11.1507C8.98574 11.0443 8.88281 10.9516 8.8074 10.8743C8.77019 10.8362 8.74327 10.8054 8.72465 10.7821C8.70908 10.7626 8.70224 10.752 8.70101 10.75C8.69995 10.748 8.69416 10.7368 8.68507 10.7135C8.67419 10.6858 8.66101 10.6471 8.64658 10.5958C8.61733 10.4918 8.58856 10.3563 8.56237 10.1889C8.50985 9.85316 8.47537 9.43952 8.45556 8.98781Z" stroke="url(#paint0_linear)" stroke-width="2"/>
<defs>
<linearGradient id="paint0_linear" x1="7.50004" y1="5.66992" x2="12.5" y2="14.3302" gradientUnits="userSpaceOnUse">
<stop stop-color="#6F45FF"/>
<stop offset="1" stop-color="#FF6365"/>
</linearGradient>
</defs>
</svg>
