<svg width="20" height="20" viewBox="0 0 20 20" fill="none" xmlns="http://www.w3.org/2000/svg">
<circle cx="10" cy="10" r="10" fill="#674DF6"/>
<path d="M8.4555 8.98781C8.43063 8.42067 8.43006 7.82406 8.43932 7.29692C8.90047 7.55247 9.41686 7.85126 9.89559 8.15638C10.2769 8.39939 10.6179 8.63607 10.8824 8.84944C11.0143 8.95583 11.1172 9.04847 11.1926 9.12578C11.2298 9.16392 11.2567 9.19469 11.2754 9.218C11.2927 9.23966 11.2992 9.25039 11.2992 9.25038C11.2992 9.25038 11.2991 9.25027 11.299 9.25005C11.2989 9.24983 11.2988 9.24972 11.2988 9.24972C11.2988 9.24973 11.3048 9.26074 11.3149 9.28655C11.3258 9.31434 11.339 9.35304 11.3534 9.40433C11.3827 9.50829 11.4114 9.64376 11.4376 9.81117C11.4902 10.1469 11.5246 10.5606 11.5444 11.0123C11.5693 11.5794 11.5699 12.176 11.5606 12.7032C11.0995 12.4476 10.5831 12.1488 10.1044 11.8437C9.72307 11.6007 9.38209 11.364 9.11757 11.1507C8.98568 11.0443 8.88275 10.9516 8.80734 10.8743C8.77013 10.8362 8.7432 10.8054 8.72459 10.7821C8.70902 10.7626 8.70218 10.752 8.70095 10.75C8.69989 10.748 8.6941 10.7368 8.685 10.7135C8.67413 10.6858 8.66095 10.6471 8.64651 10.5958C8.61727 10.4918 8.5885 10.3563 8.56231 10.1889C8.50979 9.85316 8.47531 9.43952 8.4555 8.98781Z" stroke="white" stroke-width="2"/>
</svg>
