<svg width="22" height="22" viewBox="0 0 22 22" fill="none" xmlns="http://www.w3.org/2000/svg">
<circle cx="11" cy="11" r="11" fill="url(#paint0_linear)"/>
<circle cx="10.9999" cy="11.0004" r="9.77778" fill="#1A0E3B"/>
<path d="M7.72061 6.4541L16.4351 12.4043L14.2799 15.5902L5.56543 9.59318L7.72061 6.4541Z" fill="url(#paint1_linear)"/>
<path d="M16.4351 12.4047C15.6854 13.4823 13.1554 13.0607 10.766 11.374C8.3297 9.73418 7.01785 7.53215 7.72062 6.45455C8.47025 5.37696 11.0003 5.79863 13.3897 7.48529C15.826 9.07826 17.1378 11.3271 16.4351 12.4047Z" fill="url(#paint2_linear)"/>
<path d="M14.2798 15.5444C13.5301 16.622 11.0001 16.2003 8.61069 14.5136C6.22125 12.827 4.86254 10.6718 5.61217 9.54733C6.3618 8.46973 8.8918 8.8914 11.2812 10.5781C13.6707 12.2647 14.9825 14.4668 14.2798 15.5444Z" fill="url(#paint3_linear)"/>
<path d="M16.4349 12.4051L14.2798 15.591C13.5301 16.6686 11.0001 16.2001 8.61068 14.5602C8.14216 14.2323 7.72049 13.9043 7.29883 13.5295C7.62679 13.4827 8.04846 13.2952 8.47012 12.8267C9.21975 12.0302 9.59457 11.8428 9.92253 11.8897C10.2505 11.8897 10.6253 12.2177 11.2344 13.0141C11.8435 13.8106 12.6868 14.0449 13.2022 13.6232C13.249 13.5764 13.2959 13.5764 13.3427 13.5295C13.7644 13.2015 13.9049 13.061 14.7014 11.5617C14.8888 11.1869 15.5448 10.5778 16.4349 10.859C16.6692 11.468 16.6692 11.9834 16.4349 12.4051Z" fill="#0E0F23"/>
<path fill-rule="evenodd" clip-rule="evenodd" d="M16.107 12.217C15.4511 13.154 13.1553 12.6855 10.9533 11.1394C8.70442 9.59328 7.39256 7.6255 8.04849 6.68847C8.70442 5.75143 11.0002 6.21995 13.2022 7.76606C15.4042 9.31217 16.7161 11.2799 16.107 12.217ZM14.0455 10.8114C13.7176 11.2799 12.5931 11.0457 11.4687 10.2961C10.3911 9.54643 9.73516 8.56254 10.0631 8.09402C10.3911 7.6255 11.5155 7.85976 12.64 8.60939C13.7176 9.35902 14.3735 10.3429 14.0455 10.8114Z" fill="white"/>
<path d="M7.53311 7.53208C7.53311 7.48523 7.48626 7.43838 7.43941 7.48523C7.39256 7.53208 7.3457 7.53208 7.3457 7.57893C7.39255 7.71949 7.43941 7.81319 7.43941 7.90689C7.43941 7.95375 7.48626 8.0006 7.53311 7.95375C7.57996 7.95375 7.62681 7.90689 7.57996 7.86004C7.57996 7.76634 7.57996 7.67263 7.53311 7.53208Z" fill="white"/>
<path d="M7.76751 8.28208C7.76751 8.23523 7.72066 8.18838 7.6738 8.23523C7.62695 8.28208 7.62695 8.28208 7.62695 8.32893C8.14232 9.50023 9.21992 10.7652 10.6255 11.7023C10.6723 11.7491 10.7192 11.7023 10.766 11.7023C10.8129 11.6554 10.766 11.6086 10.766 11.5617C9.31362 10.6247 8.28288 9.40652 7.76751 8.28208Z" fill="white"/>
<path d="M13.4365 12.873C13.3896 12.873 13.3428 12.873 13.3428 12.9199C13.3428 12.9668 13.3428 13.0136 13.3896 13.0136C13.5302 13.0605 13.7176 13.1073 13.8581 13.1542C13.905 13.1542 13.9518 13.1542 13.9518 13.1073C13.9518 13.0605 13.9518 13.0136 13.905 13.0136C13.7644 12.9667 13.577 12.9199 13.4365 12.873Z" fill="white"/>
<path d="M14.2797 13.0605C14.2329 13.0605 14.186 13.1074 14.186 13.1543C14.186 13.2011 14.2329 13.248 14.2797 13.248C14.6546 13.2948 15.0762 13.3417 15.4042 13.2948C15.451 13.2948 15.4979 13.248 15.4979 13.2011C15.4979 13.1543 15.451 13.1074 15.4042 13.1074C15.0294 13.1543 14.6546 13.1074 14.2797 13.0605Z" fill="white"/>
<defs>
<linearGradient id="paint0_linear" x1="0" y1="11" x2="22" y2="11" gradientUnits="userSpaceOnUse">
<stop stop-color="#6F45FF"/>
<stop offset="1" stop-color="#FF6365"/>
</linearGradient>
<linearGradient id="paint1_linear" x1="9.42799" y1="5.6081" x2="11.1562" y2="11.5424" gradientUnits="userSpaceOnUse">
<stop stop-color="#03B8FF"/>
<stop offset="1" stop-color="#FA52A0"/>
</linearGradient>
<linearGradient id="paint2_linear" x1="10.8512" y1="5.19405" x2="12.5794" y2="11.1284" gradientUnits="userSpaceOnUse">
<stop stop-color="#03B8FF"/>
<stop offset="1" stop-color="#FA52A0"/>
</linearGradient>
<linearGradient id="paint3_linear" x1="8.00911" y1="6.02224" x2="9.73734" y2="11.9566" gradientUnits="userSpaceOnUse">
<stop stop-color="#03B8FF"/>
<stop offset="1" stop-color="#FA52A0"/>
</linearGradient>
</defs>
</svg>
