<svg width="22" height="22" viewBox="0 0 22 22" fill="none" xmlns="http://www.w3.org/2000/svg">
<circle cx="11" cy="11" r="11" fill="url(#paint0_linear)"/>
<circle cx="10.9999" cy="11.0004" r="9.77778" fill="#1A0E3B"/>
<path d="M8.46497 5.24443C8.28919 5.21776 8.28177 5.21464 8.36449 5.2022C8.52302 5.17836 8.89735 5.21086 9.1553 5.27083C9.7575 5.41082 10.3055 5.76942 10.8904 6.4063L11.0458 6.5755L11.2681 6.54055C12.2046 6.39337 13.1573 6.51034 13.9542 6.87033C14.1734 6.96937 14.519 7.16652 14.5622 7.21718C14.576 7.23332 14.6012 7.33726 14.6183 7.44816C14.6775 7.83184 14.6479 8.12594 14.5279 8.34561C14.4626 8.46514 14.4589 8.50302 14.5029 8.60532C14.5379 8.68695 14.6356 8.74737 14.7324 8.74724C14.9303 8.74698 15.1435 8.43393 15.2423 7.99835L15.2815 7.82533L15.3592 7.91141C15.7855 8.3837 16.1203 9.0278 16.1778 9.48626L16.1928 9.6058L16.1212 9.49713C15.9979 9.31014 15.8739 9.18285 15.7153 9.08017C15.4292 8.89511 15.1268 8.83214 14.326 8.79086C13.6027 8.75359 13.1933 8.69317 12.7874 8.56373C12.0968 8.34352 11.7486 8.05025 10.9282 6.99765C10.5638 6.53012 10.3386 6.27145 10.1146 6.06313C9.60549 5.58979 9.10528 5.34155 8.46497 5.24443Z" fill="#D83FA4"/>
<path d="M14.7249 6.28881C14.7432 5.97552 14.7865 5.76888 14.8739 5.58016C14.9085 5.50547 14.9409 5.44434 14.9459 5.44434C14.9509 5.44434 14.9358 5.49947 14.9124 5.56685C14.849 5.74999 14.8385 6.00049 14.8823 6.29194C14.9378 6.66174 14.9694 6.71509 15.3691 7.11455C15.5565 7.30192 15.7746 7.53822 15.8536 7.63968L15.9973 7.82415L15.8536 7.69232C15.6778 7.53109 15.2736 7.21668 15.1844 7.17173C15.1245 7.14159 15.1156 7.14211 15.0786 7.17806C15.0446 7.21118 15.0374 7.26095 15.0327 7.49624C15.0254 7.86295 14.9742 8.09832 14.8509 8.33367C14.7842 8.46096 14.7736 8.43379 14.834 8.29012C14.8791 8.18284 14.8837 8.13568 14.8834 7.78069C14.8826 7.06741 14.7961 6.89593 14.2883 6.60218C14.1597 6.52777 13.9477 6.42045 13.8173 6.36368C13.6868 6.30692 13.5832 6.25747 13.587 6.25377C13.6014 6.23978 14.0966 6.38113 14.296 6.45612C14.5925 6.56765 14.6414 6.5821 14.6773 6.56865C14.7016 6.55963 14.7132 6.49088 14.7249 6.28881Z" fill="#D83FA4"/>
<path d="M8.80635 7.50853C8.4495 7.02807 8.22869 6.29141 8.2765 5.74072L8.29128 5.57031L8.37251 5.58481C8.52505 5.61201 8.78807 5.70775 8.91123 5.78091C9.2492 5.98164 9.39552 6.24592 9.54437 6.92455C9.58798 7.12332 9.64519 7.34827 9.67151 7.42442C9.71389 7.547 9.87402 7.83332 10.0042 8.01927C10.098 8.15319 10.0357 8.21665 9.8284 8.19835C9.51183 8.17041 9.083 7.88098 8.80635 7.50853Z" fill="#D83FA4"/>
<path d="M14.2922 11.0844C12.6245 10.4277 12.0371 9.85773 12.0371 8.896C12.0371 8.75447 12.0421 8.63867 12.0482 8.63867C12.0542 8.63867 12.1188 8.68538 12.1915 8.74248C12.5297 9.00773 12.9084 9.12103 13.9568 9.2706C14.5737 9.35862 14.9209 9.42971 15.2411 9.53357C16.259 9.86371 16.8888 10.5337 17.039 11.4462C17.0826 11.7113 17.057 12.2086 16.9863 12.4706C16.9305 12.6776 16.76 13.0507 16.7147 13.0651C16.7022 13.069 16.6899 13.022 16.6867 12.9581C16.6696 12.6155 16.4925 12.2819 16.1952 12.032C15.8571 11.7479 15.4029 11.5217 14.2922 11.0844Z" fill="#D83FA4"/>
<path d="M13.1218 11.3577C13.1009 11.2361 13.0647 11.0809 13.0413 11.0127L12.9987 10.8887L13.0778 10.9754C13.1871 11.0955 13.2736 11.2491 13.3468 11.4537C13.4027 11.6099 13.409 11.6564 13.4086 11.9101C13.4082 12.1593 13.4012 12.2115 13.3496 12.3521C13.2682 12.5738 13.1671 12.7309 12.9976 12.8996C12.693 13.2029 12.3013 13.3707 11.7361 13.4404C11.6378 13.4524 11.3515 13.4728 11.0998 13.4856C10.4653 13.5179 10.0478 13.5846 9.67258 13.7134C9.61864 13.7319 9.57048 13.7432 9.56559 13.7385C9.55041 13.7236 9.80586 13.5747 10.0169 13.4753C10.3144 13.3351 10.6105 13.2587 11.2741 13.1506C11.6019 13.0972 11.9404 13.0324 12.0263 13.0067C12.8381 12.7633 13.2554 12.1352 13.1218 11.3577Z" fill="#D83FA4"/>
<path d="M13.8862 12.6851C13.6646 12.2192 13.6137 11.7695 13.7351 11.3501C13.7481 11.3052 13.769 11.2686 13.7816 11.2686C13.7941 11.2686 13.8464 11.2962 13.8977 11.33C13.9999 11.3972 14.2047 11.5104 14.7502 11.8013C15.431 12.1643 15.8192 12.4454 16.0832 12.7665C16.3144 13.0477 16.4574 13.3681 16.5263 13.7587C16.5653 13.9799 16.5424 14.5122 16.4843 14.735C16.3013 15.4375 15.8759 15.9893 15.2691 16.3113C15.1802 16.3585 15.1004 16.3972 15.0918 16.3974C15.0831 16.3976 15.1155 16.317 15.1638 16.2184C15.3678 15.8011 15.3911 15.3952 15.2368 14.9434C15.1422 14.6668 14.9496 14.3292 14.5606 13.7587C14.1083 13.0955 13.9974 12.919 13.8862 12.6851Z" fill="#D83FA4"/>
<path d="M7.62175 15.1986C8.24063 14.6876 9.01066 14.3246 9.71209 14.2131C10.0144 14.1651 10.518 14.1841 10.7979 14.2542C11.2466 14.3665 11.648 14.6181 11.8567 14.9177C12.0607 15.2106 12.1482 15.4658 12.2394 16.0337C12.2753 16.2577 12.3144 16.4826 12.3262 16.5335C12.3947 16.8279 12.5278 17.063 12.6929 17.1812C12.955 17.3689 13.4063 17.3804 13.8503 17.2111C13.9256 17.1823 13.991 17.1625 13.9956 17.167C14.0118 17.1826 13.7882 17.3289 13.6305 17.406C13.4182 17.5097 13.2495 17.5498 13.0253 17.5498C12.6186 17.5498 12.281 17.3475 11.9993 16.935C11.9439 16.8538 11.8193 16.6107 11.7224 16.3947C11.425 15.7312 11.2781 15.5292 10.9328 15.308C10.6323 15.1156 10.2447 15.0811 9.9531 15.2209C9.57009 15.4045 9.46322 15.8832 9.73754 16.1865C9.84657 16.3071 10.0499 16.411 10.2161 16.4313C10.5272 16.4692 10.7945 16.2377 10.7945 15.9306C10.7945 15.7312 10.7161 15.6175 10.5188 15.5304C10.2493 15.4114 9.95971 15.5505 9.96109 15.798C9.96169 15.9036 10.0087 15.9698 10.1169 16.0177C10.1863 16.0485 10.1879 16.0508 10.1313 16.0394C9.88409 15.9892 9.82617 15.6978 10.0249 15.5042C10.2636 15.272 10.7571 15.3745 10.9266 15.6916C10.9978 15.8248 11.006 16.09 10.944 16.2502C10.8051 16.6087 10.4 16.7971 9.98907 16.6946C9.7093 16.6247 9.59538 16.5491 9.25808 16.2093C8.67196 15.6188 8.44442 15.5044 7.59942 15.3755L7.4375 15.3507L7.62175 15.1986Z" fill="#D83FA4"/>
<path fill-rule="evenodd" clip-rule="evenodd" d="M4.87176 4.63051C6.82914 6.95379 8.17729 7.91232 8.32711 8.11484C8.4508 8.28206 8.40425 8.43239 8.19234 8.55021C8.07449 8.61571 7.83221 8.68208 7.71091 8.68208C7.57371 8.68208 7.5266 8.63033 7.5266 8.63033C7.44705 8.55654 7.40224 8.56944 6.99371 7.86028C6.42655 6.99964 5.9519 6.28569 5.93895 6.27373C5.90901 6.24609 5.90953 6.24702 6.93589 8.04293C7.10171 8.41724 6.96886 8.55464 6.96886 8.60795C6.96886 8.7164 6.93862 8.77341 6.80181 8.92264C6.57376 9.17144 6.47181 9.451 6.39821 10.0296C6.31572 10.6781 6.08373 11.1363 5.44083 11.9204C5.06449 12.3794 5.00292 12.4635 4.90796 12.6485C4.78835 12.8815 4.75546 13.0119 4.74213 13.3061C4.72804 13.6172 4.75548 13.8181 4.85265 14.1155C4.93772 14.3759 5.02651 14.5478 5.25352 14.8916C5.44942 15.1883 5.56222 15.4088 5.56222 15.4951C5.56222 15.5637 5.57563 15.5638 5.87919 15.4968C6.60567 15.3364 7.19557 15.0542 7.52733 14.7083C7.73266 14.4943 7.78086 14.3761 7.78242 14.0829C7.78345 13.8911 7.77655 13.8509 7.72352 13.7405C7.63721 13.5609 7.48006 13.4115 7.13371 13.18C6.67991 12.8766 6.48607 12.6324 6.43254 12.2965C6.38861 12.0209 6.43957 11.8264 6.69062 11.3118C6.95047 10.7792 7.01486 10.5523 7.05843 10.0154C7.08656 9.66855 7.12552 9.53176 7.22742 9.42196C7.33371 9.30747 7.42938 9.26869 7.6924 9.23355C8.1212 9.17627 8.39425 9.06777 8.61869 8.86552C8.81338 8.69006 8.89486 8.521 8.90736 8.26649L8.91685 8.07359L8.80805 7.94954C8.41403 7.50026 4.60789 4.27734 4.58365 4.27734C4.57847 4.27734 4.70812 4.43628 4.87176 4.63051ZM5.78341 13.6581C5.87249 13.5037 5.82515 13.3054 5.67614 13.2085C5.53535 13.117 5.31662 13.1601 5.31662 13.2794C5.31662 13.3158 5.33721 13.3423 5.3836 13.3657C5.46173 13.405 5.4674 13.4492 5.40593 13.5395C5.34368 13.631 5.3487 13.7115 5.42011 13.7662C5.53519 13.8543 5.69809 13.8058 5.78341 13.6581Z" fill="#D83FA4"/>
<path fill-rule="evenodd" clip-rule="evenodd" d="M9.18752 9.3348C8.98621 9.39526 8.79053 9.60391 8.72996 9.82268C8.69301 9.95615 8.71397 10.1903 8.76932 10.2626C8.85874 10.3793 8.94522 10.4101 9.17937 10.4085C9.6378 10.4054 10.0363 10.2131 10.0827 9.97273C10.1206 9.77569 9.94561 9.50263 9.70451 9.38274C9.5801 9.32091 9.31553 9.29638 9.18752 9.3348ZM9.72342 9.74461C9.79412 9.64637 9.76319 9.54021 9.64296 9.4684C9.41398 9.33167 9.06773 9.44482 9.06773 9.65635C9.06773 9.76165 9.2483 9.87653 9.41381 9.87653C9.52397 9.87653 9.67473 9.81229 9.72342 9.74461Z" fill="#D83FA4"/>
<defs>
<linearGradient id="paint0_linear" x1="0" y1="11" x2="22" y2="11" gradientUnits="userSpaceOnUse">
<stop stop-color="#6F45FF"/>
<stop offset="1" stop-color="#FF6365"/>
</linearGradient>
</defs>
</svg>
