<svg width="2490" height="2173" viewBox="0 0 2490 2173" fill="none" xmlns="http://www.w3.org/2000/svg">
<g opacity="0.4">
<path d="M1.00003 1559.22C1.00003 1559.22 174.1 1185.98 322.594 1191.66C471.088 1197.34 1032.9 1247.81 1174.31 1168.94C1315.72 1090.06 1212.24 487.062 1315.97 496.241C1474.53 510.127 2248 1354.63 2248 1354.63" stroke="#FF6365"/>
<path d="M8.00623 1557.78C8.00623 1557.78 182.345 1182.35 330.8 1188.16C479.294 1193.84 1041.24 1244.36 1182.65 1165.48C1324.06 1086.61 1223.18 485.826 1326.95 494.874C1485.51 508.76 2251.37 1344.95 2251.37 1344.95" stroke="#FC6268"/>
<path d="M14.8418 1556.44C14.8418 1556.44 190.511 1178.98 339.005 1184.66C487.499 1190.34 1049.41 1240.99 1190.85 1161.98C1332.3 1082.98 1234.16 484.459 1337.9 493.638C1496.46 507.524 2254.62 1335.23 2254.62 1335.23" stroke="#F9626B"/>
<path d="M21.8478 1555C21.8478 1555 198.847 1175.53 347.341 1181.2C495.836 1186.88 1057.74 1237.53 1199.19 1158.52C1340.64 1079.52 1245.15 483.093 1348.88 492.272C1507.44 506.158 2257.87 1325.51 2257.87 1325.51" stroke="#F7616E"/>
<path d="M28.8142 1553.7C28.8142 1553.7 207.183 1172.07 355.638 1177.88C504.172 1183.43 1066.08 1234.07 1207.49 1155.2C1348.89 1076.32 1256.09 481.857 1359.82 491.036C1518.38 504.922 2261.07 1315.92 2261.07 1315.92" stroke="#F46171"/>
<path d="M35.8202 1552.26C35.8202 1552.26 215.389 1168.57 364.014 1174.29C512.337 1180.06 1074.28 1230.57 1215.69 1151.7C1357.1 1072.82 1267.07 480.49 1370.81 489.669C1529.37 503.555 2264.49 1306.11 2264.49 1306.11" stroke="#F16074"/>
<path d="M42.6558 1550.92C42.6558 1550.92 223.554 1165.2 372.049 1170.88C520.673 1176.6 1082.62 1227.12 1224.03 1148.24C1365.43 1069.37 1278.02 479.254 1381.79 488.303C1540.35 502.189 2267.74 1296.39 2267.74 1296.39" stroke="#EE5F77"/>
<path d="M49.662 1549.48C49.662 1549.48 231.93 1161.61 380.425 1167.29C528.919 1172.97 1090.83 1223.62 1232.27 1144.61C1373.72 1065.61 1288.91 477.717 1392.68 486.766C1551.24 500.652 2270.89 1286.5 2270.89 1286.5" stroke="#EB5F7A"/>
<path d="M56.6282 1548.18C56.6282 1548.18 240.227 1158.29 388.721 1163.96C537.215 1169.64 1099.12 1220.29 1240.57 1141.28C1382.02 1062.28 1299.99 476.521 1403.72 485.7C1562.28 499.586 2274.36 1276.99 2274.36 1276.99" stroke="#E85E7D"/>
<path d="M63.5039 1546.7C63.5039 1546.7 248.432 1154.79 396.927 1160.47C545.421 1166.15 1107.33 1216.79 1248.77 1137.79C1390.22 1058.78 1310.84 475.114 1414.57 484.294C1573.13 498.18 2277.48 1267.23 2277.48 1267.23" stroke="#E65E80"/>
<path d="M70.4701 1545.39C70.4701 1545.39 256.638 1151.29 405.263 1157.01C553.757 1162.69 1115.66 1213.33 1257.11 1134.33C1398.56 1055.32 1321.78 473.878 1425.55 482.927C1584.11 496.813 2280.73 1257.5 2280.73 1257.5" stroke="#E35D83"/>
<path d="M77.4762 1543.96C77.4762 1543.96 264.974 1147.83 413.468 1153.51C561.962 1159.19 1123.87 1209.84 1265.28 1130.96C1406.68 1052.09 1332.73 472.643 1436.5 481.691C1595.06 495.577 2283.97 1247.78 2283.97 1247.78" stroke="#E05D86"/>
<path d="M84.4423 1542.65C84.4423 1542.65 273.31 1144.37 421.764 1150.18C570.259 1155.86 1132.17 1206.51 1273.61 1127.5C1415.06 1048.5 1343.71 471.276 1447.44 480.455C1606 494.341 2287.31 1238.23 2287.31 1238.23" stroke="#DD5C89"/>
<path d="M91.3178 1541.18C91.3178 1541.18 281.516 1140.88 430.01 1146.55C578.504 1152.23 1140.41 1202.88 1281.86 1123.87C1423.3 1044.87 1354.6 469.739 1458.33 478.918C1616.89 492.804 2290.47 1228.34 2290.47 1228.34" stroke="#DA5B8C"/>
<path d="M98.2842 1539.87C98.2842 1539.87 289.812 1137.55 438.306 1143.23C586.8 1148.91 1148.71 1199.55 1290.15 1120.55C1431.6 1041.54 1365.5 468.634 1469.28 477.682C1627.84 491.568 2293.71 1218.62 2293.71 1218.62" stroke="#D75B8F"/>
<path d="M105.29 1538.44C105.29 1538.44 298.057 1133.92 446.512 1139.73C595.006 1145.41 1156.91 1196.05 1298.36 1117.05C1439.81 1038.04 1376.49 467.267 1480.26 476.316C1638.82 490.202 2297.09 1208.94 2297.09 1208.94" stroke="#D55A92"/>
<path d="M112.126 1537.09C112.126 1537.09 306.223 1130.55 454.717 1136.23C603.342 1141.95 1165.25 1192.6 1306.7 1113.59C1448.14 1034.59 1387.47 465.9 1491.2 475.08C1649.76 488.966 2300.3 1199.35 2300.3 1199.35" stroke="#D25A95"/>
<path d="M119.132 1535.66C119.132 1535.66 314.559 1127.09 463.053 1132.77C611.547 1138.45 1173.45 1189.1 1314.86 1110.22C1456.27 1031.35 1398.41 464.665 1502.15 473.844C1660.71 487.73 2303.54 1189.63 2303.54 1189.63" stroke="#CF5998"/>
<path d="M126.098 1534.35C126.098 1534.35 322.895 1123.64 471.39 1129.31C619.884 1134.99 1181.79 1185.64 1323.24 1106.63C1464.68 1027.63 1409.44 463.167 1513.17 472.347C1671.73 486.233 2306.83 1179.78 2306.83 1179.78" stroke="#CC589B"/>
<path d="M133.104 1532.92C133.104 1532.92 331.231 1120.18 479.726 1125.86C628.049 1131.63 1190 1182.14 1331.4 1103.27C1472.81 1024.39 1420.21 462.022 1523.98 471.071C1682.54 484.957 2310.04 1170.19 2310.04 1170.19" stroke="#C9589E"/>
<path d="M139.94 1531.57C139.94 1531.57 339.266 1116.77 487.761 1122.45C636.385 1128.17 1198.33 1178.68 1339.74 1099.81C1481.15 1020.93 1431.33 460.695 1535.1 469.744C1693.66 483.63 2313.41 1160.51 2313.41 1160.51" stroke="#C757A1"/>
<path d="M146.946 1530.14C146.946 1530.14 347.642 1113.18 496.137 1118.86C644.591 1124.67 1206.54 1175.19 1347.95 1096.31C1489.35 1017.44 1442.18 459.289 1545.91 468.468C1704.47 482.354 2316.53 1150.75 2316.53 1150.75" stroke="#C457A4"/>
<path d="M153.912 1528.83C153.912 1528.83 355.939 1109.85 504.433 1115.53C652.927 1121.21 1214.83 1171.86 1356.28 1092.85C1497.73 1013.85 1453.16 457.922 1556.89 467.102C1715.45 480.988 2319.91 1141.06 2319.91 1141.06" stroke="#C156A7"/>
<path d="M160.788 1527.36C160.788 1527.36 364.184 1106.23 512.638 1112.04C661.133 1117.71 1223.04 1168.36 1364.49 1089.35C1505.93 1010.35 1464.11 456.687 1567.88 465.735C1726.44 479.621 2323.15 1131.34 2323.15 1131.34" stroke="#BE55AA"/>
<path d="M167.754 1526.05C167.754 1526.05 372.48 1102.9 520.975 1108.58C669.469 1114.26 1231.38 1164.9 1372.78 1086.03C1514.19 1007.15 1475.05 455.45 1578.82 464.499C1737.38 478.385 2326.4 1121.62 2326.4 1121.62" stroke="#BB55AD"/>
<path d="M174.76 1524.61C174.76 1524.61 380.686 1099.4 529.18 1105.08C677.635 1110.89 1239.58 1161.4 1380.99 1082.53C1522.4 1003.65 1485.9 454.044 1589.63 463.223C1748.19 477.109 2329.48 1111.99 2329.48 1111.99" stroke="#B854B0"/>
<path d="M181.727 1523.31C181.727 1523.31 389.022 1095.94 537.477 1101.75C685.971 1107.43 1247.88 1158.08 1389.32 1079.07C1530.77 1000.07 1497.02 452.717 1600.75 461.897C1759.31 475.783 2332.99 1102.35 2332.99 1102.35" stroke="#B654B4"/>
<path d="M188.602 1521.83C188.602 1521.83 397.228 1092.44 545.722 1098.12C694.176 1103.93 1256.12 1154.45 1397.53 1075.57C1538.94 996.698 1508 451.351 1611.73 460.53C1770.29 474.416 2336.27 1092.5 2336.27 1092.5" stroke="#B353B7"/>
<path d="M195.568 1520.53C195.568 1520.53 405.524 1089.12 554.018 1094.8C702.512 1100.47 1264.42 1151.12 1405.87 1072.11C1547.31 993.11 1518.81 450.075 1622.58 459.124C1781.14 473.01 2339.39 1082.74 2339.39 1082.74" stroke="#B053BA"/>
<path d="M202.574 1519.09C202.574 1519.09 413.9 1085.53 562.394 1091.21C710.888 1096.89 1272.8 1147.53 1414.24 1068.53C1555.69 989.52 1529.8 448.708 1633.53 457.887C1792.09 471.774 2342.6 1073.15 2342.6 1073.15" stroke="#AD52BD"/>
<path d="M209.541 1517.79C209.541 1517.79 422.066 1082.16 570.56 1087.84C719.054 1093.52 1280.96 1144.16 1422.41 1065.16C1563.86 986.153 1540.74 447.473 1644.51 456.521C1803.07 470.407 2346.01 1063.34 2346.01 1063.34" stroke="#AA51C0"/>
<path d="M216.376 1516.44C216.376 1516.44 430.231 1078.79 578.725 1084.47C727.259 1090.02 1289.17 1140.67 1430.57 1061.79C1571.98 982.917 1551.59 446.066 1655.32 455.245C1813.88 469.131 2349.09 1053.71 2349.09 1053.71" stroke="#A751C3"/>
<path d="M223.382 1515.01C223.382 1515.01 438.607 1075.2 587.101 1080.88C735.596 1086.56 1297.5 1137.21 1438.95 1058.2C1580.4 979.197 1562.71 444.739 1666.44 453.919C1825 467.805 2352.47 1044.03 2352.47 1044.03" stroke="#A550C6"/>
<path d="M230.349 1513.7C230.349 1513.7 446.904 1071.88 595.398 1077.56C743.892 1083.23 1305.71 1133.71 1447.12 1054.84C1588.52 975.96 1573.65 443.503 1677.42 452.552C1835.98 466.438 2355.88 1034.21 2355.88 1034.21" stroke="#A250C9"/>
<path d="M237.224 1512.23C237.224 1512.23 455.149 1068.25 603.603 1074.06C752.097 1079.74 1314 1130.38 1455.45 1051.38C1596.9 972.372 1584.5 442.097 1688.23 451.276C1846.79 465.162 2358.96 1024.58 2358.96 1024.58" stroke="#9F4FCC"/>
<path d="M244.19 1510.92C244.19 1510.92 463.314 1064.88 611.809 1070.56C760.303 1076.24 1322.21 1126.88 1463.66 1047.88C1605.1 968.874 1595.49 440.73 1699.22 449.91C1857.78 463.796 2362.21 1014.86 2362.21 1014.86" stroke="#9C4ECF"/>
<path d="M251.196 1509.48C251.196 1509.48 471.651 1061.42 620.145 1067.1C768.639 1072.78 1330.55 1123.43 1471.99 1044.42C1613.44 965.415 1606.43 439.494 1710.2 448.543C1868.76 462.429 2365.49 1005.01 2365.49 1005.01" stroke="#994ED2"/>
<path d="M258.163 1508.18C258.163 1508.18 479.987 1057.96 628.441 1063.77C776.935 1069.45 1338.84 1120.1 1480.29 1041.09C1621.74 962.088 1617.37 438.259 1721.14 447.307C1879.7 461.193 2368.83 995.462 2368.83 995.462" stroke="#974DD5"/>
<path d="M265.038 1506.7C265.038 1506.7 488.192 1054.47 636.687 1060.14C785.141 1065.95 1347.09 1116.47 1488.5 1037.59C1629.9 958.72 1628.36 436.892 1732.13 445.94C1890.69 459.826 2372.08 985.74 2372.08 985.74" stroke="#944DD8"/>
<path d="M272.004 1505.4C272.004 1505.4 496.489 1051.14 644.983 1056.82C793.477 1062.5 1355.42 1113.01 1496.83 1034.14C1638.24 955.262 1639.34 435.525 1743.07 444.704C1901.63 458.591 2375.32 976.02 2375.32 976.02" stroke="#914CDB"/>
<path d="M279.011 1503.96C279.011 1503.96 504.734 1047.51 653.228 1053.19C801.683 1059 1363.63 1109.51 1505.04 1030.64C1646.44 951.764 1650.32 434.159 1754.05 443.338C1912.61 457.224 2378.7 966.339 2378.7 966.339" stroke="#8E4BDE"/>
<path d="M285.846 1502.62C285.846 1502.62 512.9 1044.14 661.394 1049.82C809.888 1055.5 1371.79 1106.15 1513.24 1027.14C1654.69 948.136 1661.14 432.883 1764.91 441.931C1923.47 455.818 2381.82 956.578 2381.82 956.578" stroke="#8B4BE1"/>
<path d="M292.852 1501.18C292.852 1501.18 521.236 1040.68 669.73 1046.36C818.224 1052.04 1380.13 1102.69 1521.58 1023.68C1663.03 944.678 1672.12 431.516 1775.89 440.565C1934.45 454.451 2385.06 946.857 2385.06 946.857" stroke="#884AE4"/>
<path d="M299.819 1499.88C299.819 1499.88 529.572 1037.23 678.066 1042.91C826.56 1048.58 1388.47 1099.23 1529.91 1020.22C1671.36 941.219 1683.1 430.15 1786.83 439.329C1945.39 453.215 2388.31 937.136 2388.31 937.136" stroke="#864AE7"/>
<path d="M306.825 1498.44C306.825 1498.44 537.908 1033.77 686.402 1039.45C834.897 1045.13 1396.67 1095.73 1538.08 1016.86C1679.49 937.983 1694.05 428.914 1797.82 437.962C1956.38 451.848 2391.69 927.455 2391.69 927.455" stroke="#8349EA"/>
<path d="M313.66 1497.1C313.66 1497.1 545.983 1030.23 694.437 1036.04C842.931 1041.72 1404.84 1092.36 1546.29 1013.36C1687.73 934.354 1705.03 427.547 1808.76 436.726C1967.32 450.612 2394.9 917.865 2394.9 917.865" stroke="#8049ED"/>
<path d="M320.666 1495.66C320.666 1495.66 554.319 1026.77 702.813 1032.45C851.268 1038.26 1413.21 1088.78 1554.62 1009.9C1696.03 931.026 1715.97 426.311 1819.61 435.32C1978.17 449.206 2398.05 907.974 2398.05 907.974" stroke="#7D48F0"/>
<path d="M327.633 1494.36C327.633 1494.36 562.615 1023.44 711.11 1029.12C859.604 1034.8 1421.51 1085.45 1562.96 1006.44C1704.4 927.438 1726.96 424.945 1830.69 434.124C1989.25 448.01 2401.52 898.463 2401.52 898.463" stroke="#7A47F3"/>
<path d="M334.508 1492.88C334.508 1492.88 570.861 1019.82 719.315 1025.63C867.809 1031.3 1429.72 1081.95 1571.16 1002.95C1712.57 924.07 1737.81 423.538 1841.54 432.718C2000.1 446.604 2404.64 888.702 2404.64 888.702" stroke="#7747F6"/>
<path d="M341.475 1491.58C341.475 1491.58 579.157 1016.49 727.651 1022.17C876.146 1027.85 1438.05 1078.49 1579.5 999.487C1720.95 920.482 1748.88 422.342 1852.65 431.391C2011.22 445.277 2408.05 878.891 2408.05 878.891" stroke="#7546F9"/>
<path d="M348.48 1490.14C348.48 1490.14 587.363 1012.99 735.857 1018.67C884.351 1024.35 1446.26 1074.99 1587.71 995.989C1729.11 917.114 1759.74 420.936 1863.51 429.984C2022.07 443.87 2411.17 869.13 2411.17 869.13" stroke="#7246FC"/>
<path d="M355.447 1488.83C355.447 1488.83 595.699 1009.53 744.193 1015.21C892.687 1020.89 1454.59 1071.54 1596.04 992.531C1737.49 913.525 1770.72 419.569 1874.45 428.749C2033.01 442.635 2414.51 859.58 2414.51 859.58" stroke="#6F45FF"/>
</g>
</svg>
