<svg width="2461" height="2127" viewBox="0 0 2461 2127" fill="none" xmlns="http://www.w3.org/2000/svg">
<g opacity="0.4">
<path d="M2460.48 553.61C2460.48 553.61 2298.48 931.8 2149.89 930.51C2001.29 929.22 1438.23 895.365 1299.21 978.383C1160.2 1061.4 1281.45 1661.08 1177.49 1654.97C1018.59 1645.78 220.509 824.489 220.509 824.489" stroke="#FF6365"/>
<path d="M2453.52 555.252C2453.52 555.252 2290.35 935.67 2141.79 934.249C1993.19 932.96 1430 899.068 1290.98 982.086C1151.97 1065.1 1270.54 1662.64 1166.55 1656.66C1007.65 1647.47 217.419 834.266 217.419 834.266" stroke="#FC6268"/>
<path d="M2446.73 556.798C2446.73 556.798 2282.29 939.277 2133.69 937.988C1985.09 936.698 1421.93 902.675 1282.88 985.824C1143.83 1068.97 1259.61 1664.33 1155.65 1658.22C996.747 1649.03 214.461 844.078 214.461 844.078" stroke="#F9626B"/>
<path d="M2439.77 558.44C2439.77 558.44 2274.05 942.98 2125.46 941.69C1976.86 940.401 1413.7 906.377 1274.65 989.527C1135.6 1072.68 1248.67 1666.02 1144.71 1659.91C985.809 1650.72 211.502 853.89 211.502 853.89" stroke="#F7616E"/>
<path d="M2432.84 559.951C2432.84 559.951 2265.82 946.683 2117.26 945.262C1968.63 944.104 1405.47 910.081 1266.46 993.098C1127.44 1076.12 1237.77 1667.58 1133.81 1661.47C974.906 1652.27 208.58 863.571 208.58 863.571" stroke="#F46171"/>
<path d="M2425.88 561.592C2425.88 561.592 2257.73 950.421 2109 949.096C1960.57 947.711 1397.37 913.819 1258.36 996.837C1119.34 1079.85 1226.83 1669.27 1122.87 1663.16C963.968 1653.96 205.454 873.479 205.454 873.479" stroke="#F16074"/>
<path d="M2419.09 563.139C2419.09 563.139 2249.66 954.029 2101.07 952.739C1952.34 951.414 1389.14 917.522 1250.13 1000.54C1111.11 1083.56 1215.93 1670.83 1111.93 1664.85C953.031 1655.66 202.497 883.292 202.497 883.292" stroke="#EE5F77"/>
<path d="M2412.13 564.781C2412.13 564.781 2241.4 957.864 2092.8 956.574C1944.2 955.285 1381.04 921.262 1241.99 1004.41C1102.94 1087.56 1205.08 1672.69 1101.09 1666.71C942.188 1657.51 199.634 893.273 199.634 893.273" stroke="#EB5F7A"/>
<path d="M2405.2 566.291C2405.2 566.291 2233.2 961.435 2084.61 960.145C1936.01 958.856 1372.85 924.833 1233.8 1007.98C1094.75 1091.13 1194.05 1674.21 1090.09 1668.1C931.189 1658.9 196.447 902.881 196.447 902.881" stroke="#E85E7D"/>
<path d="M2398.37 567.97C2398.37 567.97 2225.1 965.174 2076.51 963.884C1927.91 962.595 1364.75 928.571 1225.7 1011.72C1086.65 1094.87 1183.24 1675.94 1079.28 1669.83C920.383 1660.63 193.621 912.73 193.621 912.73" stroke="#E65E80"/>
<path d="M2391.45 569.48C2391.45 569.48 2217.01 968.912 2068.28 967.587C1919.68 966.297 1356.52 932.274 1217.47 1015.42C1078.42 1098.57 1172.34 1677.5 1068.35 1671.52C909.445 1662.32 190.663 922.542 190.663 922.542" stroke="#E35D83"/>
<path d="M2384.49 571.122C2384.49 571.122 2208.78 972.616 2060.18 971.327C1911.58 970.037 1348.42 936.014 1209.41 1019.03C1070.39 1102.05 1161.44 1679.06 1057.44 1673.08C898.543 1663.88 187.706 932.355 187.706 932.355" stroke="#E05D86"/>
<path d="M2377.56 572.632C2377.56 572.632 2200.54 976.319 2051.98 974.898C1903.39 973.608 1340.23 939.585 1201.18 1022.73C1062.13 1105.88 1150.5 1680.75 1046.54 1674.63C887.64 1665.44 184.651 942 184.651 942" stroke="#DD5C89"/>
<path d="M2370.73 574.31C2370.73 574.31 2192.45 980.058 2043.85 978.768C1895.25 977.478 1332.09 943.455 1193.04 1026.6C1053.99 1109.75 1139.66 1682.6 1035.7 1676.49C876.798 1667.3 181.789 951.98 181.789 951.98" stroke="#DA5B8C"/>
<path d="M2363.81 575.821C2363.81 575.821 2184.25 983.629 2035.65 982.339C1887.06 981.049 1323.9 947.026 1184.85 1030.18C1045.8 1113.33 1128.79 1684.03 1024.8 1678.05C865.896 1668.86 178.831 961.793 178.831 961.793" stroke="#D75B8F"/>
<path d="M2356.85 577.462C2356.85 577.462 2176.12 987.499 2027.56 986.078C1878.96 984.788 1315.8 950.765 1176.75 1033.91C1037.7 1117.06 1117.85 1685.72 1013.86 1679.74C854.957 1670.55 175.741 971.569 175.741 971.569" stroke="#D55A92"/>
<path d="M2350.06 579.009C2350.06 579.009 2168.05 991.107 2019.46 989.817C1870.73 988.492 1307.57 954.468 1168.52 1037.62C1029.47 1120.77 1106.91 1687.41 1002.96 1681.3C844.055 1672.11 172.818 981.25 172.818 981.25" stroke="#D25A95"/>
<path d="M2343.1 580.651C2343.1 580.651 2159.82 994.809 2011.23 993.52C1862.63 992.23 1299.47 958.207 1160.46 1041.22C1021.44 1124.24 1096.01 1688.97 992.054 1682.86C833.153 1673.66 169.86 991.062 169.86 991.062" stroke="#CF5998"/>
<path d="M2336.17 582.161C2336.17 582.161 2151.59 998.512 2003 997.222C1854.4 995.933 1291.24 961.909 1152.19 1045.06C1013.14 1128.21 1085.04 1690.79 981.08 1684.68C822.178 1675.49 166.866 1001.01 166.866 1001.01" stroke="#CC589B"/>
<path d="M2329.21 583.803C2329.21 583.803 2143.36 1002.21 1994.77 1000.93C1846.34 999.54 1283.14 965.649 1144.13 1048.67C1005.11 1131.68 1074.3 1692.25 970.31 1686.28C811.408 1677.08 163.944 1010.69 163.944 1010.69" stroke="#C9589E"/>
<path d="M2322.42 585.35C2322.42 585.35 2135.43 1005.86 1986.84 1004.57C1838.11 1003.24 1274.91 969.351 1135.9 1052.37C996.882 1135.39 1063.23 1693.91 959.24 1687.93C800.338 1678.73 160.854 1020.46 160.854 1020.46" stroke="#C757A1"/>
<path d="M2315.46 586.992C2315.46 586.992 2127.17 1009.69 1978.57 1008.4C1830.01 1006.98 1266.81 973.09 1127.8 1056.11C988.783 1139.13 1052.43 1695.64 948.469 1689.52C789.567 1680.33 158.028 1030.31 158.028 1030.31" stroke="#C457A4"/>
<path d="M2308.53 588.503C2308.53 588.503 2118.97 1013.26 1970.38 1011.97C1821.78 1010.69 1258.62 976.662 1119.57 1059.81C980.518 1142.96 1041.49 1697.33 937.531 1691.22C778.63 1682.02 154.938 1040.09 154.938 1040.09" stroke="#C156A7"/>
<path d="M2301.7 590.18C2301.7 590.18 2110.84 1017.13 1962.28 1015.71C1813.68 1014.42 1250.52 980.401 1111.47 1063.55C972.419 1146.7 1030.59 1698.89 926.592 1692.91C767.691 1683.71 151.979 1049.9 151.979 1049.9" stroke="#BE55AA"/>
<path d="M2294.78 591.691C2294.78 591.691 2102.64 1020.71 1954.05 1019.42C1805.45 1018.13 1242.29 984.104 1103.28 1067.12C964.26 1150.14 1019.68 1700.44 915.69 1694.47C756.789 1685.27 149.021 1059.71 149.021 1059.71" stroke="#BB55AD"/>
<path d="M2287.82 593.333C2287.82 593.333 2094.54 1024.45 1945.95 1023.16C1797.39 1021.73 1234.19 987.843 1095.18 1070.86C956.162 1153.88 1008.88 1702.17 904.92 1696.06C746.018 1686.86 146.231 1069.43 146.231 1069.43" stroke="#B854B0"/>
<path d="M2280.89 594.843C2280.89 594.843 2086.31 1028.15 1937.75 1026.73C1789.16 1025.44 1226 991.414 1086.95 1074.56C947.895 1157.71 997.807 1703.83 893.85 1697.71C734.948 1688.52 143.009 1079.17 143.009 1079.17" stroke="#B654B4"/>
<path d="M2274.06 596.521C2274.06 596.521 2078.22 1031.89 1929.62 1030.6C1781.06 1029.18 1217.86 995.285 1078.85 1078.3C939.833 1161.32 986.87 1705.52 882.912 1699.4C724.011 1690.21 140.016 1089.12 140.016 1089.12" stroke="#B353B7"/>
<path d="M2267.14 598.031C2267.14 598.031 2070.02 1035.46 1921.42 1034.17C1772.83 1032.88 1209.67 998.855 1070.62 1082C931.566 1165.15 976.098 1707.11 872.105 1701.13C713.204 1691.94 137.189 1098.96 137.189 1098.96" stroke="#B053BA"/>
<path d="M2260.18 599.674C2260.18 599.674 2061.76 1039.29 1913.16 1038C1764.56 1036.71 1201.4 1002.69 1062.35 1085.84C923.301 1168.99 965.161 1708.8 861.203 1702.69C702.302 1693.49 134.267 1108.65 134.267 1108.65" stroke="#AD52BD"/>
<path d="M2253.25 601.184C2253.25 601.184 2053.69 1042.9 1905.1 1041.61C1756.5 1040.32 1193.34 1006.3 1054.29 1089.45C915.238 1172.6 954.258 1710.36 850.265 1704.38C691.363 1695.18 131.141 1118.55 131.141 1118.55" stroke="#AA51C0"/>
<path d="M2246.46 602.731C2246.46 602.731 2045.63 1046.51 1897.03 1045.22C1748.4 1044.06 1185.24 1010.04 1046.23 1093.05C907.211 1176.07 943.452 1712.09 839.495 1705.98C680.593 1696.78 128.351 1128.27 128.351 1128.27" stroke="#A751C3"/>
<path d="M2239.5 604.373C2239.5 604.373 2037.36 1050.34 1888.77 1049.05C1740.17 1047.76 1177.01 1013.74 1037.96 1096.89C898.909 1180.04 932.382 1713.74 828.424 1707.63C669.523 1698.43 125.261 1138.05 125.261 1138.05" stroke="#A550C6"/>
<path d="M2232.58 605.883C2232.58 605.883 2029.17 1053.91 1880.57 1052.62C1731.97 1051.33 1168.91 1017.48 1029.9 1100.5C890.882 1183.51 921.479 1715.3 817.486 1709.32C658.584 1700.12 122.134 1147.96 122.134 1147.96" stroke="#A250C9"/>
<path d="M2225.75 607.561C2225.75 607.561 2021.03 1057.78 1872.47 1056.36C1723.88 1055.07 1160.72 1021.05 1021.67 1104.2C882.616 1187.35 910.673 1717.03 806.716 1710.91C647.814 1701.72 119.345 1157.67 119.345 1157.67" stroke="#9F4FCC"/>
<path d="M2218.82 609.072C2218.82 609.072 2012.97 1061.39 1864.37 1060.1C1715.78 1058.81 1152.62 1024.79 1013.57 1107.94C874.517 1191.09 899.735 1718.72 795.777 1712.61C636.876 1703.41 116.386 1167.49 116.386 1167.49" stroke="#9C4ECF"/>
<path d="M2211.86 610.713C2211.86 610.713 2004.74 1065.09 1856.14 1063.8C1707.55 1062.51 1144.39 1028.49 1005.34 1111.64C866.287 1194.79 888.833 1720.27 784.839 1714.3C625.938 1705.1 113.392 1177.43 113.392 1177.43" stroke="#994ED2"/>
<path d="M2204.94 612.223C2204.94 612.223 1996.51 1068.8 1847.95 1067.37C1699.35 1066.08 1136.19 1032.06 997.143 1115.21C858.092 1198.36 877.93 1721.83 773.936 1715.85C615.035 1706.66 110.337 1187.07 110.337 1187.07" stroke="#974DD5"/>
<path d="M2198.11 613.902C2198.11 613.902 1988.41 1072.54 1839.82 1071.25C1691.25 1069.82 1128.06 1035.93 989.045 1118.95C850.03 1201.97 866.992 1723.52 762.998 1717.54C604.097 1708.35 107.379 1196.89 107.379 1196.89" stroke="#944DD8"/>
<path d="M2191.18 615.412C2191.18 615.412 1980.22 1076.11 1831.62 1074.82C1683.02 1073.53 1119.83 1039.64 980.815 1122.65C841.799 1205.67 856.054 1725.21 752.096 1719.1C593.195 1709.91 104.421 1206.7 104.421 1206.7" stroke="#914CDB"/>
<path d="M2184.22 617.054C2184.22 617.054 1972.08 1079.98 1823.49 1078.69C1674.93 1077.27 1111.73 1043.37 972.716 1126.39C833.701 1209.41 845.115 1726.9 741.158 1720.79C582.256 1711.6 101.331 1216.48 101.331 1216.48" stroke="#8E4BDE"/>
<path d="M2177.43 618.601C2177.43 618.601 1964.02 1083.58 1815.42 1082.29C1666.83 1081.01 1103.67 1046.98 964.618 1130.13C825.566 1213.28 834.345 1728.5 730.352 1722.52C571.45 1713.32 98.5052 1226.32 98.5052 1226.32" stroke="#8B4BE1"/>
<path d="M2170.47 620.243C2170.47 620.243 1955.79 1087.29 1807.19 1086C1658.6 1084.71 1095.44 1050.69 956.388 1133.83C817.336 1216.98 823.407 1730.19 719.414 1724.21C560.512 1715.02 95.5473 1236.14 95.5473 1236.14" stroke="#884AE4"/>
<path d="M2163.54 621.752C2163.54 621.752 1947.56 1090.99 1798.96 1089.7C1650.37 1088.41 1087.21 1054.39 948.157 1137.54C809.105 1220.69 812.468 1731.88 708.511 1725.77C549.609 1716.57 92.5886 1245.95 92.5886 1245.95" stroke="#864AE7"/>
<path d="M2156.58 623.396C2156.58 623.396 1939.33 1094.69 1790.73 1093.4C1642.14 1092.11 1079.11 1058.13 940.094 1141.14C801.079 1224.16 801.566 1733.44 697.573 1727.46C538.671 1718.26 89.4984 1255.73 89.4984 1255.73" stroke="#8349EA"/>
<path d="M2149.79 624.942C2149.79 624.942 1931.36 1098.47 1782.8 1097.05C1634.21 1095.76 1071.05 1061.73 931.996 1144.88C792.945 1228.03 790.628 1735.13 686.671 1729.02C527.769 1719.82 86.5769 1265.41 86.5769 1265.41" stroke="#8049ED"/>
<path d="M2142.83 626.583C2142.83 626.583 1923.13 1102.17 1774.54 1100.88C1625.97 1099.46 1062.78 1065.57 923.766 1148.59C784.75 1231.6 779.726 1736.69 675.864 1730.74C516.963 1721.55 83.7148 1275.39 83.7148 1275.39" stroke="#7D48F0"/>
<path d="M2135.91 628.093C2135.91 628.093 1914.94 1105.74 1766.34 1104.45C1617.74 1103.16 1054.59 1069.14 915.535 1152.29C776.484 1235.44 768.787 1738.38 664.83 1732.27C505.928 1723.07 80.5284 1285 80.5284 1285" stroke="#7A47F3"/>
<path d="M2129.08 629.772C2129.08 629.772 1906.8 1109.61 1758.24 1108.19C1609.65 1106.9 1046.49 1072.88 907.437 1156.03C768.421 1239.05 757.981 1740.11 654.024 1733.99C495.123 1724.8 77.7025 1294.84 77.7025 1294.84" stroke="#7747F6"/>
<path d="M2122.15 631.282C2122.15 631.282 1898.61 1113.18 1750.01 1111.89C1601.41 1110.6 1038.26 1076.58 899.205 1159.73C760.154 1242.88 746.946 1741.63 642.953 1735.65C484.052 1726.45 74.5756 1304.75 74.5756 1304.75" stroke="#7546F9"/>
<path d="M2115.19 632.924C2115.19 632.924 1890.51 1116.92 1741.91 1115.63C1593.32 1114.34 1030.16 1080.32 891.107 1163.47C752.092 1246.49 736.14 1743.35 632.147 1737.37C473.245 1728.18 71.7497 1314.6 71.7497 1314.6" stroke="#7246FC"/>
<path d="M2108.27 634.435C2108.27 634.435 1882.28 1120.63 1733.68 1119.34C1585.09 1118.05 1021.93 1084.02 882.877 1167.17C743.826 1250.32 725.202 1745.04 621.245 1738.93C462.343 1729.74 68.6957 1324.25 68.6957 1324.25" stroke="#6F45FF"/>
</g>
</svg>
