<svg width="540" height="80" viewBox="0 0 540 80" fill="none" xmlns="http://www.w3.org/2000/svg">
<g clip-path="url(#clip0)">
<path d="M-101 284.229C-101 284.229 -38.0719 63.1905 44.6072 53.3513C127.286 43.5121 277.334 216.804 348.683 160.896C420.032 104.988 565.639 -344.717 618.615 -369.125C680.701 -397.651 751.897 -428.922 889.695 -319.852C995.035 -236.486 1059.88 -139.467 1146.92 -174.934" stroke="#1C0E40"/>
<path d="M-97.3255 282.856C-97.3255 282.856 -33.8616 60.597 48.8175 50.6815C131.497 40.8423 283.534 214.211 354.884 158.226C425.85 102.547 568.089 -344.794 621.294 -370.803C656.586 -388.041 695.246 -405.202 747.839 -396.049C786.882 -389.108 833.045 -368.057 891.226 -322.903C998.25 -239.918 1062.25 -147.552 1147.61 -182.332" stroke="#1E0F44"/>
<path d="M-93.5744 281.483C-93.5744 281.483 -29.5746 57.9274 53.181 48.0881C135.937 38.2489 289.888 211.694 361.161 155.709C431.821 100.335 570.538 -344.641 623.973 -372.328C658.806 -390.329 697.313 -407.414 749.6 -398.109C788.872 -391.015 834.728 -369.811 892.68 -325.726C1001.39 -243.046 1064.62 -155.484 1148.22 -189.502" stroke="#1F1047"/>
<path d="M-89.8229 280.111C-89.8229 280.111 -25.2107 55.335 57.4685 45.4195C140.148 35.5803 296.166 209.025 367.515 153.117C437.793 98.0478 573.065 -344.564 626.73 -373.929C661.026 -392.692 699.457 -409.701 751.437 -400.243C790.94 -392.997 836.49 -371.641 894.289 -328.623C1004.76 -246.325 1067.07 -163.416 1148.99 -196.747" stroke="#21114B"/>
<path d="M-86.1481 278.739C-86.1481 278.739 -21 52.6663 61.6792 42.8271C144.358 32.9879 302.367 206.509 373.716 150.601C443.687 95.7605 575.438 -344.411 629.333 -375.454C663.17 -394.903 701.447 -411.912 753.122 -402.378C792.854 -394.98 838.174 -373.547 895.667 -331.52C1007.9 -249.527 1069.29 -171.347 1149.52 -203.992" stroke="#23124F"/>
<path d="M-82.3967 277.366C-82.3967 277.366 -16.7127 50.0728 65.9665 40.1574C148.646 30.2419 308.645 203.915 379.994 148.007C449.582 93.4721 577.965 -344.258 632.012 -377.056C665.314 -397.268 703.515 -414.201 754.883 -404.514C794.844 -396.963 839.935 -375.454 897.198 -334.495C1011.19 -252.883 1071.67 -179.356 1150.21 -211.315" stroke="#241353"/>
<path d="M-78.6459 276.068C-78.6459 276.068 -12.426 47.4783 70.2531 37.6391C152.932 27.7236 314.922 201.321 386.271 145.413C455.553 91.1064 580.414 -344.107 634.768 -378.659C667.61 -399.481 705.658 -416.49 756.72 -406.651C796.911 -398.947 841.772 -377.362 898.729 -337.395C1014.56 -256.164 1074.12 -187.29 1150.9 -218.562" stroke="#261456"/>
<path d="M-74.9709 274.695C-74.9709 274.695 -8.21515 44.8849 74.464 34.9694C157.143 25.054 321.2 198.804 392.549 142.896C461.448 88.8944 582.864 -343.878 637.448 -380.184C669.754 -401.693 707.725 -418.626 758.481 -408.71C798.902 -400.854 843.533 -379.193 900.184 -340.217C1017.85 -259.292 1076.41 -195.146 1151.51 -225.808" stroke="#27165A"/>
<path d="M-71.2203 273.322C-71.2203 273.322 -3.92864 42.2152 78.7505 32.376C161.43 22.5367 327.477 196.21 398.826 140.302C467.343 86.5298 585.237 -343.65 640.127 -381.786C671.973 -403.905 709.791 -420.914 760.241 -410.922C800.892 -402.838 845.37 -381.176 901.714 -343.192C1021.22 -262.648 1078.79 -203.231 1152.2 -233.13" stroke="#29175E"/>
<path d="M-67.4692 271.95C-67.4692 271.95 0.358332 39.6228 83.114 29.7073C165.793 19.8681 333.831 193.618 405.18 137.71C473.39 84.2425 587.763 -343.42 642.882 -383.463C674.27 -406.192 711.858 -423.201 762.078 -413.133C802.958 -404.896 847.207 -383.234 903.245 -346.166C1024.58 -266.003 1081.16 -211.239 1152.89 -240.451" stroke="#2B1862"/>
<path d="M-63.7947 270.577C-63.7947 270.577 4.64521 36.9531 87.3244 27.1139C170.004 17.2747 340.032 191.101 411.381 135.193C479.208 82.0304 590.213 -343.115 645.562 -384.989C676.49 -408.328 713.925 -425.413 763.839 -415.193C804.949 -406.803 849.044 -385.065 904.776 -348.988C1028.03 -269.207 1083.61 -219.095 1153.58 -247.621" stroke="#2C1965"/>
<path d="M-60.0429 269.202C-60.0429 269.202 8.93293 34.2815 91.6121 24.4423C174.291 14.6031 346.31 188.505 417.659 132.597C485.18 79.6639 592.663 -342.812 648.242 -386.593C678.711 -410.542 715.993 -427.627 765.6 -417.331C806.94 -408.712 850.882 -387.05 906.231 -351.965C1031.32 -272.565 1085.91 -227.106 1154.19 -254.945" stroke="#2E1A69"/>
<path d="M-56.2927 267.832C-56.2927 267.832 13.2191 31.691 95.8982 21.8518C178.577 12.0126 352.586 185.915 423.935 130.007C491.074 77.3785 595.112 -342.504 650.92 -388.192C680.93 -412.675 718.059 -429.913 767.36 -419.54C808.929 -410.768 852.719 -389.107 907.761 -354.936C1034.77 -275.918 1088.28 -235.112 1154.88 -262.265" stroke="#301B6D"/>
<path d="M-52.6174 266.46C-52.6174 266.46 17.4302 29.0223 100.109 19.1831C182.789 9.34386 358.864 183.322 430.213 127.414C496.969 75.0149 597.562 -342.198 653.6 -389.792C683.15 -414.886 720.126 -432.124 769.121 -421.675C810.92 -412.751 854.556 -391.089 909.217 -357.834C1038.21 -279.273 1090.57 -243.12 1155.49 -269.51" stroke="#311C71"/>
<path d="M-48.8653 265.084C-48.8653 265.084 21.7182 26.426 104.397 16.5105C187.076 6.67125 365.066 180.726 436.415 124.818C502.865 72.7236 600.013 -341.896 656.204 -391.397C685.295 -417.025 722.118 -434.415 770.806 -423.813C812.835 -414.66 856.395 -393.152 910.672 -360.736C1041.58 -282.556 1092.95 -251.055 1156.11 -276.759" stroke="#331D74"/>
<path d="M-45.1151 263.711C-45.1151 263.711 26.0042 23.7563 108.683 13.9171C191.362 4.07788 371.419 178.133 442.692 122.225C508.835 70.359 602.461 -341.515 658.959 -392.999C687.59 -419.161 724.183 -436.627 772.643 -425.949C814.901 -416.644 858.307 -395.135 912.202 -363.634C1045.1 -285.912 1095.32 -258.988 1156.79 -284.005" stroke="#341E78"/>
<path d="M-41.4397 262.339C-41.4397 262.339 30.2155 21.1637 112.971 11.2482C195.727 1.33275 377.621 175.616 448.97 119.708C514.731 68.1478 604.989 -341.057 661.639 -394.524C689.888 -421.22 726.251 -438.839 774.404 -428.084C816.892 -418.626 860.222 -397.194 913.657 -366.608C1048.55 -289.344 1097.62 -266.996 1157.33 -291.327" stroke="#361F7C"/>
<path d="M-37.6896 260.967C-37.6896 260.967 34.578 18.4951 117.257 8.65593C199.936 -1.18328 383.974 173.024 455.323 117.116C520.777 65.8606 607.59 -340.674 664.394 -396.125C692.26 -423.278 728.394 -441.049 776.24 -430.219C818.958 -420.532 862.211 -399.252 915.264 -369.505C1052.14 -292.699 1100.07 -274.927 1158.1 -298.572" stroke="#382080"/>
<path d="M-33.9375 259.594C-33.9375 259.594 38.8661 15.9017 121.545 5.98618C204.224 -3.92931 390.252 170.431 461.601 114.523C526.673 63.496 610.118 -340.293 667.074 -397.803C694.481 -425.49 730.462 -443.338 778.002 -432.431C820.949 -422.592 864.05 -401.388 916.719 -372.48C1055.67 -296.207 1102.44 -283.012 1158.71 -305.894" stroke="#392183"/>
<path d="M-30.2632 258.221C-30.2632 258.221 43.0762 13.232 125.755 3.39277C208.435 -6.44644 396.453 167.914 467.802 111.929C532.568 61.2077 612.644 -339.835 669.754 -399.405C696.778 -427.549 732.529 -445.626 779.763 -434.643C822.94 -424.575 865.964 -403.523 918.251 -375.455C1059.19 -299.716 1104.81 -291.021 1159.4 -313.216" stroke="#3B2287"/>
<path d="M-26.5119 256.849C-26.5119 256.849 47.3634 10.6395 130.043 0.724037C212.722 -9.19145 402.731 165.321 474.08 109.337C538.462 58.844 615.17 -339.377 672.433 -401.006C699.074 -429.684 734.595 -447.837 781.524 -436.778C824.93 -426.557 867.954 -405.582 919.705 -378.353C1062.71 -303.147 1107.11 -298.952 1160.01 -320.538" stroke="#3D248B"/>
<path d="M-22.7601 255.473C-22.7601 255.473 51.6511 7.96696 134.33 -1.87225C217.009 -11.7115 409.009 162.725 480.358 106.817C544.358 56.6291 617.774 -338.846 675.113 -402.534C701.371 -431.67 736.587 -449.976 783.285 -438.84C826.921 -428.391 869.869 -407.644 921.237 -381.178C1066.31 -306.506 1109.48 -306.811 1160.7 -327.71" stroke="#3E258F"/>
<path d="M-19.0861 254.101C-19.0861 254.101 55.861 5.37456 138.54 -4.54092C221.219 -14.3801 415.209 160.132 486.558 104.224C550.252 54.3417 620.299 -338.388 677.715 -404.135C703.591 -433.729 738.576 -452.187 784.968 -440.975C828.834 -430.373 871.705 -409.779 922.614 -384.151C1069.83 -310.09 1111.78 -314.819 1161.23 -335.032" stroke="#402692"/>
<path d="M-15.3355 252.73C-15.3355 252.73 60.1475 2.70774 142.903 -7.13148C225.659 -16.9707 421.562 157.542 492.911 101.634C556.222 51.98 622.978 -337.851 680.471 -405.734C705.963 -435.785 740.719 -454.472 786.805 -443.184C830.901 -432.353 873.771 -411.912 924.144 -387.123C1073.43 -313.672 1114.15 -322.901 1161.92 -342.351" stroke="#412796"/>
<path d="M-11.6605 251.355C-11.6605 251.355 64.435 0.0361071 147.114 -9.80311C229.793 -19.6423 427.84 154.946 499.113 99.0384C562.117 49.6898 625.581 -337.395 683.15 -407.338C708.26 -437.847 742.787 -456.686 788.566 -445.322C832.892 -434.338 875.686 -414.05 925.676 -390.024C1077.1 -317.183 1116.53 -330.836 1162.61 -349.599" stroke="#43289A"/>
<path d="M-7.90991 249.982C-7.90991 249.982 68.7214 -2.55732 151.401 -12.3965C234.08 -22.2358 434.117 152.429 505.466 96.5212C568.088 47.4014 628.26 -336.786 685.906 -408.863C710.71 -439.83 744.93 -458.822 790.403 -447.381C834.958 -436.169 877.752 -416.109 927.206 -392.846C1080.78 -320.616 1118.98 -338.692 1163.3 -356.769" stroke="#45299E"/>
<path d="M-4.15833 248.609C-4.15833 248.609 73.0089 -5.22696 155.688 -15.0662C238.367 -24.9054 440.395 149.836 511.668 93.9278C573.983 45.1131 630.864 -336.252 688.509 -410.465C712.93 -441.89 746.844 -461.034 792.088 -449.517C836.872 -438.152 879.59 -418.245 928.662 -395.744C1084.37 -324.277 1121.27 -346.625 1163.91 -364.015" stroke="#462AA1"/>
<path d="M-0.483643 247.237C-0.483643 247.237 77.2194 -7.81942 159.899 -17.6586C242.578 -27.4978 446.596 147.243 517.945 91.3354C579.878 42.7495 633.619 -335.717 691.189 -412.066C715.303 -443.948 748.911 -463.245 793.849 -451.728C838.863 -440.134 881.58 -420.532 930.116 -398.795C1088.05 -328.013 1123.57 -354.709 1164.53 -371.413" stroke="#482BA5"/>
<path d="M3.26752 245.864C3.26752 245.864 81.5065 -10.4891 164.186 -20.3283C246.865 -30.1675 452.874 144.65 524.223 88.742C585.849 40.4612 636.299 -335.183 693.944 -413.744C717.676 -446.084 751.054 -465.534 795.686 -453.94C840.93 -442.194 883.647 -422.744 931.723 -401.769C1091.8 -331.751 1126.02 -362.718 1165.29 -378.735" stroke="#4A2CA9"/>
<path d="M7.01959 244.491C7.01959 244.491 85.7944 -13.0825 168.474 -22.9979C251.153 -32.9134 459.152 142.133 530.501 86.1486C591.745 38.1729 639.056 -334.649 696.625 -415.346C720.051 -448.143 753.122 -467.822 797.447 -456.076C842.921 -444.101 885.639 -424.956 933.179 -404.668C1095.48 -335.412 1128.39 -370.726 1165.91 -385.981" stroke="#4B2DAD"/>
<path d="M10.693 243.119C10.693 243.119 90.0037 -15.7513 172.683 -25.5905C255.362 -35.4297 465.352 139.464 536.701 83.5561C597.638 35.8092 641.734 -334.115 699.227 -416.947C722.346 -450.202 755.111 -470.033 799.13 -458.287C844.834 -446.083 887.475 -427.244 934.632 -407.642C1099.15 -339.225 1130.69 -378.734 1166.52 -393.302" stroke="#4D2EB0"/>
<path d="M14.4451 241.746C14.4451 241.746 94.3683 -18.3447 177.047 -28.2602C259.727 -38.1757 471.707 136.947 543.056 81.039C603.611 33.5972 644.567 -333.428 701.984 -418.473C724.72 -452.185 757.179 -472.169 800.969 -460.347C846.902 -447.99 889.543 -429.38 936.165 -410.464C1102.9 -342.962 1133.06 -386.591 1167.21 -400.472" stroke="#4E2FB4"/>
<path d="M18.1952 240.448C18.1952 240.448 98.6542 -20.9391 181.333 -30.7783C264.012 -40.6175 477.983 134.353 549.332 78.4445C609.504 31.2316 647.322 -332.895 704.662 -420.075C727.092 -454.246 759.245 -474.382 802.728 -462.483C848.814 -449.898 891.532 -431.593 937.618 -413.363C1106.65 -346.777 1135.36 -394.524 1167.82 -407.719" stroke="#5031B8"/>
<path d="M21.8701 239.076C21.8701 239.076 102.865 -23.5316 185.544 -33.4471C268.223 -43.2863 484.261 131.836 555.533 75.9283C615.399 29.0205 650.079 -332.208 707.342 -421.6C729.466 -456.152 761.313 -476.517 804.49 -464.542C850.805 -451.728 893.523 -433.727 939.149 -416.261C1110.4 -350.59 1137.81 -402.456 1168.51 -414.964" stroke="#5232BC"/>
<path d="M25.6216 237.703C25.6216 237.703 107.152 -26.2012 189.832 -36.0404C272.511 -45.8796 490.539 129.243 561.888 73.335C621.371 26.6559 652.988 -331.674 710.098 -423.202C731.916 -458.211 763.456 -478.728 806.327 -466.754C852.872 -453.711 895.59 -436.016 940.681 -419.236C1114.23 -354.632 1140.18 -410.54 1169.2 -422.363" stroke="#5333BF"/>
<path d="M29.3728 236.33C29.3728 236.33 111.439 -28.7947 194.119 -38.7102C276.798 -48.5494 496.816 126.65 568.165 70.7415C627.342 24.3676 655.82 -331.064 712.777 -424.804C734.365 -460.271 765.447 -480.941 808.088 -468.89C854.863 -455.694 897.58 -438.228 942.211 -422.134C1118.06 -358.523 1142.56 -418.473 1169.89 -429.609" stroke="#5534C3"/>
<path d="M33.0471 234.957C33.0471 234.957 115.65 -31.4643 198.329 -41.3035C281.008 -51.1427 503.093 124.056 574.366 68.1481C633.16 22.0793 658.653 -330.531 715.38 -426.406C736.662 -462.33 767.437 -483.153 809.772 -471.025C856.776 -457.601 899.494 -440.516 943.589 -425.033C1121.73 -362.565 1144.78 -426.406 1170.42 -436.855" stroke="#5735C7"/>
<path d="M36.7988 233.585C36.7988 233.585 119.937 -34.1331 202.616 -43.9723C285.296 -53.8116 509.295 121.54 580.644 65.5556C639.132 19.7155 661.486 -329.92 718.136 -428.083C739.112 -464.465 769.581 -485.44 811.609 -473.237C858.844 -459.584 901.561 -442.804 945.197 -428.007C1125.64 -366.683 1147.3 -434.414 1171.19 -444.177" stroke="#5836CB"/>
<path d="M40.5498 232.212C40.5498 232.212 124.224 -36.7264 206.98 -46.5656C289.659 -56.4048 515.649 118.947 586.998 63.0385C645.103 17.5036 664.471 -329.233 720.892 -429.608C741.561 -466.448 771.648 -487.576 813.446 -475.372C860.91 -461.49 903.704 -445.092 946.728 -430.905C1129.46 -370.802 1149.67 -442.346 1171.88 -451.422" stroke="#5A37CE"/>
<path d="M44.2248 230.837C44.2248 230.837 128.512 -39.398 211.191 -49.2373C293.87 -59.0765 521.85 116.351 593.199 60.4432C650.998 15.1371 667.304 -328.625 723.495 -431.212C743.935 -468.433 773.638 -489.79 815.131 -477.51C862.825 -463.399 905.619 -447.382 948.183 -433.882C1133.29 -375.075 1151.97 -450.433 1172.49 -458.747" stroke="#5B38D2"/>
<path d="M47.9749 229.464C47.9749 229.464 132.798 -41.9915 215.477 -51.8307C298.156 -61.6699 528.126 113.758 599.475 57.8498C656.891 12.8487 670.212 -328.015 726.173 -432.814C746.307 -470.493 775.704 -492.002 816.891 -479.646C864.738 -465.383 907.608 -449.67 949.637 -436.78C1137.12 -379.27 1154.27 -458.365 1173.1 -465.993" stroke="#5D39D6"/>
<path d="M51.7266 228.092C51.7266 228.092 137.085 -44.6602 219.764 -54.4995C302.443 -64.3387 534.481 111.165 605.753 55.2573C662.863 10.485 673.198 -327.404 728.93 -434.415C748.834 -472.551 777.848 -494.213 818.729 -481.857C866.805 -467.365 909.676 -452.034 951.168 -439.754C1140.95 -383.694 1156.72 -466.373 1173.79 -473.314" stroke="#5F3ADA"/>
<path d="M55.4016 226.719C55.4016 226.719 141.296 -47.2537 223.975 -57.1692C306.654 -67.0846 540.682 108.572 612.031 52.6639C668.758 8.19675 676.107 -326.87 731.61 -436.017C751.208 -474.611 779.839 -496.349 820.49 -483.993C868.796 -469.272 911.666 -454.322 952.7 -442.653C1144.85 -388.041 1159.09 -474.306 1174.48 -480.56" stroke="#603BDD"/>
<path d="M59.1524 225.347C59.1524 225.347 145.583 -49.9224 228.262 -59.7617C310.941 -69.6009 546.959 106.056 618.308 50.1477C674.653 5.98564 679.093 -326.183 734.289 -437.542C753.657 -476.593 781.906 -498.484 822.25 -486.051C870.786 -471.102 913.657 -456.534 954.154 -445.474C1148.68 -392.388 1161.39 -482.161 1175.09 -487.729" stroke="#623CE1"/>
<path d="M62.9044 223.974C62.9044 223.974 149.871 -52.5158 232.55 -62.4313C315.229 -72.3468 553.238 103.462 624.587 47.5543C680.625 3.62109 682.079 -325.573 736.969 -439.143C756.031 -478.653 783.974 -500.696 824.012 -488.187C872.777 -473.009 915.648 -458.898 955.686 -448.449C1152.58 -396.964 1163.76 -490.246 1175.78 -495.051" stroke="#643DE5"/>
<path d="M66.5788 222.602C66.5788 222.602 154.081 -55.1845 236.837 -65.0237C319.592 -74.8629 559.515 100.87 630.864 44.9618C686.519 1.33368 685.065 -324.962 739.648 -440.744C758.481 -480.711 785.964 -502.907 825.772 -490.398C874.767 -474.991 917.638 -461.262 957.14 -451.423C1156.41 -401.616 1166.13 -498.254 1176.39 -502.373" stroke="#653FE9"/>
<path d="M70.33 221.229C70.33 221.229 158.444 -57.7779 241.124 -67.6934C323.803 -77.5326 565.792 98.2765 637.141 42.3684C692.49 -1.03086 688.127 -324.352 742.404 -442.422C761.007 -482.847 788.107 -505.195 827.609 -492.61C876.758 -476.974 919.705 -463.703 958.748 -454.397C1160.39 -406.345 1168.58 -506.263 1177.08 -509.695" stroke="#6740EC"/>
<path d="M74.0802 219.856C74.0802 219.856 162.731 -60.4465 245.41 -70.2858C328.089 -80.125 572.069 95.7604 643.418 39.8523C698.384 -3.24186 691.111 -323.664 745.083 -443.947C763.379 -484.829 790.173 -507.33 829.446 -494.668C878.824 -478.804 921.771 -465.913 960.278 -457.218C1164.3 -411.073 1170.96 -514.118 1177.77 -516.94" stroke="#6841F0"/>
<path d="M77.7549 218.483C77.7549 218.483 166.941 -63.0401 249.62 -72.9556C332.299 -82.8711 578.346 93.1669 649.619 37.2588C704.279 -5.60659 694.097 -323.055 747.686 -445.549C765.752 -486.889 792.087 -509.542 831.13 -496.804C880.738 -480.711 923.608 -468.278 961.656 -460.117C1168.05 -415.879 1173.25 -522.051 1178.31 -524.186" stroke="#6A42F4"/>
<path d="M81.5067 217.11C81.5067 217.11 171.229 -65.7098 253.908 -75.549C336.587 -85.3882 584.625 90.5735 655.897 34.6654C710.174 -7.89493 697.16 -322.445 750.366 -447.151C768.203 -488.948 794.155 -511.678 832.892 -499.017C882.652 -482.542 925.599 -470.719 963.188 -463.092C1171.95 -420.913 1175.63 -530.06 1179 -531.509" stroke="#6C43F8"/>
<path d="M85.1818 215.735C85.1818 215.735 175.44 -68.3052 258.119 -78.2207C340.798 -88.1361 590.826 87.9781 662.175 32.0701C716.146 -10.1852 700.223 -321.913 753.122 -448.755C770.73 -491.01 796.299 -513.892 834.73 -501.154C884.72 -484.527 927.667 -473.086 964.719 -466.069C1175.86 -425.949 1178 -538.147 1179.69 -538.833" stroke="#6D44FB"/>
<path d="M88.932 214.365C88.932 214.365 179.726 -70.9718 262.405 -80.811C345.084 -90.6502 597.102 85.464 668.452 29.5559C739.801 -26.3521 682.997 -554.695 836.413 -503.21C1179.45 -388.191 1180.3 -546 1180.3 -546" stroke="#6F45FF"/>
</g>
<defs>
<clipPath id="clip0">
<rect width="540" height="80" fill="white"/>
</clipPath>
</defs>
</svg>
