<svg width="540" height="80" viewBox="0 0 540 80" fill="none" xmlns="http://www.w3.org/2000/svg">
<g clip-path="url(#clip0)">
<path d="M-232 173.229C-232 173.229 -188.324 19.8152 -130.94 12.9862C-73.5556 6.15716 30.5862 126.432 80.1067 87.6287C129.627 48.8252 230.687 -263.297 267.456 -280.237C310.547 -300.036 359.961 -321.741 455.602 -246.039C528.714 -188.178 573.718 -120.841 634.131 -145.457" stroke="#1C0E40"/>
<path d="M-229.45 172.276C-229.45 172.276 -185.402 18.015 -128.018 11.1331C-70.6334 4.30407 34.8899 124.632 84.4104 85.7757C133.665 47.1309 232.387 -263.35 269.315 -281.402C293.81 -293.366 320.642 -305.277 357.145 -298.925C384.243 -294.107 416.283 -279.497 456.664 -248.157C530.945 -190.561 575.365 -126.453 634.609 -150.593" stroke="#1E0F44"/>
<path d="M-226.846 171.323C-226.846 171.323 -182.427 16.162 -124.989 9.33295C-67.5518 2.50395 39.2998 122.885 88.7672 84.0284C137.809 45.5955 234.088 -263.245 271.175 -282.461C295.351 -294.955 322.077 -306.813 358.367 -300.354C385.624 -295.431 417.452 -280.714 457.674 -250.116C533.123 -192.731 577.012 -131.959 635.034 -155.569" stroke="#1F1047"/>
<path d="M-224.242 170.371C-224.242 170.371 -179.398 14.3628 -122.013 7.4809C-64.6291 0.651899 43.6571 121.033 93.1776 82.2293C141.954 44.0081 235.841 -263.191 273.088 -283.572C296.892 -296.595 323.565 -308.4 359.643 -301.836C387.06 -296.807 418.674 -281.984 458.79 -252.127C535.462 -195.007 578.712 -137.463 635.565 -160.597" stroke="#21114B"/>
<path d="M-221.692 169.419C-221.692 169.419 -176.475 12.5108 -119.091 5.68176C-61.7067 -1.14724 47.961 119.287 97.4815 80.4831C146.046 42.4207 237.489 -263.084 274.895 -284.63C298.38 -298.129 324.946 -309.934 360.812 -303.317C388.388 -298.182 419.843 -283.307 459.746 -254.138C537.64 -197.23 580.253 -142.968 635.937 -165.626" stroke="#23124F"/>
<path d="M-219.088 168.466C-219.088 168.466 -173.5 10.7106 -116.115 3.82868C-58.731 -3.05326 52.3182 117.487 101.839 78.683C150.137 40.8323 239.242 -262.979 276.754 -285.742C299.868 -299.771 326.381 -311.523 362.034 -304.8C389.77 -299.559 421.065 -284.63 460.809 -256.203C539.925 -199.559 581.901 -148.527 636.416 -170.708" stroke="#241353"/>
<path d="M-216.485 167.565C-216.485 167.565 -170.524 8.91027 -113.14 2.08126C-55.7558 -4.80068 56.6749 115.686 106.195 76.8826C154.281 39.1908 240.942 -262.873 278.667 -286.854C301.461 -301.306 327.869 -313.112 363.309 -306.283C391.204 -300.936 422.34 -285.954 461.872 -258.215C542.263 -201.836 583.601 -154.033 636.894 -175.737" stroke="#261456"/>
<path d="M-213.934 166.612C-213.934 166.612 -167.602 7.11014 -110.218 0.228203C-52.8332 -6.65374 61.0321 113.939 110.553 75.1354C158.373 37.6553 242.643 -262.715 280.527 -287.913C302.949 -302.842 329.304 -314.594 364.531 -307.712C392.586 -302.259 423.563 -287.225 462.881 -260.174C544.548 -204.007 585.195 -159.486 637.319 -180.767" stroke="#27165A"/>
<path d="M-211.331 165.659C-211.331 165.659 -164.627 5.25702 -107.242 -1.57199C-49.8581 -8.40099 65.3887 112.139 114.909 73.3353C162.464 36.014 244.289 -262.556 282.386 -289.025C304.49 -304.377 330.738 -316.183 365.753 -309.248C393.967 -303.636 424.837 -288.602 463.944 -262.239C546.885 -206.336 586.842 -165.097 637.797 -185.849" stroke="#29175E"/>
<path d="M-208.728 164.707C-208.728 164.707 -161.651 3.45791 -104.214 -3.42403C-46.8296 -10.253 69.7987 110.34 119.319 71.5362C166.661 34.4266 246.043 -262.397 284.299 -290.189C306.084 -305.965 332.172 -317.77 367.028 -310.782C395.401 -305.065 426.113 -290.03 465.006 -264.302C549.223 -208.665 588.489 -170.655 638.275 -190.93" stroke="#2B1862"/>
<path d="M-206.177 163.754C-206.177 163.754 -158.676 1.60485 -101.292 -5.22415C-43.9074 -12.0532 74.1024 108.593 123.623 69.789C170.699 32.8912 247.743 -262.185 286.159 -291.248C307.624 -307.447 333.607 -319.305 368.25 -312.212C396.783 -306.388 427.388 -291.301 466.069 -266.261C551.614 -210.888 590.189 -176.108 638.753 -195.907" stroke="#2C1965"/>
<path d="M-203.573 162.8C-203.573 162.8 -155.7 -0.249187 -98.3157 -7.07819C-40.9314 -13.9072 78.4598 106.791 127.98 67.9879C174.844 31.2489 249.444 -261.975 288.019 -292.361C309.166 -308.983 335.042 -320.842 369.472 -313.695C398.165 -307.713 428.663 -292.679 467.079 -268.327C553.899 -213.219 591.783 -181.668 639.179 -200.99" stroke="#2E1A69"/>
<path d="M-200.97 161.849C-200.97 161.849 -152.725 -2.04737 -95.3409 -8.87637C-37.9566 -15.7054 82.816 104.993 132.337 66.1897C178.935 29.6625 251.143 -261.761 289.878 -293.471C310.706 -310.464 336.476 -322.428 370.694 -315.229C399.545 -309.141 429.938 -294.106 468.141 -270.39C556.289 -215.546 593.43 -187.224 639.656 -206.07" stroke="#301B6D"/>
<path d="M-198.42 160.896C-198.42 160.896 -149.802 -3.89947 -92.4181 -10.7285C-35.0338 -17.5575 87.1734 103.194 136.694 64.3905C183.026 28.0221 252.844 -261.549 291.738 -294.582C312.247 -311.999 337.911 -323.963 371.916 -316.71C400.927 -310.516 431.213 -295.482 469.151 -272.401C558.681 -217.875 595.024 -192.782 640.082 -211.099" stroke="#311C71"/>
<path d="M-195.815 159.941C-195.815 159.941 -146.826 -5.70156 -89.442 -12.5835C-32.0577 -19.4125 91.4779 101.392 140.998 62.5884C187.118 26.4318 254.545 -261.339 293.545 -295.696C313.736 -313.483 339.293 -325.553 373.086 -318.195C402.256 -311.842 432.489 -296.913 470.161 -274.415C561.019 -220.153 596.672 -198.29 640.507 -216.13" stroke="#331D74"/>
<path d="M-193.213 158.988C-193.213 158.988 -143.852 -7.5546 -86.4672 -14.3836C-29.083 -21.2126 95.8872 99.5919 145.355 60.7883C191.262 24.7905 256.244 -261.075 295.457 -296.808C315.329 -314.966 340.727 -327.088 374.36 -319.677C403.69 -313.219 433.817 -298.29 471.223 -276.427C563.463 -222.483 598.318 -203.796 640.985 -221.159" stroke="#341E78"/>
<path d="M-190.662 158.036C-190.662 158.036 -140.929 -9.35386 -83.4912 -16.2358C-26.0538 -23.1177 100.192 97.8456 149.712 59.042C195.354 23.2559 257.998 -260.756 297.317 -297.866C316.924 -316.394 342.162 -328.623 375.583 -321.159C405.072 -314.594 435.146 -299.719 472.233 -278.491C565.854 -224.865 599.913 -209.354 641.357 -226.241" stroke="#361F7C"/>
<path d="M-188.059 157.084C-188.059 157.084 -137.901 -11.2059 -80.5165 -18.0349C-23.1322 -24.8639 104.601 96.0465 154.121 57.2429C199.551 21.6686 259.804 -260.491 299.229 -298.977C318.57 -317.823 343.649 -330.157 376.857 -322.64C406.506 -315.917 436.526 -301.147 473.348 -280.501C568.351 -227.193 601.612 -214.858 641.888 -231.269" stroke="#382080"/>
<path d="M-185.455 156.131C-185.455 156.131 -134.925 -13.006 -77.5403 -19.888C-20.1561 -26.7699 108.959 94.2463 158.479 55.4428C203.643 20.0272 261.558 -260.227 301.09 -300.142C320.111 -319.358 345.084 -331.746 378.08 -324.176C407.888 -317.347 437.802 -302.63 474.358 -282.566C570.796 -229.628 603.26 -220.47 642.313 -236.351" stroke="#392183"/>
<path d="M-182.904 155.178C-182.904 155.178 -132.002 -14.8591 -74.6182 -21.6881C-17.2339 -28.5171 113.262 92.4991 162.783 53.6426C207.734 18.4389 263.312 -259.909 302.949 -301.254C321.705 -320.788 346.519 -333.334 379.302 -325.711C409.27 -318.723 439.131 -304.112 475.421 -284.631C573.24 -232.064 604.907 -226.029 642.792 -241.434" stroke="#3B2287"/>
<path d="M-180.301 154.226C-180.301 154.226 -129.027 -16.6583 -71.6427 -23.5402C-14.2584 -30.4222 117.619 90.7 167.14 51.8435C211.825 16.7985 265.065 -259.591 304.809 -302.365C323.299 -322.269 347.953 -334.869 380.524 -327.193C410.651 -320.099 440.512 -305.541 476.43 -286.642C575.684 -234.445 606.501 -231.534 643.217 -246.515" stroke="#3D248B"/>
<path d="M-177.697 153.271C-177.697 153.271 -126.051 -18.5133 -68.6667 -25.3423C-11.2824 -32.1713 121.977 88.8979 171.497 50.0944C215.917 15.2612 266.872 -259.222 306.669 -303.426C324.894 -323.648 349.335 -336.353 381.747 -328.624C412.033 -321.372 441.841 -306.972 477.494 -288.603C578.182 -236.777 608.149 -236.988 643.695 -251.493" stroke="#3E258F"/>
<path d="M-175.147 152.318C-175.147 152.318 -123.129 -20.3124 -65.7448 -27.1943C-8.36056 -34.0233 126.28 87.0988 175.8 48.2952C220.008 13.6738 268.625 -258.904 308.475 -304.536C326.434 -325.076 350.716 -337.887 382.915 -330.106C413.361 -322.747 443.115 -308.454 478.449 -290.667C580.625 -239.264 609.742 -242.546 644.067 -256.575" stroke="#402692"/>
<path d="M-172.544 151.367C-172.544 151.367 -120.154 -22.1636 -62.7166 -28.9926C-5.27923 -35.8216 130.69 85.3006 180.21 46.497C224.152 12.0344 270.484 -258.532 310.387 -305.647C328.081 -326.504 352.204 -339.474 384.19 -331.639C414.795 -324.122 444.55 -309.935 479.512 -292.73C583.122 -241.75 611.389 -248.156 644.545 -261.655" stroke="#412796"/>
<path d="M-169.993 150.413C-169.993 150.413 -117.178 -24.0176 -59.794 -30.8466C-2.40972 -37.6756 135.047 83.4994 184.514 44.6959C228.243 10.445 272.291 -258.215 312.247 -306.759C329.675 -327.935 353.638 -341.01 385.412 -333.123C416.177 -325.499 445.878 -311.418 480.575 -294.742C585.673 -244.187 613.037 -253.663 645.023 -266.685" stroke="#43289A"/>
<path d="M-167.39 149.46C-167.39 149.46 -114.203 -25.8178 -56.819 -32.6468C0.565316 -39.4758 139.403 81.7523 188.924 42.9487C232.387 8.85662 274.15 -257.792 314.16 -307.819C331.375 -329.311 355.126 -342.493 386.687 -334.552C417.611 -326.77 447.313 -312.848 481.637 -296.702C588.223 -246.569 614.736 -259.116 645.501 -271.662" stroke="#45299E"/>
<path d="M-164.786 148.507C-164.786 148.507 -111.227 -27.6708 -53.8432 -34.4998C3.54108 -41.3288 143.761 79.9521 193.228 41.1486C236.479 7.26825 275.957 -257.422 315.967 -308.93C332.916 -330.741 356.454 -344.028 387.856 -336.035C418.94 -328.147 448.588 -314.33 482.647 -298.713C590.72 -249.11 616.331 -264.621 645.926 -276.691" stroke="#462AA1"/>
<path d="M-162.236 147.555C-162.236 147.555 -108.305 -29.47 -50.9208 -36.299C6.46349 -43.128 148.065 78.153 197.585 39.3494C240.57 5.62792 277.87 -257.05 317.826 -310.041C334.563 -332.169 357.889 -345.563 389.078 -337.569C420.321 -329.523 449.97 -315.917 483.656 -300.83C593.271 -251.704 617.925 -270.232 646.351 -281.825" stroke="#482BA5"/>
<path d="M-159.632 146.602C-159.632 146.602 -105.33 -31.323 -47.9454 -38.152C9.43891 -44.9811 152.421 76.3528 201.942 37.5493C244.714 4.03952 279.729 -256.68 319.739 -311.206C336.21 -333.652 359.377 -347.151 390.354 -339.105C421.756 -330.952 451.404 -317.453 484.772 -302.895C595.874 -254.298 619.625 -275.791 646.883 -286.908" stroke="#4A2CA9"/>
<path d="M-157.028 145.648C-157.028 145.648 -102.354 -33.1231 -44.9692 -40.0051C12.415 -46.887 156.779 74.6056 206.3 35.7492C248.806 2.45117 281.643 -256.31 321.599 -312.318C337.858 -335.081 360.812 -348.739 391.576 -340.587C423.138 -332.276 452.786 -318.988 485.782 -304.907C598.425 -256.839 621.273 -281.349 647.308 -291.937" stroke="#4B2DAD"/>
<path d="M-154.478 144.696C-154.478 144.696 -99.432 -34.9753 -42.0477 -41.8043C15.3366 -48.6333 161.082 72.7535 210.602 33.95C252.897 0.810791 283.502 -255.939 323.405 -313.429C339.451 -336.51 362.193 -350.274 392.744 -342.122C424.465 -333.652 454.061 -320.576 486.791 -306.971C600.975 -259.485 622.866 -286.907 647.732 -297.018" stroke="#4D2EB0"/>
<path d="M-151.874 143.743C-151.874 143.743 -96.4027 -36.7754 -39.0184 -43.6574C18.3658 -50.5393 165.493 71.0063 215.013 32.2028C257.042 -0.724653 285.468 -255.462 325.319 -314.488C341.099 -337.887 363.628 -351.757 394.02 -343.551C425.9 -334.975 455.496 -322.058 487.854 -308.93C603.579 -262.08 624.514 -292.36 648.211 -301.995" stroke="#4E2FB4"/>
<path d="M-149.271 142.843C-149.271 142.843 -93.428 -38.5757 -36.0438 -45.4047C21.3405 -52.2337 169.849 69.206 219.369 30.4025C261.132 -2.36615 287.38 -255.092 327.177 -315.6C342.745 -339.316 365.062 -353.292 395.241 -345.034C427.228 -336.299 456.876 -323.594 488.863 -310.942C606.182 -264.727 626.107 -297.866 648.636 -307.024" stroke="#5031B8"/>
<path d="M-146.721 141.891C-146.721 141.891 -90.5055 -40.3749 -33.1212 -47.2568C24.263 -54.0858 174.206 67.4598 223.673 28.6563C265.224 -3.90062 289.293 -254.615 329.037 -316.658C344.393 -340.639 366.497 -354.774 396.464 -346.462C428.61 -337.569 458.258 -325.075 489.926 -312.953C608.786 -267.373 627.808 -303.371 649.114 -312.053" stroke="#5232BC"/>
<path d="M-144.117 140.938C-144.117 140.938 -87.5298 -42.2279 -30.1455 -49.0569C27.2388 -55.8859 178.563 65.6597 228.084 26.8561C269.369 -5.54191 291.313 -254.244 330.95 -317.77C346.093 -342.069 367.984 -356.309 397.739 -347.998C430.044 -338.945 459.693 -326.664 490.989 -315.017C611.443 -270.179 629.455 -308.982 649.592 -317.188" stroke="#5333BF"/>
<path d="M-141.513 139.984C-141.513 139.984 -84.5543 -44.0281 -27.17 -50.91C30.2142 -57.739 182.92 63.8595 232.441 25.056C273.513 -7.13031 293.279 -253.821 332.81 -318.882C347.794 -343.498 369.366 -357.844 398.961 -349.48C431.426 -340.322 461.074 -328.199 492.051 -317.029C614.099 -272.879 631.102 -314.488 650.071 -322.217" stroke="#5534C3"/>
<path d="M-138.963 139.031C-138.963 139.031 -81.6322 -45.8811 -24.2479 -52.7101C33.1364 -59.5391 187.277 62.0594 236.744 23.2559C277.551 -8.71869 295.244 -253.451 334.616 -319.994C349.388 -344.928 370.747 -359.38 400.13 -350.963C432.754 -341.646 462.403 -329.788 493.008 -319.041C616.65 -275.685 632.643 -319.994 650.443 -327.247" stroke="#5735C7"/>
<path d="M-136.359 138.079C-136.359 138.079 -78.6564 -47.7333 -21.2721 -54.5623C36.1122 -61.3913 191.581 60.3132 241.102 21.4567C281.696 -10.3591 297.211 -253.027 336.529 -321.158C351.088 -346.41 372.235 -360.968 401.406 -352.497C434.189 -343.022 463.838 -331.375 494.124 -321.105C619.36 -278.543 634.396 -325.552 650.974 -332.328" stroke="#5836CB"/>
<path d="M-133.756 137.126C-133.756 137.126 -75.681 -49.5333 -18.2436 -56.3623C39.1407 -63.1913 195.991 58.5131 245.512 19.7095C285.84 -11.8944 299.283 -252.55 338.442 -322.217C352.788 -347.786 373.67 -362.45 402.681 -353.98C435.623 -344.345 465.325 -332.963 495.186 -323.117C622.016 -281.402 636.043 -331.057 651.452 -337.357" stroke="#5A37CE"/>
<path d="M-131.205 136.172C-131.205 136.172 -72.7053 -51.3874 -15.321 -58.2164C42.0633 -65.0454 200.295 56.712 249.816 17.9084C289.931 -13.5367 301.249 -252.128 340.249 -323.33C354.436 -349.163 375.051 -363.986 403.85 -355.463C436.952 -345.67 466.654 -334.553 496.196 -325.183C624.673 -284.367 637.638 -336.67 651.878 -342.44" stroke="#5B38D2"/>
<path d="M-128.603 135.219C-128.603 135.219 -69.7305 -53.1875 -12.3463 -60.0165C45.038 -66.8455 204.651 54.9118 254.172 16.1083C294.022 -15.1251 303.267 -251.705 342.108 -324.442C356.082 -350.593 376.485 -365.522 405.071 -356.946C438.28 -347.046 468.035 -336.141 497.205 -327.195C627.329 -287.279 639.231 -342.176 652.302 -347.47" stroke="#5D39D6"/>
<path d="M-125.999 134.267C-125.999 134.267 -66.7547 -55.0397 -9.37042 -61.8687C48.0139 -68.6977 209.062 53.1126 258.529 14.3091C298.167 -16.7655 305.34 -251.281 344.021 -325.553C357.836 -352.022 377.973 -367.056 406.347 -358.48C439.715 -348.422 469.47 -337.782 498.268 -329.258C629.986 -290.349 640.932 -347.734 652.78 -352.551" stroke="#5F3ADA"/>
<path d="M-123.448 133.313C-123.448 133.313 -63.8321 -56.8398 -6.44781 -63.7217C50.9365 -70.6037 213.366 51.3125 262.886 12.509C302.258 -18.3539 307.359 -250.911 345.881 -326.665C359.483 -353.451 379.355 -368.539 407.569 -359.963C441.096 -349.746 470.851 -339.37 499.331 -331.27C632.696 -293.367 642.579 -353.24 653.259 -357.581" stroke="#603BDD"/>
<path d="M-120.845 132.361C-120.845 132.361 -60.8568 -58.6919 -3.47254 -65.5209C53.9117 -72.3499 217.723 49.5663 267.243 10.7627C306.349 -19.8884 309.431 -250.433 347.741 -327.723C361.183 -354.827 380.79 -370.02 408.791 -361.391C442.478 -351.016 472.233 -340.904 500.34 -333.228C635.353 -296.384 644.173 -358.692 653.684 -362.556" stroke="#623CE1"/>
<path d="M-118.241 131.408C-118.241 131.408 -57.8809 -60.492 -0.496586 -67.374C56.8877 -74.2559 222.08 47.7662 271.6 8.96262C310.494 -21.5297 311.504 -250.01 349.601 -328.835C362.831 -356.257 382.225 -371.556 410.013 -362.874C443.86 -352.339 473.614 -342.546 501.403 -335.293C638.063 -299.56 645.82 -364.303 654.162 -367.638" stroke="#643DE5"/>
<path d="M-115.69 130.456C-115.69 130.456 -54.9586 -62.3441 2.4788 -69.1731C59.9162 -76.0021 226.437 45.967 275.957 7.16342C314.586 -23.1171 313.576 -249.586 351.46 -329.946C364.531 -357.685 383.606 -373.09 411.236 -364.408C445.241 -353.715 474.996 -344.186 502.413 -337.357C640.719 -302.789 647.467 -369.861 654.587 -372.72" stroke="#653FE9"/>
<path d="M-113.087 129.503C-113.087 129.503 -51.9301 -64.1442 5.45422 -71.0262C62.8385 -77.8552 230.794 44.1669 280.314 5.36332C318.73 -24.7584 315.701 -249.163 353.373 -331.111C366.284 -359.168 385.094 -374.678 412.511 -365.944C446.622 -355.091 476.43 -345.88 503.528 -339.422C643.482 -306.071 649.168 -375.42 655.065 -377.802" stroke="#6740EC"/>
<path d="M-110.484 128.551C-110.484 128.551 -48.9552 -65.9963 8.42908 -72.8253C65.8134 -79.6543 235.15 42.4207 284.671 3.61715C322.821 -26.2928 317.773 -248.685 355.232 -332.168C367.931 -360.543 386.528 -376.16 413.785 -367.372C448.056 -356.361 477.864 -347.415 504.591 -341.38C646.192 -309.352 650.814 -380.871 655.543 -382.83" stroke="#6841F0"/>
<path d="M-107.933 127.598C-107.933 127.598 -46.0328 -67.7965 11.3515 -74.6785C68.7357 -81.5604 239.507 40.6205 288.974 1.81694C326.912 -27.9342 319.845 -248.262 357.039 -333.281C369.578 -361.973 387.856 -377.696 414.954 -368.855C449.385 -357.685 479.14 -349.056 505.547 -343.392C648.795 -312.688 652.408 -386.377 655.915 -387.86" stroke="#6A42F4"/>
<path d="M-105.329 126.645C-105.329 126.645 -43.0569 -69.6496 14.3274 -76.4786C71.7116 -83.3076 243.865 38.8204 293.332 0.0168057C331.004 -29.5226 321.971 -247.839 358.899 -334.393C371.279 -363.403 389.291 -379.178 416.177 -370.39C450.714 -358.956 480.521 -350.75 506.61 -345.457C651.505 -316.182 654.056 -391.936 656.394 -392.942" stroke="#6C43F8"/>
<path d="M-102.779 125.69C-102.779 125.69 -40.1342 -71.4507 17.2501 -78.3326C74.6344 -85.2146 248.169 37.0193 297.689 -1.78429C335.148 -31.1119 324.097 -247.47 360.812 -335.505C373.033 -364.833 390.779 -380.715 417.452 -371.874C452.149 -360.333 481.956 -352.393 507.673 -347.522C654.216 -319.677 655.703 -397.549 656.872 -398.025" stroke="#6D44FB"/>
<path d="M-100.176 124.739C-100.176 124.739 -37.1594 -73.3017 20.2249 -80.1307C77.6091 -86.9597 252.525 35.2741 302.045 -3.52948C351.566 -42.333 312.141 -409.034 418.621 -373.301C656.712 -293.471 657.297 -402.999 657.297 -402.999" stroke="#6F45FF"/>
</g>
<defs>
<clipPath id="clip0">
<rect width="540" height="80" fill="white"/>
</clipPath>
</defs>
</svg>
