<svg width="90" height="90" viewBox="0 0 90 90" fill="none" xmlns="http://www.w3.org/2000/svg">
<circle cx="45" cy="45" r="45" fill="url(#paint0_linear)"/>
<circle cx="45" cy="45" r="40" fill="#1A0E3B"/>
<path d="M31.5833 26.4082L67.2333 50.7499L58.4166 63.7832L22.7666 39.2499L31.5833 26.4082Z" fill="url(#paint1_linear)"/>
<path d="M67.2333 50.7498C64.1666 55.1582 53.8166 53.4332 44.0416 46.5332C34.0749 39.8249 28.7083 30.8165 31.5833 26.4082C34.6499 21.9999 44.9999 23.7249 54.7749 30.6249C64.7416 37.1415 70.1083 46.3415 67.2333 50.7498Z" fill="url(#paint2_linear)"/>
<path d="M58.417 63.5919C55.3503 68.0002 45.0003 66.2752 35.2253 59.3752C25.4503 52.4752 19.892 43.6586 22.9587 39.0586C26.0253 34.6502 36.3753 36.3752 46.1503 43.2752C55.9253 50.1752 61.292 59.1836 58.417 63.5919Z" fill="url(#paint3_linear)"/>
<path d="M67.2334 50.7498L58.4167 63.7831C55.3501 68.1914 45.0001 66.2748 35.2251 59.5664C33.3084 58.2248 31.5834 56.8831 29.8584 55.3498C31.2001 55.1581 32.9251 54.3914 34.6501 52.4748C37.7167 49.2164 39.2501 48.4498 40.5917 48.6414C41.9334 48.6414 43.4667 49.9831 45.9584 53.2414C48.4501 56.4998 51.9001 57.4581 54.0084 55.7331C54.2001 55.5414 54.3917 55.5414 54.5834 55.3498C56.3084 54.0081 56.8834 53.4331 60.1417 47.2998C60.9084 45.7664 63.5917 43.2748 67.2334 44.4248C68.1917 46.9164 68.1917 49.0248 67.2334 50.7498Z" fill="#0E0F23"/>
<path fill-rule="evenodd" clip-rule="evenodd" d="M65.8918 49.9836C63.2085 53.817 53.8168 51.9003 44.8085 45.5753C35.6085 39.2503 30.2418 31.2003 32.9252 27.367C35.6085 23.5336 45.0002 25.4503 54.0085 31.7753C63.0168 38.1003 68.3835 46.1503 65.8918 49.9836ZM57.4585 44.2336C56.1168 46.1503 51.5168 45.192 46.9168 42.1253C42.5085 39.0586 39.8252 35.0336 41.1668 33.117C42.5085 31.2003 47.1085 32.1586 51.7085 35.2253C56.1168 38.292 58.8002 42.317 57.4585 44.2336Z" fill="white"/>
<path d="M30.8165 30.817C30.8165 30.6253 30.6248 30.4336 30.4331 30.6253C30.2415 30.817 30.0498 30.817 30.0498 31.0086C30.2415 31.5836 30.4331 31.967 30.4331 32.3503C30.4331 32.542 30.6248 32.7336 30.8165 32.542C31.0081 32.542 31.1998 32.3503 31.0081 32.1586C31.0081 31.7753 31.0081 31.392 30.8165 30.817Z" fill="white"/>
<path d="M31.7752 33.8834C31.7752 33.6917 31.5835 33.5 31.3919 33.6917C31.2002 33.8834 31.2002 33.8834 31.2002 34.075C33.3085 38.8667 37.7169 44.0417 43.4669 47.875C43.6585 48.0667 43.8502 47.875 44.0419 47.875C44.2335 47.6834 44.0419 47.4917 44.0419 47.3C38.1002 43.4667 33.8835 38.4834 31.7752 33.8834Z" fill="white"/>
<path d="M54.9673 52.667C54.7757 52.667 54.584 52.667 54.584 52.8587C54.584 53.0503 54.584 53.242 54.7757 53.242C55.3507 53.4337 56.1173 53.6253 56.6923 53.817C56.884 53.817 57.0757 53.817 57.0757 53.6253C57.0757 53.4337 57.0757 53.242 56.884 53.242C56.309 53.0503 55.5423 52.8587 54.9673 52.667Z" fill="white"/>
<path d="M58.4175 53.4336C58.2258 53.4336 58.0342 53.6253 58.0342 53.8169C58.0342 54.0086 58.2258 54.2003 58.4175 54.2003C59.9508 54.3919 61.6758 54.5836 63.0175 54.3919C63.2092 54.3919 63.4008 54.2003 63.4008 54.0086C63.4008 53.8169 63.2092 53.6253 63.0175 53.6253C61.4842 53.8169 59.9508 53.6253 58.4175 53.4336Z" fill="white"/>
<defs>
<linearGradient id="paint0_linear" x1="0" y1="45" x2="90" y2="45" gradientUnits="userSpaceOnUse">
<stop stop-color="#6F45FF"/>
<stop offset="1" stop-color="#FF6365"/>
</linearGradient>
<linearGradient id="paint1_linear" x1="38.568" y1="22.9473" x2="45.6378" y2="47.2242" gradientUnits="userSpaceOnUse">
<stop stop-color="#03B8FF"/>
<stop offset="1" stop-color="#FA52A0"/>
</linearGradient>
<linearGradient id="paint2_linear" x1="44.39" y1="21.2516" x2="51.4601" y2="45.5287" gradientUnits="userSpaceOnUse">
<stop stop-color="#03B8FF"/>
<stop offset="1" stop-color="#FA52A0"/>
</linearGradient>
<linearGradient id="paint3_linear" x1="32.7643" y1="24.6378" x2="39.8343" y2="48.9148" gradientUnits="userSpaceOnUse">
<stop stop-color="#03B8FF"/>
<stop offset="1" stop-color="#FA52A0"/>
</linearGradient>
</defs>
</svg>
