<svg width="350" height="145" viewBox="0 0 350 145" fill="none" xmlns="http://www.w3.org/2000/svg">
<g clip-path="url(#clip0)">
<path d="M-431 345.005C-431 345.005 -366.952 120.032 -282.802 110.018C-198.651 100.004 -45.9337 276.38 26.6851 219.477C99.3038 162.574 247.502 -295.134 301.421 -319.976C364.611 -349.01 437.074 -380.838 577.325 -269.827C684.539 -184.977 750.535 -86.2312 839.127 -122.329" stroke="#1C0E40"/>
<path d="M-427.26 343.607C-427.26 343.607 -362.667 117.393 -278.516 107.301C-194.366 97.2865 -39.6222 273.74 32.9965 216.76C105.226 160.089 249.996 -295.212 304.148 -321.684C340.068 -339.229 379.416 -356.695 432.945 -347.38C472.683 -340.315 519.667 -318.889 578.884 -272.932C687.812 -188.47 752.95 -94.4603 839.828 -129.86" stroke="#1E0F44"/>
<path d="M-423.442 342.21C-423.442 342.21 -358.304 114.676 -274.075 104.661C-189.847 94.647 -33.1558 271.178 39.385 214.198C111.302 157.838 252.488 -295.057 306.874 -323.237C342.327 -341.558 381.519 -358.947 434.736 -349.476C474.708 -342.256 521.38 -320.675 580.363 -275.805C691.006 -191.654 755.365 -102.534 840.451 -137.157" stroke="#1F1047"/>
<path d="M-419.624 340.813C-419.624 340.813 -353.862 112.037 -269.712 101.945C-185.561 91.9309 -26.766 268.462 45.8527 211.559C117.381 155.51 255.06 -294.978 309.68 -324.866C344.587 -343.963 383.701 -361.275 436.607 -351.648C476.812 -344.274 523.173 -322.537 582 -278.754C694.435 -194.991 757.859 -110.606 841.23 -144.531" stroke="#21114B"/>
<path d="M-415.884 339.416C-415.884 339.416 -349.576 109.32 -265.426 99.3056C-181.275 89.2913 -20.4546 265.9 52.1641 208.997C123.38 153.181 257.476 -294.823 312.329 -326.419C346.769 -346.214 385.727 -363.526 438.321 -353.822C478.76 -346.292 524.887 -324.478 583.403 -281.704C697.629 -198.251 760.119 -118.68 841.776 -151.906" stroke="#23124F"/>
<path d="M-412.065 338.019C-412.065 338.019 -345.213 106.68 -261.062 96.5884C-176.912 86.4965 -14.0649 263.261 58.5538 206.358C129.38 150.852 260.047 -294.668 315.057 -328.049C348.951 -348.621 387.831 -365.855 440.114 -355.996C480.786 -348.311 526.68 -326.419 584.962 -284.731C700.98 -201.667 762.535 -126.831 842.478 -159.359" stroke="#241353"/>
<path d="M-408.248 336.698C-408.248 336.698 -340.85 104.04 -256.699 94.026C-172.549 83.9341 -7.67625 260.621 64.9425 203.718C135.457 148.445 262.54 -294.513 317.861 -329.68C351.288 -350.873 390.013 -368.185 441.983 -358.17C482.89 -350.33 528.549 -328.36 586.52 -287.682C704.408 -205.006 765.028 -134.906 843.179 -166.734" stroke="#261456"/>
<path d="M-404.508 335.301C-404.508 335.301 -336.564 101.401 -252.414 91.3089C-168.263 81.2169 -1.28682 258.059 71.3319 201.156C141.457 146.193 265.034 -294.281 320.589 -331.233C353.47 -353.124 392.117 -370.358 443.776 -360.266C484.916 -352.27 530.342 -330.224 588 -290.554C707.759 -208.189 767.365 -142.902 843.802 -174.109" stroke="#27165A"/>
<path d="M-400.69 333.904C-400.69 333.904 -332.201 98.6845 -248.051 88.6702C-163.9 78.6559 5.10185 255.42 77.7206 198.517C147.456 143.788 267.449 -294.047 323.315 -332.862C355.729 -355.375 394.22 -372.686 445.567 -362.517C486.941 -354.288 532.211 -332.241 589.558 -293.581C711.187 -211.604 769.78 -151.13 844.503 -181.561" stroke="#29175E"/>
<path d="M-396.873 332.507C-396.873 332.507 -327.839 96.0451 -243.61 85.9531C-159.46 75.9388 11.5684 252.781 84.1871 195.878C153.611 141.459 270.019 -293.814 326.12 -334.57C358.066 -357.704 396.323 -375.015 447.437 -364.768C489.044 -356.384 534.08 -334.337 591.116 -296.609C714.614 -215.019 772.195 -159.281 845.203 -189.013" stroke="#2B1862"/>
<path d="M-393.133 331.109C-393.133 331.109 -323.475 93.3279 -239.324 83.3136C-155.174 73.2993 17.8799 250.219 90.4987 193.316C159.533 139.207 272.513 -293.504 328.847 -336.123C360.326 -359.878 398.427 -377.267 449.229 -366.864C491.07 -358.325 535.951 -336.2 592.674 -299.481C718.121 -218.28 774.689 -167.277 845.905 -196.311" stroke="#2C1965"/>
<path d="M-389.314 329.711C-389.314 329.711 -319.111 90.6098 -234.961 80.5955C-150.81 70.5812 24.2695 247.578 96.8882 190.675C165.611 136.8 275.007 -293.194 331.574 -337.754C362.585 -362.13 400.531 -379.519 451.021 -369.039C493.097 -360.267 537.821 -338.22 594.155 -302.51C721.472 -221.697 777.026 -175.429 846.529 -203.764" stroke="#2E1A69"/>
<path d="M-385.497 328.313C-385.497 328.313 -314.748 87.9702 -230.598 77.9559C-146.447 67.9416 30.6581 244.939 103.277 188.036C171.61 134.471 277.499 -292.884 334.301 -339.384C364.844 -364.304 402.634 -381.848 452.813 -371.29C495.122 -362.363 539.69 -340.316 595.713 -305.538C724.977 -225.113 779.441 -183.58 847.229 -211.217" stroke="#301B6D"/>
<path d="M-381.757 326.918C-381.757 326.918 -310.463 85.255 -226.312 75.2407C-142.162 65.2264 37.0475 242.301 109.666 185.398C177.61 132.066 279.993 -292.572 337.028 -341.013C367.104 -366.553 404.738 -384.098 454.605 -373.462C497.148 -364.379 541.561 -342.333 597.193 -308.486C728.484 -228.527 781.779 -191.73 847.853 -218.59" stroke="#311C71"/>
<path d="M-377.938 325.52C-377.938 325.52 -306.098 82.6145 -221.948 72.5225C-137.797 62.5082 43.3602 239.66 115.979 182.757C183.611 129.736 282.488 -292.262 339.679 -342.644C369.287 -368.728 406.766 -386.428 456.321 -375.637C499.097 -366.321 543.432 -344.43 598.675 -311.437C731.913 -231.866 784.196 -199.804 848.477 -225.966" stroke="#331D74"/>
<path d="M-374.121 324.122C-374.121 324.122 -301.736 79.8973 -217.586 69.883C-133.435 59.8687 49.8258 237.021 122.367 180.118C189.687 127.329 284.979 -291.874 342.482 -344.274C371.623 -370.902 408.868 -388.679 458.189 -377.811C501.199 -368.34 545.378 -346.448 600.232 -314.387C735.496 -235.282 786.61 -207.878 849.177 -233.341" stroke="#341E78"/>
<path d="M-370.38 322.725C-370.38 322.725 -297.449 77.2576 -213.221 67.1657C-128.993 57.0737 56.1383 234.459 128.757 177.556C195.688 125.078 287.552 -291.409 345.211 -345.827C373.962 -372.998 410.973 -390.931 459.983 -379.985C503.226 -370.359 547.328 -348.545 601.714 -317.415C739.004 -238.775 788.948 -216.03 849.724 -240.794" stroke="#361F7C"/>
<path d="M-366.563 321.328C-366.563 321.328 -293.01 74.5416 -208.859 64.5273C-124.709 54.5129 62.6038 231.82 135.222 174.917C201.842 122.75 290.2 -291.019 348.014 -347.456C376.376 -375.093 413.153 -393.181 461.851 -382.157C505.329 -372.298 549.352 -350.639 603.348 -320.364C742.664 -242.19 791.44 -224.102 850.501 -248.167" stroke="#382080"/>
<path d="M-362.744 319.931C-362.744 319.931 -288.645 71.902 -204.495 61.81C-120.344 51.7181 68.9944 229.181 141.613 172.278C207.843 120.343 292.772 -290.631 350.743 -349.165C378.637 -377.344 415.258 -395.51 463.644 -384.409C507.356 -374.394 551.223 -352.813 604.83 -323.391C746.25 -245.761 793.857 -232.331 851.126 -255.62" stroke="#392183"/>
<path d="M-359.005 318.533C-359.005 318.533 -284.36 69.1847 -200.21 59.1704C-116.059 49.1561 75.3051 226.619 147.924 169.638C213.842 118.014 295.343 -290.166 353.469 -350.795C380.974 -379.441 417.361 -397.839 465.436 -386.66C509.381 -376.413 553.171 -354.987 606.388 -326.419C749.834 -249.332 796.272 -240.482 851.827 -263.073" stroke="#3B2287"/>
<path d="M-355.187 317.136C-355.187 317.136 -279.997 66.5452 -195.846 56.4533C-111.696 46.3614 81.6946 223.979 154.313 166.999C219.842 115.608 297.915 -289.7 356.197 -352.425C383.312 -381.614 419.465 -400.09 467.228 -388.834C511.407 -378.431 555.197 -357.083 607.869 -329.369C753.418 -252.826 798.61 -248.556 852.45 -270.525" stroke="#3D248B"/>
<path d="M-351.368 315.737C-351.368 315.737 -275.633 63.8271 -191.482 53.8128C-107.332 43.7985 88.0842 221.339 160.703 164.436C225.842 113.355 300.564 -289.158 358.924 -353.979C385.65 -383.634 421.491 -402.265 469.021 -390.931C513.434 -380.296 557.145 -359.18 609.428 -332.242C757.08 -256.242 801.026 -256.553 853.152 -277.824" stroke="#3E258F"/>
<path d="M-347.628 314.342C-347.628 314.342 -271.347 61.1896 -187.197 51.0976C-103.046 41.0833 94.3956 218.701 167.014 161.798C231.841 111.028 303.135 -288.69 361.573 -355.607C387.909 -385.728 423.517 -404.514 470.735 -393.103C515.382 -382.312 559.015 -361.352 610.83 -335.268C760.664 -259.889 803.363 -264.702 853.697 -285.274" stroke="#402692"/>
<path d="M-343.812 312.944C-343.812 312.944 -266.985 58.4723 -182.757 48.458C-98.5285 38.4437 100.861 216.062 173.48 159.159C237.917 108.621 305.861 -288.147 364.377 -357.238C390.323 -387.824 425.698 -406.844 472.604 -395.354C517.484 -384.331 561.118 -363.526 612.387 -338.296C764.325 -263.538 805.777 -272.931 854.397 -292.727" stroke="#412796"/>
<path d="M-340.07 311.546C-340.07 311.546 -262.621 55.7542 -178.47 45.7399C-94.3198 35.7256 107.252 213.421 179.792 156.518C243.918 106.291 308.511 -287.682 367.105 -358.869C392.662 -389.921 427.803 -409.096 474.397 -397.529C519.511 -386.35 563.067 -365.7 613.946 -341.247C768.066 -267.11 808.194 -281.006 855.1 -300.103" stroke="#43289A"/>
<path d="M-336.254 310.148C-336.254 310.148 -258.259 53.1146 -174.108 43.1003C-89.958 33.086 113.639 210.859 186.258 153.956C249.994 103.962 311.237 -287.061 369.909 -360.422C395.154 -391.94 429.983 -411.27 476.266 -399.625C521.613 -388.214 565.169 -367.797 615.503 -344.12C771.805 -270.604 810.686 -289.002 855.8 -307.4" stroke="#45299E"/>
<path d="M-332.436 308.751C-332.436 308.751 -253.895 50.3975 -169.745 40.3832C-85.5942 30.3689 120.029 208.22 192.57 151.317C255.994 101.633 313.887 -286.518 372.558 -362.052C397.414 -394.036 431.931 -413.521 477.98 -401.799C523.562 -390.232 567.039 -369.97 616.984 -347.069C775.468 -274.33 813.024 -297.076 856.424 -314.775" stroke="#462AA1"/>
<path d="M-328.695 307.354C-328.695 307.354 -249.609 47.7589 -165.459 37.7446C-81.3086 27.7303 126.341 205.581 198.959 148.678C261.994 99.2278 316.692 -285.974 375.286 -363.681C399.83 -396.131 434.035 -415.771 479.772 -404.049C525.588 -392.249 569.065 -372.298 618.465 -350.174C779.208 -278.133 815.361 -305.304 857.047 -322.305" stroke="#482BA5"/>
<path d="M-324.877 305.957C-324.877 305.957 -245.246 45.0417 -161.095 35.0274C-76.9448 25.0131 132.73 202.942 205.349 146.039C268.072 96.8987 319.419 -285.43 378.091 -365.39C402.245 -398.305 436.217 -418.1 481.643 -406.301C527.692 -394.346 571.169 -374.55 620.101 -353.202C783.026 -281.937 817.855 -313.455 857.826 -329.757" stroke="#4A2CA9"/>
<path d="M-321.059 304.56C-321.059 304.56 -240.882 42.4022 -156.731 32.3103C-72.581 22.2184 139.12 200.38 211.738 143.399C274.072 94.5697 322.225 -284.887 380.819 -367.02C404.661 -400.401 438.321 -420.429 483.435 -408.474C529.718 -396.286 573.196 -376.801 621.582 -356.151C786.767 -285.663 820.271 -321.606 858.45 -337.132" stroke="#4B2DAD"/>
<path d="M-317.319 303.162C-317.319 303.162 -236.597 39.6849 -152.447 29.6706C-68.2963 19.6563 145.43 197.663 218.049 140.76C280.071 92.163 324.951 -284.344 383.467 -368.65C406.998 -402.497 440.346 -422.681 485.149 -410.726C531.665 -398.305 575.065 -379.13 623.062 -359.179C790.506 -289.545 822.608 -329.758 859.073 -344.585" stroke="#4D2EB0"/>
<path d="M-313.501 301.764C-313.501 301.764 -232.156 37.0444 -148.005 26.9525C-63.8546 16.8605 151.898 195.1 224.517 138.197C286.149 89.9107 327.835 -283.646 386.273 -370.204C409.414 -404.517 442.451 -424.856 487.019 -412.823C533.77 -400.247 577.169 -381.305 624.621 -362.053C794.324 -293.35 825.024 -337.755 859.775 -351.883" stroke="#4E2FB4"/>
<path d="M-309.684 300.445C-309.684 300.445 -227.793 34.4064 -143.642 24.3921C-59.4919 14.3778 158.286 192.462 230.905 135.559C292.148 87.5055 330.639 -283.101 388.999 -371.833C411.829 -406.611 444.554 -427.105 488.811 -414.995C535.717 -402.186 579.194 -383.555 626.1 -365.001C798.141 -297.23 827.36 -345.827 860.397 -359.257" stroke="#5031B8"/>
<path d="M-305.943 299.048C-305.943 299.048 -223.507 31.7669 -139.357 21.6749C-55.2062 11.6606 164.676 189.9 237.217 132.997C298.148 85.2541 333.444 -282.403 391.726 -373.385C414.244 -408.552 446.658 -429.279 490.603 -417.091C537.743 -404.049 581.221 -385.729 627.659 -367.951C801.96 -301.112 829.854 -353.9 861.099 -366.632" stroke="#5232BC"/>
<path d="M-302.125 297.65C-302.125 297.65 -219.143 29.0498 -134.993 19.0355C-50.8424 9.02118 171.065 187.26 243.684 130.357C304.226 82.8475 336.405 -281.859 394.532 -375.016C416.738 -410.648 448.84 -431.531 492.473 -419.343C539.847 -406.068 583.325 -388.058 629.218 -370.979C805.856 -305.226 832.27 -362.129 861.8 -374.162" stroke="#5333BF"/>
<path d="M-298.308 296.253C-298.308 296.253 -214.781 26.4101 -130.63 16.3182C-46.4796 6.3039 177.454 184.621 250.073 127.718C310.303 80.5184 339.288 -281.239 397.258 -376.646C419.231 -412.744 450.865 -433.782 494.265 -421.517C541.872 -408.086 585.35 -390.309 630.776 -373.929C809.751 -309.186 834.685 -370.203 862.501 -381.537" stroke="#5534C3"/>
<path d="M-294.567 294.855C-294.567 294.855 -210.495 23.693 -126.344 13.6787C-42.194 3.66435 183.844 181.981 256.384 125.078C316.225 78.1894 342.171 -280.695 399.908 -378.277C421.569 -414.84 452.891 -436.033 495.979 -423.69C543.82 -410.027 587.298 -392.638 632.178 -376.879C813.492 -313.3 836.945 -378.277 863.047 -388.912" stroke="#5735C7"/>
<path d="M-290.749 293.459C-290.749 293.459 -206.131 20.9767 -121.981 10.9624C-37.8302 0.948123 190.155 179.42 262.774 122.439C322.303 75.7837 345.054 -280.073 402.713 -379.984C424.062 -417.013 455.073 -438.362 497.85 -425.941C545.925 -412.045 589.402 -394.966 633.815 -379.906C817.466 -317.491 839.516 -386.427 863.826 -396.364" stroke="#5836CB"/>
<path d="M-286.932 292.062C-286.932 292.062 -201.768 18.3373 -117.54 8.32299C-33.3895 -1.69132 196.622 176.781 269.24 119.878C328.38 73.5324 348.092 -279.375 405.517 -381.536C426.555 -419.031 457.176 -440.535 499.719 -428.114C548.028 -413.985 591.583 -397.295 635.373 -382.856C821.361 -321.683 841.931 -394.5 864.527 -403.738" stroke="#5A37CE"/>
<path d="M-283.19 290.663C-283.19 290.663 -197.404 15.6192 -113.253 5.60485C-29.1028 -4.40945 202.934 174.14 275.553 117.237C334.38 71.1248 350.977 -278.755 408.168 -383.167C428.972 -421.051 459.204 -442.787 501.435 -430.289C549.977 -415.927 593.533 -399.625 636.855 -385.884C825.258 -326.031 844.27 -402.73 865.152 -411.192" stroke="#5B38D2"/>
<path d="M-279.374 289.266C-279.374 289.266 -193.042 12.9796 -108.891 2.96528C-24.741 -7.04902 209.322 171.501 281.941 114.598C340.379 68.7957 353.936 -278.134 410.893 -384.798C431.386 -423.147 461.306 -445.039 503.225 -432.463C551.923 -417.946 595.557 -401.954 638.334 -388.835C829.152 -330.301 846.606 -410.804 865.774 -418.567" stroke="#5D39D6"/>
<path d="M-275.556 287.87C-275.556 287.87 -188.678 10.2643 -104.528 0.250005C-20.3772 -9.7643 215.79 168.863 288.33 111.96C346.457 66.3909 356.975 -277.511 413.699 -386.426C433.957 -425.241 463.488 -447.288 505.096 -434.712C554.028 -419.963 597.661 -404.359 639.892 -391.86C833.049 -334.802 849.1 -418.953 866.475 -426.018" stroke="#5F3ADA"/>
<path d="M-271.815 286.472C-271.815 286.472 -184.392 7.62378 -100.242 -2.46815C-16.0916 -12.5601 222.101 166.222 294.72 109.319C352.456 64.061 359.936 -276.969 416.426 -388.058C436.373 -427.339 465.514 -449.463 506.888 -436.887C556.053 -421.905 599.687 -406.689 641.45 -394.812C837.022 -339.228 851.515 -427.028 867.176 -433.394" stroke="#603BDD"/>
<path d="M-267.998 285.074C-267.998 285.074 -180.03 4.90654 -95.8792 -5.10777C-11.7287 -15.1221 228.49 163.66 301.108 106.757C358.455 61.8095 362.975 -276.27 419.153 -389.611C438.866 -429.357 467.617 -451.637 508.68 -438.983C558.079 -423.768 601.713 -408.94 642.931 -397.684C840.918 -343.653 853.852 -435.024 867.8 -440.691" stroke="#623CE1"/>
<path d="M-264.179 283.677C-264.179 283.677 -175.665 2.26707 -91.5145 -7.82487C-7.364 -17.9168 234.88 161.021 307.499 104.118C364.534 59.4029 366.015 -275.649 421.881 -391.241C441.283 -431.453 469.722 -453.888 510.473 -441.157C560.106 -425.709 603.74 -411.347 644.49 -400.712C844.893 -348.311 856.269 -443.253 868.502 -448.144" stroke="#643DE5"/>
<path d="M-260.439 282.279C-260.439 282.279 -171.38 -0.45013 -87.1518 -10.4644C-2.92344 -20.4787 241.269 158.381 313.888 101.478C370.533 57.0738 369.053 -275.028 424.608 -392.871C443.775 -433.549 471.748 -456.14 512.264 -443.409C562.131 -427.727 605.765 -413.754 645.97 -403.739C848.788 -353.047 858.684 -451.404 869.125 -455.596" stroke="#653FE9"/>
<path d="M-256.621 280.883C-256.621 280.883 -166.939 -3.08869 -82.7881 -13.1806C1.36236 -23.1949 247.658 155.743 320.277 98.8398C376.611 54.6682 372.17 -274.407 427.413 -394.578C446.347 -435.722 473.929 -458.468 514.135 -445.659C564.157 -429.745 607.869 -416.237 647.607 -406.766C852.84 -357.859 861.177 -459.555 869.826 -463.048" stroke="#6740EC"/>
<path d="M-252.805 279.485C-252.805 279.485 -162.577 -5.80578 -78.4263 -15.8201C5.7242 -25.8344 254.046 153.181 326.665 96.278C382.609 52.4169 375.207 -273.708 430.139 -396.131C448.761 -437.741 476.032 -460.641 516.003 -447.755C566.26 -431.608 609.971 -418.488 649.164 -409.638C856.813 -362.672 863.591 -467.55 870.526 -470.423" stroke="#6841F0"/>
<path d="M-249.064 278.088C-249.064 278.088 -158.291 -8.44542 -74.1406 -18.5374C10.0098 -28.6293 260.435 150.541 332.976 93.6384C388.609 50.0101 378.246 -273.087 432.788 -397.761C451.176 -439.837 477.98 -462.893 517.718 -449.929C568.208 -433.549 611.841 -420.895 650.566 -412.589C860.631 -367.563 865.929 -475.624 871.072 -477.798" stroke="#6A42F4"/>
<path d="M-245.245 276.689C-245.245 276.689 -153.926 -11.1636 -69.7758 -21.1779C14.3746 -31.1922 266.826 147.901 339.367 90.9978C394.61 47.6801 381.364 -272.467 435.516 -399.393C453.671 -441.934 480.085 -465.068 519.511 -452.181C570.157 -435.413 613.869 -423.38 652.126 -415.617C864.606 -372.688 868.346 -483.777 871.774 -485.252" stroke="#6C43F8"/>
<path d="M-241.505 275.292C-241.505 275.292 -149.641 -13.8032 -65.4902 -23.8951C18.6603 -33.9871 273.138 145.261 345.756 88.3583C400.688 45.3511 384.481 -271.924 438.322 -401.023C456.243 -444.03 482.267 -467.319 521.381 -454.355C572.261 -437.432 615.973 -425.787 653.685 -418.645C868.58 -377.812 870.762 -492.006 872.476 -492.704" stroke="#6D44FB"/>
<path d="M-237.688 273.896C-237.688 273.896 -145.279 -16.5183 -61.1284 -26.5326C23.0221 -36.5469 279.525 142.701 352.144 85.7984C424.763 28.8954 366.948 -508.849 523.094 -456.449C872.24 -339.383 873.097 -500 873.097 -500" stroke="#6F45FF"/>
</g>
<defs>
<clipPath id="clip0">
<rect width="350" height="145" fill="white"/>
</clipPath>
</defs>
</svg>
