<svg width="350" height="145" viewBox="0 0 350 145" fill="none" xmlns="http://www.w3.org/2000/svg">
<g clip-path="url(#clip0)">
<path d="M-243 -580C-243 -580 -53.0704 -525.931 -44.616 -454.891C-36.1615 -383.851 -185.064 -254.927 -137.025 -193.623C-88.9853 -132.318 297.428 -7.20928 318.4 38.3088C342.911 91.6543 369.782 152.827 276.062 271.227C204.429 361.737 121.065 417.45 151.54 492.239" stroke="#1C0E40"/>
<path d="M-241.82 -576.843C-241.82 -576.843 -50.842 -522.313 -42.3221 -451.273C-33.8677 -380.234 -182.836 -249.6 -134.731 -188.295C-86.8881 -127.319 297.493 -5.10454 319.842 40.6108C334.654 70.9343 349.4 104.152 341.535 149.341C335.571 182.888 317.482 222.551 278.684 272.542C207.378 364.499 128.012 419.489 157.897 492.831" stroke="#1E0F44"/>
<path d="M-240.641 -573.62C-240.641 -573.62 -48.5482 -518.63 -40.0938 -447.525C-31.6393 -376.419 -180.673 -244.141 -132.568 -182.902C-84.9874 -122.189 297.362 -3.00017 321.153 42.9125C336.62 72.8413 351.3 105.927 343.305 150.853C337.21 184.597 318.99 223.998 281.109 273.792C210.066 367.196 134.828 421.528 164.058 493.357" stroke="#1F1047"/>
<path d="M-239.461 -570.396C-239.461 -570.396 -46.32 -514.879 -37.8 -443.84C-29.3456 -372.8 -178.379 -238.745 -130.34 -177.441C-83.0213 -117.057 297.297 -0.827889 322.529 45.2822C338.651 74.7505 353.266 107.771 345.14 152.434C338.913 186.375 320.563 225.513 283.599 275.175C212.884 370.092 141.644 423.635 170.284 494.017" stroke="#21114B"/>
<path d="M-238.281 -567.238C-238.281 -567.238 -44.0261 -511.262 -35.5717 -440.222C-27.1173 -369.182 -176.217 -233.417 -128.177 -172.113C-81.0552 -111.992 297.165 1.21105 323.839 47.5184C340.552 76.5921 355.167 109.481 346.974 153.881C340.617 188.019 322.201 226.96 286.09 276.358C215.636 372.788 148.459 425.542 176.51 494.477" stroke="#23124F"/>
<path d="M-237.102 -564.016C-237.102 -564.016 -41.7978 -507.579 -33.2779 -436.539C-24.7579 -365.499 -173.988 -228.024 -125.949 -166.719C-79.0891 -106.928 297.034 3.38134 325.216 49.8203C342.583 78.4335 357.133 111.256 348.81 155.393C342.321 189.729 323.84 228.472 288.646 277.674C218.52 375.616 155.341 427.581 182.801 495.068" stroke="#241353"/>
<path d="M-235.987 -560.793C-235.987 -560.793 -39.5694 -503.895 -31.115 -432.856C-22.595 -361.816 -171.76 -222.631 -123.72 -161.326C-77.0572 -101.797 296.904 5.4858 326.592 52.1878C344.484 80.4064 359.099 113.098 350.645 156.972C344.026 191.505 325.478 230.05 291.136 278.989C221.338 378.51 162.157 429.685 189.028 495.66" stroke="#261456"/>
<path d="M-234.808 -557.636C-234.808 -557.636 -37.3411 -500.278 -28.8211 -429.238C-20.3012 -358.198 -169.597 -217.237 -121.558 -155.932C-75.1566 -96.7326 296.707 7.59049 327.903 54.4899C346.385 82.248 360.934 114.874 352.414 158.484C345.664 193.215 327.051 231.563 293.561 280.238C224.025 381.338 168.908 431.658 195.254 496.186" stroke="#27165A"/>
<path d="M-233.628 -554.413C-233.628 -554.413 -35.0472 -496.595 -26.5928 -425.555C-18.1384 -354.515 -167.369 -211.844 -119.329 -150.539C-73.1249 -91.6682 296.51 9.62919 329.28 56.7917C348.286 84.1551 362.901 116.649 354.315 159.997C347.368 194.924 328.755 233.141 296.117 281.554C226.909 384.232 175.855 433.697 201.546 496.778" stroke="#29175E"/>
<path d="M-232.448 -551.19C-232.448 -551.19 -32.819 -492.912 -24.299 -421.806C-15.8446 -350.766 -165.141 -206.385 -117.101 -145.08C-71.1588 -86.4722 296.314 11.7994 330.721 59.1592C350.251 86.128 364.867 118.425 356.215 161.575C349.137 196.7 330.524 234.719 298.673 282.869C229.792 387.126 182.736 435.736 207.837 497.369" stroke="#2B1862"/>
<path d="M-231.269 -548.031C-231.269 -548.031 -30.5251 -489.226 -22.0707 -418.186C-13.6163 -347.147 -162.978 -201.055 -114.938 -139.75C-69.2582 -81.4712 296.052 13.9062 332.032 61.4634C352.087 88.0375 366.767 120.203 357.985 163.09C350.776 198.412 332.098 236.3 301.098 284.186C232.545 390.088 189.487 437.842 213.998 497.963" stroke="#2C1965"/>
<path d="M-230.089 -544.809C-230.089 -544.809 -28.2313 -485.543 -19.7769 -414.503C-11.3225 -343.464 -160.749 -195.661 -112.71 -134.357C-67.2265 -76.341 295.789 16.0106 333.408 63.7651C353.987 89.9446 368.668 121.978 359.82 164.602C352.414 200.122 333.801 237.878 303.654 285.435C235.429 392.916 196.368 439.815 220.289 498.489" stroke="#2E1A69"/>
<path d="M-228.909 -541.586C-228.909 -541.586 -26.003 -481.86 -17.5486 -410.82C-9.09414 -339.78 -158.521 -190.268 -110.482 -128.964C-65.2604 -71.2766 295.527 18.115 334.785 66.0669C355.822 91.8517 370.634 123.754 361.721 166.115C354.184 201.832 335.571 239.456 306.21 286.75C238.312 395.875 203.25 441.854 226.581 499.08" stroke="#301B6D"/>
<path d="M-227.729 -538.429C-227.729 -538.429 -23.7092 -478.242 -15.2547 -407.203C-6.80032 -336.163 -156.293 -184.875 -108.253 -123.57C-63.2287 -66.2119 295.265 20.2198 336.161 68.3689C357.723 93.7591 372.535 125.53 363.556 167.627C355.888 203.542 337.275 241.035 308.7 288C241.196 398.835 210.131 443.827 232.807 499.606" stroke="#311C71"/>
<path d="M-226.55 -535.206C-226.55 -535.206 -21.4809 -474.559 -12.9609 -403.519C-4.5065 -332.48 -154.065 -179.547 -106.025 -118.242C-61.2625 -61.1475 295.003 22.3242 337.537 70.6049C359.558 95.6003 374.501 127.239 365.391 169.074C357.526 205.186 339.045 242.613 311.191 289.249C244.014 401.729 216.947 445.866 239.033 500.132" stroke="#331D74"/>
<path d="M-225.37 -531.983C-225.37 -531.983 -19.1871 -470.876 -10.7326 -399.836C-2.27821 -328.797 -151.836 -174.088 -103.797 -112.849C-59.2309 -56.0173 294.675 24.4286 338.914 72.9724C361.393 97.5732 376.401 129.015 367.226 170.652C359.23 206.961 340.749 244.257 313.681 290.564C246.898 404.754 223.763 447.904 245.259 500.724" stroke="#341E78"/>
<path d="M-224.19 -528.824C-224.19 -528.824 -16.9587 -467.256 -8.43869 -396.151C0.081271 -325.045 -149.674 -168.758 -101.634 -107.453C-57.3302 -50.9505 294.282 26.6012 340.224 75.2766C363.163 99.5485 378.302 130.793 369.061 172.167C360.935 208.673 342.518 245.903 316.238 291.816C249.847 407.716 230.645 449.879 251.551 501.186" stroke="#361F7C"/>
<path d="M-223.011 -525.602C-223.011 -525.602 -14.6649 -463.508 -6.21049 -392.468C2.24393 -321.428 -147.445 -163.299 -99.4058 -101.994C-55.3641 -45.7546 293.954 28.8371 341.601 77.644C364.932 101.587 380.203 132.634 370.896 173.745C362.573 210.449 344.288 247.613 318.728 293.197C252.731 410.807 237.46 451.984 257.777 501.843" stroke="#382080"/>
<path d="M-221.831 -522.379C-221.831 -522.379 -12.4366 -459.824 -3.91663 -388.785C4.60334 -317.745 -145.217 -157.906 -97.1774 -96.601C-53.3324 -40.6901 293.627 31.0074 343.042 79.9459C366.833 103.494 382.169 134.41 372.797 175.257C364.342 212.159 346.123 249.191 321.284 294.446C255.746 413.833 244.408 454.023 264.069 502.369" stroke="#392183"/>
<path d="M-220.651 -519.222C-220.651 -519.222 -10.1427 -456.207 -1.68828 -385.167C6.76614 -314.127 -143.054 -152.578 -94.9491 -91.273C-51.3662 -35.6252 293.234 33.1781 344.419 82.2482C368.602 105.468 384.135 136.186 374.697 176.771C366.046 213.869 347.958 250.836 323.84 295.762C258.76 416.859 251.289 456.062 270.361 502.961" stroke="#3B2287"/>
<path d="M-219.472 -515.999C-219.472 -515.999 -7.91442 -452.524 0.60554 -381.484C9.1255 -310.444 -140.826 -147.184 -92.7208 -85.8798C-49.3346 -30.5609 292.84 35.3482 345.795 84.5498C370.437 107.44 386.036 137.961 376.533 178.283C367.75 215.579 349.727 252.546 326.33 297.011C261.71 419.884 258.105 458.034 276.652 503.487" stroke="#3D248B"/>
<path d="M-218.292 -512.774C-218.292 -512.774 -5.62064 -448.839 2.83378 -377.799C11.2882 -306.759 -138.598 -141.789 -90.5581 -80.4845C-47.434 -25.4945 292.381 37.5861 347.106 86.8535C372.141 109.415 387.87 139.673 378.302 179.797C369.323 217.29 351.497 254.192 328.755 298.328C264.593 422.977 264.855 460.075 282.813 504.08" stroke="#3E258F"/>
<path d="M-217.112 -509.617C-217.112 -509.617 -3.39237 -445.221 5.12759 -374.181C13.582 -303.142 -136.369 -136.461 -88.3298 -75.1568C-45.4679 -20.4299 291.988 39.7565 348.482 89.0897C373.911 111.322 389.771 141.383 380.137 181.244C371.027 218.934 353.332 255.77 331.311 299.512C267.673 426.002 271.737 462.048 289.104 504.54" stroke="#402692"/>
<path d="M-215.933 -506.395C-215.933 -506.395 -1.09847 -441.538 7.35595 -370.432C15.8104 -299.327 -134.141 -131.002 -86.1015 -69.6976C-43.4361 -15.2996 291.529 42.0584 349.858 91.4573C375.681 113.361 391.737 143.224 382.038 182.822C372.731 220.71 355.167 257.546 333.867 300.827C270.754 429.093 278.684 464.087 295.396 505.132" stroke="#412796"/>
<path d="M-214.753 -503.237C-214.753 -503.237 1.19535 -437.854 9.64977 -366.815C18.1042 -295.775 -131.913 -125.609 -83.8732 -64.3697C-41.47 -10.2349 291.136 44.2947 351.235 93.7594C377.45 115.334 393.638 145 383.873 184.335C374.435 222.42 357.002 259.19 336.358 302.143C273.769 432.25 285.5 466.126 301.622 505.724" stroke="#43289A"/>
<path d="M-213.573 -500.015C-213.573 -500.015 3.42367 -434.171 11.8781 -363.132C20.3325 -292.092 -129.75 -120.215 -81.7104 -58.9106C-39.5038 -5.10454 290.612 46.5966 352.546 96.1271C379.154 117.439 395.473 146.842 385.642 185.913C376.008 224.196 358.772 260.966 338.783 303.458C276.718 435.408 292.25 468.23 307.783 506.316" stroke="#45299E"/>
<path d="M-212.394 -496.792C-212.394 -496.792 5.71748 -430.488 14.1719 -359.449C22.6263 -288.409 -127.522 -114.822 -79.4821 -53.5831C-37.5377 -0.0401506 290.153 48.8326 353.922 98.3631C380.924 119.346 397.374 148.485 387.477 187.36C377.712 225.84 360.607 262.544 341.273 304.707C279.864 438.499 299.066 470.203 314.009 506.841" stroke="#462AA1"/>
<path d="M-211.214 -493.635C-211.214 -493.635 7.94576 -426.871 16.4002 -355.831C24.8546 -284.791 -125.293 -109.494 -77.2539 -48.1894C-35.5061 5.02464 289.694 51.2005 355.298 100.665C382.693 121.385 399.274 150.261 389.378 188.873C379.416 227.55 362.573 264.254 343.894 305.957C283.075 441.656 306.013 472.177 320.366 507.368" stroke="#482BA5"/>
<path d="M-210.034 -490.412C-210.034 -490.412 10.2396 -423.187 18.694 -352.148C27.1484 -281.108 -123.065 -104.101 -75.0256 -42.7962C-33.5399 10.1547 289.236 53.5021 356.74 103.033C384.528 123.424 401.24 152.103 391.279 190.451C381.186 229.325 364.473 266.029 346.45 307.338C286.286 444.878 312.895 474.281 326.658 508.025" stroke="#4A2CA9"/>
<path d="M-208.854 -487.188C-208.854 -487.188 12.4679 -419.502 20.9878 -348.463C29.5078 -277.423 -120.902 -98.7055 -72.7973 -37.4008C-31.5738 15.2212 288.777 55.8717 358.116 105.336C386.298 125.464 403.206 153.88 393.114 191.965C382.824 231.037 366.374 267.741 348.941 308.589C289.432 448.037 319.776 476.322 332.884 508.553" stroke="#4B2DAD"/>
<path d="M-207.675 -484.03C-207.675 -484.03 14.7618 -415.885 23.2162 -344.845C31.6706 -273.805 -118.608 -93.3776 -70.5689 -32.073C-29.542 20.2859 288.318 58.1738 359.493 107.573C388.067 127.438 405.107 155.59 395.014 193.412C384.528 232.682 368.34 269.32 351.497 309.839C292.709 451.194 326.658 478.295 339.176 509.079" stroke="#4D2EB0"/>
<path d="M-206.495 -480.808C-206.495 -480.808 16.9901 -412.136 25.5101 -341.096C34.03 -270.056 -116.446 -87.9184 -68.4062 -26.6137C-27.6414 25.4163 287.728 60.6073 360.803 109.94C389.771 129.476 406.942 157.366 396.784 194.991C386.167 234.457 370.175 271.095 353.922 311.154C295.921 454.417 333.408 480.334 345.336 509.671" stroke="#4E2FB4"/>
<path d="M-205.381 -477.585C-205.381 -477.585 19.2184 -408.453 27.6729 -337.413C36.1273 -266.373 -114.217 -82.5252 -66.1778 -21.2206C-25.6097 30.4806 287.27 62.9747 362.18 112.242C391.541 131.515 408.843 159.141 398.619 196.503C387.805 236.101 372.076 272.805 356.412 312.403C299.198 457.64 340.224 482.306 351.563 510.196" stroke="#5031B8"/>
<path d="M-204.201 -474.428C-204.201 -474.428 21.4468 -404.835 29.9667 -333.795C38.4211 -262.756 -112.055 -77.1316 -64.015 -15.8927C-23.7091 35.5453 286.68 65.3426 363.49 114.544C393.179 133.554 410.678 160.917 400.388 198.016C389.378 237.811 373.911 274.515 358.903 313.718C302.474 460.863 347.04 484.411 357.789 510.788" stroke="#5232BC"/>
<path d="M-203.021 -471.203C-203.021 -471.203 23.7405 -401.15 32.195 -330.11C40.6494 -259.071 -109.826 -71.7362 -61.7867 -10.4316C-21.6774 40.6776 286.221 67.8437 364.867 116.914C394.949 135.66 412.578 162.761 402.289 199.596C391.082 239.589 375.877 276.293 361.459 315.036C305.948 464.153 353.987 486.452 364.146 511.381" stroke="#5333BF"/>
<path d="M-201.842 -467.98C-201.842 -467.98 25.9689 -397.467 34.4889 -326.427C42.9433 -255.388 -107.598 -66.343 -59.5584 -5.03832C-19.7112 45.8077 285.697 70.277 366.243 119.215C396.718 137.765 414.479 164.47 404.124 201.108C392.786 241.298 377.778 278.002 363.949 316.351C309.291 467.442 360.804 488.49 370.372 511.973" stroke="#5534C3"/>
<path d="M-200.662 -464.823C-200.662 -464.823 28.2627 -393.849 36.7171 -322.81C45.1715 -251.77 -105.37 -60.9493 -57.3301 0.289602C-17.7451 50.8067 285.238 72.7107 367.619 121.452C398.488 139.738 416.38 166.181 405.959 202.555C394.424 242.943 379.744 279.647 366.44 317.535C312.764 470.599 367.619 490.398 376.598 512.433" stroke="#5735C7"/>
<path d="M-199.482 -461.601C-199.482 -461.601 30.5566 -390.166 39.011 -319.126C47.4654 -248.087 -103.207 -55.6217 -55.1018 5.68291C-15.7134 55.9369 284.714 75.1439 369.061 123.819C400.323 141.842 418.346 168.022 407.86 204.134C396.129 244.718 381.71 281.422 368.996 318.915C316.303 473.953 374.501 492.568 382.89 513.091" stroke="#5836CB"/>
<path d="M-198.303 -458.378C-198.303 -458.378 32.7848 -386.483 41.2392 -315.378C49.6936 -244.338 -100.979 -50.1627 -52.9391 11.1419C-13.8128 61.0671 284.124 77.7087 370.372 126.187C402.027 143.947 420.181 169.797 409.695 205.712C397.767 246.494 383.676 283.263 371.486 320.23C319.842 477.241 381.317 494.607 389.116 513.682" stroke="#5A37CE"/>
<path d="M-197.123 -455.219C-197.123 -455.219 35.0786 -382.798 43.533 -311.758C51.9875 -240.718 -98.7503 -44.8328 -50.7108 16.4718C-11.7812 66.1339 283.599 80.1445 371.748 128.425C403.731 145.988 422.081 171.509 411.53 207.161C399.405 248.14 385.642 284.91 374.042 321.482C323.512 480.532 388.264 496.582 395.407 514.21" stroke="#5B38D2"/>
<path d="M-195.943 -451.998C-195.943 -451.998 37.307 -379.117 45.7614 -308.077C54.2158 -237.037 -96.522 -39.4414 -48.4825 21.8632C-9.81498 71.1964 283.075 82.6417 373.125 130.725C405.5 148.025 423.982 173.283 413.365 208.671C401.109 249.782 387.608 286.618 376.532 322.73C327.117 483.819 395.08 498.553 401.634 514.734" stroke="#5D39D6"/>
<path d="M-194.764 -448.773C-194.764 -448.773 39.6008 -375.432 48.0552 -304.392C56.5097 -233.352 -94.2936 -33.9804 -46.2542 27.2585C-7.78325 76.3285 282.551 85.2085 374.501 133.095C407.27 150.197 425.883 175.126 415.266 210.252C402.813 251.56 389.64 288.395 379.089 324.047C330.918 487.109 401.961 500.659 407.925 515.328" stroke="#5F3ADA"/>
<path d="M-193.584 -445.616C-193.584 -445.616 41.8291 -371.814 50.3491 -300.774C58.869 -229.734 -92.0654 -28.6526 -44.0259 32.652C-5.81713 81.3932 282.092 87.7078 375.877 135.396C409.04 152.236 427.718 176.836 417.101 211.764C404.452 253.27 391.606 290.105 381.579 325.362C334.654 490.463 408.777 502.698 414.152 515.919" stroke="#603BDD"/>
<path d="M-192.404 -442.394C-192.404 -442.394 44.123 -368.131 52.5775 -297.091C61.0319 -226.051 -89.9026 -23.2591 -41.8631 38.0456C-3.91649 86.4578 281.502 90.2729 377.188 137.699C410.744 154.34 429.553 178.612 418.87 213.277C406.025 254.98 393.507 291.815 384.004 326.612C338.389 493.752 415.528 504.672 420.312 516.446" stroke="#623CE1"/>
<path d="M-191.225 -439.169C-191.225 -439.169 46.3513 -364.446 54.8712 -293.406C63.3912 -222.366 -87.6743 -17.8639 -39.6348 43.4407C-1.88483 91.5899 280.978 92.8397 378.564 140.002C412.513 156.381 431.454 180.39 420.705 214.791C407.663 256.692 395.539 293.527 386.56 327.929C342.322 497.108 422.475 506.712 426.604 517.039" stroke="#643DE5"/>
<path d="M-190.045 -436.012C-190.045 -436.012 48.6451 -360.828 57.0995 -289.722C65.5539 -218.617 -85.446 -12.4702 -37.4065 48.8344C0.0813371 96.6547 280.454 95.4049 379.941 142.304C414.283 158.486 433.354 182.1 422.606 216.304C409.367 258.402 397.57 295.237 389.116 329.178C346.319 500.397 429.356 508.751 432.895 517.565" stroke="#653FE9"/>
<path d="M-188.865 -432.789C-188.865 -432.789 50.8734 -357.079 59.3933 -286.039C67.8478 -215 -83.2177 -7.07696 -35.1782 54.2277C2.11299 101.785 279.929 98.0355 381.382 144.672C416.118 160.656 435.32 183.941 424.506 217.882C411.071 260.111 399.668 297.012 391.672 330.559C350.383 503.817 436.238 510.855 439.187 518.156" stroke="#6740EC"/>
<path d="M-187.686 -429.568C-187.686 -429.568 53.1672 -353.398 61.6216 -282.358C70.076 -211.319 -81.055 -1.68553 -33.0155 59.6191C4.01354 106.847 279.339 100.598 382.693 146.972C417.822 162.692 437.155 185.715 426.276 219.459C412.644 261.885 401.568 298.786 394.097 331.872C354.446 507.169 442.988 512.892 445.413 518.746" stroke="#6841F0"/>
<path d="M-186.506 -426.411C-186.506 -426.411 55.3956 -349.78 63.9155 -278.741C72.4355 -207.701 -78.8266 3.70809 -30.7871 64.947C6.04532 111.912 278.815 103.164 384.07 149.208C419.591 164.731 439.056 187.359 428.111 220.905C414.283 263.529 403.6 300.365 396.587 333.056C358.575 510.392 449.804 514.865 451.639 519.207" stroke="#6A42F4"/>
<path d="M-185.326 -423.187C-185.326 -423.187 57.6894 -346.095 66.1438 -275.056C74.5983 -204.016 -76.5983 9.10343 -28.5588 70.3423C8.01147 116.979 278.291 105.796 385.446 151.512C421.361 166.838 440.891 189.136 430.012 222.42C415.856 265.175 405.697 302.076 399.143 334.373C362.901 513.749 456.686 516.906 457.931 519.8" stroke="#6C43F8"/>
<path d="M-184.146 -420.027C-184.146 -420.027 59.9177 -342.476 68.4377 -271.436C76.9577 -200.396 -74.37 14.4332 -26.3305 75.7379C9.97762 122.111 277.832 108.429 386.822 153.882C423.13 169.01 442.792 190.98 431.847 224C417.56 266.953 407.729 303.854 401.699 335.691C367.226 517.105 463.633 518.947 464.223 520.394" stroke="#6D44FB"/>
<path d="M-182.967 -416.805C-182.967 -416.805 62.2115 -338.793 70.6659 -267.753C79.1203 -196.713 -72.2073 19.8265 -24.1678 81.1312C23.8716 142.436 477.854 93.6289 433.616 225.447C334.785 520.196 470.383 520.92 470.383 520.92" stroke="#6F45FF"/>
</g>
<defs>
<clipPath id="clip0">
<rect width="350" height="145" fill="white"/>
</clipPath>
</defs>
</svg>
