<svg width="48" height="48" viewBox="0 0 48 48" fill="none" xmlns="http://www.w3.org/2000/svg">
<circle cx="24" cy="24" r="24" fill="url(#paint0_linear)"/>
<circle cx="24" cy="24.0003" r="21.3333" fill="#1A0E3B"/>
<path d="M18.4684 11.4433C18.0849 11.3851 18.0687 11.3783 18.2492 11.3511C18.5951 11.2991 19.4118 11.37 19.9746 11.5009C21.2885 11.8063 22.4841 12.5887 23.7603 13.9783L24.0993 14.3474L24.5843 14.2712C26.6276 13.9501 28.7063 14.2053 30.4449 14.9907C30.9231 15.2068 31.6773 15.6369 31.7716 15.7475C31.8015 15.7827 31.8566 16.0094 31.8939 16.2514C32.023 17.0885 31.9584 17.7302 31.6967 18.2095C31.5541 18.4703 31.5462 18.5529 31.642 18.7761C31.7185 18.9542 31.9317 19.0861 32.1427 19.0858C32.5747 19.0852 33.0397 18.4022 33.2553 17.4518L33.341 17.0743L33.5104 17.2621C34.4405 18.2926 35.171 19.6979 35.2964 20.6982L35.3291 20.959L35.1728 20.7219C34.9038 20.3139 34.6334 20.0362 34.2873 19.8122C33.6632 19.4084 33.0034 19.271 31.2562 19.1809C29.678 19.0996 28.7848 18.9678 27.8992 18.6854C26.3923 18.2049 25.6327 17.5651 23.8428 15.2685C23.0478 14.2484 22.5564 13.684 22.0675 13.2295C20.9569 12.1968 19.8655 11.6552 18.4684 11.4433Z" fill="#D83FA4"/>
<path d="M32.1271 13.7204C32.1669 13.0369 32.2615 12.586 32.4522 12.1743C32.5277 12.0113 32.5983 11.8779 32.6093 11.8779C32.6201 11.8779 32.5872 11.9982 32.5363 12.1452C32.3978 12.5448 32.3749 13.0914 32.4704 13.7273C32.5915 14.5341 32.6605 14.6505 33.5326 15.522C33.9415 15.9308 34.4173 16.4464 34.5896 16.6678L34.9033 17.0703L34.5896 16.7826C34.2062 16.4309 33.3243 15.7449 33.1296 15.6468C32.9988 15.581 32.9794 15.5822 32.8989 15.6606C32.8246 15.7329 32.8089 15.8414 32.7987 16.3548C32.7826 17.1549 32.6711 17.6684 32.4021 18.1819C32.2564 18.4597 32.2334 18.4004 32.3651 18.0869C32.4635 17.8528 32.4734 17.75 32.4728 16.9754C32.4712 15.4192 32.2823 15.0451 31.1745 14.4041C30.8939 14.2418 30.4313 14.0076 30.1468 13.8838C29.8622 13.7599 29.6362 13.652 29.6444 13.644C29.6758 13.6134 30.7562 13.9218 31.1912 14.0855C31.8381 14.3288 31.9448 14.3603 32.0233 14.331C32.0762 14.3113 32.1016 14.1613 32.1271 13.7204Z" fill="#D83FA4"/>
<path d="M19.2131 16.3831C18.4345 15.3349 17.9528 13.7276 18.0571 12.5261L18.0893 12.1543L18.2665 12.1859C18.5994 12.2453 19.1732 12.4542 19.4419 12.6138C20.1793 13.0517 20.4986 13.6283 20.8233 15.109C20.9185 15.5427 21.0433 16.0335 21.1007 16.1996C21.1932 16.4671 21.5426 17.0918 21.8266 17.4975C22.0312 17.7897 21.8953 17.9281 21.443 17.8882C20.7523 17.8272 19.8167 17.1958 19.2131 16.3831Z" fill="#D83FA4"/>
<path d="M31.1828 24.1847C27.5442 22.752 26.2627 21.5084 26.2627 19.4101C26.2627 19.1013 26.2736 18.8486 26.2868 18.8486C26.3001 18.8486 26.4409 18.9505 26.5997 19.0751C27.3375 19.6539 28.1638 19.901 30.4511 20.2274C31.7971 20.4194 32.5546 20.5745 33.2533 20.8011C35.4741 21.5214 36.8482 22.9832 37.1759 24.9741C37.2712 25.5526 37.2153 26.6375 37.0609 27.2093C36.9391 27.6609 36.5671 28.475 36.4684 28.5063C36.4411 28.5149 36.4144 28.4123 36.4072 28.2729C36.3699 27.5252 35.9836 26.7974 35.3349 26.2522C34.5972 25.6324 33.6062 25.1388 31.1828 24.1847Z" fill="#D83FA4"/>
<path d="M28.6286 24.7803C28.583 24.515 28.5039 24.1761 28.4529 24.0273L28.36 23.7568L28.5325 23.9461C28.7711 24.2081 28.9597 24.5433 29.1195 24.9897C29.2415 25.3305 29.2553 25.4318 29.2543 25.9855C29.2534 26.5291 29.2382 26.6431 29.1255 26.9498C28.9479 27.4334 28.7275 27.7763 28.3576 28.1444C27.6929 28.806 26.8384 29.1722 25.6052 29.3242C25.3908 29.3504 24.7661 29.395 24.2168 29.4229C22.8326 29.4933 21.9216 29.6388 21.103 29.92C20.9853 29.9603 20.8802 29.985 20.8696 29.9745C20.8364 29.9422 21.3938 29.6173 21.8541 29.4004C22.5033 29.0946 23.1494 28.9278 24.5972 28.692C25.3124 28.5754 26.0509 28.4342 26.2385 28.378C28.0096 27.8469 28.92 26.4765 28.6286 24.7803Z" fill="#D83FA4"/>
<path d="M30.2966 27.6765C29.8131 26.6602 29.7021 25.6789 29.967 24.7638C29.9953 24.666 30.0409 24.5859 30.0683 24.5859C30.0957 24.5859 30.2098 24.6462 30.3218 24.7199C30.5446 24.8666 30.9914 25.1136 32.1817 25.7483C33.6671 26.5403 34.5141 27.1536 35.09 27.8542C35.5944 28.4678 35.9064 29.1667 36.0568 30.019C36.1418 30.5016 36.0918 31.6631 35.9652 32.1491C35.5658 33.6819 34.6377 34.8857 33.3138 35.5883C33.1199 35.6912 32.9457 35.7757 32.9269 35.7761C32.908 35.7765 32.9787 35.6007 33.084 35.3856C33.5292 34.4751 33.58 33.5896 33.2433 32.6038C33.0371 32.0002 32.6167 31.2637 31.7681 30.019C30.7812 28.5719 30.5393 28.1868 30.2966 27.6765Z" fill="#D83FA4"/>
<path d="M16.629 33.1603C17.9793 32.0454 19.6594 31.2533 21.1898 31.0101C21.8493 30.9054 22.948 30.9469 23.5588 31.0998C24.5378 31.3448 25.4135 31.8937 25.8689 32.5475C26.314 33.1864 26.505 33.7433 26.7038 34.9822C26.7823 35.4711 26.8675 35.9617 26.8934 36.0729C27.0427 36.7151 27.3332 37.2282 27.6933 37.486C28.2651 37.8954 29.2499 37.9207 30.2186 37.5513C30.383 37.4885 30.5257 37.4451 30.5357 37.4549C30.5709 37.4891 30.0831 37.8083 29.739 37.9765C29.2759 38.2026 28.9077 38.2901 28.4185 38.2901C27.5313 38.2901 26.7947 37.8489 26.1801 36.9488C26.0591 36.7716 25.7873 36.2413 25.576 35.7699C24.927 34.3224 24.6066 33.8816 23.8531 33.3989C23.1974 32.9791 22.3518 32.9039 21.7156 33.2089C20.8799 33.6096 20.6468 34.6539 21.2453 35.3158C21.4832 35.5788 21.9268 35.8056 22.2895 35.8498C22.9681 35.9324 23.5513 35.4275 23.5513 34.7575C23.5513 34.3224 23.3803 34.0742 22.9498 33.8842C22.3619 33.6247 21.73 33.9281 21.733 34.4681C21.7343 34.6985 21.8369 34.843 22.073 34.9475C22.2244 35.0146 22.2279 35.0198 22.1044 34.9947C21.565 34.8853 21.4387 34.2494 21.8724 33.8272C22.3931 33.3205 23.4698 33.544 23.8396 34.2359C23.9949 34.5265 24.0129 35.1053 23.8775 35.4546C23.5744 36.2369 22.6906 36.648 21.7941 36.4243C21.1837 36.2718 20.9351 36.1068 20.1992 35.3655C18.9204 34.0772 18.4239 33.8276 16.5803 33.5462L16.227 33.4922L16.629 33.1603Z" fill="#D83FA4"/>
<path fill-rule="evenodd" clip-rule="evenodd" d="M10.6289 10.1036C14.8996 15.1725 17.841 17.2639 18.1679 17.7057C18.4377 18.0706 18.3362 18.3986 17.8738 18.6556C17.6167 18.7985 17.0881 18.9434 16.8234 18.9434C16.5241 18.9434 16.4213 18.8304 16.4213 18.8304C16.2477 18.6694 16.15 18.6976 15.2586 17.1503C14.0212 15.2726 12.9856 13.7148 12.9573 13.6888C12.892 13.6285 12.8931 13.6305 15.1325 17.5488C15.4943 18.3655 15.2044 18.6653 15.2044 18.7816C15.2044 19.0182 15.1384 19.1426 14.8399 19.4682C14.3424 20.011 14.1199 20.621 13.9594 21.8833C13.7794 23.2984 13.2732 24.298 11.8705 26.0087C11.0494 27.0102 10.9151 27.1937 10.7079 27.5973C10.4469 28.1056 10.3752 28.3903 10.3461 29.0321C10.3154 29.7108 10.3752 30.1492 10.5872 30.798C10.7728 31.3661 10.9666 31.7412 11.4619 32.4913C11.8893 33.1387 12.1354 33.6199 12.1354 33.8081C12.1354 33.9578 12.1646 33.958 12.827 33.8117C14.412 33.4618 15.699 32.8461 16.4229 32.0916C16.8709 31.6246 16.9761 31.3667 16.9795 30.727C16.9817 30.3084 16.9667 30.2207 16.851 29.9799C16.6626 29.588 16.3198 29.2621 15.5641 28.757C14.574 28.095 14.1511 27.5621 14.0343 26.8293C13.9384 26.2279 14.0496 25.8037 14.5973 24.681C15.1643 23.5189 15.3048 23.0237 15.3998 21.8524C15.4612 21.0956 15.5462 20.7972 15.7686 20.5576C16.0004 20.3078 16.2092 20.2232 16.783 20.1465C17.7186 20.0216 18.3144 19.7849 18.804 19.3436C19.2288 18.9607 19.4066 18.5919 19.4339 18.0366L19.4546 17.6157L19.2172 17.3451C18.3575 16.3648 10.0532 9.33301 10.0003 9.33301C9.98901 9.33301 10.2719 9.67978 10.6289 10.1036ZM12.618 29.8001C12.8123 29.4633 12.7091 29.0307 12.3839 28.8192C12.0767 28.6195 11.5995 28.7136 11.5995 28.9739C11.5995 29.0534 11.6444 29.1112 11.7457 29.1621C11.9161 29.2478 11.9285 29.3443 11.7944 29.5414C11.6586 29.7411 11.6695 29.9167 11.8253 30.0359C12.0764 30.2281 12.4318 30.1224 12.618 29.8001Z" fill="#D83FA4"/>
<path fill-rule="evenodd" clip-rule="evenodd" d="M20.045 20.3673C19.6058 20.4992 19.1788 20.9544 19.0467 21.4318C18.966 21.7229 19.0118 22.2337 19.1325 22.3915C19.3276 22.6463 19.5163 22.7134 20.0272 22.7099C21.0274 22.7031 21.8969 22.2836 21.998 21.7591C22.0809 21.3292 21.699 20.7334 21.173 20.4719C20.9015 20.337 20.3243 20.2835 20.045 20.3673ZM21.2142 21.2614C21.3685 21.0471 21.301 20.8154 21.0387 20.6588C20.5391 20.3605 19.7836 20.6073 19.7836 21.0689C19.7836 21.2986 20.1776 21.5492 20.5387 21.5492C20.7791 21.5492 21.108 21.4091 21.2142 21.2614Z" fill="#D83FA4"/>
<defs>
<linearGradient id="paint0_linear" x1="0" y1="24" x2="48" y2="24" gradientUnits="userSpaceOnUse">
<stop stop-color="#6F45FF"/>
<stop offset="1" stop-color="#FF6365"/>
</linearGradient>
</defs>
</svg>
